%TF.GenerationSoftware,KiCad,Pcbnew,10.0.4-10.0.4~ubuntu25.10.1*%
%TF.CreationDate,2026-07-28T04:31:22+00:00*%
%TF.ProjectId,TAPRX-888,54415052-582d-4383-9838-2e6b69636164,DEV*%
%TF.SameCoordinates,Original*%
%TF.FileFunction,Other,User*%
%FSLAX46Y46*%
G04 Gerber Fmt 4.6, Leading zero omitted, Abs format (unit mm)*
G04 Created by KiCad (PCBNEW 10.0.4-10.0.4~ubuntu25.10.1) date 2026-07-28 04:31:22*
%MOMM*%
%LPD*%
G01*
G04 APERTURE LIST*
%ADD10C,0.050000*%
%ADD11C,0.120000*%
G04 APERTURE END LIST*
%TO.C,R2*%
D10*
X139600000Y-95350000D02*
X139600000Y-96650000D01*
X139600000Y-95350000D02*
X142400000Y-95350000D01*
X142400000Y-96650000D02*
X139600000Y-96650000D01*
X142400000Y-96650000D02*
X142400000Y-95350000D01*
%TO.C,R27*%
X141350000Y-57400000D02*
X141350000Y-54600000D01*
X141350000Y-57400000D02*
X142650000Y-57400000D01*
X142650000Y-54600000D02*
X141350000Y-54600000D01*
X142650000Y-54600000D02*
X142650000Y-57400000D01*
%TO.C,C22*%
X137350000Y-72400000D02*
X137350000Y-69600000D01*
X137350000Y-72400000D02*
X138650000Y-72400000D01*
X138650000Y-69600000D02*
X137350000Y-69600000D01*
X138650000Y-69600000D02*
X138650000Y-72400000D01*
%TO.C,R12*%
X153350000Y-87600000D02*
X155650000Y-87600000D01*
X153350000Y-89400000D02*
X153350000Y-87600000D01*
X155650000Y-87600000D02*
X155650000Y-89400000D01*
X155650000Y-89400000D02*
X153350000Y-89400000D01*
%TO.C,R54*%
X159600000Y-108350000D02*
X159600000Y-109650000D01*
X159600000Y-108350000D02*
X162400000Y-108350000D01*
X162400000Y-109650000D02*
X159600000Y-109650000D01*
X162400000Y-109650000D02*
X162400000Y-108350000D01*
%TO.C,Q3*%
X164800000Y-111300000D02*
X168200000Y-111300000D01*
X164800000Y-114800000D02*
X164800000Y-111300000D01*
X168200000Y-111300000D02*
X168200000Y-114800000D01*
X168200000Y-114800000D02*
X164800000Y-114800000D01*
%TO.C,U7*%
X155100000Y-69150000D02*
X158900000Y-69150000D01*
X155100000Y-70850000D02*
X155100000Y-69150000D01*
X158900000Y-69150000D02*
X158900000Y-70850000D01*
X158900000Y-70850000D02*
X155100000Y-70850000D01*
%TO.C,C61*%
X123350000Y-130400000D02*
X123350000Y-127600000D01*
X123350000Y-130400000D02*
X124650000Y-130400000D01*
X124650000Y-127600000D02*
X123350000Y-127600000D01*
X124650000Y-127600000D02*
X124650000Y-130400000D01*
%TO.C,J6*%
X122660000Y-88200000D02*
X122660000Y-91800000D01*
X122660000Y-91800000D02*
X131460000Y-91800000D01*
X131460000Y-88200000D02*
X122660000Y-88200000D01*
X131460000Y-91800000D02*
X131460000Y-88200000D01*
%TO.C,C5*%
X147600000Y-93350000D02*
X147600000Y-94650000D01*
X147600000Y-93350000D02*
X150400000Y-93350000D01*
X150400000Y-94650000D02*
X147600000Y-94650000D01*
X150400000Y-94650000D02*
X150400000Y-93350000D01*
%TO.C,R30*%
X140350000Y-140400000D02*
X140350000Y-137600000D01*
X140350000Y-140400000D02*
X141650000Y-140400000D01*
X141650000Y-137600000D02*
X140350000Y-137600000D01*
X141650000Y-137600000D02*
X141650000Y-140400000D01*
%TO.C,C75*%
X156600000Y-113350000D02*
X156600000Y-114650000D01*
X156600000Y-113350000D02*
X159400000Y-113350000D01*
X159400000Y-114650000D02*
X156600000Y-114650000D01*
X159400000Y-114650000D02*
X159400000Y-113350000D01*
%TO.C,R31*%
X107600000Y-129350000D02*
X107600000Y-130650000D01*
X107600000Y-129350000D02*
X110400000Y-129350000D01*
X110400000Y-130650000D02*
X107600000Y-130650000D01*
X110400000Y-130650000D02*
X110400000Y-129350000D01*
%TO.C,R61*%
X148600000Y-97900000D02*
X148600000Y-95100000D01*
X148600000Y-97900000D02*
X149900000Y-97900000D01*
X149900000Y-95100000D02*
X148600000Y-95100000D01*
X149900000Y-95100000D02*
X149900000Y-97900000D01*
%TO.C,R17*%
X164100000Y-71150000D02*
X164100000Y-68350000D01*
X164100000Y-71150000D02*
X165400000Y-71150000D01*
X165400000Y-68350000D02*
X164100000Y-68350000D01*
X165400000Y-68350000D02*
X165400000Y-71150000D01*
%TO.C,U6*%
X143190000Y-122300000D02*
X150810000Y-122300000D01*
X143190000Y-127700000D02*
X143190000Y-122300000D01*
X150810000Y-122300000D02*
X150810000Y-127700000D01*
X150810000Y-127700000D02*
X143190000Y-127700000D01*
%TO.C,C17*%
X166850000Y-86350000D02*
X166850000Y-87650000D01*
X166850000Y-86350000D02*
X169650000Y-86350000D01*
X169650000Y-87650000D02*
X166850000Y-87650000D01*
X169650000Y-87650000D02*
X169650000Y-86350000D01*
%TO.C,C3*%
X166850000Y-80350000D02*
X166850000Y-81650000D01*
X166850000Y-80350000D02*
X169650000Y-80350000D01*
X169650000Y-81650000D02*
X166850000Y-81650000D01*
X169650000Y-81650000D02*
X169650000Y-80350000D01*
%TO.C,C27*%
X147600000Y-119350000D02*
X147600000Y-120650000D01*
X147600000Y-119350000D02*
X150400000Y-119350000D01*
X150400000Y-120650000D02*
X147600000Y-120650000D01*
X150400000Y-120650000D02*
X150400000Y-119350000D01*
%TO.C,C34*%
X168600000Y-74350000D02*
X168600000Y-75650000D01*
X168600000Y-74350000D02*
X171400000Y-74350000D01*
X171400000Y-75650000D02*
X168600000Y-75650000D01*
X171400000Y-75650000D02*
X171400000Y-74350000D01*
%TO.C,U11*%
X150750000Y-75750000D02*
X161250000Y-75750000D01*
X150750000Y-86250000D02*
X150750000Y-75750000D01*
X161250000Y-75750000D02*
X161250000Y-86250000D01*
X161250000Y-86250000D02*
X150750000Y-86250000D01*
%TO.C,L9*%
X114480000Y-127100000D02*
X117520000Y-127100000D01*
X114480000Y-130900000D02*
X114480000Y-127100000D01*
X117520000Y-127100000D02*
X117520000Y-130900000D01*
X117520000Y-130900000D02*
X114480000Y-130900000D01*
%TO.C,U2*%
X109550000Y-55550000D02*
X109550000Y-64450000D01*
X109550000Y-64450000D02*
X116450000Y-64450000D01*
X116450000Y-55550000D02*
X109550000Y-55550000D01*
X116450000Y-55550000D02*
X116450000Y-64450000D01*
%TO.C,C21*%
X150600000Y-100350000D02*
X150600000Y-101650000D01*
X150600000Y-100350000D02*
X153400000Y-100350000D01*
X153400000Y-101650000D02*
X150600000Y-101650000D01*
X153400000Y-101650000D02*
X153400000Y-100350000D01*
%TO.C,C76*%
X158550000Y-103350000D02*
X158550000Y-104650000D01*
X158550000Y-103350000D02*
X161350000Y-103350000D01*
X161350000Y-104650000D02*
X158550000Y-104650000D01*
X161350000Y-104650000D02*
X161350000Y-103350000D01*
%TO.C,R4*%
X143600000Y-93350000D02*
X143600000Y-94650000D01*
X143600000Y-93350000D02*
X146400000Y-93350000D01*
X146400000Y-94650000D02*
X143600000Y-94650000D01*
X146400000Y-94650000D02*
X146400000Y-93350000D01*
%TO.C,R32*%
X103350000Y-130400000D02*
X103350000Y-127600000D01*
X103350000Y-130400000D02*
X104650000Y-130400000D01*
X104650000Y-127600000D02*
X103350000Y-127600000D01*
X104650000Y-127600000D02*
X104650000Y-130400000D01*
%TO.C,TP20*%
D11*
X165000000Y-80500000D02*
X165000000Y-81500000D01*
X165000000Y-81500000D02*
X166000000Y-81500000D01*
X166000000Y-80500000D02*
X165000000Y-80500000D01*
X166000000Y-81500000D02*
X166000000Y-80500000D01*
%TO.C,R7*%
D10*
X121600000Y-83350000D02*
X121600000Y-84650000D01*
X121600000Y-83350000D02*
X124400000Y-83350000D01*
X124400000Y-84650000D02*
X121600000Y-84650000D01*
X124400000Y-84650000D02*
X124400000Y-83350000D01*
%TO.C,R16*%
X165600000Y-71150000D02*
X165600000Y-68350000D01*
X165600000Y-71150000D02*
X166900000Y-71150000D01*
X166900000Y-68350000D02*
X165600000Y-68350000D01*
X166900000Y-68350000D02*
X166900000Y-71150000D01*
%TO.C,R13*%
X161350000Y-75400000D02*
X161350000Y-72600000D01*
X161350000Y-75400000D02*
X162650000Y-75400000D01*
X162650000Y-72600000D02*
X161350000Y-72600000D01*
X162650000Y-72600000D02*
X162650000Y-75400000D01*
%TO.C,U12*%
X147300000Y-133250000D02*
X150700000Y-133250000D01*
X147300000Y-136750000D02*
X147300000Y-133250000D01*
X150700000Y-133250000D02*
X150700000Y-136750000D01*
X150700000Y-136750000D02*
X147300000Y-136750000D01*
%TO.C,C6*%
X164600000Y-76350000D02*
X164600000Y-77650000D01*
X164600000Y-76350000D02*
X167400000Y-76350000D01*
X167400000Y-77650000D02*
X164600000Y-77650000D01*
X167400000Y-77650000D02*
X167400000Y-76350000D01*
%TO.C,R50*%
X160600000Y-123350000D02*
X160600000Y-124650000D01*
X160600000Y-123350000D02*
X163400000Y-123350000D01*
X163400000Y-124650000D02*
X160600000Y-124650000D01*
X163400000Y-124650000D02*
X163400000Y-123350000D01*
%TO.C,C9*%
X166850000Y-82350000D02*
X166850000Y-83650000D01*
X166850000Y-82350000D02*
X169650000Y-82350000D01*
X169650000Y-83650000D02*
X166850000Y-83650000D01*
X169650000Y-83650000D02*
X169650000Y-82350000D01*
%TO.C,R1*%
X139600000Y-91350000D02*
X139600000Y-92650000D01*
X139600000Y-91350000D02*
X142400000Y-91350000D01*
X142400000Y-92650000D02*
X139600000Y-92650000D01*
X142400000Y-92650000D02*
X142400000Y-91350000D01*
%TO.C,L13*%
X126480000Y-119100000D02*
X129520000Y-119100000D01*
X126480000Y-122900000D02*
X126480000Y-119100000D01*
X129520000Y-119100000D02*
X129520000Y-122900000D01*
X129520000Y-122900000D02*
X126480000Y-122900000D01*
%TO.C,L4*%
X168750000Y-73710000D02*
X168750000Y-72290000D01*
X168890000Y-72290000D02*
X168750000Y-72290000D01*
X168890000Y-72290000D02*
X171110000Y-72290000D01*
X168890000Y-73710000D02*
X168750000Y-73710000D01*
X171110000Y-72290000D02*
X171250000Y-72290000D01*
X171110000Y-73710000D02*
X168890000Y-73710000D01*
X171110000Y-73710000D02*
X171250000Y-73710000D01*
X171250000Y-72290000D02*
X171250000Y-73710000D01*
%TO.C,C65*%
X168600000Y-95475000D02*
X168600000Y-96775000D01*
X168600000Y-95475000D02*
X171400000Y-95475000D01*
X171400000Y-96775000D02*
X168600000Y-96775000D01*
X171400000Y-96775000D02*
X171400000Y-95475000D01*
%TO.C,C24*%
X158600000Y-100350000D02*
X158600000Y-101650000D01*
X158600000Y-100350000D02*
X161400000Y-100350000D01*
X161400000Y-101650000D02*
X158600000Y-101650000D01*
X161400000Y-101650000D02*
X161400000Y-100350000D01*
%TO.C,R28*%
X149350000Y-140400000D02*
X149350000Y-137600000D01*
X149350000Y-140400000D02*
X150650000Y-140400000D01*
X150650000Y-137600000D02*
X149350000Y-137600000D01*
X150650000Y-137600000D02*
X150650000Y-140400000D01*
%TO.C,R20*%
X144600000Y-84350000D02*
X144600000Y-85650000D01*
X144600000Y-84350000D02*
X147400000Y-84350000D01*
X147400000Y-85650000D02*
X144600000Y-85650000D01*
X147400000Y-85650000D02*
X147400000Y-84350000D01*
%TO.C,C47*%
X147600000Y-72350000D02*
X147600000Y-73650000D01*
X147600000Y-72350000D02*
X150400000Y-72350000D01*
X150400000Y-73650000D02*
X147600000Y-73650000D01*
X150400000Y-73650000D02*
X150400000Y-72350000D01*
%TO.C,C12*%
X138800000Y-115450000D02*
X138800000Y-116750000D01*
X138800000Y-115450000D02*
X141600000Y-115450000D01*
X141600000Y-116750000D02*
X138800000Y-116750000D01*
X141600000Y-116750000D02*
X141600000Y-115450000D01*
%TO.C,J2*%
X143486483Y-143125996D02*
X150486483Y-143125996D01*
X143486483Y-157375996D02*
X143486483Y-143125996D01*
X150486483Y-143125996D02*
X150486483Y-157395996D01*
X150486483Y-157395996D02*
X143486483Y-157375996D01*
%TO.C,C48*%
X110350000Y-140400000D02*
X110350000Y-137600000D01*
X110350000Y-140400000D02*
X111650000Y-140400000D01*
X111650000Y-137600000D02*
X110350000Y-137600000D01*
X111650000Y-137600000D02*
X111650000Y-140400000D01*
%TO.C,C41*%
X147600000Y-76850000D02*
X147600000Y-78150000D01*
X147600000Y-76850000D02*
X150400000Y-76850000D01*
X150400000Y-78150000D02*
X147600000Y-78150000D01*
X150400000Y-78150000D02*
X150400000Y-76850000D01*
%TO.C,J1*%
X107500000Y-142946611D02*
X114500000Y-142946611D01*
X107500000Y-157196611D02*
X107500000Y-142946611D01*
X114500000Y-142946611D02*
X114500000Y-157216611D01*
X114500000Y-157216611D02*
X107500000Y-157196611D01*
%TO.C,L7*%
X144750000Y-76510000D02*
X144750000Y-75090000D01*
X144890000Y-75090000D02*
X144750000Y-75090000D01*
X144890000Y-75090000D02*
X147110000Y-75090000D01*
X144890000Y-76510000D02*
X144750000Y-76510000D01*
X147110000Y-75090000D02*
X147250000Y-75090000D01*
X147110000Y-76510000D02*
X144890000Y-76510000D01*
X147110000Y-76510000D02*
X147250000Y-76510000D01*
X147250000Y-75090000D02*
X147250000Y-76510000D01*
%TO.C,C20*%
X143600000Y-129350000D02*
X143600000Y-130650000D01*
X143600000Y-129350000D02*
X146400000Y-129350000D01*
X146400000Y-130650000D02*
X143600000Y-130650000D01*
X146400000Y-130650000D02*
X146400000Y-129350000D01*
%TO.C,C35*%
X134600000Y-84350000D02*
X134600000Y-85650000D01*
X134600000Y-84350000D02*
X137400000Y-84350000D01*
X137400000Y-85650000D02*
X134600000Y-85650000D01*
X137400000Y-85650000D02*
X137400000Y-84350000D01*
%TO.C,C10*%
X144150000Y-73350000D02*
X144150000Y-74650000D01*
X144150000Y-73350000D02*
X146950000Y-73350000D01*
X146950000Y-74650000D02*
X144150000Y-74650000D01*
X146950000Y-74650000D02*
X146950000Y-73350000D01*
%TO.C,U5*%
X129550000Y-69550000D02*
X129550000Y-78450000D01*
X129550000Y-78450000D02*
X136450000Y-78450000D01*
X136450000Y-69550000D02*
X129550000Y-69550000D01*
X136450000Y-69550000D02*
X136450000Y-78450000D01*
%TO.C,C37*%
X117350000Y-75400000D02*
X117350000Y-72600000D01*
X117350000Y-75400000D02*
X118650000Y-75400000D01*
X118650000Y-72600000D02*
X117350000Y-72600000D01*
X118650000Y-72600000D02*
X118650000Y-75400000D01*
%TO.C,D1*%
X107100000Y-64900000D02*
X107100000Y-69300000D01*
X107100000Y-69300000D02*
X108900000Y-69300000D01*
X108900000Y-64900000D02*
X107100000Y-64900000D01*
X108900000Y-69300000D02*
X108900000Y-64900000D01*
%TO.C,R11*%
X156350000Y-87600000D02*
X158650000Y-87600000D01*
X156350000Y-89400000D02*
X156350000Y-87600000D01*
X158650000Y-87600000D02*
X158650000Y-89400000D01*
X158650000Y-89400000D02*
X156350000Y-89400000D01*
%TO.C,R56*%
X149100000Y-103850000D02*
X149100000Y-105150000D01*
X149100000Y-103850000D02*
X151900000Y-103850000D01*
X151900000Y-105150000D02*
X149100000Y-105150000D01*
X151900000Y-105150000D02*
X151900000Y-103850000D01*
%TO.C,C1*%
X147600000Y-91350000D02*
X147600000Y-92650000D01*
X147600000Y-91350000D02*
X150400000Y-91350000D01*
X150400000Y-92650000D02*
X147600000Y-92650000D01*
X150400000Y-92650000D02*
X150400000Y-91350000D01*
%TO.C,R48*%
X163600000Y-132350000D02*
X163600000Y-133650000D01*
X163600000Y-132350000D02*
X166400000Y-132350000D01*
X166400000Y-133650000D02*
X163600000Y-133650000D01*
X166400000Y-133650000D02*
X166400000Y-132350000D01*
%TO.C,C68*%
X160600000Y-129350000D02*
X160600000Y-130650000D01*
X160600000Y-129350000D02*
X163400000Y-129350000D01*
X163400000Y-130650000D02*
X160600000Y-130650000D01*
X163400000Y-130650000D02*
X163400000Y-129350000D01*
%TO.C,R9*%
X161250000Y-92350000D02*
X163050000Y-92350000D01*
X161250000Y-94650000D02*
X161250000Y-92350000D01*
X163050000Y-92350000D02*
X163050000Y-94650000D01*
X163050000Y-94650000D02*
X161250000Y-94650000D01*
%TO.C,R14*%
X150600000Y-72350000D02*
X150600000Y-73650000D01*
X150600000Y-72350000D02*
X153400000Y-72350000D01*
X153400000Y-73650000D02*
X150600000Y-73650000D01*
X153400000Y-73650000D02*
X153400000Y-72350000D01*
%TO.C,U3*%
X129550000Y-55550000D02*
X129550000Y-64450000D01*
X129550000Y-64450000D02*
X136450000Y-64450000D01*
X136450000Y-55550000D02*
X129550000Y-55550000D01*
X136450000Y-55550000D02*
X136450000Y-64450000D01*
%TO.C,C45*%
X147850000Y-82300000D02*
X147850000Y-83600000D01*
X147850000Y-82300000D02*
X150650000Y-82300000D01*
X150650000Y-83600000D02*
X147850000Y-83600000D01*
X150650000Y-83600000D02*
X150650000Y-82300000D01*
%TO.C,J10*%
X144660000Y-102975000D02*
X144660000Y-107575000D01*
X144660000Y-107575000D02*
X148660000Y-107575000D01*
X148660000Y-102975000D02*
X144660000Y-102975000D01*
X148660000Y-107575000D02*
X148660000Y-102975000D01*
%TO.C,C63*%
X167600000Y-126350000D02*
X167600000Y-127650000D01*
X167600000Y-126350000D02*
X170400000Y-126350000D01*
X170400000Y-127650000D02*
X167600000Y-127650000D01*
X170400000Y-127650000D02*
X170400000Y-126350000D01*
%TO.C,C72*%
X167600000Y-119350000D02*
X167600000Y-120650000D01*
X167600000Y-119350000D02*
X170400000Y-119350000D01*
X170400000Y-120650000D02*
X167600000Y-120650000D01*
X170400000Y-120650000D02*
X170400000Y-119350000D01*
%TO.C,D2*%
X117100000Y-64900000D02*
X117100000Y-69300000D01*
X117100000Y-69300000D02*
X118900000Y-69300000D01*
X118900000Y-64900000D02*
X117100000Y-64900000D01*
X118900000Y-69300000D02*
X118900000Y-64900000D01*
%TO.C,C58*%
X122600000Y-115350000D02*
X122600000Y-116650000D01*
X122600000Y-115350000D02*
X125400000Y-115350000D01*
X125400000Y-116650000D02*
X122600000Y-116650000D01*
X125400000Y-116650000D02*
X125400000Y-115350000D01*
%TO.C,C26*%
X143600000Y-119350000D02*
X143600000Y-120650000D01*
X143600000Y-119350000D02*
X146400000Y-119350000D01*
X146400000Y-120650000D02*
X143600000Y-120650000D01*
X146400000Y-120650000D02*
X146400000Y-119350000D01*
%TO.C,D3*%
X136200000Y-50950000D02*
X139800000Y-50950000D01*
X139800000Y-53150000D01*
X136200000Y-53150000D01*
X136200000Y-50950000D01*
%TO.C,R37*%
X103350000Y-122400000D02*
X103350000Y-119600000D01*
X103350000Y-122400000D02*
X104650000Y-122400000D01*
X104650000Y-119600000D02*
X103350000Y-119600000D01*
X104650000Y-119600000D02*
X104650000Y-122400000D01*
%TO.C,R5*%
X143600000Y-97350000D02*
X143600000Y-98650000D01*
X143600000Y-97350000D02*
X146400000Y-97350000D01*
X146400000Y-98650000D02*
X143600000Y-98650000D01*
X146400000Y-98650000D02*
X146400000Y-97350000D01*
%TO.C,C69*%
X168600000Y-113350000D02*
X168600000Y-114650000D01*
X168600000Y-113350000D02*
X171400000Y-113350000D01*
X171400000Y-114650000D02*
X168600000Y-114650000D01*
X171400000Y-114650000D02*
X171400000Y-113350000D01*
%TO.C,C8*%
X147600000Y-98350000D02*
X147600000Y-99650000D01*
X147600000Y-98350000D02*
X150400000Y-98350000D01*
X150400000Y-99650000D02*
X147600000Y-99650000D01*
X150400000Y-99650000D02*
X150400000Y-98350000D01*
%TO.C,U21*%
X156375000Y-117625000D02*
X156375000Y-115125000D01*
X156375000Y-117625000D02*
X159775000Y-117625000D01*
X159775000Y-115125000D02*
X156375000Y-115125000D01*
X159775000Y-115125000D02*
X159775000Y-117625000D01*
%TO.C,R23*%
X141100000Y-86350000D02*
X141100000Y-87650000D01*
X141100000Y-86350000D02*
X143900000Y-86350000D01*
X143900000Y-87650000D02*
X141100000Y-87650000D01*
X143900000Y-87650000D02*
X143900000Y-86350000D01*
%TO.C,C7*%
X166850000Y-84350000D02*
X166850000Y-85650000D01*
X166850000Y-84350000D02*
X169650000Y-84350000D01*
X169650000Y-85650000D02*
X166850000Y-85650000D01*
X169650000Y-85650000D02*
X169650000Y-84350000D01*
%TO.C,C13*%
X107350000Y-73400000D02*
X107350000Y-70600000D01*
X107350000Y-73400000D02*
X108650000Y-73400000D01*
X108650000Y-70600000D02*
X107350000Y-70600000D01*
X108650000Y-70600000D02*
X108650000Y-73400000D01*
%TO.C,Z1*%
X150445000Y-69340000D02*
X153445000Y-69340000D01*
X150445000Y-70660000D02*
X150445000Y-69340000D01*
X153435000Y-70660000D02*
X150445000Y-70660000D01*
X153445000Y-69340000D02*
X153445000Y-70660000D01*
%TO.C,R15*%
X167100000Y-71150000D02*
X167100000Y-68350000D01*
X167100000Y-71150000D02*
X168400000Y-71150000D01*
X168400000Y-68350000D02*
X167100000Y-68350000D01*
X168400000Y-68350000D02*
X168400000Y-71150000D01*
%TO.C,R43*%
X166600000Y-138350000D02*
X166600000Y-139650000D01*
X166600000Y-138350000D02*
X169400000Y-138350000D01*
X169400000Y-139650000D02*
X166600000Y-139650000D01*
X169400000Y-139650000D02*
X169400000Y-138350000D01*
%TO.C,C52*%
X105350000Y-130400000D02*
X105350000Y-127600000D01*
X105350000Y-130400000D02*
X106650000Y-130400000D01*
X106650000Y-127600000D02*
X105350000Y-127600000D01*
X106650000Y-127600000D02*
X106650000Y-130400000D01*
%TO.C,R19*%
X141100000Y-82350000D02*
X141100000Y-83650000D01*
X141100000Y-82350000D02*
X143900000Y-82350000D01*
X143900000Y-83650000D02*
X141100000Y-83650000D01*
X143900000Y-83650000D02*
X143900000Y-82350000D01*
%TO.C,C2*%
X148600000Y-86350000D02*
X148600000Y-87650000D01*
X148600000Y-86350000D02*
X151400000Y-86350000D01*
X151400000Y-87650000D02*
X148600000Y-87650000D01*
X151400000Y-87650000D02*
X151400000Y-86350000D01*
%TO.C,R33*%
X111350000Y-130400000D02*
X111350000Y-127600000D01*
X111350000Y-130400000D02*
X112650000Y-130400000D01*
X112650000Y-127600000D02*
X111350000Y-127600000D01*
X112650000Y-127600000D02*
X112650000Y-130400000D01*
%TO.C,C46*%
X147600000Y-75150000D02*
X147600000Y-76450000D01*
X147600000Y-75150000D02*
X150400000Y-75150000D01*
X150400000Y-76450000D02*
X147600000Y-76450000D01*
X150400000Y-76450000D02*
X150400000Y-75150000D01*
%TO.C,R18*%
X144500000Y-82350000D02*
X144500000Y-83650000D01*
X144500000Y-82350000D02*
X147300000Y-82350000D01*
X147300000Y-83650000D02*
X144500000Y-83650000D01*
X147300000Y-83650000D02*
X147300000Y-82350000D01*
%TO.C,C11*%
X134600000Y-80350000D02*
X134600000Y-81650000D01*
X134600000Y-80350000D02*
X137400000Y-80350000D01*
X137400000Y-81650000D02*
X134600000Y-81650000D01*
X137400000Y-81650000D02*
X137400000Y-80350000D01*
%TO.C,C19*%
X147600000Y-129350000D02*
X147600000Y-130650000D01*
X147600000Y-129350000D02*
X150400000Y-129350000D01*
X150400000Y-130650000D02*
X147600000Y-130650000D01*
X150400000Y-130650000D02*
X150400000Y-129350000D01*
%TO.C,R25*%
X145350000Y-57400000D02*
X145350000Y-54600000D01*
X145350000Y-57400000D02*
X146650000Y-57400000D01*
X146650000Y-54600000D02*
X145350000Y-54600000D01*
X146650000Y-54600000D02*
X146650000Y-57400000D01*
%TO.C,U1*%
X109550000Y-69550000D02*
X109550000Y-78450000D01*
X109550000Y-78450000D02*
X116450000Y-78450000D01*
X116450000Y-69550000D02*
X109550000Y-69550000D01*
X116450000Y-69550000D02*
X116450000Y-78450000D01*
%TO.C,Q2*%
X156300000Y-123250000D02*
X159700000Y-123250000D01*
X156300000Y-126750000D02*
X156300000Y-123250000D01*
X159700000Y-123250000D02*
X159700000Y-126750000D01*
X159700000Y-126750000D02*
X156300000Y-126750000D01*
%TO.C,C32*%
X117350000Y-61400000D02*
X117350000Y-58600000D01*
X117350000Y-61400000D02*
X118650000Y-61400000D01*
X118650000Y-58600000D02*
X117350000Y-58600000D01*
X118650000Y-58600000D02*
X118650000Y-61400000D01*
%TO.C,C16*%
X147600000Y-100350000D02*
X147600000Y-101650000D01*
X147600000Y-100350000D02*
X150400000Y-100350000D01*
X150400000Y-101650000D02*
X147600000Y-101650000D01*
X150400000Y-101650000D02*
X150400000Y-100350000D01*
%TO.C,R8*%
X161250000Y-95150000D02*
X161250000Y-96450000D01*
X161250000Y-95150000D02*
X164050000Y-95150000D01*
X164050000Y-96450000D02*
X161250000Y-96450000D01*
X164050000Y-96450000D02*
X164050000Y-95150000D01*
%TO.C,C56*%
X126600000Y-115350000D02*
X126600000Y-116650000D01*
X126600000Y-115350000D02*
X129400000Y-115350000D01*
X129400000Y-116650000D02*
X126600000Y-116650000D01*
X129400000Y-116650000D02*
X129400000Y-115350000D01*
%TO.C,U4*%
X137900000Y-111175000D02*
X142100000Y-111175000D01*
X137900000Y-114825000D02*
X137900000Y-111175000D01*
X142100000Y-111175000D02*
X142100000Y-114825000D01*
X142100000Y-114825000D02*
X137900000Y-114825000D01*
%TO.C,C53*%
X122600000Y-99350000D02*
X122600000Y-100650000D01*
X122600000Y-99350000D02*
X125400000Y-99350000D01*
X125400000Y-100650000D02*
X122600000Y-100650000D01*
X125400000Y-100650000D02*
X125400000Y-99350000D01*
%TO.C,R6*%
X134600000Y-85850000D02*
X134600000Y-87150000D01*
X134600000Y-85850000D02*
X137400000Y-85850000D01*
X137400000Y-87150000D02*
X134600000Y-87150000D01*
X137400000Y-87150000D02*
X137400000Y-85850000D01*
%TO.C,J9*%
X122660000Y-132200000D02*
X122660000Y-135800000D01*
X122660000Y-135800000D02*
X131460000Y-135800000D01*
X131460000Y-132200000D02*
X122660000Y-132200000D01*
X131460000Y-135800000D02*
X131460000Y-132200000D01*
%TO.C,C77*%
X147850000Y-84350000D02*
X147850000Y-85650000D01*
X147850000Y-84350000D02*
X150650000Y-84350000D01*
X150650000Y-85650000D02*
X147850000Y-85650000D01*
X150650000Y-85650000D02*
X150650000Y-84350000D01*
%TO.C,R46*%
X157600000Y-135350000D02*
X157600000Y-136650000D01*
X157600000Y-135350000D02*
X160400000Y-135350000D01*
X160400000Y-136650000D02*
X157600000Y-136650000D01*
X160400000Y-136650000D02*
X160400000Y-135350000D01*
%TO.C,L10*%
X126480000Y-103100000D02*
X129520000Y-103100000D01*
X126480000Y-106900000D02*
X126480000Y-103100000D01*
X129520000Y-103100000D02*
X129520000Y-106900000D01*
X129520000Y-106900000D02*
X126480000Y-106900000D01*
%TO.C,R44*%
X160600000Y-132350000D02*
X160600000Y-133650000D01*
X160600000Y-132350000D02*
X163400000Y-132350000D01*
X163400000Y-133650000D02*
X160600000Y-133650000D01*
X163400000Y-133650000D02*
X163400000Y-132350000D01*
%TO.C,R58*%
X155350000Y-100350000D02*
X155350000Y-101650000D01*
X155350000Y-100350000D02*
X158150000Y-100350000D01*
X158150000Y-101650000D02*
X155350000Y-101650000D01*
X158150000Y-101650000D02*
X158150000Y-100350000D01*
%TO.C,U19*%
X167300000Y-124250000D02*
X167300000Y-121750000D01*
X167300000Y-124250000D02*
X170700000Y-124250000D01*
X170700000Y-121750000D02*
X167300000Y-121750000D01*
X170700000Y-121750000D02*
X170700000Y-124250000D01*
%TO.C,R51*%
X160600000Y-126350000D02*
X160600000Y-127650000D01*
X160600000Y-126350000D02*
X163400000Y-126350000D01*
X163400000Y-127650000D02*
X160600000Y-127650000D01*
X163400000Y-127650000D02*
X163400000Y-126350000D01*
%TO.C,C18*%
X139600000Y-123350000D02*
X139600000Y-124650000D01*
X139600000Y-123350000D02*
X142400000Y-123350000D01*
X142400000Y-124650000D02*
X139600000Y-124650000D01*
X142400000Y-124650000D02*
X142400000Y-123350000D01*
%TO.C,C25*%
X151600000Y-124350000D02*
X151600000Y-125650000D01*
X151600000Y-124350000D02*
X154400000Y-124350000D01*
X154400000Y-125650000D02*
X151600000Y-125650000D01*
X154400000Y-125650000D02*
X154400000Y-124350000D01*
%TO.C,C71*%
X163600000Y-117350000D02*
X163600000Y-118650000D01*
X163600000Y-117350000D02*
X166400000Y-117350000D01*
X166400000Y-118650000D02*
X163600000Y-118650000D01*
X166400000Y-118650000D02*
X166400000Y-117350000D01*
%TO.C,R22*%
X144600000Y-86350000D02*
X144600000Y-87650000D01*
X144600000Y-86350000D02*
X147400000Y-86350000D01*
X147400000Y-87650000D02*
X144600000Y-87650000D01*
X147400000Y-87650000D02*
X147400000Y-86350000D01*
%TO.C,L11*%
X126100000Y-111480000D02*
X129900000Y-111480000D01*
X126100000Y-114520000D02*
X126100000Y-111480000D01*
X129900000Y-111480000D02*
X129900000Y-114520000D01*
X129900000Y-114520000D02*
X126100000Y-114520000D01*
%TO.C,R53*%
X159600000Y-106350000D02*
X159600000Y-107650000D01*
X159600000Y-106350000D02*
X162400000Y-106350000D01*
X162400000Y-107650000D02*
X159600000Y-107650000D01*
X162400000Y-107650000D02*
X162400000Y-106350000D01*
%TO.C,U22*%
X153900000Y-102525000D02*
X158100000Y-102525000D01*
X153900000Y-106175000D02*
X153900000Y-102525000D01*
X158100000Y-102525000D02*
X158100000Y-106175000D01*
X158100000Y-106175000D02*
X153900000Y-106175000D01*
%TO.C,L6*%
X144750000Y-79710000D02*
X144750000Y-78290000D01*
X144890000Y-78290000D02*
X144750000Y-78290000D01*
X144890000Y-78290000D02*
X147110000Y-78290000D01*
X144890000Y-79710000D02*
X144750000Y-79710000D01*
X147110000Y-78290000D02*
X147250000Y-78290000D01*
X147110000Y-79710000D02*
X144890000Y-79710000D01*
X147110000Y-79710000D02*
X147250000Y-79710000D01*
X147250000Y-78290000D02*
X147250000Y-79710000D01*
%TO.C,R52*%
X156600000Y-120350000D02*
X156600000Y-121650000D01*
X156600000Y-120350000D02*
X159400000Y-120350000D01*
X159400000Y-121650000D02*
X156600000Y-121650000D01*
X159400000Y-121650000D02*
X159400000Y-120350000D01*
%TO.C,L16*%
X168750000Y-112710000D02*
X168750000Y-111290000D01*
X168890000Y-111290000D02*
X168750000Y-111290000D01*
X168890000Y-111290000D02*
X171110000Y-111290000D01*
X168890000Y-112710000D02*
X168750000Y-112710000D01*
X171110000Y-111290000D02*
X171250000Y-111290000D01*
X171110000Y-112710000D02*
X168890000Y-112710000D01*
X171110000Y-112710000D02*
X171250000Y-112710000D01*
X171250000Y-111290000D02*
X171250000Y-112710000D01*
%TO.C,U9*%
X125025000Y-82195000D02*
X134325000Y-82195000D01*
X125025000Y-87075000D02*
X125025000Y-82195000D01*
X134325000Y-82195000D02*
X134325000Y-87075000D01*
X134325000Y-87075000D02*
X125025000Y-87075000D01*
%TO.C,C70*%
X156600000Y-118350000D02*
X156600000Y-119650000D01*
X156600000Y-118350000D02*
X159400000Y-118350000D01*
X159400000Y-119650000D02*
X156600000Y-119650000D01*
X159400000Y-119650000D02*
X159400000Y-118350000D01*
%TO.C,C28*%
X139600000Y-93350000D02*
X139600000Y-94650000D01*
X139600000Y-93350000D02*
X142400000Y-93350000D01*
X142400000Y-94650000D02*
X139600000Y-94650000D01*
X142400000Y-94650000D02*
X142400000Y-93350000D01*
%TO.C,C36*%
X137350000Y-61400000D02*
X137350000Y-58600000D01*
X137350000Y-61400000D02*
X138650000Y-61400000D01*
X138650000Y-58600000D02*
X137350000Y-58600000D01*
X138650000Y-58600000D02*
X138650000Y-61400000D01*
%TO.C,C33*%
X141250000Y-61950000D02*
X141250000Y-64050000D01*
X141250000Y-61950000D02*
X145750000Y-61950000D01*
X145750000Y-64050000D02*
X141250000Y-64050000D01*
X145750000Y-64050000D02*
X145750000Y-61950000D01*
%TO.C,R34*%
X137350000Y-140400000D02*
X137350000Y-137600000D01*
X137350000Y-140400000D02*
X138650000Y-140400000D01*
X138650000Y-137600000D02*
X137350000Y-137600000D01*
X138650000Y-137600000D02*
X138650000Y-140400000D01*
%TO.C,R29*%
X143350000Y-140400000D02*
X143350000Y-137600000D01*
X143350000Y-140400000D02*
X144650000Y-140400000D01*
X144650000Y-137600000D02*
X143350000Y-137600000D01*
X144650000Y-137600000D02*
X144650000Y-140400000D01*
%TO.C,U16*%
X167175000Y-127900000D02*
X170825000Y-127900000D01*
X167175000Y-132100000D02*
X167175000Y-127900000D01*
X170825000Y-127900000D02*
X170825000Y-132100000D01*
X170825000Y-132100000D02*
X167175000Y-132100000D01*
%TO.C,H4*%
X105600000Y-53000000D02*
G75*
G02*
X102400000Y-53000000I-1600000J0D01*
G01*
X102400000Y-53000000D02*
G75*
G02*
X105600000Y-53000000I1600000J0D01*
G01*
%TO.C,U18*%
X163300000Y-122250000D02*
X163300000Y-119750000D01*
X163300000Y-122250000D02*
X166700000Y-122250000D01*
X166700000Y-119750000D02*
X163300000Y-119750000D01*
X166700000Y-119750000D02*
X166700000Y-122250000D01*
%TO.C,R38*%
X111350000Y-122400000D02*
X111350000Y-119600000D01*
X111350000Y-122400000D02*
X112650000Y-122400000D01*
X112650000Y-119600000D02*
X111350000Y-119600000D01*
X112650000Y-119600000D02*
X112650000Y-122400000D01*
%TO.C,L14*%
X126100000Y-127480000D02*
X129900000Y-127480000D01*
X126100000Y-130520000D02*
X126100000Y-127480000D01*
X129900000Y-127480000D02*
X129900000Y-130520000D01*
X129900000Y-130520000D02*
X126100000Y-130520000D01*
%TO.C,H1*%
X105600000Y-146000000D02*
G75*
G02*
X102400000Y-146000000I-1600000J0D01*
G01*
X102400000Y-146000000D02*
G75*
G02*
X105600000Y-146000000I1600000J0D01*
G01*
%TO.C,C49*%
X146350000Y-140400000D02*
X146350000Y-137600000D01*
X146350000Y-140400000D02*
X147650000Y-140400000D01*
X147650000Y-137600000D02*
X146350000Y-137600000D01*
X147650000Y-137600000D02*
X147650000Y-140400000D01*
%TO.C,H2*%
X173600000Y-146000000D02*
G75*
G02*
X170400000Y-146000000I-1600000J0D01*
G01*
X170400000Y-146000000D02*
G75*
G02*
X173600000Y-146000000I1600000J0D01*
G01*
%TO.C,L5*%
X144750000Y-81710000D02*
X144750000Y-80290000D01*
X144890000Y-80290000D02*
X144750000Y-80290000D01*
X144890000Y-80290000D02*
X147110000Y-80290000D01*
X144890000Y-81710000D02*
X144750000Y-81710000D01*
X147110000Y-80290000D02*
X147250000Y-80290000D01*
X147110000Y-81710000D02*
X144890000Y-81710000D01*
X147110000Y-81710000D02*
X147250000Y-81710000D01*
X147250000Y-80290000D02*
X147250000Y-81710000D01*
%TO.C,C23*%
X151600000Y-122350000D02*
X151600000Y-123650000D01*
X151600000Y-122350000D02*
X154400000Y-122350000D01*
X154400000Y-123650000D02*
X151600000Y-123650000D01*
X154400000Y-123650000D02*
X154400000Y-122350000D01*
%TO.C,R60*%
X164850000Y-109100000D02*
X164850000Y-110400000D01*
X164850000Y-109100000D02*
X167650000Y-109100000D01*
X167650000Y-110400000D02*
X164850000Y-110400000D01*
X167650000Y-110400000D02*
X167650000Y-109100000D01*
%TO.C,C57*%
X105350000Y-122400000D02*
X105350000Y-119600000D01*
X105350000Y-122400000D02*
X106650000Y-122400000D01*
X106650000Y-119600000D02*
X105350000Y-119600000D01*
X106650000Y-119600000D02*
X106650000Y-122400000D01*
%TO.C,U8*%
X150900000Y-89900000D02*
X161100000Y-89900000D01*
X150900000Y-100100000D02*
X150900000Y-89900000D01*
X161100000Y-89900000D02*
X161100000Y-100100000D01*
X161100000Y-100100000D02*
X150900000Y-100100000D01*
%TO.C,U15*%
X167300000Y-132250000D02*
X170700000Y-132250000D01*
X167300000Y-135750000D02*
X167300000Y-132250000D01*
X170700000Y-132250000D02*
X170700000Y-135750000D01*
X170700000Y-135750000D02*
X167300000Y-135750000D01*
%TO.C,R39*%
X107600000Y-119350000D02*
X107600000Y-120650000D01*
X107600000Y-119350000D02*
X110400000Y-119350000D01*
X110400000Y-120650000D02*
X107600000Y-120650000D01*
X110400000Y-120650000D02*
X110400000Y-119350000D01*
%TO.C,TP21*%
D11*
X165000000Y-81900000D02*
X165000000Y-82900000D01*
X165000000Y-82900000D02*
X166000000Y-82900000D01*
X166000000Y-81900000D02*
X165000000Y-81900000D01*
X166000000Y-82900000D02*
X166000000Y-81900000D01*
%TO.C,C67*%
D10*
X163600000Y-126350000D02*
X163600000Y-127650000D01*
X163600000Y-126350000D02*
X166400000Y-126350000D01*
X166400000Y-127650000D02*
X163600000Y-127650000D01*
X166400000Y-127650000D02*
X166400000Y-126350000D01*
%TO.C,R24*%
X115350000Y-84850000D02*
X115350000Y-86150000D01*
X115350000Y-84850000D02*
X118150000Y-84850000D01*
X118150000Y-86150000D02*
X115350000Y-86150000D01*
X118150000Y-86150000D02*
X118150000Y-84850000D01*
%TO.C,C30*%
X143600000Y-95350000D02*
X143600000Y-96650000D01*
X143600000Y-95350000D02*
X146400000Y-95350000D01*
X146400000Y-96650000D02*
X143600000Y-96650000D01*
X146400000Y-96650000D02*
X146400000Y-95350000D01*
%TO.C,C66*%
X157600000Y-132350000D02*
X157600000Y-133650000D01*
X157600000Y-132350000D02*
X160400000Y-132350000D01*
X160400000Y-133650000D02*
X157600000Y-133650000D01*
X160400000Y-133650000D02*
X160400000Y-132350000D01*
%TO.C,U20*%
X152820000Y-107250000D02*
X159180000Y-107250000D01*
X152820000Y-110750000D02*
X152820000Y-107250000D01*
X159180000Y-110750000D02*
X152820000Y-110750000D01*
X159180000Y-110750000D02*
X159180000Y-107250000D01*
%TO.C,U17*%
X156250000Y-128300000D02*
X159750000Y-128300000D01*
X156250000Y-131700000D02*
X156250000Y-128300000D01*
X159750000Y-128300000D02*
X159750000Y-131700000D01*
X159750000Y-131700000D02*
X156250000Y-131700000D01*
%TO.C,C15*%
X151600000Y-126350000D02*
X151600000Y-127650000D01*
X151600000Y-126350000D02*
X154400000Y-126350000D01*
X154400000Y-127650000D02*
X151600000Y-127650000D01*
X154400000Y-127650000D02*
X154400000Y-126350000D01*
%TO.C,C50*%
X126600000Y-93350000D02*
X126600000Y-94650000D01*
X126600000Y-93350000D02*
X129400000Y-93350000D01*
X129400000Y-94650000D02*
X126600000Y-94650000D01*
X129400000Y-94650000D02*
X129400000Y-93350000D01*
%TO.C,R47*%
X157600000Y-138350000D02*
X157600000Y-139650000D01*
X157600000Y-138350000D02*
X160400000Y-138350000D01*
X160400000Y-139650000D02*
X157600000Y-139650000D01*
X160400000Y-139650000D02*
X160400000Y-138350000D01*
%TO.C,X1*%
X168400000Y-115750000D02*
X171600000Y-115750000D01*
X171600000Y-118250000D01*
X168400000Y-118250000D01*
X168400000Y-115750000D01*
%TO.C,L15*%
X170750000Y-127710000D02*
X170750000Y-126290000D01*
X170890000Y-126290000D02*
X170750000Y-126290000D01*
X170890000Y-126290000D02*
X173110000Y-126290000D01*
X170890000Y-127710000D02*
X170750000Y-127710000D01*
X173110000Y-126290000D02*
X173250000Y-126290000D01*
X173110000Y-127710000D02*
X170890000Y-127710000D01*
X173110000Y-127710000D02*
X173250000Y-127710000D01*
X173250000Y-126290000D02*
X173250000Y-127710000D01*
%TO.C,C51*%
X126600000Y-99350000D02*
X126600000Y-100650000D01*
X126600000Y-99350000D02*
X129400000Y-99350000D01*
X129400000Y-100650000D02*
X126600000Y-100650000D01*
X129400000Y-100650000D02*
X129400000Y-99350000D01*
%TO.C,R57*%
X149100000Y-105350000D02*
X149100000Y-106650000D01*
X149100000Y-105350000D02*
X151900000Y-105350000D01*
X151900000Y-106650000D02*
X149100000Y-106650000D01*
X151900000Y-106650000D02*
X151900000Y-105350000D01*
%TO.C,R40*%
X147600000Y-131350000D02*
X147600000Y-132650000D01*
X147600000Y-131350000D02*
X150400000Y-131350000D01*
X150400000Y-132650000D02*
X147600000Y-132650000D01*
X150400000Y-132650000D02*
X150400000Y-131350000D01*
%TO.C,C78*%
X147100000Y-97900000D02*
X147100000Y-95100000D01*
X147100000Y-97900000D02*
X148400000Y-97900000D01*
X148400000Y-95100000D02*
X147100000Y-95100000D01*
X148400000Y-95100000D02*
X148400000Y-97900000D01*
%TO.C,R55*%
X151100000Y-116350000D02*
X151100000Y-117650000D01*
X151100000Y-116350000D02*
X153900000Y-116350000D01*
X153900000Y-117650000D02*
X151100000Y-117650000D01*
X153900000Y-117650000D02*
X153900000Y-116350000D01*
%TO.C,R45*%
X163600000Y-135350000D02*
X163600000Y-136650000D01*
X163600000Y-135350000D02*
X166400000Y-135350000D01*
X166400000Y-136650000D02*
X163600000Y-136650000D01*
X166400000Y-136650000D02*
X166400000Y-135350000D01*
%TO.C,C38*%
X164600000Y-78350000D02*
X164600000Y-79650000D01*
X164600000Y-78350000D02*
X167400000Y-78350000D01*
X167400000Y-79650000D02*
X164600000Y-79650000D01*
X167400000Y-79650000D02*
X167400000Y-78350000D01*
%TO.C,C62*%
X168600000Y-89475000D02*
X168600000Y-90775000D01*
X168600000Y-89475000D02*
X171400000Y-89475000D01*
X171400000Y-90775000D02*
X168600000Y-90775000D01*
X171400000Y-90775000D02*
X171400000Y-89475000D01*
%TO.C,R36*%
X107600000Y-121350000D02*
X107600000Y-122650000D01*
X107600000Y-121350000D02*
X110400000Y-121350000D01*
X110400000Y-122650000D02*
X107600000Y-122650000D01*
X110400000Y-122650000D02*
X110400000Y-121350000D01*
%TO.C,R59*%
X170600000Y-60150000D02*
X170600000Y-57350000D01*
X170600000Y-60150000D02*
X171900000Y-60150000D01*
X171900000Y-57350000D02*
X170600000Y-57350000D01*
X171900000Y-57350000D02*
X171900000Y-60150000D01*
%TO.C,C74*%
X148600000Y-108350000D02*
X148600000Y-109650000D01*
X148600000Y-108350000D02*
X151400000Y-108350000D01*
X151400000Y-109650000D02*
X148600000Y-109650000D01*
X151400000Y-109650000D02*
X151400000Y-108350000D01*
%TO.C,L1*%
X139750000Y-120710000D02*
X139750000Y-119290000D01*
X139890000Y-119290000D02*
X139750000Y-119290000D01*
X139890000Y-119290000D02*
X142110000Y-119290000D01*
X139890000Y-120710000D02*
X139750000Y-120710000D01*
X142110000Y-119290000D02*
X142250000Y-119290000D01*
X142110000Y-120710000D02*
X139890000Y-120710000D01*
X142110000Y-120710000D02*
X142250000Y-120710000D01*
X142250000Y-119290000D02*
X142250000Y-120710000D01*
%TO.C,U14*%
X167900000Y-91300000D02*
X172100000Y-91300000D01*
X167900000Y-94950000D02*
X167900000Y-91300000D01*
X172100000Y-91300000D02*
X172100000Y-94950000D01*
X172100000Y-94950000D02*
X167900000Y-94950000D01*
%TO.C,J11*%
X167295000Y-57300000D02*
X169975000Y-57300000D01*
X167295000Y-63780000D02*
X167295000Y-57300000D01*
X169975000Y-57300000D02*
X169975000Y-63780000D01*
X169975000Y-63780000D02*
X167295000Y-63780000D01*
%TO.C,R42*%
X160600000Y-138350000D02*
X160600000Y-139650000D01*
X160600000Y-138350000D02*
X163400000Y-138350000D01*
X163400000Y-139650000D02*
X160600000Y-139650000D01*
X163400000Y-139650000D02*
X163400000Y-138350000D01*
%TO.C,L8*%
X126100000Y-95480000D02*
X129900000Y-95480000D01*
X126100000Y-98520000D02*
X126100000Y-95480000D01*
X129900000Y-95480000D02*
X129900000Y-98520000D01*
X129900000Y-98520000D02*
X126100000Y-98520000D01*
%TO.C,Q1*%
X169225000Y-106125000D02*
X172625000Y-106125000D01*
X169225000Y-109625000D02*
X169225000Y-106125000D01*
X172625000Y-106125000D02*
X172625000Y-109625000D01*
X172625000Y-109625000D02*
X169225000Y-109625000D01*
%TO.C,J5*%
X149611900Y-48857400D02*
X164311900Y-48857400D01*
X164311900Y-67157400D01*
X149611900Y-67157400D01*
X149611900Y-48857400D01*
%TO.C,C29*%
X139600000Y-89350000D02*
X139600000Y-90650000D01*
X139600000Y-89350000D02*
X142400000Y-89350000D01*
X142400000Y-90650000D02*
X139600000Y-90650000D01*
X142400000Y-90650000D02*
X142400000Y-89350000D01*
%TO.C,C42*%
X115350000Y-83350000D02*
X115350000Y-84650000D01*
X115350000Y-83350000D02*
X118150000Y-83350000D01*
X118150000Y-84650000D02*
X115350000Y-84650000D01*
X118150000Y-84650000D02*
X118150000Y-83350000D01*
%TO.C,C59*%
X124350000Y-122400000D02*
X124350000Y-119600000D01*
X124350000Y-122400000D02*
X125650000Y-122400000D01*
X125650000Y-119600000D02*
X124350000Y-119600000D01*
X125650000Y-119600000D02*
X125650000Y-122400000D01*
%TO.C,C64*%
X160600000Y-135350000D02*
X160600000Y-136650000D01*
X160600000Y-135350000D02*
X163400000Y-135350000D01*
X163400000Y-136650000D02*
X160600000Y-136650000D01*
X163400000Y-136650000D02*
X163400000Y-135350000D01*
%TO.C,R3*%
X139600000Y-97350000D02*
X139600000Y-98650000D01*
X139600000Y-97350000D02*
X142400000Y-97350000D01*
X142400000Y-98650000D02*
X139600000Y-98650000D01*
X142400000Y-98650000D02*
X142400000Y-97350000D01*
%TO.C,C40*%
X155350000Y-75400000D02*
X155350000Y-72600000D01*
X155350000Y-75400000D02*
X156650000Y-75400000D01*
X156650000Y-72600000D02*
X155350000Y-72600000D01*
X156650000Y-72600000D02*
X156650000Y-75400000D01*
%TO.C,B1*%
X106600000Y-81650000D02*
X114800000Y-81650000D01*
X106600000Y-86350000D02*
X106600000Y-81650000D01*
X114800000Y-81650000D02*
X114800000Y-86350000D01*
X114800000Y-86350000D02*
X106600000Y-86350000D01*
%TO.C,C60*%
X126600000Y-124350000D02*
X126600000Y-125650000D01*
X126600000Y-124350000D02*
X129400000Y-124350000D01*
X129400000Y-125650000D02*
X126600000Y-125650000D01*
X129400000Y-125650000D02*
X129400000Y-124350000D01*
%TO.C,C54*%
X124350000Y-106400000D02*
X124350000Y-103600000D01*
X124350000Y-106400000D02*
X125650000Y-106400000D01*
X125650000Y-103600000D02*
X124350000Y-103600000D01*
X125650000Y-103600000D02*
X125650000Y-106400000D01*
%TO.C,L12*%
X114100000Y-119480000D02*
X117900000Y-119480000D01*
X114100000Y-122520000D02*
X114100000Y-119480000D01*
X117900000Y-119480000D02*
X117900000Y-122520000D01*
X117900000Y-122520000D02*
X114100000Y-122520000D01*
%TO.C,C4*%
X138600000Y-108350000D02*
X138600000Y-109650000D01*
X138600000Y-108350000D02*
X141400000Y-108350000D01*
X141400000Y-109650000D02*
X138600000Y-109650000D01*
X141400000Y-109650000D02*
X141400000Y-108350000D01*
%TO.C,L3*%
X146750000Y-70710000D02*
X146750000Y-69290000D01*
X146890000Y-69290000D02*
X146750000Y-69290000D01*
X146890000Y-69290000D02*
X149110000Y-69290000D01*
X146890000Y-70710000D02*
X146750000Y-70710000D01*
X149110000Y-69290000D02*
X149250000Y-69290000D01*
X149110000Y-70710000D02*
X146890000Y-70710000D01*
X149110000Y-70710000D02*
X149250000Y-70710000D01*
X149250000Y-69290000D02*
X149250000Y-70710000D01*
%TO.C,R35*%
X107600000Y-127350000D02*
X107600000Y-128650000D01*
X107600000Y-127350000D02*
X110400000Y-127350000D01*
X110400000Y-128650000D02*
X107600000Y-128650000D01*
X110400000Y-128650000D02*
X110400000Y-127350000D01*
%TO.C,R41*%
X151100000Y-114350000D02*
X151100000Y-115650000D01*
X151100000Y-114350000D02*
X153900000Y-114350000D01*
X153900000Y-115650000D02*
X151100000Y-115650000D01*
X153900000Y-115650000D02*
X153900000Y-114350000D01*
%TO.C,C55*%
X126600000Y-108350000D02*
X126600000Y-109650000D01*
X126600000Y-108350000D02*
X129400000Y-108350000D01*
X129400000Y-109650000D02*
X126600000Y-109650000D01*
X129400000Y-109650000D02*
X129400000Y-108350000D01*
%TO.C,J7*%
X106540000Y-133200000D02*
X106540000Y-136800000D01*
X106540000Y-136800000D02*
X115340000Y-136800000D01*
X115340000Y-133200000D02*
X106540000Y-133200000D01*
X115340000Y-136800000D02*
X115340000Y-133200000D01*
%TO.C,C14*%
X117350000Y-58400000D02*
X117350000Y-55600000D01*
X117350000Y-58400000D02*
X118650000Y-58400000D01*
X118650000Y-55600000D02*
X117350000Y-55600000D01*
X118650000Y-55600000D02*
X118650000Y-58400000D01*
%TO.C,U13*%
X143300000Y-133250000D02*
X146700000Y-133250000D01*
X143300000Y-136750000D02*
X143300000Y-133250000D01*
X146700000Y-133250000D02*
X146700000Y-136750000D01*
X146700000Y-136750000D02*
X143300000Y-136750000D01*
%TO.C,J3*%
X125500000Y-142973000D02*
X132500000Y-142973000D01*
X125500000Y-157223000D02*
X125500000Y-142973000D01*
X132500000Y-142973000D02*
X132500000Y-157243000D01*
X132500000Y-157243000D02*
X125500000Y-157223000D01*
%TO.C,C31*%
X143600000Y-99350000D02*
X143600000Y-100650000D01*
X143600000Y-99350000D02*
X146400000Y-99350000D01*
X146400000Y-100650000D02*
X143600000Y-100650000D01*
X146400000Y-100650000D02*
X146400000Y-99350000D01*
%TO.C,L17*%
X159750000Y-113710000D02*
X159750000Y-112290000D01*
X159890000Y-112290000D02*
X159750000Y-112290000D01*
X159890000Y-112290000D02*
X162110000Y-112290000D01*
X159890000Y-113710000D02*
X159750000Y-113710000D01*
X162110000Y-112290000D02*
X162250000Y-112290000D01*
X162110000Y-113710000D02*
X159890000Y-113710000D01*
X162110000Y-113710000D02*
X162250000Y-113710000D01*
X162250000Y-112290000D02*
X162250000Y-113710000D01*
%TO.C,J8*%
X105540000Y-114200000D02*
X105540000Y-117800000D01*
X105540000Y-117800000D02*
X114340000Y-117800000D01*
X114340000Y-114200000D02*
X105540000Y-114200000D01*
X114340000Y-117800000D02*
X114340000Y-114200000D01*
%TO.C,U10*%
X164300000Y-72600000D02*
X167700000Y-72600000D01*
X164300000Y-75400000D02*
X164300000Y-72600000D01*
X167700000Y-72600000D02*
X167700000Y-75400000D01*
X167700000Y-75400000D02*
X164300000Y-75400000D01*
%TO.C,C73*%
X159600000Y-110350000D02*
X159600000Y-111650000D01*
X159600000Y-110350000D02*
X162400000Y-110350000D01*
X162400000Y-111650000D02*
X159600000Y-111650000D01*
X162400000Y-111650000D02*
X162400000Y-110350000D01*
%TO.C,H3*%
X173600000Y-53000000D02*
G75*
G02*
X170400000Y-53000000I-1600000J0D01*
G01*
X170400000Y-53000000D02*
G75*
G02*
X173600000Y-53000000I1600000J0D01*
G01*
%TO.C,C39*%
X157350000Y-75400000D02*
X157350000Y-72600000D01*
X157350000Y-75400000D02*
X158650000Y-75400000D01*
X158650000Y-72600000D02*
X157350000Y-72600000D01*
X158650000Y-72600000D02*
X158650000Y-75400000D01*
%TO.C,R10*%
X161250000Y-89350000D02*
X163050000Y-89350000D01*
X161250000Y-91650000D02*
X161250000Y-89350000D01*
X163050000Y-89350000D02*
X163050000Y-91650000D01*
X163050000Y-91650000D02*
X161250000Y-91650000D01*
%TO.C,C44*%
X147600000Y-80350000D02*
X147600000Y-81650000D01*
X147600000Y-80350000D02*
X150400000Y-80350000D01*
X150400000Y-81650000D02*
X147600000Y-81650000D01*
X150400000Y-81650000D02*
X150400000Y-80350000D01*
%TO.C,R21*%
X141100000Y-84350000D02*
X141100000Y-85650000D01*
X141100000Y-84350000D02*
X143900000Y-84350000D01*
X143900000Y-85650000D02*
X141100000Y-85650000D01*
X143900000Y-85650000D02*
X143900000Y-84350000D01*
%TO.C,R49*%
X163600000Y-129350000D02*
X163600000Y-130650000D01*
X163600000Y-129350000D02*
X166400000Y-129350000D01*
X166400000Y-130650000D02*
X163600000Y-130650000D01*
X166400000Y-130650000D02*
X166400000Y-129350000D01*
%TO.C,C43*%
X147600000Y-78350000D02*
X147600000Y-79650000D01*
X147600000Y-78350000D02*
X150400000Y-78350000D01*
X150400000Y-79650000D02*
X147600000Y-79650000D01*
X150400000Y-79650000D02*
X150400000Y-78350000D01*
%TO.C,R26*%
X143350000Y-57400000D02*
X143350000Y-54600000D01*
X143350000Y-57400000D02*
X144650000Y-57400000D01*
X144650000Y-54600000D02*
X143350000Y-54600000D01*
X144650000Y-54600000D02*
X144650000Y-57400000D01*
%TO.C,J4*%
X161300000Y-142923000D02*
X168300000Y-142923000D01*
X161300000Y-157173000D02*
X161300000Y-142923000D01*
X168300000Y-142923000D02*
X168300000Y-157193000D01*
X168300000Y-157193000D02*
X161300000Y-157173000D01*
%TD*%
M02*
