%TF.GenerationSoftware,KiCad,Pcbnew,10.0.4-10.0.4~ubuntu25.10.1*%
%TF.CreationDate,2026-07-28T04:31:22+00:00*%
%TF.ProjectId,TAPRX-888,54415052-582d-4383-9838-2e6b69636164,DEV*%
%TF.SameCoordinates,Original*%
%TF.FileFunction,Profile,NP*%
%FSLAX46Y46*%
G04 Gerber Fmt 4.6, Leading zero omitted, Abs format (unit mm)*
G04 Created by KiCad (PCBNEW 10.0.4-10.0.4~ubuntu25.10.1) date 2026-07-28 04:31:22*
%MOMM*%
%LPD*%
G01*
G04 APERTURE LIST*
%TA.AperFunction,Profile*%
%ADD10C,0.050000*%
%TD*%
%TA.AperFunction,Profile*%
%ADD11C,0.100000*%
%TD*%
G04 APERTURE END LIST*
D10*
X96250000Y-50000000D02*
X96250000Y-149400000D01*
X96250000Y-50000000D02*
X179750000Y-50000000D01*
X107444000Y-149420000D02*
X96250000Y-149400000D01*
D11*
X107698000Y-148404000D02*
X107444000Y-149420000D01*
X107698000Y-148404000D02*
X109984000Y-148404000D01*
X110111000Y-148150000D02*
X109984000Y-148404000D01*
X111889000Y-148150000D02*
X110111000Y-148150000D01*
X112016000Y-148404000D02*
X111889000Y-148150000D01*
X114302000Y-148404000D02*
X112016000Y-148404000D01*
X114556000Y-149420000D02*
X114302000Y-148404000D01*
D10*
X114556000Y-149420000D02*
X125444000Y-149420000D01*
D11*
X125698000Y-148404000D02*
X125444000Y-149420000D01*
X125698000Y-148404000D02*
X127984000Y-148404000D01*
X128111000Y-148150000D02*
X127984000Y-148404000D01*
X129889000Y-148150000D02*
X128111000Y-148150000D01*
X130016000Y-148404000D02*
X129889000Y-148150000D01*
X132302000Y-148404000D02*
X130016000Y-148404000D01*
X132556000Y-149420000D02*
X132302000Y-148404000D01*
D10*
X132556000Y-149420000D02*
X143442779Y-149422555D01*
D11*
X143696779Y-148406555D02*
X143442779Y-149422555D01*
X143696779Y-148406555D02*
X145982779Y-148406555D01*
X146109779Y-148152555D02*
X145982779Y-148406555D01*
X147887779Y-148152555D02*
X146109779Y-148152555D01*
X148014779Y-148406555D02*
X147887779Y-148152555D01*
X150300779Y-148406555D02*
X148014779Y-148406555D01*
X150554779Y-149422555D02*
X150300779Y-148406555D01*
D10*
X150555000Y-149416000D02*
X161444000Y-149420000D01*
D11*
X161698000Y-148404000D02*
X161444000Y-149420000D01*
X161698000Y-148404000D02*
X163984000Y-148404000D01*
X164111000Y-148150000D02*
X163984000Y-148404000D01*
X165889000Y-148150000D02*
X164111000Y-148150000D01*
X166016000Y-148404000D02*
X165889000Y-148150000D01*
X168302000Y-148404000D02*
X166016000Y-148404000D01*
X168556000Y-149420000D02*
X168302000Y-148404000D01*
D10*
X179750000Y-50000000D02*
X179750000Y-149400000D01*
X179750000Y-149400000D02*
X168554943Y-149415771D01*
M02*
