%TF.GenerationSoftware,KiCad,Pcbnew,10.0.4-10.0.4~ubuntu25.10.1*%
%TF.CreationDate,2026-07-28T04:31:22+00:00*%
%TF.ProjectId,TAPRX-888,54415052-582d-4383-9838-2e6b69636164,DEV*%
%TF.SameCoordinates,Original*%
%TF.FileFunction,OtherDrawing,Comment*%
%FSLAX46Y46*%
G04 Gerber Fmt 4.6, Leading zero omitted, Abs format (unit mm)*
G04 Created by KiCad (PCBNEW 10.0.4-10.0.4~ubuntu25.10.1) date 2026-07-28 04:31:22*
%MOMM*%
%LPD*%
G01*
G04 APERTURE LIST*
%ADD10C,0.100000*%
%ADD11C,0.150000*%
%ADD12C,0.120000*%
G04 APERTURE END LIST*
D10*
X102000000Y-165000000D02*
X102000000Y-39000000D01*
D11*
X112116000Y-165438000D02*
X112116000Y-167216000D01*
X127116000Y-165438000D02*
X127116000Y-167216000D01*
D10*
X138000000Y-165000000D02*
X138000000Y-38000000D01*
D11*
X142116000Y-165438000D02*
X142116000Y-167216000D01*
X157116000Y-165438000D02*
X157116000Y-167216000D01*
X172116000Y-165438000D02*
X172116000Y-167216000D01*
D10*
X174000000Y-165000000D02*
X174000000Y-38000000D01*
D11*
X102336779Y-164346009D02*
X102670112Y-164346009D01*
X102812969Y-164869819D02*
X102336779Y-164869819D01*
X102336779Y-164869819D02*
X102336779Y-163869819D01*
X102336779Y-163869819D02*
X102812969Y-163869819D01*
X103670112Y-164869819D02*
X103670112Y-163869819D01*
X103670112Y-164822200D02*
X103574874Y-164869819D01*
X103574874Y-164869819D02*
X103384398Y-164869819D01*
X103384398Y-164869819D02*
X103289160Y-164822200D01*
X103289160Y-164822200D02*
X103241541Y-164774580D01*
X103241541Y-164774580D02*
X103193922Y-164679342D01*
X103193922Y-164679342D02*
X103193922Y-164393628D01*
X103193922Y-164393628D02*
X103241541Y-164298390D01*
X103241541Y-164298390D02*
X103289160Y-164250771D01*
X103289160Y-164250771D02*
X103384398Y-164203152D01*
X103384398Y-164203152D02*
X103574874Y-164203152D01*
X103574874Y-164203152D02*
X103670112Y-164250771D01*
X104574874Y-164203152D02*
X104574874Y-165012676D01*
X104574874Y-165012676D02*
X104527255Y-165107914D01*
X104527255Y-165107914D02*
X104479636Y-165155533D01*
X104479636Y-165155533D02*
X104384398Y-165203152D01*
X104384398Y-165203152D02*
X104241541Y-165203152D01*
X104241541Y-165203152D02*
X104146303Y-165155533D01*
X104574874Y-164822200D02*
X104479636Y-164869819D01*
X104479636Y-164869819D02*
X104289160Y-164869819D01*
X104289160Y-164869819D02*
X104193922Y-164822200D01*
X104193922Y-164822200D02*
X104146303Y-164774580D01*
X104146303Y-164774580D02*
X104098684Y-164679342D01*
X104098684Y-164679342D02*
X104098684Y-164393628D01*
X104098684Y-164393628D02*
X104146303Y-164298390D01*
X104146303Y-164298390D02*
X104193922Y-164250771D01*
X104193922Y-164250771D02*
X104289160Y-164203152D01*
X104289160Y-164203152D02*
X104479636Y-164203152D01*
X104479636Y-164203152D02*
X104574874Y-164250771D01*
X105432017Y-164822200D02*
X105336779Y-164869819D01*
X105336779Y-164869819D02*
X105146303Y-164869819D01*
X105146303Y-164869819D02*
X105051065Y-164822200D01*
X105051065Y-164822200D02*
X105003446Y-164726961D01*
X105003446Y-164726961D02*
X105003446Y-164346009D01*
X105003446Y-164346009D02*
X105051065Y-164250771D01*
X105051065Y-164250771D02*
X105146303Y-164203152D01*
X105146303Y-164203152D02*
X105336779Y-164203152D01*
X105336779Y-164203152D02*
X105432017Y-164250771D01*
X105432017Y-164250771D02*
X105479636Y-164346009D01*
X105479636Y-164346009D02*
X105479636Y-164441247D01*
X105479636Y-164441247D02*
X105003446Y-164536485D01*
X107241541Y-164774580D02*
X107193922Y-164822200D01*
X107193922Y-164822200D02*
X107051065Y-164869819D01*
X107051065Y-164869819D02*
X106955827Y-164869819D01*
X106955827Y-164869819D02*
X106812970Y-164822200D01*
X106812970Y-164822200D02*
X106717732Y-164726961D01*
X106717732Y-164726961D02*
X106670113Y-164631723D01*
X106670113Y-164631723D02*
X106622494Y-164441247D01*
X106622494Y-164441247D02*
X106622494Y-164298390D01*
X106622494Y-164298390D02*
X106670113Y-164107914D01*
X106670113Y-164107914D02*
X106717732Y-164012676D01*
X106717732Y-164012676D02*
X106812970Y-163917438D01*
X106812970Y-163917438D02*
X106955827Y-163869819D01*
X106955827Y-163869819D02*
X107051065Y-163869819D01*
X107051065Y-163869819D02*
X107193922Y-163917438D01*
X107193922Y-163917438D02*
X107241541Y-163965057D01*
X107812970Y-164869819D02*
X107717732Y-164822200D01*
X107717732Y-164822200D02*
X107670113Y-164726961D01*
X107670113Y-164726961D02*
X107670113Y-163869819D01*
X108574875Y-164822200D02*
X108479637Y-164869819D01*
X108479637Y-164869819D02*
X108289161Y-164869819D01*
X108289161Y-164869819D02*
X108193923Y-164822200D01*
X108193923Y-164822200D02*
X108146304Y-164726961D01*
X108146304Y-164726961D02*
X108146304Y-164346009D01*
X108146304Y-164346009D02*
X108193923Y-164250771D01*
X108193923Y-164250771D02*
X108289161Y-164203152D01*
X108289161Y-164203152D02*
X108479637Y-164203152D01*
X108479637Y-164203152D02*
X108574875Y-164250771D01*
X108574875Y-164250771D02*
X108622494Y-164346009D01*
X108622494Y-164346009D02*
X108622494Y-164441247D01*
X108622494Y-164441247D02*
X108146304Y-164536485D01*
X109479637Y-164869819D02*
X109479637Y-164346009D01*
X109479637Y-164346009D02*
X109432018Y-164250771D01*
X109432018Y-164250771D02*
X109336780Y-164203152D01*
X109336780Y-164203152D02*
X109146304Y-164203152D01*
X109146304Y-164203152D02*
X109051066Y-164250771D01*
X109479637Y-164822200D02*
X109384399Y-164869819D01*
X109384399Y-164869819D02*
X109146304Y-164869819D01*
X109146304Y-164869819D02*
X109051066Y-164822200D01*
X109051066Y-164822200D02*
X109003447Y-164726961D01*
X109003447Y-164726961D02*
X109003447Y-164631723D01*
X109003447Y-164631723D02*
X109051066Y-164536485D01*
X109051066Y-164536485D02*
X109146304Y-164488866D01*
X109146304Y-164488866D02*
X109384399Y-164488866D01*
X109384399Y-164488866D02*
X109479637Y-164441247D01*
X109955828Y-164869819D02*
X109955828Y-164203152D01*
X109955828Y-164393628D02*
X110003447Y-164298390D01*
X110003447Y-164298390D02*
X110051066Y-164250771D01*
X110051066Y-164250771D02*
X110146304Y-164203152D01*
X110146304Y-164203152D02*
X110241542Y-164203152D01*
X111003447Y-164869819D02*
X111003447Y-164346009D01*
X111003447Y-164346009D02*
X110955828Y-164250771D01*
X110955828Y-164250771D02*
X110860590Y-164203152D01*
X110860590Y-164203152D02*
X110670114Y-164203152D01*
X110670114Y-164203152D02*
X110574876Y-164250771D01*
X111003447Y-164822200D02*
X110908209Y-164869819D01*
X110908209Y-164869819D02*
X110670114Y-164869819D01*
X110670114Y-164869819D02*
X110574876Y-164822200D01*
X110574876Y-164822200D02*
X110527257Y-164726961D01*
X110527257Y-164726961D02*
X110527257Y-164631723D01*
X110527257Y-164631723D02*
X110574876Y-164536485D01*
X110574876Y-164536485D02*
X110670114Y-164488866D01*
X110670114Y-164488866D02*
X110908209Y-164488866D01*
X110908209Y-164488866D02*
X111003447Y-164441247D01*
X111479638Y-164203152D02*
X111479638Y-164869819D01*
X111479638Y-164298390D02*
X111527257Y-164250771D01*
X111527257Y-164250771D02*
X111622495Y-164203152D01*
X111622495Y-164203152D02*
X111765352Y-164203152D01*
X111765352Y-164203152D02*
X111860590Y-164250771D01*
X111860590Y-164250771D02*
X111908209Y-164346009D01*
X111908209Y-164346009D02*
X111908209Y-164869819D01*
X112812971Y-164822200D02*
X112717733Y-164869819D01*
X112717733Y-164869819D02*
X112527257Y-164869819D01*
X112527257Y-164869819D02*
X112432019Y-164822200D01*
X112432019Y-164822200D02*
X112384400Y-164774580D01*
X112384400Y-164774580D02*
X112336781Y-164679342D01*
X112336781Y-164679342D02*
X112336781Y-164393628D01*
X112336781Y-164393628D02*
X112384400Y-164298390D01*
X112384400Y-164298390D02*
X112432019Y-164250771D01*
X112432019Y-164250771D02*
X112527257Y-164203152D01*
X112527257Y-164203152D02*
X112717733Y-164203152D01*
X112717733Y-164203152D02*
X112812971Y-164250771D01*
X113622495Y-164822200D02*
X113527257Y-164869819D01*
X113527257Y-164869819D02*
X113336781Y-164869819D01*
X113336781Y-164869819D02*
X113241543Y-164822200D01*
X113241543Y-164822200D02*
X113193924Y-164726961D01*
X113193924Y-164726961D02*
X113193924Y-164346009D01*
X113193924Y-164346009D02*
X113241543Y-164250771D01*
X113241543Y-164250771D02*
X113336781Y-164203152D01*
X113336781Y-164203152D02*
X113527257Y-164203152D01*
X113527257Y-164203152D02*
X113622495Y-164250771D01*
X113622495Y-164250771D02*
X113670114Y-164346009D01*
X113670114Y-164346009D02*
X113670114Y-164441247D01*
X113670114Y-164441247D02*
X113193924Y-164536485D01*
X118636779Y-170059875D02*
X118636779Y-169059875D01*
X118636779Y-169059875D02*
X119208207Y-170059875D01*
X119208207Y-170059875D02*
X119208207Y-169059875D01*
X119827255Y-170059875D02*
X119732017Y-170012256D01*
X119732017Y-170012256D02*
X119684398Y-169964636D01*
X119684398Y-169964636D02*
X119636779Y-169869398D01*
X119636779Y-169869398D02*
X119636779Y-169583684D01*
X119636779Y-169583684D02*
X119684398Y-169488446D01*
X119684398Y-169488446D02*
X119732017Y-169440827D01*
X119732017Y-169440827D02*
X119827255Y-169393208D01*
X119827255Y-169393208D02*
X119970112Y-169393208D01*
X119970112Y-169393208D02*
X120065350Y-169440827D01*
X120065350Y-169440827D02*
X120112969Y-169488446D01*
X120112969Y-169488446D02*
X120160588Y-169583684D01*
X120160588Y-169583684D02*
X120160588Y-169869398D01*
X120160588Y-169869398D02*
X120112969Y-169964636D01*
X120112969Y-169964636D02*
X120065350Y-170012256D01*
X120065350Y-170012256D02*
X119970112Y-170059875D01*
X119970112Y-170059875D02*
X119827255Y-170059875D01*
X120446303Y-169393208D02*
X120827255Y-169393208D01*
X120589160Y-169059875D02*
X120589160Y-169917017D01*
X120589160Y-169917017D02*
X120636779Y-170012256D01*
X120636779Y-170012256D02*
X120732017Y-170059875D01*
X120732017Y-170059875D02*
X120827255Y-170059875D01*
X121541541Y-170012256D02*
X121446303Y-170059875D01*
X121446303Y-170059875D02*
X121255827Y-170059875D01*
X121255827Y-170059875D02*
X121160589Y-170012256D01*
X121160589Y-170012256D02*
X121112970Y-169917017D01*
X121112970Y-169917017D02*
X121112970Y-169536065D01*
X121112970Y-169536065D02*
X121160589Y-169440827D01*
X121160589Y-169440827D02*
X121255827Y-169393208D01*
X121255827Y-169393208D02*
X121446303Y-169393208D01*
X121446303Y-169393208D02*
X121541541Y-169440827D01*
X121541541Y-169440827D02*
X121589160Y-169536065D01*
X121589160Y-169536065D02*
X121589160Y-169631303D01*
X121589160Y-169631303D02*
X121112970Y-169726541D01*
X122017732Y-169964636D02*
X122065351Y-170012256D01*
X122065351Y-170012256D02*
X122017732Y-170059875D01*
X122017732Y-170059875D02*
X121970113Y-170012256D01*
X121970113Y-170012256D02*
X122017732Y-169964636D01*
X122017732Y-169964636D02*
X122017732Y-170059875D01*
X122017732Y-169440827D02*
X122065351Y-169488446D01*
X122065351Y-169488446D02*
X122017732Y-169536065D01*
X122017732Y-169536065D02*
X121970113Y-169488446D01*
X121970113Y-169488446D02*
X122017732Y-169440827D01*
X122017732Y-169440827D02*
X122017732Y-169536065D01*
X123208208Y-170012256D02*
X123351065Y-170059875D01*
X123351065Y-170059875D02*
X123589160Y-170059875D01*
X123589160Y-170059875D02*
X123684398Y-170012256D01*
X123684398Y-170012256D02*
X123732017Y-169964636D01*
X123732017Y-169964636D02*
X123779636Y-169869398D01*
X123779636Y-169869398D02*
X123779636Y-169774160D01*
X123779636Y-169774160D02*
X123732017Y-169678922D01*
X123732017Y-169678922D02*
X123684398Y-169631303D01*
X123684398Y-169631303D02*
X123589160Y-169583684D01*
X123589160Y-169583684D02*
X123398684Y-169536065D01*
X123398684Y-169536065D02*
X123303446Y-169488446D01*
X123303446Y-169488446D02*
X123255827Y-169440827D01*
X123255827Y-169440827D02*
X123208208Y-169345589D01*
X123208208Y-169345589D02*
X123208208Y-169250351D01*
X123208208Y-169250351D02*
X123255827Y-169155113D01*
X123255827Y-169155113D02*
X123303446Y-169107494D01*
X123303446Y-169107494D02*
X123398684Y-169059875D01*
X123398684Y-169059875D02*
X123636779Y-169059875D01*
X123636779Y-169059875D02*
X123779636Y-169107494D01*
X124208208Y-170059875D02*
X124208208Y-169059875D01*
X124208208Y-169059875D02*
X124541541Y-169774160D01*
X124541541Y-169774160D02*
X124874874Y-169059875D01*
X124874874Y-169059875D02*
X124874874Y-170059875D01*
X125303446Y-169774160D02*
X125779636Y-169774160D01*
X125208208Y-170059875D02*
X125541541Y-169059875D01*
X125541541Y-169059875D02*
X125874874Y-170059875D01*
X127398684Y-170012256D02*
X127303446Y-170059875D01*
X127303446Y-170059875D02*
X127112970Y-170059875D01*
X127112970Y-170059875D02*
X127017732Y-170012256D01*
X127017732Y-170012256D02*
X126970113Y-169964636D01*
X126970113Y-169964636D02*
X126922494Y-169869398D01*
X126922494Y-169869398D02*
X126922494Y-169583684D01*
X126922494Y-169583684D02*
X126970113Y-169488446D01*
X126970113Y-169488446D02*
X127017732Y-169440827D01*
X127017732Y-169440827D02*
X127112970Y-169393208D01*
X127112970Y-169393208D02*
X127303446Y-169393208D01*
X127303446Y-169393208D02*
X127398684Y-169440827D01*
X127970113Y-170059875D02*
X127874875Y-170012256D01*
X127874875Y-170012256D02*
X127827256Y-169964636D01*
X127827256Y-169964636D02*
X127779637Y-169869398D01*
X127779637Y-169869398D02*
X127779637Y-169583684D01*
X127779637Y-169583684D02*
X127827256Y-169488446D01*
X127827256Y-169488446D02*
X127874875Y-169440827D01*
X127874875Y-169440827D02*
X127970113Y-169393208D01*
X127970113Y-169393208D02*
X128112970Y-169393208D01*
X128112970Y-169393208D02*
X128208208Y-169440827D01*
X128208208Y-169440827D02*
X128255827Y-169488446D01*
X128255827Y-169488446D02*
X128303446Y-169583684D01*
X128303446Y-169583684D02*
X128303446Y-169869398D01*
X128303446Y-169869398D02*
X128255827Y-169964636D01*
X128255827Y-169964636D02*
X128208208Y-170012256D01*
X128208208Y-170012256D02*
X128112970Y-170059875D01*
X128112970Y-170059875D02*
X127970113Y-170059875D01*
X128732018Y-169393208D02*
X128732018Y-170059875D01*
X128732018Y-169488446D02*
X128779637Y-169440827D01*
X128779637Y-169440827D02*
X128874875Y-169393208D01*
X128874875Y-169393208D02*
X129017732Y-169393208D01*
X129017732Y-169393208D02*
X129112970Y-169440827D01*
X129112970Y-169440827D02*
X129160589Y-169536065D01*
X129160589Y-169536065D02*
X129160589Y-170059875D01*
X129636780Y-169393208D02*
X129636780Y-170059875D01*
X129636780Y-169488446D02*
X129684399Y-169440827D01*
X129684399Y-169440827D02*
X129779637Y-169393208D01*
X129779637Y-169393208D02*
X129922494Y-169393208D01*
X129922494Y-169393208D02*
X130017732Y-169440827D01*
X130017732Y-169440827D02*
X130065351Y-169536065D01*
X130065351Y-169536065D02*
X130065351Y-170059875D01*
X130922494Y-170012256D02*
X130827256Y-170059875D01*
X130827256Y-170059875D02*
X130636780Y-170059875D01*
X130636780Y-170059875D02*
X130541542Y-170012256D01*
X130541542Y-170012256D02*
X130493923Y-169917017D01*
X130493923Y-169917017D02*
X130493923Y-169536065D01*
X130493923Y-169536065D02*
X130541542Y-169440827D01*
X130541542Y-169440827D02*
X130636780Y-169393208D01*
X130636780Y-169393208D02*
X130827256Y-169393208D01*
X130827256Y-169393208D02*
X130922494Y-169440827D01*
X130922494Y-169440827D02*
X130970113Y-169536065D01*
X130970113Y-169536065D02*
X130970113Y-169631303D01*
X130970113Y-169631303D02*
X130493923Y-169726541D01*
X131827256Y-170012256D02*
X131732018Y-170059875D01*
X131732018Y-170059875D02*
X131541542Y-170059875D01*
X131541542Y-170059875D02*
X131446304Y-170012256D01*
X131446304Y-170012256D02*
X131398685Y-169964636D01*
X131398685Y-169964636D02*
X131351066Y-169869398D01*
X131351066Y-169869398D02*
X131351066Y-169583684D01*
X131351066Y-169583684D02*
X131398685Y-169488446D01*
X131398685Y-169488446D02*
X131446304Y-169440827D01*
X131446304Y-169440827D02*
X131541542Y-169393208D01*
X131541542Y-169393208D02*
X131732018Y-169393208D01*
X131732018Y-169393208D02*
X131827256Y-169440827D01*
X132112971Y-169393208D02*
X132493923Y-169393208D01*
X132255828Y-169059875D02*
X132255828Y-169917017D01*
X132255828Y-169917017D02*
X132303447Y-170012256D01*
X132303447Y-170012256D02*
X132398685Y-170059875D01*
X132398685Y-170059875D02*
X132493923Y-170059875D01*
X132970114Y-170059875D02*
X132874876Y-170012256D01*
X132874876Y-170012256D02*
X132827257Y-169964636D01*
X132827257Y-169964636D02*
X132779638Y-169869398D01*
X132779638Y-169869398D02*
X132779638Y-169583684D01*
X132779638Y-169583684D02*
X132827257Y-169488446D01*
X132827257Y-169488446D02*
X132874876Y-169440827D01*
X132874876Y-169440827D02*
X132970114Y-169393208D01*
X132970114Y-169393208D02*
X133112971Y-169393208D01*
X133112971Y-169393208D02*
X133208209Y-169440827D01*
X133208209Y-169440827D02*
X133255828Y-169488446D01*
X133255828Y-169488446D02*
X133303447Y-169583684D01*
X133303447Y-169583684D02*
X133303447Y-169869398D01*
X133303447Y-169869398D02*
X133255828Y-169964636D01*
X133255828Y-169964636D02*
X133208209Y-170012256D01*
X133208209Y-170012256D02*
X133112971Y-170059875D01*
X133112971Y-170059875D02*
X132970114Y-170059875D01*
X133732019Y-170059875D02*
X133732019Y-169393208D01*
X133732019Y-169583684D02*
X133779638Y-169488446D01*
X133779638Y-169488446D02*
X133827257Y-169440827D01*
X133827257Y-169440827D02*
X133922495Y-169393208D01*
X133922495Y-169393208D02*
X134017733Y-169393208D01*
X134303448Y-170012256D02*
X134398686Y-170059875D01*
X134398686Y-170059875D02*
X134589162Y-170059875D01*
X134589162Y-170059875D02*
X134684400Y-170012256D01*
X134684400Y-170012256D02*
X134732019Y-169917017D01*
X134732019Y-169917017D02*
X134732019Y-169869398D01*
X134732019Y-169869398D02*
X134684400Y-169774160D01*
X134684400Y-169774160D02*
X134589162Y-169726541D01*
X134589162Y-169726541D02*
X134446305Y-169726541D01*
X134446305Y-169726541D02*
X134351067Y-169678922D01*
X134351067Y-169678922D02*
X134303448Y-169583684D01*
X134303448Y-169583684D02*
X134303448Y-169536065D01*
X134303448Y-169536065D02*
X134351067Y-169440827D01*
X134351067Y-169440827D02*
X134446305Y-169393208D01*
X134446305Y-169393208D02*
X134589162Y-169393208D01*
X134589162Y-169393208D02*
X134684400Y-169440827D01*
X136303448Y-170012256D02*
X136208210Y-170059875D01*
X136208210Y-170059875D02*
X136017734Y-170059875D01*
X136017734Y-170059875D02*
X135922496Y-170012256D01*
X135922496Y-170012256D02*
X135874877Y-169917017D01*
X135874877Y-169917017D02*
X135874877Y-169536065D01*
X135874877Y-169536065D02*
X135922496Y-169440827D01*
X135922496Y-169440827D02*
X136017734Y-169393208D01*
X136017734Y-169393208D02*
X136208210Y-169393208D01*
X136208210Y-169393208D02*
X136303448Y-169440827D01*
X136303448Y-169440827D02*
X136351067Y-169536065D01*
X136351067Y-169536065D02*
X136351067Y-169631303D01*
X136351067Y-169631303D02*
X135874877Y-169726541D01*
X136684401Y-170059875D02*
X137208210Y-169393208D01*
X136684401Y-169393208D02*
X137208210Y-170059875D01*
X137446306Y-169393208D02*
X137827258Y-169393208D01*
X137589163Y-169059875D02*
X137589163Y-169917017D01*
X137589163Y-169917017D02*
X137636782Y-170012256D01*
X137636782Y-170012256D02*
X137732020Y-170059875D01*
X137732020Y-170059875D02*
X137827258Y-170059875D01*
X138541544Y-170012256D02*
X138446306Y-170059875D01*
X138446306Y-170059875D02*
X138255830Y-170059875D01*
X138255830Y-170059875D02*
X138160592Y-170012256D01*
X138160592Y-170012256D02*
X138112973Y-169917017D01*
X138112973Y-169917017D02*
X138112973Y-169536065D01*
X138112973Y-169536065D02*
X138160592Y-169440827D01*
X138160592Y-169440827D02*
X138255830Y-169393208D01*
X138255830Y-169393208D02*
X138446306Y-169393208D01*
X138446306Y-169393208D02*
X138541544Y-169440827D01*
X138541544Y-169440827D02*
X138589163Y-169536065D01*
X138589163Y-169536065D02*
X138589163Y-169631303D01*
X138589163Y-169631303D02*
X138112973Y-169726541D01*
X139017735Y-169393208D02*
X139017735Y-170059875D01*
X139017735Y-169488446D02*
X139065354Y-169440827D01*
X139065354Y-169440827D02*
X139160592Y-169393208D01*
X139160592Y-169393208D02*
X139303449Y-169393208D01*
X139303449Y-169393208D02*
X139398687Y-169440827D01*
X139398687Y-169440827D02*
X139446306Y-169536065D01*
X139446306Y-169536065D02*
X139446306Y-170059875D01*
X140351068Y-170059875D02*
X140351068Y-169059875D01*
X140351068Y-170012256D02*
X140255830Y-170059875D01*
X140255830Y-170059875D02*
X140065354Y-170059875D01*
X140065354Y-170059875D02*
X139970116Y-170012256D01*
X139970116Y-170012256D02*
X139922497Y-169964636D01*
X139922497Y-169964636D02*
X139874878Y-169869398D01*
X139874878Y-169869398D02*
X139874878Y-169583684D01*
X139874878Y-169583684D02*
X139922497Y-169488446D01*
X139922497Y-169488446D02*
X139970116Y-169440827D01*
X139970116Y-169440827D02*
X140065354Y-169393208D01*
X140065354Y-169393208D02*
X140255830Y-169393208D01*
X140255830Y-169393208D02*
X140351068Y-169440827D01*
X141779640Y-169059875D02*
X141874878Y-169059875D01*
X141874878Y-169059875D02*
X141970116Y-169107494D01*
X141970116Y-169107494D02*
X142017735Y-169155113D01*
X142017735Y-169155113D02*
X142065354Y-169250351D01*
X142065354Y-169250351D02*
X142112973Y-169440827D01*
X142112973Y-169440827D02*
X142112973Y-169678922D01*
X142112973Y-169678922D02*
X142065354Y-169869398D01*
X142065354Y-169869398D02*
X142017735Y-169964636D01*
X142017735Y-169964636D02*
X141970116Y-170012256D01*
X141970116Y-170012256D02*
X141874878Y-170059875D01*
X141874878Y-170059875D02*
X141779640Y-170059875D01*
X141779640Y-170059875D02*
X141684402Y-170012256D01*
X141684402Y-170012256D02*
X141636783Y-169964636D01*
X141636783Y-169964636D02*
X141589164Y-169869398D01*
X141589164Y-169869398D02*
X141541545Y-169678922D01*
X141541545Y-169678922D02*
X141541545Y-169440827D01*
X141541545Y-169440827D02*
X141589164Y-169250351D01*
X141589164Y-169250351D02*
X141636783Y-169155113D01*
X141636783Y-169155113D02*
X141684402Y-169107494D01*
X141684402Y-169107494D02*
X141779640Y-169059875D01*
X142541545Y-169964636D02*
X142589164Y-170012256D01*
X142589164Y-170012256D02*
X142541545Y-170059875D01*
X142541545Y-170059875D02*
X142493926Y-170012256D01*
X142493926Y-170012256D02*
X142541545Y-169964636D01*
X142541545Y-169964636D02*
X142541545Y-170059875D01*
X143446306Y-169059875D02*
X143255830Y-169059875D01*
X143255830Y-169059875D02*
X143160592Y-169107494D01*
X143160592Y-169107494D02*
X143112973Y-169155113D01*
X143112973Y-169155113D02*
X143017735Y-169297970D01*
X143017735Y-169297970D02*
X142970116Y-169488446D01*
X142970116Y-169488446D02*
X142970116Y-169869398D01*
X142970116Y-169869398D02*
X143017735Y-169964636D01*
X143017735Y-169964636D02*
X143065354Y-170012256D01*
X143065354Y-170012256D02*
X143160592Y-170059875D01*
X143160592Y-170059875D02*
X143351068Y-170059875D01*
X143351068Y-170059875D02*
X143446306Y-170012256D01*
X143446306Y-170012256D02*
X143493925Y-169964636D01*
X143493925Y-169964636D02*
X143541544Y-169869398D01*
X143541544Y-169869398D02*
X143541544Y-169631303D01*
X143541544Y-169631303D02*
X143493925Y-169536065D01*
X143493925Y-169536065D02*
X143446306Y-169488446D01*
X143446306Y-169488446D02*
X143351068Y-169440827D01*
X143351068Y-169440827D02*
X143160592Y-169440827D01*
X143160592Y-169440827D02*
X143065354Y-169488446D01*
X143065354Y-169488446D02*
X143017735Y-169536065D01*
X143017735Y-169536065D02*
X142970116Y-169631303D01*
X143970116Y-170059875D02*
X143970116Y-169393208D01*
X143970116Y-169488446D02*
X144017735Y-169440827D01*
X144017735Y-169440827D02*
X144112973Y-169393208D01*
X144112973Y-169393208D02*
X144255830Y-169393208D01*
X144255830Y-169393208D02*
X144351068Y-169440827D01*
X144351068Y-169440827D02*
X144398687Y-169536065D01*
X144398687Y-169536065D02*
X144398687Y-170059875D01*
X144398687Y-169536065D02*
X144446306Y-169440827D01*
X144446306Y-169440827D02*
X144541544Y-169393208D01*
X144541544Y-169393208D02*
X144684401Y-169393208D01*
X144684401Y-169393208D02*
X144779640Y-169440827D01*
X144779640Y-169440827D02*
X144827259Y-169536065D01*
X144827259Y-169536065D02*
X144827259Y-170059875D01*
X145303449Y-170059875D02*
X145303449Y-169393208D01*
X145303449Y-169488446D02*
X145351068Y-169440827D01*
X145351068Y-169440827D02*
X145446306Y-169393208D01*
X145446306Y-169393208D02*
X145589163Y-169393208D01*
X145589163Y-169393208D02*
X145684401Y-169440827D01*
X145684401Y-169440827D02*
X145732020Y-169536065D01*
X145732020Y-169536065D02*
X145732020Y-170059875D01*
X145732020Y-169536065D02*
X145779639Y-169440827D01*
X145779639Y-169440827D02*
X145874877Y-169393208D01*
X145874877Y-169393208D02*
X146017734Y-169393208D01*
X146017734Y-169393208D02*
X146112973Y-169440827D01*
X146112973Y-169440827D02*
X146160592Y-169536065D01*
X146160592Y-169536065D02*
X146160592Y-170059875D01*
X147255830Y-169393208D02*
X147636782Y-169393208D01*
X147398687Y-170059875D02*
X147398687Y-169202732D01*
X147398687Y-169202732D02*
X147446306Y-169107494D01*
X147446306Y-169107494D02*
X147541544Y-169059875D01*
X147541544Y-169059875D02*
X147636782Y-169059875D01*
X147970116Y-170059875D02*
X147970116Y-169393208D01*
X147970116Y-169583684D02*
X148017735Y-169488446D01*
X148017735Y-169488446D02*
X148065354Y-169440827D01*
X148065354Y-169440827D02*
X148160592Y-169393208D01*
X148160592Y-169393208D02*
X148255830Y-169393208D01*
X148732021Y-170059875D02*
X148636783Y-170012256D01*
X148636783Y-170012256D02*
X148589164Y-169964636D01*
X148589164Y-169964636D02*
X148541545Y-169869398D01*
X148541545Y-169869398D02*
X148541545Y-169583684D01*
X148541545Y-169583684D02*
X148589164Y-169488446D01*
X148589164Y-169488446D02*
X148636783Y-169440827D01*
X148636783Y-169440827D02*
X148732021Y-169393208D01*
X148732021Y-169393208D02*
X148874878Y-169393208D01*
X148874878Y-169393208D02*
X148970116Y-169440827D01*
X148970116Y-169440827D02*
X149017735Y-169488446D01*
X149017735Y-169488446D02*
X149065354Y-169583684D01*
X149065354Y-169583684D02*
X149065354Y-169869398D01*
X149065354Y-169869398D02*
X149017735Y-169964636D01*
X149017735Y-169964636D02*
X148970116Y-170012256D01*
X148970116Y-170012256D02*
X148874878Y-170059875D01*
X148874878Y-170059875D02*
X148732021Y-170059875D01*
X149493926Y-170059875D02*
X149493926Y-169393208D01*
X149493926Y-169488446D02*
X149541545Y-169440827D01*
X149541545Y-169440827D02*
X149636783Y-169393208D01*
X149636783Y-169393208D02*
X149779640Y-169393208D01*
X149779640Y-169393208D02*
X149874878Y-169440827D01*
X149874878Y-169440827D02*
X149922497Y-169536065D01*
X149922497Y-169536065D02*
X149922497Y-170059875D01*
X149922497Y-169536065D02*
X149970116Y-169440827D01*
X149970116Y-169440827D02*
X150065354Y-169393208D01*
X150065354Y-169393208D02*
X150208211Y-169393208D01*
X150208211Y-169393208D02*
X150303450Y-169440827D01*
X150303450Y-169440827D02*
X150351069Y-169536065D01*
X150351069Y-169536065D02*
X150351069Y-170059875D01*
X151589164Y-170059875D02*
X151589164Y-169059875D01*
X151589164Y-169440827D02*
X151684402Y-169393208D01*
X151684402Y-169393208D02*
X151874878Y-169393208D01*
X151874878Y-169393208D02*
X151970116Y-169440827D01*
X151970116Y-169440827D02*
X152017735Y-169488446D01*
X152017735Y-169488446D02*
X152065354Y-169583684D01*
X152065354Y-169583684D02*
X152065354Y-169869398D01*
X152065354Y-169869398D02*
X152017735Y-169964636D01*
X152017735Y-169964636D02*
X151970116Y-170012256D01*
X151970116Y-170012256D02*
X151874878Y-170059875D01*
X151874878Y-170059875D02*
X151684402Y-170059875D01*
X151684402Y-170059875D02*
X151589164Y-170012256D01*
X152636783Y-170059875D02*
X152541545Y-170012256D01*
X152541545Y-170012256D02*
X152493926Y-169964636D01*
X152493926Y-169964636D02*
X152446307Y-169869398D01*
X152446307Y-169869398D02*
X152446307Y-169583684D01*
X152446307Y-169583684D02*
X152493926Y-169488446D01*
X152493926Y-169488446D02*
X152541545Y-169440827D01*
X152541545Y-169440827D02*
X152636783Y-169393208D01*
X152636783Y-169393208D02*
X152779640Y-169393208D01*
X152779640Y-169393208D02*
X152874878Y-169440827D01*
X152874878Y-169440827D02*
X152922497Y-169488446D01*
X152922497Y-169488446D02*
X152970116Y-169583684D01*
X152970116Y-169583684D02*
X152970116Y-169869398D01*
X152970116Y-169869398D02*
X152922497Y-169964636D01*
X152922497Y-169964636D02*
X152874878Y-170012256D01*
X152874878Y-170012256D02*
X152779640Y-170059875D01*
X152779640Y-170059875D02*
X152636783Y-170059875D01*
X153827259Y-170059875D02*
X153827259Y-169536065D01*
X153827259Y-169536065D02*
X153779640Y-169440827D01*
X153779640Y-169440827D02*
X153684402Y-169393208D01*
X153684402Y-169393208D02*
X153493926Y-169393208D01*
X153493926Y-169393208D02*
X153398688Y-169440827D01*
X153827259Y-170012256D02*
X153732021Y-170059875D01*
X153732021Y-170059875D02*
X153493926Y-170059875D01*
X153493926Y-170059875D02*
X153398688Y-170012256D01*
X153398688Y-170012256D02*
X153351069Y-169917017D01*
X153351069Y-169917017D02*
X153351069Y-169821779D01*
X153351069Y-169821779D02*
X153398688Y-169726541D01*
X153398688Y-169726541D02*
X153493926Y-169678922D01*
X153493926Y-169678922D02*
X153732021Y-169678922D01*
X153732021Y-169678922D02*
X153827259Y-169631303D01*
X154303450Y-170059875D02*
X154303450Y-169393208D01*
X154303450Y-169583684D02*
X154351069Y-169488446D01*
X154351069Y-169488446D02*
X154398688Y-169440827D01*
X154398688Y-169440827D02*
X154493926Y-169393208D01*
X154493926Y-169393208D02*
X154589164Y-169393208D01*
X155351069Y-170059875D02*
X155351069Y-169059875D01*
X155351069Y-170012256D02*
X155255831Y-170059875D01*
X155255831Y-170059875D02*
X155065355Y-170059875D01*
X155065355Y-170059875D02*
X154970117Y-170012256D01*
X154970117Y-170012256D02*
X154922498Y-169964636D01*
X154922498Y-169964636D02*
X154874879Y-169869398D01*
X154874879Y-169869398D02*
X154874879Y-169583684D01*
X154874879Y-169583684D02*
X154922498Y-169488446D01*
X154922498Y-169488446D02*
X154970117Y-169440827D01*
X154970117Y-169440827D02*
X155065355Y-169393208D01*
X155065355Y-169393208D02*
X155255831Y-169393208D01*
X155255831Y-169393208D02*
X155351069Y-169440827D01*
X156970117Y-170012256D02*
X156874879Y-170059875D01*
X156874879Y-170059875D02*
X156684403Y-170059875D01*
X156684403Y-170059875D02*
X156589165Y-170012256D01*
X156589165Y-170012256D02*
X156541546Y-169917017D01*
X156541546Y-169917017D02*
X156541546Y-169536065D01*
X156541546Y-169536065D02*
X156589165Y-169440827D01*
X156589165Y-169440827D02*
X156684403Y-169393208D01*
X156684403Y-169393208D02*
X156874879Y-169393208D01*
X156874879Y-169393208D02*
X156970117Y-169440827D01*
X156970117Y-169440827D02*
X157017736Y-169536065D01*
X157017736Y-169536065D02*
X157017736Y-169631303D01*
X157017736Y-169631303D02*
X156541546Y-169726541D01*
X157874879Y-170059875D02*
X157874879Y-169059875D01*
X157874879Y-170012256D02*
X157779641Y-170059875D01*
X157779641Y-170059875D02*
X157589165Y-170059875D01*
X157589165Y-170059875D02*
X157493927Y-170012256D01*
X157493927Y-170012256D02*
X157446308Y-169964636D01*
X157446308Y-169964636D02*
X157398689Y-169869398D01*
X157398689Y-169869398D02*
X157398689Y-169583684D01*
X157398689Y-169583684D02*
X157446308Y-169488446D01*
X157446308Y-169488446D02*
X157493927Y-169440827D01*
X157493927Y-169440827D02*
X157589165Y-169393208D01*
X157589165Y-169393208D02*
X157779641Y-169393208D01*
X157779641Y-169393208D02*
X157874879Y-169440827D01*
X158779641Y-169393208D02*
X158779641Y-170202732D01*
X158779641Y-170202732D02*
X158732022Y-170297970D01*
X158732022Y-170297970D02*
X158684403Y-170345589D01*
X158684403Y-170345589D02*
X158589165Y-170393208D01*
X158589165Y-170393208D02*
X158446308Y-170393208D01*
X158446308Y-170393208D02*
X158351070Y-170345589D01*
X158779641Y-170012256D02*
X158684403Y-170059875D01*
X158684403Y-170059875D02*
X158493927Y-170059875D01*
X158493927Y-170059875D02*
X158398689Y-170012256D01*
X158398689Y-170012256D02*
X158351070Y-169964636D01*
X158351070Y-169964636D02*
X158303451Y-169869398D01*
X158303451Y-169869398D02*
X158303451Y-169583684D01*
X158303451Y-169583684D02*
X158351070Y-169488446D01*
X158351070Y-169488446D02*
X158398689Y-169440827D01*
X158398689Y-169440827D02*
X158493927Y-169393208D01*
X158493927Y-169393208D02*
X158684403Y-169393208D01*
X158684403Y-169393208D02*
X158779641Y-169440827D01*
X159636784Y-170012256D02*
X159541546Y-170059875D01*
X159541546Y-170059875D02*
X159351070Y-170059875D01*
X159351070Y-170059875D02*
X159255832Y-170012256D01*
X159255832Y-170012256D02*
X159208213Y-169917017D01*
X159208213Y-169917017D02*
X159208213Y-169536065D01*
X159208213Y-169536065D02*
X159255832Y-169440827D01*
X159255832Y-169440827D02*
X159351070Y-169393208D01*
X159351070Y-169393208D02*
X159541546Y-169393208D01*
X159541546Y-169393208D02*
X159636784Y-169440827D01*
X159636784Y-169440827D02*
X159684403Y-169536065D01*
X159684403Y-169536065D02*
X159684403Y-169631303D01*
X159684403Y-169631303D02*
X159208213Y-169726541D01*
X160160594Y-170012256D02*
X160160594Y-170059875D01*
X160160594Y-170059875D02*
X160112975Y-170155113D01*
X160112975Y-170155113D02*
X160065356Y-170202732D01*
X118684398Y-171669819D02*
X118874874Y-171669819D01*
X118874874Y-171669819D02*
X118970112Y-171622200D01*
X118970112Y-171622200D02*
X119017731Y-171574580D01*
X119017731Y-171574580D02*
X119112969Y-171431723D01*
X119112969Y-171431723D02*
X119160588Y-171241247D01*
X119160588Y-171241247D02*
X119160588Y-170860295D01*
X119160588Y-170860295D02*
X119112969Y-170765057D01*
X119112969Y-170765057D02*
X119065350Y-170717438D01*
X119065350Y-170717438D02*
X118970112Y-170669819D01*
X118970112Y-170669819D02*
X118779636Y-170669819D01*
X118779636Y-170669819D02*
X118684398Y-170717438D01*
X118684398Y-170717438D02*
X118636779Y-170765057D01*
X118636779Y-170765057D02*
X118589160Y-170860295D01*
X118589160Y-170860295D02*
X118589160Y-171098390D01*
X118589160Y-171098390D02*
X118636779Y-171193628D01*
X118636779Y-171193628D02*
X118684398Y-171241247D01*
X118684398Y-171241247D02*
X118779636Y-171288866D01*
X118779636Y-171288866D02*
X118970112Y-171288866D01*
X118970112Y-171288866D02*
X119065350Y-171241247D01*
X119065350Y-171241247D02*
X119112969Y-171193628D01*
X119112969Y-171193628D02*
X119160588Y-171098390D01*
X119636779Y-171669819D02*
X119827255Y-171669819D01*
X119827255Y-171669819D02*
X119922493Y-171622200D01*
X119922493Y-171622200D02*
X119970112Y-171574580D01*
X119970112Y-171574580D02*
X120065350Y-171431723D01*
X120065350Y-171431723D02*
X120112969Y-171241247D01*
X120112969Y-171241247D02*
X120112969Y-170860295D01*
X120112969Y-170860295D02*
X120065350Y-170765057D01*
X120065350Y-170765057D02*
X120017731Y-170717438D01*
X120017731Y-170717438D02*
X119922493Y-170669819D01*
X119922493Y-170669819D02*
X119732017Y-170669819D01*
X119732017Y-170669819D02*
X119636779Y-170717438D01*
X119636779Y-170717438D02*
X119589160Y-170765057D01*
X119589160Y-170765057D02*
X119541541Y-170860295D01*
X119541541Y-170860295D02*
X119541541Y-171098390D01*
X119541541Y-171098390D02*
X119589160Y-171193628D01*
X119589160Y-171193628D02*
X119636779Y-171241247D01*
X119636779Y-171241247D02*
X119732017Y-171288866D01*
X119732017Y-171288866D02*
X119922493Y-171288866D01*
X119922493Y-171288866D02*
X120017731Y-171241247D01*
X120017731Y-171241247D02*
X120065350Y-171193628D01*
X120065350Y-171193628D02*
X120112969Y-171098390D01*
X120541541Y-171574580D02*
X120589160Y-171622200D01*
X120589160Y-171622200D02*
X120541541Y-171669819D01*
X120541541Y-171669819D02*
X120493922Y-171622200D01*
X120493922Y-171622200D02*
X120541541Y-171574580D01*
X120541541Y-171574580D02*
X120541541Y-171669819D01*
X121446302Y-171003152D02*
X121446302Y-171669819D01*
X121208207Y-170622200D02*
X120970112Y-171336485D01*
X120970112Y-171336485D02*
X121589159Y-171336485D01*
X121970112Y-171669819D02*
X121970112Y-171003152D01*
X121970112Y-171098390D02*
X122017731Y-171050771D01*
X122017731Y-171050771D02*
X122112969Y-171003152D01*
X122112969Y-171003152D02*
X122255826Y-171003152D01*
X122255826Y-171003152D02*
X122351064Y-171050771D01*
X122351064Y-171050771D02*
X122398683Y-171146009D01*
X122398683Y-171146009D02*
X122398683Y-171669819D01*
X122398683Y-171146009D02*
X122446302Y-171050771D01*
X122446302Y-171050771D02*
X122541540Y-171003152D01*
X122541540Y-171003152D02*
X122684397Y-171003152D01*
X122684397Y-171003152D02*
X122779636Y-171050771D01*
X122779636Y-171050771D02*
X122827255Y-171146009D01*
X122827255Y-171146009D02*
X122827255Y-171669819D01*
X123303445Y-171669819D02*
X123303445Y-171003152D01*
X123303445Y-171098390D02*
X123351064Y-171050771D01*
X123351064Y-171050771D02*
X123446302Y-171003152D01*
X123446302Y-171003152D02*
X123589159Y-171003152D01*
X123589159Y-171003152D02*
X123684397Y-171050771D01*
X123684397Y-171050771D02*
X123732016Y-171146009D01*
X123732016Y-171146009D02*
X123732016Y-171669819D01*
X123732016Y-171146009D02*
X123779635Y-171050771D01*
X123779635Y-171050771D02*
X123874873Y-171003152D01*
X123874873Y-171003152D02*
X124017730Y-171003152D01*
X124017730Y-171003152D02*
X124112969Y-171050771D01*
X124112969Y-171050771D02*
X124160588Y-171146009D01*
X124160588Y-171146009D02*
X124160588Y-171669819D01*
X125398683Y-171288866D02*
X126160588Y-171288866D01*
X125779635Y-171669819D02*
X125779635Y-170907914D01*
X127589159Y-170669819D02*
X127684397Y-170669819D01*
X127684397Y-170669819D02*
X127779635Y-170717438D01*
X127779635Y-170717438D02*
X127827254Y-170765057D01*
X127827254Y-170765057D02*
X127874873Y-170860295D01*
X127874873Y-170860295D02*
X127922492Y-171050771D01*
X127922492Y-171050771D02*
X127922492Y-171288866D01*
X127922492Y-171288866D02*
X127874873Y-171479342D01*
X127874873Y-171479342D02*
X127827254Y-171574580D01*
X127827254Y-171574580D02*
X127779635Y-171622200D01*
X127779635Y-171622200D02*
X127684397Y-171669819D01*
X127684397Y-171669819D02*
X127589159Y-171669819D01*
X127589159Y-171669819D02*
X127493921Y-171622200D01*
X127493921Y-171622200D02*
X127446302Y-171574580D01*
X127446302Y-171574580D02*
X127398683Y-171479342D01*
X127398683Y-171479342D02*
X127351064Y-171288866D01*
X127351064Y-171288866D02*
X127351064Y-171050771D01*
X127351064Y-171050771D02*
X127398683Y-170860295D01*
X127398683Y-170860295D02*
X127446302Y-170765057D01*
X127446302Y-170765057D02*
X127493921Y-170717438D01*
X127493921Y-170717438D02*
X127589159Y-170669819D01*
X128351064Y-171574580D02*
X128398683Y-171622200D01*
X128398683Y-171622200D02*
X128351064Y-171669819D01*
X128351064Y-171669819D02*
X128303445Y-171622200D01*
X128303445Y-171622200D02*
X128351064Y-171574580D01*
X128351064Y-171574580D02*
X128351064Y-171669819D01*
X129255825Y-170669819D02*
X129065349Y-170669819D01*
X129065349Y-170669819D02*
X128970111Y-170717438D01*
X128970111Y-170717438D02*
X128922492Y-170765057D01*
X128922492Y-170765057D02*
X128827254Y-170907914D01*
X128827254Y-170907914D02*
X128779635Y-171098390D01*
X128779635Y-171098390D02*
X128779635Y-171479342D01*
X128779635Y-171479342D02*
X128827254Y-171574580D01*
X128827254Y-171574580D02*
X128874873Y-171622200D01*
X128874873Y-171622200D02*
X128970111Y-171669819D01*
X128970111Y-171669819D02*
X129160587Y-171669819D01*
X129160587Y-171669819D02*
X129255825Y-171622200D01*
X129255825Y-171622200D02*
X129303444Y-171574580D01*
X129303444Y-171574580D02*
X129351063Y-171479342D01*
X129351063Y-171479342D02*
X129351063Y-171241247D01*
X129351063Y-171241247D02*
X129303444Y-171146009D01*
X129303444Y-171146009D02*
X129255825Y-171098390D01*
X129255825Y-171098390D02*
X129160587Y-171050771D01*
X129160587Y-171050771D02*
X128970111Y-171050771D01*
X128970111Y-171050771D02*
X128874873Y-171098390D01*
X128874873Y-171098390D02*
X128827254Y-171146009D01*
X128827254Y-171146009D02*
X128779635Y-171241247D01*
X129779635Y-171669819D02*
X129779635Y-171003152D01*
X129779635Y-171098390D02*
X129827254Y-171050771D01*
X129827254Y-171050771D02*
X129922492Y-171003152D01*
X129922492Y-171003152D02*
X130065349Y-171003152D01*
X130065349Y-171003152D02*
X130160587Y-171050771D01*
X130160587Y-171050771D02*
X130208206Y-171146009D01*
X130208206Y-171146009D02*
X130208206Y-171669819D01*
X130208206Y-171146009D02*
X130255825Y-171050771D01*
X130255825Y-171050771D02*
X130351063Y-171003152D01*
X130351063Y-171003152D02*
X130493920Y-171003152D01*
X130493920Y-171003152D02*
X130589159Y-171050771D01*
X130589159Y-171050771D02*
X130636778Y-171146009D01*
X130636778Y-171146009D02*
X130636778Y-171669819D01*
X131112968Y-171669819D02*
X131112968Y-171003152D01*
X131112968Y-171098390D02*
X131160587Y-171050771D01*
X131160587Y-171050771D02*
X131255825Y-171003152D01*
X131255825Y-171003152D02*
X131398682Y-171003152D01*
X131398682Y-171003152D02*
X131493920Y-171050771D01*
X131493920Y-171050771D02*
X131541539Y-171146009D01*
X131541539Y-171146009D02*
X131541539Y-171669819D01*
X131541539Y-171146009D02*
X131589158Y-171050771D01*
X131589158Y-171050771D02*
X131684396Y-171003152D01*
X131684396Y-171003152D02*
X131827253Y-171003152D01*
X131827253Y-171003152D02*
X131922492Y-171050771D01*
X131922492Y-171050771D02*
X131970111Y-171146009D01*
X131970111Y-171146009D02*
X131970111Y-171669819D01*
X133208206Y-171146009D02*
X133970111Y-171146009D01*
X133970111Y-171431723D02*
X133208206Y-171431723D01*
X135732015Y-171669819D02*
X135160587Y-171669819D01*
X135446301Y-171669819D02*
X135446301Y-170669819D01*
X135446301Y-170669819D02*
X135351063Y-170812676D01*
X135351063Y-170812676D02*
X135255825Y-170907914D01*
X135255825Y-170907914D02*
X135160587Y-170955533D01*
X136351063Y-170669819D02*
X136446301Y-170669819D01*
X136446301Y-170669819D02*
X136541539Y-170717438D01*
X136541539Y-170717438D02*
X136589158Y-170765057D01*
X136589158Y-170765057D02*
X136636777Y-170860295D01*
X136636777Y-170860295D02*
X136684396Y-171050771D01*
X136684396Y-171050771D02*
X136684396Y-171288866D01*
X136684396Y-171288866D02*
X136636777Y-171479342D01*
X136636777Y-171479342D02*
X136589158Y-171574580D01*
X136589158Y-171574580D02*
X136541539Y-171622200D01*
X136541539Y-171622200D02*
X136446301Y-171669819D01*
X136446301Y-171669819D02*
X136351063Y-171669819D01*
X136351063Y-171669819D02*
X136255825Y-171622200D01*
X136255825Y-171622200D02*
X136208206Y-171574580D01*
X136208206Y-171574580D02*
X136160587Y-171479342D01*
X136160587Y-171479342D02*
X136112968Y-171288866D01*
X136112968Y-171288866D02*
X136112968Y-171050771D01*
X136112968Y-171050771D02*
X136160587Y-170860295D01*
X136160587Y-170860295D02*
X136208206Y-170765057D01*
X136208206Y-170765057D02*
X136255825Y-170717438D01*
X136255825Y-170717438D02*
X136351063Y-170669819D01*
X137303444Y-170669819D02*
X137398682Y-170669819D01*
X137398682Y-170669819D02*
X137493920Y-170717438D01*
X137493920Y-170717438D02*
X137541539Y-170765057D01*
X137541539Y-170765057D02*
X137589158Y-170860295D01*
X137589158Y-170860295D02*
X137636777Y-171050771D01*
X137636777Y-171050771D02*
X137636777Y-171288866D01*
X137636777Y-171288866D02*
X137589158Y-171479342D01*
X137589158Y-171479342D02*
X137541539Y-171574580D01*
X137541539Y-171574580D02*
X137493920Y-171622200D01*
X137493920Y-171622200D02*
X137398682Y-171669819D01*
X137398682Y-171669819D02*
X137303444Y-171669819D01*
X137303444Y-171669819D02*
X137208206Y-171622200D01*
X137208206Y-171622200D02*
X137160587Y-171574580D01*
X137160587Y-171574580D02*
X137112968Y-171479342D01*
X137112968Y-171479342D02*
X137065349Y-171288866D01*
X137065349Y-171288866D02*
X137065349Y-171050771D01*
X137065349Y-171050771D02*
X137112968Y-170860295D01*
X137112968Y-170860295D02*
X137160587Y-170765057D01*
X137160587Y-170765057D02*
X137208206Y-170717438D01*
X137208206Y-170717438D02*
X137303444Y-170669819D01*
X138065349Y-171669819D02*
X138065349Y-171003152D01*
X138065349Y-171098390D02*
X138112968Y-171050771D01*
X138112968Y-171050771D02*
X138208206Y-171003152D01*
X138208206Y-171003152D02*
X138351063Y-171003152D01*
X138351063Y-171003152D02*
X138446301Y-171050771D01*
X138446301Y-171050771D02*
X138493920Y-171146009D01*
X138493920Y-171146009D02*
X138493920Y-171669819D01*
X138493920Y-171146009D02*
X138541539Y-171050771D01*
X138541539Y-171050771D02*
X138636777Y-171003152D01*
X138636777Y-171003152D02*
X138779634Y-171003152D01*
X138779634Y-171003152D02*
X138874873Y-171050771D01*
X138874873Y-171050771D02*
X138922492Y-171146009D01*
X138922492Y-171146009D02*
X138922492Y-171669819D01*
X139398682Y-171669819D02*
X139398682Y-171003152D01*
X139398682Y-171098390D02*
X139446301Y-171050771D01*
X139446301Y-171050771D02*
X139541539Y-171003152D01*
X139541539Y-171003152D02*
X139684396Y-171003152D01*
X139684396Y-171003152D02*
X139779634Y-171050771D01*
X139779634Y-171050771D02*
X139827253Y-171146009D01*
X139827253Y-171146009D02*
X139827253Y-171669819D01*
X139827253Y-171146009D02*
X139874872Y-171050771D01*
X139874872Y-171050771D02*
X139970110Y-171003152D01*
X139970110Y-171003152D02*
X140112967Y-171003152D01*
X140112967Y-171003152D02*
X140208206Y-171050771D01*
X140208206Y-171050771D02*
X140255825Y-171146009D01*
X140255825Y-171146009D02*
X140255825Y-171669819D01*
X138908207Y-164774580D02*
X138860588Y-164822200D01*
X138860588Y-164822200D02*
X138717731Y-164869819D01*
X138717731Y-164869819D02*
X138622493Y-164869819D01*
X138622493Y-164869819D02*
X138479636Y-164822200D01*
X138479636Y-164822200D02*
X138384398Y-164726961D01*
X138384398Y-164726961D02*
X138336779Y-164631723D01*
X138336779Y-164631723D02*
X138289160Y-164441247D01*
X138289160Y-164441247D02*
X138289160Y-164298390D01*
X138289160Y-164298390D02*
X138336779Y-164107914D01*
X138336779Y-164107914D02*
X138384398Y-164012676D01*
X138384398Y-164012676D02*
X138479636Y-163917438D01*
X138479636Y-163917438D02*
X138622493Y-163869819D01*
X138622493Y-163869819D02*
X138717731Y-163869819D01*
X138717731Y-163869819D02*
X138860588Y-163917438D01*
X138860588Y-163917438D02*
X138908207Y-163965057D01*
X139717731Y-164822200D02*
X139622493Y-164869819D01*
X139622493Y-164869819D02*
X139432017Y-164869819D01*
X139432017Y-164869819D02*
X139336779Y-164822200D01*
X139336779Y-164822200D02*
X139289160Y-164726961D01*
X139289160Y-164726961D02*
X139289160Y-164346009D01*
X139289160Y-164346009D02*
X139336779Y-164250771D01*
X139336779Y-164250771D02*
X139432017Y-164203152D01*
X139432017Y-164203152D02*
X139622493Y-164203152D01*
X139622493Y-164203152D02*
X139717731Y-164250771D01*
X139717731Y-164250771D02*
X139765350Y-164346009D01*
X139765350Y-164346009D02*
X139765350Y-164441247D01*
X139765350Y-164441247D02*
X139289160Y-164536485D01*
X140193922Y-164203152D02*
X140193922Y-164869819D01*
X140193922Y-164298390D02*
X140241541Y-164250771D01*
X140241541Y-164250771D02*
X140336779Y-164203152D01*
X140336779Y-164203152D02*
X140479636Y-164203152D01*
X140479636Y-164203152D02*
X140574874Y-164250771D01*
X140574874Y-164250771D02*
X140622493Y-164346009D01*
X140622493Y-164346009D02*
X140622493Y-164869819D01*
X140955827Y-164203152D02*
X141336779Y-164203152D01*
X141098684Y-163869819D02*
X141098684Y-164726961D01*
X141098684Y-164726961D02*
X141146303Y-164822200D01*
X141146303Y-164822200D02*
X141241541Y-164869819D01*
X141241541Y-164869819D02*
X141336779Y-164869819D01*
X142051065Y-164822200D02*
X141955827Y-164869819D01*
X141955827Y-164869819D02*
X141765351Y-164869819D01*
X141765351Y-164869819D02*
X141670113Y-164822200D01*
X141670113Y-164822200D02*
X141622494Y-164726961D01*
X141622494Y-164726961D02*
X141622494Y-164346009D01*
X141622494Y-164346009D02*
X141670113Y-164250771D01*
X141670113Y-164250771D02*
X141765351Y-164203152D01*
X141765351Y-164203152D02*
X141955827Y-164203152D01*
X141955827Y-164203152D02*
X142051065Y-164250771D01*
X142051065Y-164250771D02*
X142098684Y-164346009D01*
X142098684Y-164346009D02*
X142098684Y-164441247D01*
X142098684Y-164441247D02*
X141622494Y-164536485D01*
X142527256Y-164869819D02*
X142527256Y-164203152D01*
X142527256Y-164393628D02*
X142574875Y-164298390D01*
X142574875Y-164298390D02*
X142622494Y-164250771D01*
X142622494Y-164250771D02*
X142717732Y-164203152D01*
X142717732Y-164203152D02*
X142812970Y-164203152D01*
X174336779Y-164346009D02*
X174670112Y-164346009D01*
X174812969Y-164869819D02*
X174336779Y-164869819D01*
X174336779Y-164869819D02*
X174336779Y-163869819D01*
X174336779Y-163869819D02*
X174812969Y-163869819D01*
X175670112Y-164869819D02*
X175670112Y-163869819D01*
X175670112Y-164822200D02*
X175574874Y-164869819D01*
X175574874Y-164869819D02*
X175384398Y-164869819D01*
X175384398Y-164869819D02*
X175289160Y-164822200D01*
X175289160Y-164822200D02*
X175241541Y-164774580D01*
X175241541Y-164774580D02*
X175193922Y-164679342D01*
X175193922Y-164679342D02*
X175193922Y-164393628D01*
X175193922Y-164393628D02*
X175241541Y-164298390D01*
X175241541Y-164298390D02*
X175289160Y-164250771D01*
X175289160Y-164250771D02*
X175384398Y-164203152D01*
X175384398Y-164203152D02*
X175574874Y-164203152D01*
X175574874Y-164203152D02*
X175670112Y-164250771D01*
X176574874Y-164203152D02*
X176574874Y-165012676D01*
X176574874Y-165012676D02*
X176527255Y-165107914D01*
X176527255Y-165107914D02*
X176479636Y-165155533D01*
X176479636Y-165155533D02*
X176384398Y-165203152D01*
X176384398Y-165203152D02*
X176241541Y-165203152D01*
X176241541Y-165203152D02*
X176146303Y-165155533D01*
X176574874Y-164822200D02*
X176479636Y-164869819D01*
X176479636Y-164869819D02*
X176289160Y-164869819D01*
X176289160Y-164869819D02*
X176193922Y-164822200D01*
X176193922Y-164822200D02*
X176146303Y-164774580D01*
X176146303Y-164774580D02*
X176098684Y-164679342D01*
X176098684Y-164679342D02*
X176098684Y-164393628D01*
X176098684Y-164393628D02*
X176146303Y-164298390D01*
X176146303Y-164298390D02*
X176193922Y-164250771D01*
X176193922Y-164250771D02*
X176289160Y-164203152D01*
X176289160Y-164203152D02*
X176479636Y-164203152D01*
X176479636Y-164203152D02*
X176574874Y-164250771D01*
X177432017Y-164822200D02*
X177336779Y-164869819D01*
X177336779Y-164869819D02*
X177146303Y-164869819D01*
X177146303Y-164869819D02*
X177051065Y-164822200D01*
X177051065Y-164822200D02*
X177003446Y-164726961D01*
X177003446Y-164726961D02*
X177003446Y-164346009D01*
X177003446Y-164346009D02*
X177051065Y-164250771D01*
X177051065Y-164250771D02*
X177146303Y-164203152D01*
X177146303Y-164203152D02*
X177336779Y-164203152D01*
X177336779Y-164203152D02*
X177432017Y-164250771D01*
X177432017Y-164250771D02*
X177479636Y-164346009D01*
X177479636Y-164346009D02*
X177479636Y-164441247D01*
X177479636Y-164441247D02*
X177003446Y-164536485D01*
X179241541Y-164774580D02*
X179193922Y-164822200D01*
X179193922Y-164822200D02*
X179051065Y-164869819D01*
X179051065Y-164869819D02*
X178955827Y-164869819D01*
X178955827Y-164869819D02*
X178812970Y-164822200D01*
X178812970Y-164822200D02*
X178717732Y-164726961D01*
X178717732Y-164726961D02*
X178670113Y-164631723D01*
X178670113Y-164631723D02*
X178622494Y-164441247D01*
X178622494Y-164441247D02*
X178622494Y-164298390D01*
X178622494Y-164298390D02*
X178670113Y-164107914D01*
X178670113Y-164107914D02*
X178717732Y-164012676D01*
X178717732Y-164012676D02*
X178812970Y-163917438D01*
X178812970Y-163917438D02*
X178955827Y-163869819D01*
X178955827Y-163869819D02*
X179051065Y-163869819D01*
X179051065Y-163869819D02*
X179193922Y-163917438D01*
X179193922Y-163917438D02*
X179241541Y-163965057D01*
X179812970Y-164869819D02*
X179717732Y-164822200D01*
X179717732Y-164822200D02*
X179670113Y-164726961D01*
X179670113Y-164726961D02*
X179670113Y-163869819D01*
X180574875Y-164822200D02*
X180479637Y-164869819D01*
X180479637Y-164869819D02*
X180289161Y-164869819D01*
X180289161Y-164869819D02*
X180193923Y-164822200D01*
X180193923Y-164822200D02*
X180146304Y-164726961D01*
X180146304Y-164726961D02*
X180146304Y-164346009D01*
X180146304Y-164346009D02*
X180193923Y-164250771D01*
X180193923Y-164250771D02*
X180289161Y-164203152D01*
X180289161Y-164203152D02*
X180479637Y-164203152D01*
X180479637Y-164203152D02*
X180574875Y-164250771D01*
X180574875Y-164250771D02*
X180622494Y-164346009D01*
X180622494Y-164346009D02*
X180622494Y-164441247D01*
X180622494Y-164441247D02*
X180146304Y-164536485D01*
X181479637Y-164869819D02*
X181479637Y-164346009D01*
X181479637Y-164346009D02*
X181432018Y-164250771D01*
X181432018Y-164250771D02*
X181336780Y-164203152D01*
X181336780Y-164203152D02*
X181146304Y-164203152D01*
X181146304Y-164203152D02*
X181051066Y-164250771D01*
X181479637Y-164822200D02*
X181384399Y-164869819D01*
X181384399Y-164869819D02*
X181146304Y-164869819D01*
X181146304Y-164869819D02*
X181051066Y-164822200D01*
X181051066Y-164822200D02*
X181003447Y-164726961D01*
X181003447Y-164726961D02*
X181003447Y-164631723D01*
X181003447Y-164631723D02*
X181051066Y-164536485D01*
X181051066Y-164536485D02*
X181146304Y-164488866D01*
X181146304Y-164488866D02*
X181384399Y-164488866D01*
X181384399Y-164488866D02*
X181479637Y-164441247D01*
X181955828Y-164869819D02*
X181955828Y-164203152D01*
X181955828Y-164393628D02*
X182003447Y-164298390D01*
X182003447Y-164298390D02*
X182051066Y-164250771D01*
X182051066Y-164250771D02*
X182146304Y-164203152D01*
X182146304Y-164203152D02*
X182241542Y-164203152D01*
X183003447Y-164869819D02*
X183003447Y-164346009D01*
X183003447Y-164346009D02*
X182955828Y-164250771D01*
X182955828Y-164250771D02*
X182860590Y-164203152D01*
X182860590Y-164203152D02*
X182670114Y-164203152D01*
X182670114Y-164203152D02*
X182574876Y-164250771D01*
X183003447Y-164822200D02*
X182908209Y-164869819D01*
X182908209Y-164869819D02*
X182670114Y-164869819D01*
X182670114Y-164869819D02*
X182574876Y-164822200D01*
X182574876Y-164822200D02*
X182527257Y-164726961D01*
X182527257Y-164726961D02*
X182527257Y-164631723D01*
X182527257Y-164631723D02*
X182574876Y-164536485D01*
X182574876Y-164536485D02*
X182670114Y-164488866D01*
X182670114Y-164488866D02*
X182908209Y-164488866D01*
X182908209Y-164488866D02*
X183003447Y-164441247D01*
X183479638Y-164203152D02*
X183479638Y-164869819D01*
X183479638Y-164298390D02*
X183527257Y-164250771D01*
X183527257Y-164250771D02*
X183622495Y-164203152D01*
X183622495Y-164203152D02*
X183765352Y-164203152D01*
X183765352Y-164203152D02*
X183860590Y-164250771D01*
X183860590Y-164250771D02*
X183908209Y-164346009D01*
X183908209Y-164346009D02*
X183908209Y-164869819D01*
X184812971Y-164822200D02*
X184717733Y-164869819D01*
X184717733Y-164869819D02*
X184527257Y-164869819D01*
X184527257Y-164869819D02*
X184432019Y-164822200D01*
X184432019Y-164822200D02*
X184384400Y-164774580D01*
X184384400Y-164774580D02*
X184336781Y-164679342D01*
X184336781Y-164679342D02*
X184336781Y-164393628D01*
X184336781Y-164393628D02*
X184384400Y-164298390D01*
X184384400Y-164298390D02*
X184432019Y-164250771D01*
X184432019Y-164250771D02*
X184527257Y-164203152D01*
X184527257Y-164203152D02*
X184717733Y-164203152D01*
X184717733Y-164203152D02*
X184812971Y-164250771D01*
X185622495Y-164822200D02*
X185527257Y-164869819D01*
X185527257Y-164869819D02*
X185336781Y-164869819D01*
X185336781Y-164869819D02*
X185241543Y-164822200D01*
X185241543Y-164822200D02*
X185193924Y-164726961D01*
X185193924Y-164726961D02*
X185193924Y-164346009D01*
X185193924Y-164346009D02*
X185241543Y-164250771D01*
X185241543Y-164250771D02*
X185336781Y-164203152D01*
X185336781Y-164203152D02*
X185527257Y-164203152D01*
X185527257Y-164203152D02*
X185622495Y-164250771D01*
X185622495Y-164250771D02*
X185670114Y-164346009D01*
X185670114Y-164346009D02*
X185670114Y-164441247D01*
X185670114Y-164441247D02*
X185193924Y-164536485D01*
X132476190Y-161304819D02*
X131904762Y-161304819D01*
X132190476Y-161304819D02*
X132190476Y-160304819D01*
X132190476Y-160304819D02*
X132095238Y-160447676D01*
X132095238Y-160447676D02*
X132000000Y-160542914D01*
X132000000Y-160542914D02*
X131904762Y-160590533D01*
X133047619Y-160733390D02*
X132952381Y-160685771D01*
X132952381Y-160685771D02*
X132904762Y-160638152D01*
X132904762Y-160638152D02*
X132857143Y-160542914D01*
X132857143Y-160542914D02*
X132857143Y-160495295D01*
X132857143Y-160495295D02*
X132904762Y-160400057D01*
X132904762Y-160400057D02*
X132952381Y-160352438D01*
X132952381Y-160352438D02*
X133047619Y-160304819D01*
X133047619Y-160304819D02*
X133238095Y-160304819D01*
X133238095Y-160304819D02*
X133333333Y-160352438D01*
X133333333Y-160352438D02*
X133380952Y-160400057D01*
X133380952Y-160400057D02*
X133428571Y-160495295D01*
X133428571Y-160495295D02*
X133428571Y-160542914D01*
X133428571Y-160542914D02*
X133380952Y-160638152D01*
X133380952Y-160638152D02*
X133333333Y-160685771D01*
X133333333Y-160685771D02*
X133238095Y-160733390D01*
X133238095Y-160733390D02*
X133047619Y-160733390D01*
X133047619Y-160733390D02*
X132952381Y-160781009D01*
X132952381Y-160781009D02*
X132904762Y-160828628D01*
X132904762Y-160828628D02*
X132857143Y-160923866D01*
X132857143Y-160923866D02*
X132857143Y-161114342D01*
X132857143Y-161114342D02*
X132904762Y-161209580D01*
X132904762Y-161209580D02*
X132952381Y-161257200D01*
X132952381Y-161257200D02*
X133047619Y-161304819D01*
X133047619Y-161304819D02*
X133238095Y-161304819D01*
X133238095Y-161304819D02*
X133333333Y-161257200D01*
X133333333Y-161257200D02*
X133380952Y-161209580D01*
X133380952Y-161209580D02*
X133428571Y-161114342D01*
X133428571Y-161114342D02*
X133428571Y-160923866D01*
X133428571Y-160923866D02*
X133380952Y-160828628D01*
X133380952Y-160828628D02*
X133333333Y-160781009D01*
X133333333Y-160781009D02*
X133238095Y-160733390D01*
X133857143Y-161304819D02*
X133857143Y-160638152D01*
X133857143Y-160733390D02*
X133904762Y-160685771D01*
X133904762Y-160685771D02*
X134000000Y-160638152D01*
X134000000Y-160638152D02*
X134142857Y-160638152D01*
X134142857Y-160638152D02*
X134238095Y-160685771D01*
X134238095Y-160685771D02*
X134285714Y-160781009D01*
X134285714Y-160781009D02*
X134285714Y-161304819D01*
X134285714Y-160781009D02*
X134333333Y-160685771D01*
X134333333Y-160685771D02*
X134428571Y-160638152D01*
X134428571Y-160638152D02*
X134571428Y-160638152D01*
X134571428Y-160638152D02*
X134666667Y-160685771D01*
X134666667Y-160685771D02*
X134714286Y-160781009D01*
X134714286Y-160781009D02*
X134714286Y-161304819D01*
X135190476Y-161304819D02*
X135190476Y-160638152D01*
X135190476Y-160733390D02*
X135238095Y-160685771D01*
X135238095Y-160685771D02*
X135333333Y-160638152D01*
X135333333Y-160638152D02*
X135476190Y-160638152D01*
X135476190Y-160638152D02*
X135571428Y-160685771D01*
X135571428Y-160685771D02*
X135619047Y-160781009D01*
X135619047Y-160781009D02*
X135619047Y-161304819D01*
X135619047Y-160781009D02*
X135666666Y-160685771D01*
X135666666Y-160685771D02*
X135761904Y-160638152D01*
X135761904Y-160638152D02*
X135904761Y-160638152D01*
X135904761Y-160638152D02*
X136000000Y-160685771D01*
X136000000Y-160685771D02*
X136047619Y-160781009D01*
X136047619Y-160781009D02*
X136047619Y-161304819D01*
D10*
X129000000Y-160500000D02*
X129000000Y-162586420D01*
X147000000Y-162586420D02*
X147000000Y-160500000D01*
X129000000Y-162000000D02*
X147000000Y-162000000D01*
X129000000Y-162000000D02*
X130126504Y-161413579D01*
X129000000Y-162000000D02*
X130126504Y-162586421D01*
X147000000Y-162000000D02*
X145873496Y-162586421D01*
X147000000Y-162000000D02*
X145873496Y-161413579D01*
D11*
X136714286Y-175233390D02*
X136619048Y-175185771D01*
X136619048Y-175185771D02*
X136571429Y-175138152D01*
X136571429Y-175138152D02*
X136523810Y-175042914D01*
X136523810Y-175042914D02*
X136523810Y-174995295D01*
X136523810Y-174995295D02*
X136571429Y-174900057D01*
X136571429Y-174900057D02*
X136619048Y-174852438D01*
X136619048Y-174852438D02*
X136714286Y-174804819D01*
X136714286Y-174804819D02*
X136904762Y-174804819D01*
X136904762Y-174804819D02*
X137000000Y-174852438D01*
X137000000Y-174852438D02*
X137047619Y-174900057D01*
X137047619Y-174900057D02*
X137095238Y-174995295D01*
X137095238Y-174995295D02*
X137095238Y-175042914D01*
X137095238Y-175042914D02*
X137047619Y-175138152D01*
X137047619Y-175138152D02*
X137000000Y-175185771D01*
X137000000Y-175185771D02*
X136904762Y-175233390D01*
X136904762Y-175233390D02*
X136714286Y-175233390D01*
X136714286Y-175233390D02*
X136619048Y-175281009D01*
X136619048Y-175281009D02*
X136571429Y-175328628D01*
X136571429Y-175328628D02*
X136523810Y-175423866D01*
X136523810Y-175423866D02*
X136523810Y-175614342D01*
X136523810Y-175614342D02*
X136571429Y-175709580D01*
X136571429Y-175709580D02*
X136619048Y-175757200D01*
X136619048Y-175757200D02*
X136714286Y-175804819D01*
X136714286Y-175804819D02*
X136904762Y-175804819D01*
X136904762Y-175804819D02*
X137000000Y-175757200D01*
X137000000Y-175757200D02*
X137047619Y-175709580D01*
X137047619Y-175709580D02*
X137095238Y-175614342D01*
X137095238Y-175614342D02*
X137095238Y-175423866D01*
X137095238Y-175423866D02*
X137047619Y-175328628D01*
X137047619Y-175328628D02*
X137000000Y-175281009D01*
X137000000Y-175281009D02*
X136904762Y-175233390D01*
X137428572Y-174804819D02*
X138047619Y-174804819D01*
X138047619Y-174804819D02*
X137714286Y-175185771D01*
X137714286Y-175185771D02*
X137857143Y-175185771D01*
X137857143Y-175185771D02*
X137952381Y-175233390D01*
X137952381Y-175233390D02*
X138000000Y-175281009D01*
X138000000Y-175281009D02*
X138047619Y-175376247D01*
X138047619Y-175376247D02*
X138047619Y-175614342D01*
X138047619Y-175614342D02*
X138000000Y-175709580D01*
X138000000Y-175709580D02*
X137952381Y-175757200D01*
X137952381Y-175757200D02*
X137857143Y-175804819D01*
X137857143Y-175804819D02*
X137571429Y-175804819D01*
X137571429Y-175804819D02*
X137476191Y-175757200D01*
X137476191Y-175757200D02*
X137428572Y-175709580D01*
X138476191Y-175709580D02*
X138523810Y-175757200D01*
X138523810Y-175757200D02*
X138476191Y-175804819D01*
X138476191Y-175804819D02*
X138428572Y-175757200D01*
X138428572Y-175757200D02*
X138476191Y-175709580D01*
X138476191Y-175709580D02*
X138476191Y-175804819D01*
X139428571Y-174804819D02*
X138952381Y-174804819D01*
X138952381Y-174804819D02*
X138904762Y-175281009D01*
X138904762Y-175281009D02*
X138952381Y-175233390D01*
X138952381Y-175233390D02*
X139047619Y-175185771D01*
X139047619Y-175185771D02*
X139285714Y-175185771D01*
X139285714Y-175185771D02*
X139380952Y-175233390D01*
X139380952Y-175233390D02*
X139428571Y-175281009D01*
X139428571Y-175281009D02*
X139476190Y-175376247D01*
X139476190Y-175376247D02*
X139476190Y-175614342D01*
X139476190Y-175614342D02*
X139428571Y-175709580D01*
X139428571Y-175709580D02*
X139380952Y-175757200D01*
X139380952Y-175757200D02*
X139285714Y-175804819D01*
X139285714Y-175804819D02*
X139047619Y-175804819D01*
X139047619Y-175804819D02*
X138952381Y-175757200D01*
X138952381Y-175757200D02*
X138904762Y-175709580D01*
D10*
X96250000Y-149900000D02*
X96250000Y-177086420D01*
X179750000Y-177086420D02*
X179750000Y-149900000D01*
X96250000Y-176500000D02*
X179750000Y-176500000D01*
X96250000Y-176500000D02*
X97376504Y-175913579D01*
X96250000Y-176500000D02*
X97376504Y-177086421D01*
X179750000Y-176500000D02*
X178623496Y-177086421D01*
X179750000Y-176500000D02*
X178623496Y-175913579D01*
D11*
X91404819Y-101080951D02*
X91404819Y-100890475D01*
X91404819Y-100890475D02*
X91357200Y-100795237D01*
X91357200Y-100795237D02*
X91309580Y-100747618D01*
X91309580Y-100747618D02*
X91166723Y-100652380D01*
X91166723Y-100652380D02*
X90976247Y-100604761D01*
X90976247Y-100604761D02*
X90595295Y-100604761D01*
X90595295Y-100604761D02*
X90500057Y-100652380D01*
X90500057Y-100652380D02*
X90452438Y-100699999D01*
X90452438Y-100699999D02*
X90404819Y-100795237D01*
X90404819Y-100795237D02*
X90404819Y-100985713D01*
X90404819Y-100985713D02*
X90452438Y-101080951D01*
X90452438Y-101080951D02*
X90500057Y-101128570D01*
X90500057Y-101128570D02*
X90595295Y-101176189D01*
X90595295Y-101176189D02*
X90833390Y-101176189D01*
X90833390Y-101176189D02*
X90928628Y-101128570D01*
X90928628Y-101128570D02*
X90976247Y-101080951D01*
X90976247Y-101080951D02*
X91023866Y-100985713D01*
X91023866Y-100985713D02*
X91023866Y-100795237D01*
X91023866Y-100795237D02*
X90976247Y-100699999D01*
X90976247Y-100699999D02*
X90928628Y-100652380D01*
X90928628Y-100652380D02*
X90833390Y-100604761D01*
X91404819Y-100128570D02*
X91404819Y-99938094D01*
X91404819Y-99938094D02*
X91357200Y-99842856D01*
X91357200Y-99842856D02*
X91309580Y-99795237D01*
X91309580Y-99795237D02*
X91166723Y-99699999D01*
X91166723Y-99699999D02*
X90976247Y-99652380D01*
X90976247Y-99652380D02*
X90595295Y-99652380D01*
X90595295Y-99652380D02*
X90500057Y-99699999D01*
X90500057Y-99699999D02*
X90452438Y-99747618D01*
X90452438Y-99747618D02*
X90404819Y-99842856D01*
X90404819Y-99842856D02*
X90404819Y-100033332D01*
X90404819Y-100033332D02*
X90452438Y-100128570D01*
X90452438Y-100128570D02*
X90500057Y-100176189D01*
X90500057Y-100176189D02*
X90595295Y-100223808D01*
X90595295Y-100223808D02*
X90833390Y-100223808D01*
X90833390Y-100223808D02*
X90928628Y-100176189D01*
X90928628Y-100176189D02*
X90976247Y-100128570D01*
X90976247Y-100128570D02*
X91023866Y-100033332D01*
X91023866Y-100033332D02*
X91023866Y-99842856D01*
X91023866Y-99842856D02*
X90976247Y-99747618D01*
X90976247Y-99747618D02*
X90928628Y-99699999D01*
X90928628Y-99699999D02*
X90833390Y-99652380D01*
X91309580Y-99223808D02*
X91357200Y-99176189D01*
X91357200Y-99176189D02*
X91404819Y-99223808D01*
X91404819Y-99223808D02*
X91357200Y-99271427D01*
X91357200Y-99271427D02*
X91309580Y-99223808D01*
X91309580Y-99223808D02*
X91404819Y-99223808D01*
X90738152Y-98319047D02*
X91404819Y-98319047D01*
X90357200Y-98557142D02*
X91071485Y-98795237D01*
X91071485Y-98795237D02*
X91071485Y-98176190D01*
D10*
X95750000Y-149400000D02*
X91513580Y-149400000D01*
X91513580Y-50000000D02*
X95750000Y-50000000D01*
X92100000Y-149400000D02*
X92100000Y-50000000D01*
X92100000Y-149400000D02*
X91513579Y-148273496D01*
X92100000Y-149400000D02*
X92686421Y-148273496D01*
X92100000Y-50000000D02*
X92686421Y-51126504D01*
X92100000Y-50000000D02*
X91513579Y-51126504D01*
X145272197Y-148102105D02*
X145272197Y-147602105D01*
X145272197Y-147602105D02*
X145462673Y-147602105D01*
X145462673Y-147602105D02*
X145510292Y-147625915D01*
X145510292Y-147625915D02*
X145534102Y-147649724D01*
X145534102Y-147649724D02*
X145557911Y-147697343D01*
X145557911Y-147697343D02*
X145557911Y-147768772D01*
X145557911Y-147768772D02*
X145534102Y-147816391D01*
X145534102Y-147816391D02*
X145510292Y-147840200D01*
X145510292Y-147840200D02*
X145462673Y-147864010D01*
X145462673Y-147864010D02*
X145272197Y-147864010D01*
X146057911Y-148054486D02*
X146034102Y-148078296D01*
X146034102Y-148078296D02*
X145962673Y-148102105D01*
X145962673Y-148102105D02*
X145915054Y-148102105D01*
X145915054Y-148102105D02*
X145843626Y-148078296D01*
X145843626Y-148078296D02*
X145796007Y-148030676D01*
X145796007Y-148030676D02*
X145772197Y-147983057D01*
X145772197Y-147983057D02*
X145748388Y-147887819D01*
X145748388Y-147887819D02*
X145748388Y-147816391D01*
X145748388Y-147816391D02*
X145772197Y-147721153D01*
X145772197Y-147721153D02*
X145796007Y-147673534D01*
X145796007Y-147673534D02*
X145843626Y-147625915D01*
X145843626Y-147625915D02*
X145915054Y-147602105D01*
X145915054Y-147602105D02*
X145962673Y-147602105D01*
X145962673Y-147602105D02*
X146034102Y-147625915D01*
X146034102Y-147625915D02*
X146057911Y-147649724D01*
X146438864Y-147840200D02*
X146510292Y-147864010D01*
X146510292Y-147864010D02*
X146534102Y-147887819D01*
X146534102Y-147887819D02*
X146557911Y-147935438D01*
X146557911Y-147935438D02*
X146557911Y-148006867D01*
X146557911Y-148006867D02*
X146534102Y-148054486D01*
X146534102Y-148054486D02*
X146510292Y-148078296D01*
X146510292Y-148078296D02*
X146462673Y-148102105D01*
X146462673Y-148102105D02*
X146272197Y-148102105D01*
X146272197Y-148102105D02*
X146272197Y-147602105D01*
X146272197Y-147602105D02*
X146438864Y-147602105D01*
X146438864Y-147602105D02*
X146486483Y-147625915D01*
X146486483Y-147625915D02*
X146510292Y-147649724D01*
X146510292Y-147649724D02*
X146534102Y-147697343D01*
X146534102Y-147697343D02*
X146534102Y-147744962D01*
X146534102Y-147744962D02*
X146510292Y-147792581D01*
X146510292Y-147792581D02*
X146486483Y-147816391D01*
X146486483Y-147816391D02*
X146438864Y-147840200D01*
X146438864Y-147840200D02*
X146272197Y-147840200D01*
X147153149Y-147840200D02*
X147319816Y-147840200D01*
X147391244Y-148102105D02*
X147153149Y-148102105D01*
X147153149Y-148102105D02*
X147153149Y-147602105D01*
X147153149Y-147602105D02*
X147391244Y-147602105D01*
X147819816Y-148102105D02*
X147819816Y-147602105D01*
X147819816Y-148078296D02*
X147772197Y-148102105D01*
X147772197Y-148102105D02*
X147676959Y-148102105D01*
X147676959Y-148102105D02*
X147629340Y-148078296D01*
X147629340Y-148078296D02*
X147605530Y-148054486D01*
X147605530Y-148054486D02*
X147581721Y-148006867D01*
X147581721Y-148006867D02*
X147581721Y-147864010D01*
X147581721Y-147864010D02*
X147605530Y-147816391D01*
X147605530Y-147816391D02*
X147629340Y-147792581D01*
X147629340Y-147792581D02*
X147676959Y-147768772D01*
X147676959Y-147768772D02*
X147772197Y-147768772D01*
X147772197Y-147768772D02*
X147819816Y-147792581D01*
X148272197Y-147768772D02*
X148272197Y-148173534D01*
X148272197Y-148173534D02*
X148248387Y-148221153D01*
X148248387Y-148221153D02*
X148224578Y-148244962D01*
X148224578Y-148244962D02*
X148176959Y-148268772D01*
X148176959Y-148268772D02*
X148105530Y-148268772D01*
X148105530Y-148268772D02*
X148057911Y-148244962D01*
X148272197Y-148078296D02*
X148224578Y-148102105D01*
X148224578Y-148102105D02*
X148129340Y-148102105D01*
X148129340Y-148102105D02*
X148081721Y-148078296D01*
X148081721Y-148078296D02*
X148057911Y-148054486D01*
X148057911Y-148054486D02*
X148034102Y-148006867D01*
X148034102Y-148006867D02*
X148034102Y-147864010D01*
X148034102Y-147864010D02*
X148057911Y-147816391D01*
X148057911Y-147816391D02*
X148081721Y-147792581D01*
X148081721Y-147792581D02*
X148129340Y-147768772D01*
X148129340Y-147768772D02*
X148224578Y-147768772D01*
X148224578Y-147768772D02*
X148272197Y-147792581D01*
X148700768Y-148078296D02*
X148653149Y-148102105D01*
X148653149Y-148102105D02*
X148557911Y-148102105D01*
X148557911Y-148102105D02*
X148510292Y-148078296D01*
X148510292Y-148078296D02*
X148486483Y-148030676D01*
X148486483Y-148030676D02*
X148486483Y-147840200D01*
X148486483Y-147840200D02*
X148510292Y-147792581D01*
X148510292Y-147792581D02*
X148557911Y-147768772D01*
X148557911Y-147768772D02*
X148653149Y-147768772D01*
X148653149Y-147768772D02*
X148700768Y-147792581D01*
X148700768Y-147792581D02*
X148724578Y-147840200D01*
X148724578Y-147840200D02*
X148724578Y-147887819D01*
X148724578Y-147887819D02*
X148486483Y-147935438D01*
X109285714Y-147922720D02*
X109285714Y-147422720D01*
X109285714Y-147422720D02*
X109476190Y-147422720D01*
X109476190Y-147422720D02*
X109523809Y-147446530D01*
X109523809Y-147446530D02*
X109547619Y-147470339D01*
X109547619Y-147470339D02*
X109571428Y-147517958D01*
X109571428Y-147517958D02*
X109571428Y-147589387D01*
X109571428Y-147589387D02*
X109547619Y-147637006D01*
X109547619Y-147637006D02*
X109523809Y-147660815D01*
X109523809Y-147660815D02*
X109476190Y-147684625D01*
X109476190Y-147684625D02*
X109285714Y-147684625D01*
X110071428Y-147875101D02*
X110047619Y-147898911D01*
X110047619Y-147898911D02*
X109976190Y-147922720D01*
X109976190Y-147922720D02*
X109928571Y-147922720D01*
X109928571Y-147922720D02*
X109857143Y-147898911D01*
X109857143Y-147898911D02*
X109809524Y-147851291D01*
X109809524Y-147851291D02*
X109785714Y-147803672D01*
X109785714Y-147803672D02*
X109761905Y-147708434D01*
X109761905Y-147708434D02*
X109761905Y-147637006D01*
X109761905Y-147637006D02*
X109785714Y-147541768D01*
X109785714Y-147541768D02*
X109809524Y-147494149D01*
X109809524Y-147494149D02*
X109857143Y-147446530D01*
X109857143Y-147446530D02*
X109928571Y-147422720D01*
X109928571Y-147422720D02*
X109976190Y-147422720D01*
X109976190Y-147422720D02*
X110047619Y-147446530D01*
X110047619Y-147446530D02*
X110071428Y-147470339D01*
X110452381Y-147660815D02*
X110523809Y-147684625D01*
X110523809Y-147684625D02*
X110547619Y-147708434D01*
X110547619Y-147708434D02*
X110571428Y-147756053D01*
X110571428Y-147756053D02*
X110571428Y-147827482D01*
X110571428Y-147827482D02*
X110547619Y-147875101D01*
X110547619Y-147875101D02*
X110523809Y-147898911D01*
X110523809Y-147898911D02*
X110476190Y-147922720D01*
X110476190Y-147922720D02*
X110285714Y-147922720D01*
X110285714Y-147922720D02*
X110285714Y-147422720D01*
X110285714Y-147422720D02*
X110452381Y-147422720D01*
X110452381Y-147422720D02*
X110500000Y-147446530D01*
X110500000Y-147446530D02*
X110523809Y-147470339D01*
X110523809Y-147470339D02*
X110547619Y-147517958D01*
X110547619Y-147517958D02*
X110547619Y-147565577D01*
X110547619Y-147565577D02*
X110523809Y-147613196D01*
X110523809Y-147613196D02*
X110500000Y-147637006D01*
X110500000Y-147637006D02*
X110452381Y-147660815D01*
X110452381Y-147660815D02*
X110285714Y-147660815D01*
X111166666Y-147660815D02*
X111333333Y-147660815D01*
X111404761Y-147922720D02*
X111166666Y-147922720D01*
X111166666Y-147922720D02*
X111166666Y-147422720D01*
X111166666Y-147422720D02*
X111404761Y-147422720D01*
X111833333Y-147922720D02*
X111833333Y-147422720D01*
X111833333Y-147898911D02*
X111785714Y-147922720D01*
X111785714Y-147922720D02*
X111690476Y-147922720D01*
X111690476Y-147922720D02*
X111642857Y-147898911D01*
X111642857Y-147898911D02*
X111619047Y-147875101D01*
X111619047Y-147875101D02*
X111595238Y-147827482D01*
X111595238Y-147827482D02*
X111595238Y-147684625D01*
X111595238Y-147684625D02*
X111619047Y-147637006D01*
X111619047Y-147637006D02*
X111642857Y-147613196D01*
X111642857Y-147613196D02*
X111690476Y-147589387D01*
X111690476Y-147589387D02*
X111785714Y-147589387D01*
X111785714Y-147589387D02*
X111833333Y-147613196D01*
X112285714Y-147589387D02*
X112285714Y-147994149D01*
X112285714Y-147994149D02*
X112261904Y-148041768D01*
X112261904Y-148041768D02*
X112238095Y-148065577D01*
X112238095Y-148065577D02*
X112190476Y-148089387D01*
X112190476Y-148089387D02*
X112119047Y-148089387D01*
X112119047Y-148089387D02*
X112071428Y-148065577D01*
X112285714Y-147898911D02*
X112238095Y-147922720D01*
X112238095Y-147922720D02*
X112142857Y-147922720D01*
X112142857Y-147922720D02*
X112095238Y-147898911D01*
X112095238Y-147898911D02*
X112071428Y-147875101D01*
X112071428Y-147875101D02*
X112047619Y-147827482D01*
X112047619Y-147827482D02*
X112047619Y-147684625D01*
X112047619Y-147684625D02*
X112071428Y-147637006D01*
X112071428Y-147637006D02*
X112095238Y-147613196D01*
X112095238Y-147613196D02*
X112142857Y-147589387D01*
X112142857Y-147589387D02*
X112238095Y-147589387D01*
X112238095Y-147589387D02*
X112285714Y-147613196D01*
X112714285Y-147898911D02*
X112666666Y-147922720D01*
X112666666Y-147922720D02*
X112571428Y-147922720D01*
X112571428Y-147922720D02*
X112523809Y-147898911D01*
X112523809Y-147898911D02*
X112500000Y-147851291D01*
X112500000Y-147851291D02*
X112500000Y-147660815D01*
X112500000Y-147660815D02*
X112523809Y-147613196D01*
X112523809Y-147613196D02*
X112571428Y-147589387D01*
X112571428Y-147589387D02*
X112666666Y-147589387D01*
X112666666Y-147589387D02*
X112714285Y-147613196D01*
X112714285Y-147613196D02*
X112738095Y-147660815D01*
X112738095Y-147660815D02*
X112738095Y-147708434D01*
X112738095Y-147708434D02*
X112500000Y-147756053D01*
X127285714Y-147949109D02*
X127285714Y-147449109D01*
X127285714Y-147449109D02*
X127476190Y-147449109D01*
X127476190Y-147449109D02*
X127523809Y-147472919D01*
X127523809Y-147472919D02*
X127547619Y-147496728D01*
X127547619Y-147496728D02*
X127571428Y-147544347D01*
X127571428Y-147544347D02*
X127571428Y-147615776D01*
X127571428Y-147615776D02*
X127547619Y-147663395D01*
X127547619Y-147663395D02*
X127523809Y-147687204D01*
X127523809Y-147687204D02*
X127476190Y-147711014D01*
X127476190Y-147711014D02*
X127285714Y-147711014D01*
X128071428Y-147901490D02*
X128047619Y-147925300D01*
X128047619Y-147925300D02*
X127976190Y-147949109D01*
X127976190Y-147949109D02*
X127928571Y-147949109D01*
X127928571Y-147949109D02*
X127857143Y-147925300D01*
X127857143Y-147925300D02*
X127809524Y-147877680D01*
X127809524Y-147877680D02*
X127785714Y-147830061D01*
X127785714Y-147830061D02*
X127761905Y-147734823D01*
X127761905Y-147734823D02*
X127761905Y-147663395D01*
X127761905Y-147663395D02*
X127785714Y-147568157D01*
X127785714Y-147568157D02*
X127809524Y-147520538D01*
X127809524Y-147520538D02*
X127857143Y-147472919D01*
X127857143Y-147472919D02*
X127928571Y-147449109D01*
X127928571Y-147449109D02*
X127976190Y-147449109D01*
X127976190Y-147449109D02*
X128047619Y-147472919D01*
X128047619Y-147472919D02*
X128071428Y-147496728D01*
X128452381Y-147687204D02*
X128523809Y-147711014D01*
X128523809Y-147711014D02*
X128547619Y-147734823D01*
X128547619Y-147734823D02*
X128571428Y-147782442D01*
X128571428Y-147782442D02*
X128571428Y-147853871D01*
X128571428Y-147853871D02*
X128547619Y-147901490D01*
X128547619Y-147901490D02*
X128523809Y-147925300D01*
X128523809Y-147925300D02*
X128476190Y-147949109D01*
X128476190Y-147949109D02*
X128285714Y-147949109D01*
X128285714Y-147949109D02*
X128285714Y-147449109D01*
X128285714Y-147449109D02*
X128452381Y-147449109D01*
X128452381Y-147449109D02*
X128500000Y-147472919D01*
X128500000Y-147472919D02*
X128523809Y-147496728D01*
X128523809Y-147496728D02*
X128547619Y-147544347D01*
X128547619Y-147544347D02*
X128547619Y-147591966D01*
X128547619Y-147591966D02*
X128523809Y-147639585D01*
X128523809Y-147639585D02*
X128500000Y-147663395D01*
X128500000Y-147663395D02*
X128452381Y-147687204D01*
X128452381Y-147687204D02*
X128285714Y-147687204D01*
X129166666Y-147687204D02*
X129333333Y-147687204D01*
X129404761Y-147949109D02*
X129166666Y-147949109D01*
X129166666Y-147949109D02*
X129166666Y-147449109D01*
X129166666Y-147449109D02*
X129404761Y-147449109D01*
X129833333Y-147949109D02*
X129833333Y-147449109D01*
X129833333Y-147925300D02*
X129785714Y-147949109D01*
X129785714Y-147949109D02*
X129690476Y-147949109D01*
X129690476Y-147949109D02*
X129642857Y-147925300D01*
X129642857Y-147925300D02*
X129619047Y-147901490D01*
X129619047Y-147901490D02*
X129595238Y-147853871D01*
X129595238Y-147853871D02*
X129595238Y-147711014D01*
X129595238Y-147711014D02*
X129619047Y-147663395D01*
X129619047Y-147663395D02*
X129642857Y-147639585D01*
X129642857Y-147639585D02*
X129690476Y-147615776D01*
X129690476Y-147615776D02*
X129785714Y-147615776D01*
X129785714Y-147615776D02*
X129833333Y-147639585D01*
X130285714Y-147615776D02*
X130285714Y-148020538D01*
X130285714Y-148020538D02*
X130261904Y-148068157D01*
X130261904Y-148068157D02*
X130238095Y-148091966D01*
X130238095Y-148091966D02*
X130190476Y-148115776D01*
X130190476Y-148115776D02*
X130119047Y-148115776D01*
X130119047Y-148115776D02*
X130071428Y-148091966D01*
X130285714Y-147925300D02*
X130238095Y-147949109D01*
X130238095Y-147949109D02*
X130142857Y-147949109D01*
X130142857Y-147949109D02*
X130095238Y-147925300D01*
X130095238Y-147925300D02*
X130071428Y-147901490D01*
X130071428Y-147901490D02*
X130047619Y-147853871D01*
X130047619Y-147853871D02*
X130047619Y-147711014D01*
X130047619Y-147711014D02*
X130071428Y-147663395D01*
X130071428Y-147663395D02*
X130095238Y-147639585D01*
X130095238Y-147639585D02*
X130142857Y-147615776D01*
X130142857Y-147615776D02*
X130238095Y-147615776D01*
X130238095Y-147615776D02*
X130285714Y-147639585D01*
X130714285Y-147925300D02*
X130666666Y-147949109D01*
X130666666Y-147949109D02*
X130571428Y-147949109D01*
X130571428Y-147949109D02*
X130523809Y-147925300D01*
X130523809Y-147925300D02*
X130500000Y-147877680D01*
X130500000Y-147877680D02*
X130500000Y-147687204D01*
X130500000Y-147687204D02*
X130523809Y-147639585D01*
X130523809Y-147639585D02*
X130571428Y-147615776D01*
X130571428Y-147615776D02*
X130666666Y-147615776D01*
X130666666Y-147615776D02*
X130714285Y-147639585D01*
X130714285Y-147639585D02*
X130738095Y-147687204D01*
X130738095Y-147687204D02*
X130738095Y-147734823D01*
X130738095Y-147734823D02*
X130500000Y-147782442D01*
X163085714Y-147899109D02*
X163085714Y-147399109D01*
X163085714Y-147399109D02*
X163276190Y-147399109D01*
X163276190Y-147399109D02*
X163323809Y-147422919D01*
X163323809Y-147422919D02*
X163347619Y-147446728D01*
X163347619Y-147446728D02*
X163371428Y-147494347D01*
X163371428Y-147494347D02*
X163371428Y-147565776D01*
X163371428Y-147565776D02*
X163347619Y-147613395D01*
X163347619Y-147613395D02*
X163323809Y-147637204D01*
X163323809Y-147637204D02*
X163276190Y-147661014D01*
X163276190Y-147661014D02*
X163085714Y-147661014D01*
X163871428Y-147851490D02*
X163847619Y-147875300D01*
X163847619Y-147875300D02*
X163776190Y-147899109D01*
X163776190Y-147899109D02*
X163728571Y-147899109D01*
X163728571Y-147899109D02*
X163657143Y-147875300D01*
X163657143Y-147875300D02*
X163609524Y-147827680D01*
X163609524Y-147827680D02*
X163585714Y-147780061D01*
X163585714Y-147780061D02*
X163561905Y-147684823D01*
X163561905Y-147684823D02*
X163561905Y-147613395D01*
X163561905Y-147613395D02*
X163585714Y-147518157D01*
X163585714Y-147518157D02*
X163609524Y-147470538D01*
X163609524Y-147470538D02*
X163657143Y-147422919D01*
X163657143Y-147422919D02*
X163728571Y-147399109D01*
X163728571Y-147399109D02*
X163776190Y-147399109D01*
X163776190Y-147399109D02*
X163847619Y-147422919D01*
X163847619Y-147422919D02*
X163871428Y-147446728D01*
X164252381Y-147637204D02*
X164323809Y-147661014D01*
X164323809Y-147661014D02*
X164347619Y-147684823D01*
X164347619Y-147684823D02*
X164371428Y-147732442D01*
X164371428Y-147732442D02*
X164371428Y-147803871D01*
X164371428Y-147803871D02*
X164347619Y-147851490D01*
X164347619Y-147851490D02*
X164323809Y-147875300D01*
X164323809Y-147875300D02*
X164276190Y-147899109D01*
X164276190Y-147899109D02*
X164085714Y-147899109D01*
X164085714Y-147899109D02*
X164085714Y-147399109D01*
X164085714Y-147399109D02*
X164252381Y-147399109D01*
X164252381Y-147399109D02*
X164300000Y-147422919D01*
X164300000Y-147422919D02*
X164323809Y-147446728D01*
X164323809Y-147446728D02*
X164347619Y-147494347D01*
X164347619Y-147494347D02*
X164347619Y-147541966D01*
X164347619Y-147541966D02*
X164323809Y-147589585D01*
X164323809Y-147589585D02*
X164300000Y-147613395D01*
X164300000Y-147613395D02*
X164252381Y-147637204D01*
X164252381Y-147637204D02*
X164085714Y-147637204D01*
X164966666Y-147637204D02*
X165133333Y-147637204D01*
X165204761Y-147899109D02*
X164966666Y-147899109D01*
X164966666Y-147899109D02*
X164966666Y-147399109D01*
X164966666Y-147399109D02*
X165204761Y-147399109D01*
X165633333Y-147899109D02*
X165633333Y-147399109D01*
X165633333Y-147875300D02*
X165585714Y-147899109D01*
X165585714Y-147899109D02*
X165490476Y-147899109D01*
X165490476Y-147899109D02*
X165442857Y-147875300D01*
X165442857Y-147875300D02*
X165419047Y-147851490D01*
X165419047Y-147851490D02*
X165395238Y-147803871D01*
X165395238Y-147803871D02*
X165395238Y-147661014D01*
X165395238Y-147661014D02*
X165419047Y-147613395D01*
X165419047Y-147613395D02*
X165442857Y-147589585D01*
X165442857Y-147589585D02*
X165490476Y-147565776D01*
X165490476Y-147565776D02*
X165585714Y-147565776D01*
X165585714Y-147565776D02*
X165633333Y-147589585D01*
X166085714Y-147565776D02*
X166085714Y-147970538D01*
X166085714Y-147970538D02*
X166061904Y-148018157D01*
X166061904Y-148018157D02*
X166038095Y-148041966D01*
X166038095Y-148041966D02*
X165990476Y-148065776D01*
X165990476Y-148065776D02*
X165919047Y-148065776D01*
X165919047Y-148065776D02*
X165871428Y-148041966D01*
X166085714Y-147875300D02*
X166038095Y-147899109D01*
X166038095Y-147899109D02*
X165942857Y-147899109D01*
X165942857Y-147899109D02*
X165895238Y-147875300D01*
X165895238Y-147875300D02*
X165871428Y-147851490D01*
X165871428Y-147851490D02*
X165847619Y-147803871D01*
X165847619Y-147803871D02*
X165847619Y-147661014D01*
X165847619Y-147661014D02*
X165871428Y-147613395D01*
X165871428Y-147613395D02*
X165895238Y-147589585D01*
X165895238Y-147589585D02*
X165942857Y-147565776D01*
X165942857Y-147565776D02*
X166038095Y-147565776D01*
X166038095Y-147565776D02*
X166085714Y-147589585D01*
X166514285Y-147875300D02*
X166466666Y-147899109D01*
X166466666Y-147899109D02*
X166371428Y-147899109D01*
X166371428Y-147899109D02*
X166323809Y-147875300D01*
X166323809Y-147875300D02*
X166300000Y-147827680D01*
X166300000Y-147827680D02*
X166300000Y-147637204D01*
X166300000Y-147637204D02*
X166323809Y-147589585D01*
X166323809Y-147589585D02*
X166371428Y-147565776D01*
X166371428Y-147565776D02*
X166466666Y-147565776D01*
X166466666Y-147565776D02*
X166514285Y-147589585D01*
X166514285Y-147589585D02*
X166538095Y-147637204D01*
X166538095Y-147637204D02*
X166538095Y-147684823D01*
X166538095Y-147684823D02*
X166300000Y-147732442D01*
%TO.C,J2*%
X151086483Y-147375996D02*
X142886483Y-147375996D01*
%TO.C,J1*%
X115100000Y-147196611D02*
X106900000Y-147196611D01*
%TO.C,D3*%
D12*
X139100000Y-52050000D02*
X136900000Y-52050000D01*
X136900000Y-52050000D02*
G75*
G02*
X139100000Y-52050000I1100000J0D01*
G01*
%TO.C,J3*%
D10*
X133100000Y-147223000D02*
X124900000Y-147223000D01*
%TO.C,J4*%
X168900000Y-147173000D02*
X160700000Y-147173000D01*
%TD*%
M02*
