%TF.GenerationSoftware,KiCad,Pcbnew,10.0.4-10.0.4~ubuntu25.10.1*%
%TF.CreationDate,2026-07-28T04:31:22+00:00*%
%TF.ProjectId,TAPRX-888,54415052-582d-4383-9838-2e6b69636164,DEV*%
%TF.SameCoordinates,Original*%
%TF.FileFunction,Paste,Top*%
%TF.FilePolarity,Positive*%
%FSLAX46Y46*%
G04 Gerber Fmt 4.6, Leading zero omitted, Abs format (unit mm)*
G04 Created by KiCad (PCBNEW 10.0.4-10.0.4~ubuntu25.10.1) date 2026-07-28 04:31:22*
%MOMM*%
%LPD*%
G01*
G04 APERTURE LIST*
G04 Aperture macros list*
%AMRoundRect*
0 Rectangle with rounded corners*
0 $1 Rounding radius*
0 $2 $3 $4 $5 $6 $7 $8 $9 X,Y pos of 4 corners*
0 Add a 4 corners polygon primitive as box body*
4,1,4,$2,$3,$4,$5,$6,$7,$8,$9,$2,$3,0*
0 Add four circle primitives for the rounded corners*
1,1,$1+$1,$2,$3*
1,1,$1+$1,$4,$5*
1,1,$1+$1,$6,$7*
1,1,$1+$1,$8,$9*
0 Add four rect primitives between the rounded corners*
20,1,$1+$1,$2,$3,$4,$5,0*
20,1,$1+$1,$4,$5,$6,$7,0*
20,1,$1+$1,$6,$7,$8,$9,0*
20,1,$1+$1,$8,$9,$2,$3,0*%
G04 Aperture macros list end*
%ADD10R,0.800000X0.750000*%
%ADD11R,0.750000X0.800000*%
%ADD12R,0.300000X0.500000*%
%ADD13R,0.900000X0.800000*%
%ADD14R,0.300000X0.400000*%
%ADD15R,1.400000X0.350000*%
%ADD16RoundRect,0.450000X1.050000X-1.050000X1.050000X1.050000X-1.050000X1.050000X-1.050000X-1.050000X0*%
%ADD17C,0.400000*%
%ADD18R,2.540000X1.020000*%
%ADD19R,1.500000X2.200000*%
%ADD20R,3.800000X2.200000*%
%ADD21R,0.600000X0.800000*%
%ADD22R,1.270000X3.600000*%
%ADD23R,1.350000X4.200000*%
%ADD24R,1.220000X1.250000*%
%ADD25R,0.500000X0.300000*%
%ADD26R,1.100000X1.050000*%
%ADD27R,2.250000X1.100000*%
%ADD28RoundRect,0.070000X0.280000X0.330000X-0.280000X0.330000X-0.280000X-0.330000X0.280000X-0.330000X0*%
%ADD29RoundRect,0.050000X0.200000X0.225000X-0.200000X0.225000X-0.200000X-0.225000X0.200000X-0.225000X0*%
%ADD30R,0.900000X0.400000*%
%ADD31R,0.630000X0.830000*%
%ADD32R,0.550000X1.000000*%
%ADD33R,1.020000X2.540000*%
%ADD34R,2.450000X0.570000*%
%ADD35R,1.000000X1.600000*%
%ADD36R,1.000000X0.550000*%
%ADD37R,1.037500X1.037500*%
%ADD38O,0.700000X0.250000*%
%ADD39O,0.250000X0.700000*%
%ADD40R,1.450000X0.300000*%
%ADD41R,0.800000X0.900000*%
%ADD42R,1.400000X1.200000*%
%ADD43R,1.550000X1.000000*%
%ADD44R,1.200000X1.000000*%
G04 APERTURE END LIST*
D10*
%TO.C,R2*%
X141750000Y-96000000D03*
X140250000Y-96000000D03*
%TD*%
D11*
%TO.C,R27*%
X142000000Y-56750000D03*
X142000000Y-55250000D03*
%TD*%
%TO.C,C22*%
X138000000Y-71750000D03*
X138000000Y-70250000D03*
%TD*%
D12*
%TO.C,R12*%
X155250000Y-88100000D03*
X154750000Y-88100000D03*
X154250000Y-88100000D03*
X153750000Y-88100000D03*
X153750000Y-88900000D03*
X154250000Y-88900000D03*
X154750000Y-88900000D03*
X155250000Y-88900000D03*
%TD*%
D10*
%TO.C,R54*%
X160250000Y-109000000D03*
X161750000Y-109000000D03*
%TD*%
D13*
%TO.C,Q3*%
X165500000Y-112100000D03*
X165500000Y-114000000D03*
X167500000Y-113050000D03*
%TD*%
D14*
%TO.C,U7*%
X155500000Y-70400000D03*
X156000000Y-70400000D03*
X156500000Y-70400000D03*
X157000000Y-70400000D03*
X157500000Y-70400000D03*
X158000000Y-70400000D03*
X158500000Y-70400000D03*
X158500000Y-69600000D03*
X158000000Y-69600000D03*
X157500000Y-69600000D03*
X157000000Y-69600000D03*
X156500000Y-69600000D03*
X156000000Y-69600000D03*
X155500000Y-69600000D03*
%TD*%
D11*
%TO.C,C61*%
X124000000Y-129750000D03*
X124000000Y-128250000D03*
%TD*%
D10*
%TO.C,C5*%
X148250000Y-94000000D03*
X149750000Y-94000000D03*
%TD*%
D11*
%TO.C,R30*%
X141000000Y-138250000D03*
X141000000Y-139750000D03*
%TD*%
D10*
%TO.C,C75*%
X157250000Y-114000000D03*
X158750000Y-114000000D03*
%TD*%
%TO.C,R31*%
X108250000Y-130000000D03*
X109750000Y-130000000D03*
%TD*%
D11*
%TO.C,R61*%
X149250000Y-95750000D03*
X149250000Y-97250000D03*
%TD*%
%TO.C,R17*%
X164750000Y-70500000D03*
X164750000Y-69000000D03*
%TD*%
D15*
%TO.C,U6*%
X149860000Y-127275000D03*
X149860000Y-126625000D03*
D16*
X147000000Y-125000000D03*
D15*
X149860000Y-125975000D03*
X149860000Y-125325000D03*
X149860000Y-124675000D03*
X149860000Y-124025000D03*
X149860000Y-123375000D03*
X149860000Y-122725000D03*
X144140000Y-122725000D03*
X144140000Y-123375000D03*
X144140000Y-124025000D03*
X144140000Y-124675000D03*
X144140000Y-125325000D03*
X144140000Y-125975000D03*
X144140000Y-126625000D03*
X144140000Y-127275000D03*
%TD*%
D10*
%TO.C,C17*%
X169000000Y-87000000D03*
X167500000Y-87000000D03*
%TD*%
%TO.C,C3*%
X169000000Y-81000000D03*
X167500000Y-81000000D03*
%TD*%
%TO.C,C27*%
X149750000Y-120000000D03*
X148250000Y-120000000D03*
%TD*%
%TO.C,C34*%
X170750000Y-75000000D03*
X169250000Y-75000000D03*
%TD*%
D17*
%TO.C,U11*%
X152000000Y-77000000D03*
X152800000Y-77000000D03*
X153600000Y-77000000D03*
X154400000Y-77000000D03*
X155200000Y-77000000D03*
X156000000Y-77000000D03*
X156800000Y-77000000D03*
X157600000Y-77000000D03*
X158400000Y-77000000D03*
X159200000Y-77000000D03*
X160000000Y-77000000D03*
X152000000Y-77800000D03*
X152800000Y-77800000D03*
X153600000Y-77800000D03*
X154400000Y-77800000D03*
X155200000Y-77800000D03*
X156000000Y-77800000D03*
X156800000Y-77800000D03*
X157600000Y-77800000D03*
X158400000Y-77800000D03*
X159200000Y-77800000D03*
X160000000Y-77800000D03*
X152000000Y-78600000D03*
X152800000Y-78600000D03*
X153600000Y-78600000D03*
X154400000Y-78600000D03*
X155200000Y-78600000D03*
X156000000Y-78600000D03*
X156800000Y-78600000D03*
X157600000Y-78600000D03*
X158400000Y-78600000D03*
X159200000Y-78600000D03*
X160000000Y-78600000D03*
X152000000Y-79400000D03*
X152800000Y-79400000D03*
X153600000Y-79400000D03*
X154400000Y-79400000D03*
X155200000Y-79400000D03*
X156000000Y-79400000D03*
X156800000Y-79400000D03*
X157600000Y-79400000D03*
X158400000Y-79400000D03*
X159200000Y-79400000D03*
X160000000Y-79400000D03*
X152000000Y-80200000D03*
X152800000Y-80200000D03*
X153600000Y-80200000D03*
X154400000Y-80200000D03*
X155200000Y-80200000D03*
X156000000Y-80200000D03*
X156800000Y-80200000D03*
X157600000Y-80200000D03*
X158400000Y-80200000D03*
X159200000Y-80200000D03*
X160000000Y-80200000D03*
X152000000Y-81000000D03*
X152800000Y-81000000D03*
X153600000Y-81000000D03*
X154400000Y-81000000D03*
X155200000Y-81000000D03*
X156000000Y-81000000D03*
X156800000Y-81000000D03*
X157600000Y-81000000D03*
X158400000Y-81000000D03*
X159200000Y-81000000D03*
X160000000Y-81000000D03*
X152000000Y-81800000D03*
X152800000Y-81800000D03*
X153600000Y-81800000D03*
X154400000Y-81800000D03*
X155200000Y-81800000D03*
X156000000Y-81800000D03*
X156800000Y-81800000D03*
X157600000Y-81800000D03*
X158400000Y-81800000D03*
X159200000Y-81800000D03*
X160000000Y-81800000D03*
X152000000Y-82600000D03*
X152800000Y-82600000D03*
X153600000Y-82600000D03*
X154400000Y-82600000D03*
X155200000Y-82600000D03*
X156000000Y-82600000D03*
X156800000Y-82600000D03*
X157600000Y-82600000D03*
X158400000Y-82600000D03*
X159200000Y-82600000D03*
X160000000Y-82600000D03*
X152000000Y-83400000D03*
X152800000Y-83400000D03*
X153600000Y-83400000D03*
X154400000Y-83400000D03*
X155200000Y-83400000D03*
X156000000Y-83400000D03*
X156800000Y-83400000D03*
X157600000Y-83400000D03*
X158400000Y-83400000D03*
X159200000Y-83400000D03*
X160000000Y-83400000D03*
X152000000Y-84200000D03*
X152800000Y-84200000D03*
X153600000Y-84200000D03*
X154400000Y-84200000D03*
X155200000Y-84200000D03*
X156000000Y-84200000D03*
X156800000Y-84200000D03*
X157600000Y-84200000D03*
X158400000Y-84200000D03*
X159200000Y-84200000D03*
X160000000Y-84200000D03*
X152000000Y-85000000D03*
X152800000Y-85000000D03*
X153600000Y-85000000D03*
X154400000Y-85000000D03*
X155200000Y-85000000D03*
X156000000Y-85000000D03*
X156800000Y-85000000D03*
X157600000Y-85000000D03*
X158400000Y-85000000D03*
X159200000Y-85000000D03*
X160000000Y-85000000D03*
%TD*%
D18*
%TO.C,L9*%
X116000000Y-127855000D03*
X116000000Y-130145000D03*
%TD*%
D19*
%TO.C,U2*%
X110700000Y-63150000D03*
X113000000Y-63150000D03*
X115300000Y-63150000D03*
D20*
X113000000Y-56850000D03*
%TD*%
D10*
%TO.C,C21*%
X151250000Y-101000000D03*
X152750000Y-101000000D03*
%TD*%
%TO.C,C76*%
X159200000Y-104000000D03*
X160700000Y-104000000D03*
%TD*%
%TO.C,R4*%
X144250000Y-94000000D03*
X145750000Y-94000000D03*
%TD*%
D11*
%TO.C,R32*%
X104000000Y-129750000D03*
X104000000Y-128250000D03*
%TD*%
D10*
%TO.C,R7*%
X123750000Y-84000000D03*
X122250000Y-84000000D03*
%TD*%
D11*
%TO.C,R16*%
X166250000Y-70500000D03*
X166250000Y-69000000D03*
%TD*%
%TO.C,R13*%
X162000000Y-74750000D03*
X162000000Y-73250000D03*
%TD*%
D13*
%TO.C,U12*%
X148000000Y-134050000D03*
X148000000Y-135950000D03*
X150000000Y-135000000D03*
%TD*%
D10*
%TO.C,C6*%
X166750000Y-77000000D03*
X165250000Y-77000000D03*
%TD*%
%TO.C,R50*%
X161250000Y-124000000D03*
X162750000Y-124000000D03*
%TD*%
%TO.C,C9*%
X169000000Y-83000000D03*
X167500000Y-83000000D03*
%TD*%
%TO.C,R1*%
X141750000Y-92000000D03*
X140250000Y-92000000D03*
%TD*%
D18*
%TO.C,L13*%
X128000000Y-119855000D03*
X128000000Y-122145000D03*
%TD*%
D21*
%TO.C,L4*%
X169300000Y-73000000D03*
X170700000Y-73000000D03*
%TD*%
D10*
%TO.C,C65*%
X170750000Y-96125000D03*
X169250000Y-96125000D03*
%TD*%
%TO.C,C24*%
X160750000Y-101000000D03*
X159250000Y-101000000D03*
%TD*%
D11*
%TO.C,R28*%
X150000000Y-138250000D03*
X150000000Y-139750000D03*
%TD*%
D10*
%TO.C,R20*%
X146750000Y-85000000D03*
X145250000Y-85000000D03*
%TD*%
%TO.C,C47*%
X149750000Y-73000000D03*
X148250000Y-73000000D03*
%TD*%
%TO.C,C12*%
X140950000Y-116100000D03*
X139450000Y-116100000D03*
%TD*%
D22*
%TO.C,J2*%
X146986483Y-145475996D03*
D23*
X149811483Y-145275996D03*
X144161483Y-145275996D03*
%TD*%
D11*
%TO.C,C48*%
X111000000Y-139750000D03*
X111000000Y-138250000D03*
%TD*%
D10*
%TO.C,C41*%
X149750000Y-77500000D03*
X148250000Y-77500000D03*
%TD*%
D22*
%TO.C,J1*%
X111000000Y-145296611D03*
D23*
X113825000Y-145096611D03*
X108175000Y-145096611D03*
%TD*%
D21*
%TO.C,L7*%
X145300000Y-75800000D03*
X146700000Y-75800000D03*
%TD*%
D10*
%TO.C,C20*%
X144250000Y-130000000D03*
X145750000Y-130000000D03*
%TD*%
%TO.C,C35*%
X136750000Y-85000000D03*
X135250000Y-85000000D03*
%TD*%
%TO.C,C10*%
X144800000Y-74000000D03*
X146300000Y-74000000D03*
%TD*%
D19*
%TO.C,U5*%
X130700000Y-77150000D03*
X133000000Y-77150000D03*
X135300000Y-77150000D03*
D20*
X133000000Y-70850000D03*
%TD*%
D11*
%TO.C,C37*%
X118000000Y-73250000D03*
X118000000Y-74750000D03*
%TD*%
D24*
%TO.C,D1*%
X108000000Y-68575000D03*
X108000000Y-65625000D03*
%TD*%
D12*
%TO.C,R11*%
X158250000Y-88100000D03*
X157750000Y-88100000D03*
X157250000Y-88100000D03*
X156750000Y-88100000D03*
X156750000Y-88900000D03*
X157250000Y-88900000D03*
X157750000Y-88900000D03*
X158250000Y-88900000D03*
%TD*%
D10*
%TO.C,R56*%
X149750000Y-104500000D03*
X151250000Y-104500000D03*
%TD*%
%TO.C,C1*%
X148250000Y-92000000D03*
X149750000Y-92000000D03*
%TD*%
%TO.C,R48*%
X164250000Y-133000000D03*
X165750000Y-133000000D03*
%TD*%
%TO.C,C68*%
X161250000Y-130000000D03*
X162750000Y-130000000D03*
%TD*%
D25*
%TO.C,R9*%
X162550000Y-94250000D03*
X162550000Y-93750000D03*
X162550000Y-93250000D03*
X162550000Y-92750000D03*
X161750000Y-92750000D03*
X161750000Y-93250000D03*
X161750000Y-93750000D03*
X161750000Y-94250000D03*
%TD*%
D10*
%TO.C,R14*%
X151250000Y-73000000D03*
X152750000Y-73000000D03*
%TD*%
D19*
%TO.C,U3*%
X130700000Y-63150000D03*
X133000000Y-63150000D03*
X135300000Y-63150000D03*
D20*
X133000000Y-56850000D03*
%TD*%
D10*
%TO.C,C45*%
X150000000Y-82950000D03*
X148500000Y-82950000D03*
%TD*%
D26*
%TO.C,J10*%
X147810000Y-105275000D03*
D27*
X146260000Y-106750000D03*
X146260000Y-103800000D03*
%TD*%
D10*
%TO.C,C63*%
X168250000Y-127000000D03*
X169750000Y-127000000D03*
%TD*%
%TO.C,C72*%
X168250000Y-120000000D03*
X169750000Y-120000000D03*
%TD*%
D24*
%TO.C,D2*%
X118000000Y-65625000D03*
X118000000Y-68575000D03*
%TD*%
D10*
%TO.C,C58*%
X124750000Y-116000000D03*
X123250000Y-116000000D03*
%TD*%
%TO.C,C26*%
X144250000Y-120000000D03*
X145750000Y-120000000D03*
%TD*%
D28*
%TO.C,D3*%
X139400000Y-52500000D03*
D29*
X138400000Y-52775000D03*
X137600000Y-52775000D03*
D28*
X136600000Y-52500000D03*
%TD*%
D11*
%TO.C,R37*%
X104000000Y-121750000D03*
X104000000Y-120250000D03*
%TD*%
D10*
%TO.C,R5*%
X144250000Y-98000000D03*
X145750000Y-98000000D03*
%TD*%
%TO.C,C69*%
X170750000Y-114000000D03*
X169250000Y-114000000D03*
%TD*%
%TO.C,C8*%
X148250000Y-99000000D03*
X149750000Y-99000000D03*
%TD*%
D30*
%TO.C,U21*%
X159175000Y-117025000D03*
X159175000Y-116375000D03*
X159175000Y-115725000D03*
X156975000Y-115725000D03*
X156975000Y-116375000D03*
X156975000Y-117025000D03*
%TD*%
D10*
%TO.C,R23*%
X143250000Y-87000000D03*
X141750000Y-87000000D03*
%TD*%
%TO.C,C7*%
X169000000Y-85000000D03*
X167500000Y-85000000D03*
%TD*%
D11*
%TO.C,C13*%
X108000000Y-71250000D03*
X108000000Y-72750000D03*
%TD*%
D31*
%TO.C,Z1*%
X150890000Y-70000000D03*
X153000000Y-70000000D03*
%TD*%
D11*
%TO.C,R15*%
X167750000Y-70500000D03*
X167750000Y-69000000D03*
%TD*%
D10*
%TO.C,R43*%
X167250000Y-139000000D03*
X168750000Y-139000000D03*
%TD*%
D11*
%TO.C,C52*%
X106000000Y-129750000D03*
X106000000Y-128250000D03*
%TD*%
D10*
%TO.C,R19*%
X143250000Y-83000000D03*
X141750000Y-83000000D03*
%TD*%
%TO.C,C2*%
X149250000Y-87000000D03*
X150750000Y-87000000D03*
%TD*%
D11*
%TO.C,R33*%
X112000000Y-129750000D03*
X112000000Y-128250000D03*
%TD*%
D10*
%TO.C,C46*%
X148250000Y-75800000D03*
X149750000Y-75800000D03*
%TD*%
%TO.C,R18*%
X146650000Y-83000000D03*
X145150000Y-83000000D03*
%TD*%
%TO.C,C11*%
X135250000Y-81000000D03*
X136750000Y-81000000D03*
%TD*%
%TO.C,C19*%
X148250000Y-130000000D03*
X149750000Y-130000000D03*
%TD*%
D11*
%TO.C,R25*%
X146000000Y-56750000D03*
X146000000Y-55250000D03*
%TD*%
D19*
%TO.C,U1*%
X110700000Y-77150000D03*
X113000000Y-77150000D03*
X115300000Y-77150000D03*
D20*
X113000000Y-70850000D03*
%TD*%
D13*
%TO.C,Q2*%
X159000000Y-125950000D03*
X159000000Y-124050000D03*
X157000000Y-125000000D03*
%TD*%
D11*
%TO.C,C32*%
X118000000Y-59250000D03*
X118000000Y-60750000D03*
%TD*%
D10*
%TO.C,C16*%
X148250000Y-101000000D03*
X149750000Y-101000000D03*
%TD*%
%TO.C,R8*%
X161900000Y-95800000D03*
X163400000Y-95800000D03*
%TD*%
%TO.C,C56*%
X128750000Y-116000000D03*
X127250000Y-116000000D03*
%TD*%
D32*
%TO.C,U4*%
X140950000Y-111650000D03*
X140000000Y-111650000D03*
X139050000Y-111650000D03*
X139050000Y-114350000D03*
X140950000Y-114350000D03*
%TD*%
D10*
%TO.C,C53*%
X124750000Y-100000000D03*
X123250000Y-100000000D03*
%TD*%
%TO.C,R6*%
X135250000Y-86500000D03*
X136750000Y-86500000D03*
%TD*%
%TO.C,C77*%
X148500000Y-85000000D03*
X150000000Y-85000000D03*
%TD*%
%TO.C,R46*%
X158250000Y-136000000D03*
X159750000Y-136000000D03*
%TD*%
D18*
%TO.C,L10*%
X128000000Y-103855000D03*
X128000000Y-106145000D03*
%TD*%
D10*
%TO.C,R44*%
X161250000Y-133000000D03*
X162750000Y-133000000D03*
%TD*%
%TO.C,R58*%
X157500000Y-101000000D03*
X156000000Y-101000000D03*
%TD*%
D30*
%TO.C,U19*%
X170100000Y-123650000D03*
X170100000Y-123000000D03*
X170100000Y-122350000D03*
X167900000Y-122350000D03*
X167900000Y-123000000D03*
X167900000Y-123650000D03*
%TD*%
D10*
%TO.C,R51*%
X161250000Y-127000000D03*
X162750000Y-127000000D03*
%TD*%
%TO.C,C18*%
X140250000Y-124000000D03*
X141750000Y-124000000D03*
%TD*%
%TO.C,C25*%
X152250000Y-125000000D03*
X153750000Y-125000000D03*
%TD*%
%TO.C,C71*%
X164250000Y-118000000D03*
X165750000Y-118000000D03*
%TD*%
%TO.C,R22*%
X146750000Y-87000000D03*
X145250000Y-87000000D03*
%TD*%
D33*
%TO.C,L11*%
X129145000Y-113000000D03*
X126855000Y-113000000D03*
%TD*%
D10*
%TO.C,R53*%
X160250000Y-107000000D03*
X161750000Y-107000000D03*
%TD*%
D32*
%TO.C,U22*%
X156950000Y-103000000D03*
X156000000Y-103000000D03*
X155050000Y-103000000D03*
X155050000Y-105700000D03*
X156950000Y-105700000D03*
%TD*%
D21*
%TO.C,L6*%
X145300000Y-79000000D03*
X146700000Y-79000000D03*
%TD*%
D10*
%TO.C,R52*%
X158750000Y-121000000D03*
X157250000Y-121000000D03*
%TD*%
D21*
%TO.C,L16*%
X169300000Y-112000000D03*
X170700000Y-112000000D03*
%TD*%
D34*
%TO.C,U9*%
X126500000Y-82730000D03*
X126500000Y-84000000D03*
X126500000Y-85270000D03*
X126500000Y-86540000D03*
X132850000Y-86540000D03*
X132850000Y-85270000D03*
X132850000Y-84000000D03*
X132850000Y-82730000D03*
%TD*%
D10*
%TO.C,C70*%
X157250000Y-119000000D03*
X158750000Y-119000000D03*
%TD*%
%TO.C,C28*%
X141750000Y-94000000D03*
X140250000Y-94000000D03*
%TD*%
D11*
%TO.C,C36*%
X138000000Y-59250000D03*
X138000000Y-60750000D03*
%TD*%
D35*
%TO.C,C33*%
X145000000Y-63000000D03*
X142000000Y-63000000D03*
%TD*%
D11*
%TO.C,R34*%
X138000000Y-139750000D03*
X138000000Y-138250000D03*
%TD*%
%TO.C,R29*%
X144000000Y-139750000D03*
X144000000Y-138250000D03*
%TD*%
D36*
%TO.C,U16*%
X167650000Y-129050000D03*
X167650000Y-130000000D03*
X167650000Y-130950000D03*
X170350000Y-130950000D03*
X170350000Y-130000000D03*
X170350000Y-129050000D03*
%TD*%
D30*
%TO.C,U18*%
X166100000Y-121650000D03*
X166100000Y-121000000D03*
X166100000Y-120350000D03*
X163900000Y-120350000D03*
X163900000Y-121000000D03*
X163900000Y-121650000D03*
%TD*%
D11*
%TO.C,R38*%
X112000000Y-121750000D03*
X112000000Y-120250000D03*
%TD*%
D33*
%TO.C,L14*%
X129145000Y-129000000D03*
X126855000Y-129000000D03*
%TD*%
D11*
%TO.C,C49*%
X147000000Y-139750000D03*
X147000000Y-138250000D03*
%TD*%
D21*
%TO.C,L5*%
X145300000Y-81000000D03*
X146700000Y-81000000D03*
%TD*%
D10*
%TO.C,C23*%
X153750000Y-123000000D03*
X152250000Y-123000000D03*
%TD*%
%TO.C,R60*%
X165500000Y-109750000D03*
X167000000Y-109750000D03*
%TD*%
D11*
%TO.C,C57*%
X106000000Y-121750000D03*
X106000000Y-120250000D03*
%TD*%
D37*
%TO.C,U8*%
X153318750Y-92318750D03*
X153318750Y-94106250D03*
X153318750Y-95893750D03*
X153318750Y-97681250D03*
X155106250Y-92318750D03*
X155106250Y-94106250D03*
X155106250Y-95893750D03*
X155106250Y-97681250D03*
X156893750Y-92318750D03*
X156893750Y-94106250D03*
X156893750Y-95893750D03*
X156893750Y-97681250D03*
X158681250Y-92318750D03*
X158681250Y-94106250D03*
X158681250Y-95893750D03*
X158681250Y-97681250D03*
D38*
X151600000Y-91250000D03*
X151600000Y-91750000D03*
X151600000Y-92250000D03*
X151600000Y-92750000D03*
X151600000Y-93250000D03*
X151600000Y-93750000D03*
X151600000Y-94250000D03*
X151600000Y-94750000D03*
X151600000Y-95250000D03*
X151600000Y-95750000D03*
X151600000Y-96250000D03*
X151600000Y-96750000D03*
X151600000Y-97250000D03*
X151600000Y-97750000D03*
X151600000Y-98250000D03*
X151600000Y-98750000D03*
D39*
X152250000Y-99400000D03*
X152750000Y-99400000D03*
X153250000Y-99400000D03*
X153750000Y-99400000D03*
X154250000Y-99400000D03*
X154750000Y-99400000D03*
X155250000Y-99400000D03*
X155750000Y-99400000D03*
X156250000Y-99400000D03*
X156750000Y-99400000D03*
X157250000Y-99400000D03*
X157750000Y-99400000D03*
X158250000Y-99400000D03*
X158750000Y-99400000D03*
X159250000Y-99400000D03*
X159750000Y-99400000D03*
D38*
X160400000Y-98750000D03*
X160400000Y-98250000D03*
X160400000Y-97750000D03*
X160400000Y-97250000D03*
X160400000Y-96750000D03*
X160400000Y-96250000D03*
X160400000Y-95750000D03*
X160400000Y-95250000D03*
X160400000Y-94750000D03*
X160400000Y-94250000D03*
X160400000Y-93750000D03*
X160400000Y-93250000D03*
X160400000Y-92750000D03*
X160400000Y-92250000D03*
X160400000Y-91750000D03*
X160400000Y-91250000D03*
D39*
X159750000Y-90600000D03*
X159250000Y-90600000D03*
X158750000Y-90600000D03*
X158250000Y-90600000D03*
X157750000Y-90600000D03*
X157250000Y-90600000D03*
X156750000Y-90600000D03*
X156250000Y-90600000D03*
X155750000Y-90600000D03*
X155250000Y-90600000D03*
X154750000Y-90600000D03*
X154250000Y-90600000D03*
X153750000Y-90600000D03*
X153250000Y-90600000D03*
X152750000Y-90600000D03*
X152250000Y-90600000D03*
%TD*%
D13*
%TO.C,U15*%
X170000000Y-134950000D03*
X170000000Y-133050000D03*
X168000000Y-134000000D03*
%TD*%
D10*
%TO.C,R39*%
X109750000Y-120000000D03*
X108250000Y-120000000D03*
%TD*%
%TO.C,C67*%
X165750000Y-127000000D03*
X164250000Y-127000000D03*
%TD*%
%TO.C,R24*%
X117500000Y-85500000D03*
X116000000Y-85500000D03*
%TD*%
%TO.C,C30*%
X144250000Y-96000000D03*
X145750000Y-96000000D03*
%TD*%
%TO.C,C66*%
X159750000Y-133000000D03*
X158250000Y-133000000D03*
%TD*%
D40*
%TO.C,U20*%
X158200000Y-110000000D03*
X158200000Y-109500000D03*
X158200000Y-109000000D03*
X158200000Y-108500000D03*
X158200000Y-108000000D03*
X153800000Y-108000000D03*
X153800000Y-108500000D03*
X153800000Y-109000000D03*
X153800000Y-109500000D03*
X153800000Y-110000000D03*
%TD*%
D41*
%TO.C,U17*%
X157050000Y-131000000D03*
X158950000Y-131000000D03*
X158000000Y-129000000D03*
%TD*%
D10*
%TO.C,C15*%
X153750000Y-127000000D03*
X152250000Y-127000000D03*
%TD*%
%TO.C,C50*%
X128750000Y-94000000D03*
X127250000Y-94000000D03*
%TD*%
%TO.C,R47*%
X158250000Y-139000000D03*
X159750000Y-139000000D03*
%TD*%
D42*
%TO.C,X1*%
X168800000Y-117950000D03*
X171200000Y-117950000D03*
X171200000Y-116050000D03*
X168800000Y-116050000D03*
%TD*%
D21*
%TO.C,L15*%
X171300000Y-127000000D03*
X172700000Y-127000000D03*
%TD*%
D10*
%TO.C,C51*%
X128750000Y-100000000D03*
X127250000Y-100000000D03*
%TD*%
%TO.C,R57*%
X151250000Y-106000000D03*
X149750000Y-106000000D03*
%TD*%
%TO.C,R40*%
X148250000Y-132000000D03*
X149750000Y-132000000D03*
%TD*%
D11*
%TO.C,C78*%
X147750000Y-95750000D03*
X147750000Y-97250000D03*
%TD*%
D10*
%TO.C,R55*%
X153250000Y-117000000D03*
X151750000Y-117000000D03*
%TD*%
%TO.C,R45*%
X165750000Y-136000000D03*
X164250000Y-136000000D03*
%TD*%
%TO.C,C38*%
X166750000Y-79000000D03*
X165250000Y-79000000D03*
%TD*%
%TO.C,C62*%
X170750000Y-90125000D03*
X169250000Y-90125000D03*
%TD*%
%TO.C,R36*%
X108250000Y-122000000D03*
X109750000Y-122000000D03*
%TD*%
D11*
%TO.C,R59*%
X171250000Y-58000000D03*
X171250000Y-59500000D03*
%TD*%
D10*
%TO.C,C74*%
X149250000Y-109000000D03*
X150750000Y-109000000D03*
%TD*%
D21*
%TO.C,L1*%
X140300000Y-120000000D03*
X141700000Y-120000000D03*
%TD*%
D32*
%TO.C,U14*%
X170950000Y-91775000D03*
X170000000Y-91775000D03*
X169050000Y-91775000D03*
X169050000Y-94475000D03*
X170950000Y-94475000D03*
%TD*%
D10*
%TO.C,R42*%
X162750000Y-139000000D03*
X161250000Y-139000000D03*
%TD*%
D33*
%TO.C,L8*%
X129145000Y-97000000D03*
X126855000Y-97000000D03*
%TD*%
D13*
%TO.C,Q1*%
X169925000Y-106925000D03*
X169925000Y-108825000D03*
X171925000Y-107875000D03*
%TD*%
D10*
%TO.C,C29*%
X141750000Y-90000000D03*
X140250000Y-90000000D03*
%TD*%
%TO.C,C42*%
X116000000Y-84000000D03*
X117500000Y-84000000D03*
%TD*%
D11*
%TO.C,C59*%
X125000000Y-120250000D03*
X125000000Y-121750000D03*
%TD*%
D10*
%TO.C,C64*%
X162750000Y-136000000D03*
X161250000Y-136000000D03*
%TD*%
%TO.C,R3*%
X140250000Y-98000000D03*
X141750000Y-98000000D03*
%TD*%
D11*
%TO.C,C40*%
X156000000Y-73250000D03*
X156000000Y-74750000D03*
%TD*%
D43*
%TO.C,B1*%
X114000000Y-82500000D03*
X107400000Y-82500000D03*
X107400000Y-85500000D03*
X114000000Y-85500000D03*
%TD*%
D10*
%TO.C,C60*%
X128750000Y-125000000D03*
X127250000Y-125000000D03*
%TD*%
D11*
%TO.C,C54*%
X125000000Y-104250000D03*
X125000000Y-105750000D03*
%TD*%
D33*
%TO.C,L12*%
X117145000Y-121000000D03*
X114855000Y-121000000D03*
%TD*%
D10*
%TO.C,C4*%
X140750000Y-109000000D03*
X139250000Y-109000000D03*
%TD*%
D21*
%TO.C,L3*%
X148700000Y-70000000D03*
X147300000Y-70000000D03*
%TD*%
D10*
%TO.C,R35*%
X109750000Y-128000000D03*
X108250000Y-128000000D03*
%TD*%
%TO.C,R41*%
X151750000Y-115000000D03*
X153250000Y-115000000D03*
%TD*%
%TO.C,C55*%
X128750000Y-109000000D03*
X127250000Y-109000000D03*
%TD*%
D11*
%TO.C,C14*%
X118000000Y-57750000D03*
X118000000Y-56250000D03*
%TD*%
D13*
%TO.C,U13*%
X146000000Y-135950000D03*
X146000000Y-134050000D03*
X144000000Y-135000000D03*
%TD*%
D22*
%TO.C,J3*%
X129000000Y-145323000D03*
D23*
X131825000Y-145123000D03*
X126175000Y-145123000D03*
%TD*%
D10*
%TO.C,C31*%
X144250000Y-100000000D03*
X145750000Y-100000000D03*
%TD*%
D21*
%TO.C,L17*%
X160300000Y-113000000D03*
X161700000Y-113000000D03*
%TD*%
D44*
%TO.C,U10*%
X166850000Y-73350000D03*
X165150000Y-73350000D03*
X165150000Y-74650000D03*
X166850000Y-74650000D03*
%TD*%
D10*
%TO.C,C73*%
X161750000Y-111000000D03*
X160250000Y-111000000D03*
%TD*%
D11*
%TO.C,C39*%
X158000000Y-73250000D03*
X158000000Y-74750000D03*
%TD*%
D25*
%TO.C,R10*%
X162550000Y-91250000D03*
X162550000Y-90750000D03*
X162550000Y-90250000D03*
X162550000Y-89750000D03*
X161750000Y-89750000D03*
X161750000Y-90250000D03*
X161750000Y-90750000D03*
X161750000Y-91250000D03*
%TD*%
D10*
%TO.C,C44*%
X148250000Y-81000000D03*
X149750000Y-81000000D03*
%TD*%
%TO.C,R21*%
X143250000Y-85000000D03*
X141750000Y-85000000D03*
%TD*%
%TO.C,R49*%
X164250000Y-130000000D03*
X165750000Y-130000000D03*
%TD*%
%TO.C,C43*%
X148250000Y-79000000D03*
X149750000Y-79000000D03*
%TD*%
D11*
%TO.C,R26*%
X144000000Y-56750000D03*
X144000000Y-55250000D03*
%TD*%
D22*
%TO.C,J4*%
X164800000Y-145273000D03*
D23*
X167625000Y-145073000D03*
X161975000Y-145073000D03*
%TD*%
M02*
