M48
; DRILL file KiCad 10.0.4-10.0.4~ubuntu25.10.1 date 2026-07-28T04:31:23
; FORMAT={-:-/ absolute / metric / decimal}
; #@! TF.CreationDate,2026-07-28T04:31:23+00:00
; #@! TF.GenerationSoftware,Kicad,Pcbnew,10.0.4-10.0.4~ubuntu25.10.1
; #@! TF.FileFunction,MixedPlating,1,6
FMAT,2
METRIC
; #@! TA.AperFunction,Plated,PTH,ViaDrill
T1C0.150
; #@! TA.AperFunction,Plated,PTH,ComponentDrill
T2C0.200
; #@! TA.AperFunction,Plated,PTH,ComponentDrill
T3C0.250
; #@! TA.AperFunction,Plated,PTH,ViaDrill
T4C0.300
; #@! TA.AperFunction,Plated,PTH,ComponentDrill
T5C0.500
; #@! TA.AperFunction,Plated,PTH,ComponentDrill
T6C0.600
; #@! TA.AperFunction,Plated,PTH,ComponentDrill
T7C0.700
; #@! TA.AperFunction,Plated,PTH,ComponentDrill
T8C1.000
; #@! TA.AperFunction,Plated,PTH,ComponentDrill
T9C2.300
; #@! TA.AperFunction,Plated,PTH,ComponentDrill
T10C2.900
%
G90
G05
T1
X150.43Y-85.68
X150.73Y-85.0
X151.55Y-81.406
X151.575Y-82.181
X151.575Y-83.006
X151.6Y-76.6
X151.6Y-77.4
X151.6Y-79.0
X151.6Y-83.8
X151.6Y-84.6
X151.6Y-85.4
X152.377Y-78.977
X152.4Y-80.606
X152.4Y-81.4
X152.4Y-83.8
X152.4Y-84.6
X152.4Y-85.406
X153.175Y-80.606
X153.2Y-78.2
X153.2Y-79.0
X153.2Y-83.8
X153.2Y-84.606
X153.2Y-85.406
X153.75Y-87.5
X153.814Y-89.955
X154.0Y-77.4
X154.0Y-78.2
X154.0Y-82.2
X154.0Y-83.0
X154.0Y-83.8
X154.0Y-84.581
X154.75Y-87.5
X154.8Y-78.2
X154.8Y-79.0
X154.8Y-79.8
X154.8Y-81.4
X154.8Y-82.2
X154.8Y-83.0
X154.8Y-83.8
X154.8Y-84.6
X154.8Y-85.406
X155.156Y-86.358
X155.25Y-87.5
X155.6Y-78.2
X155.6Y-79.8
X155.6Y-80.6
X155.6Y-81.4
X155.6Y-82.2
X155.6Y-83.0
X155.6Y-85.406
X156.4Y-77.4
X156.4Y-80.6
X156.4Y-81.4
X156.4Y-82.2
X156.4Y-83.0
X156.4Y-83.806
X156.4Y-84.6
X156.4Y-85.406
X156.75Y-87.5
X156.83Y-86.84
X157.166Y-83.825
X157.189Y-82.211
X157.2Y-78.2
X157.2Y-79.0
X157.2Y-79.806
X157.2Y-80.6
X157.2Y-81.4
X157.2Y-83.0
X157.2Y-84.6
X157.203Y-77.403
X157.25Y-87.5
X157.75Y-87.5
X158.0Y-77.4
X158.0Y-78.2
X158.0Y-79.1
X158.0Y-79.8
X158.0Y-80.6
X158.0Y-82.206
X158.0Y-83.0
X158.0Y-83.806
X158.0Y-84.606
X158.0Y-85.406
X158.01Y-81.386
X158.25Y-87.5
X158.8Y-77.4
X158.8Y-78.206
X158.8Y-79.8
X158.8Y-80.606
X158.8Y-82.206
X158.8Y-83.006
X158.8Y-83.8
X158.8Y-84.606
X158.8Y-85.406
X159.6Y-78.2
X159.6Y-79.8
X159.6Y-80.606
X159.6Y-83.006
X159.6Y-84.6
X160.378Y-81.4
X160.4Y-77.4
X160.4Y-80.6
X160.4Y-83.006
X160.4Y-83.806
X160.425Y-85.456
X160.5Y-78.256
X163.25Y-89.75
X163.25Y-90.25
X163.25Y-90.75
X163.25Y-91.25
X163.25Y-92.75
X163.25Y-93.25
X163.25Y-93.75
X163.25Y-94.25
X163.5Y-94.75
T2
X111.476Y-56.444
X111.476Y-57.46
X111.476Y-70.444
X111.476Y-71.46
X111.984Y-56.952
X111.984Y-70.952
X112.492Y-56.444
X112.492Y-57.46
X112.492Y-70.444
X112.492Y-71.46
X113.0Y-56.952
X113.0Y-70.952
X113.508Y-56.444
X113.508Y-57.46
X113.508Y-70.444
X113.508Y-71.46
X114.016Y-56.952
X114.016Y-70.952
X114.524Y-56.444
X114.524Y-57.46
X114.524Y-70.444
X114.524Y-71.46
X131.476Y-56.444
X131.476Y-57.46
X131.476Y-70.444
X131.476Y-71.46
X131.984Y-56.952
X131.984Y-70.952
X132.492Y-56.444
X132.492Y-57.46
X132.492Y-70.444
X132.492Y-71.46
X133.0Y-56.952
X133.0Y-70.952
X133.508Y-56.444
X133.508Y-57.46
X133.508Y-70.444
X133.508Y-71.46
X134.016Y-56.952
X134.016Y-70.952
X134.524Y-56.444
X134.524Y-57.46
X134.524Y-70.444
X134.524Y-71.46
X153.0Y-92.0
X153.0Y-93.0
X153.0Y-94.0
X153.0Y-95.0
X153.0Y-96.0
X153.0Y-97.0
X153.0Y-98.0
X154.0Y-92.0
X154.0Y-93.0
X154.0Y-94.0
X154.0Y-95.0
X154.0Y-96.0
X154.0Y-97.0
X154.0Y-98.0
X155.0Y-92.0
X155.0Y-93.0
X155.0Y-94.0
X155.0Y-95.0
X155.0Y-96.0
X155.0Y-97.0
X155.0Y-98.0
X156.0Y-92.0
X156.0Y-93.0
X156.0Y-94.0
X156.0Y-95.0
X156.0Y-96.0
X156.0Y-97.0
X156.0Y-98.0
X157.0Y-92.0
X157.0Y-93.0
X157.0Y-94.0
X157.0Y-95.0
X157.0Y-96.0
X157.0Y-97.0
X157.0Y-98.0
X158.0Y-92.0
X158.0Y-93.0
X158.0Y-94.0
X158.0Y-95.0
X158.0Y-96.0
X158.0Y-97.0
X158.0Y-98.0
X159.0Y-92.0
X159.0Y-93.0
X159.0Y-94.0
X159.0Y-95.0
X159.0Y-96.0
X159.0Y-97.0
X159.0Y-98.0
T3
X146.0Y-124.0
X146.0Y-125.0
X146.0Y-126.0
X146.5Y-124.5
X146.5Y-125.5
X147.0Y-124.0
X147.0Y-125.0
X147.0Y-126.0
X147.5Y-124.5
X147.5Y-125.5
X148.0Y-124.0
X148.0Y-125.0
X148.0Y-126.0
T4
X101.0Y-53.0
X101.0Y-55.0
X101.0Y-57.0
X101.0Y-59.0
X101.0Y-61.0
X101.0Y-63.0
X101.0Y-65.0
X101.0Y-67.0
X101.0Y-69.0
X101.0Y-71.0
X101.0Y-73.0
X101.0Y-75.0
X101.0Y-77.0
X101.0Y-79.0
X101.0Y-81.0
X101.0Y-83.0
X101.0Y-85.0
X101.0Y-87.0
X101.0Y-89.0
X101.0Y-91.0
X101.0Y-93.0
X101.0Y-95.0
X101.0Y-97.0
X101.0Y-99.0
X101.0Y-101.0
X101.0Y-103.0
X101.0Y-105.0
X101.0Y-107.0
X101.0Y-109.0
X101.0Y-111.0
X101.0Y-113.0
X101.0Y-115.0
X101.0Y-117.0
X101.0Y-119.0
X101.0Y-121.0
X101.0Y-123.0
X101.0Y-125.0
X101.0Y-127.0
X101.0Y-129.0
X101.0Y-131.0
X101.0Y-133.0
X101.0Y-135.0
X101.0Y-137.0
X101.0Y-139.0
X101.0Y-141.0
X101.0Y-143.0
X101.0Y-145.0
X101.0Y-147.0
X101.0Y-148.4
X103.0Y-136.0
X103.0Y-148.4
X104.0Y-89.0
X104.0Y-115.0
X104.0Y-117.0
X104.0Y-119.0
X104.0Y-123.0
X104.0Y-125.0
X104.0Y-127.0
X104.0Y-131.0
X104.0Y-133.0
X105.0Y-51.0
X105.0Y-134.0
X105.0Y-136.0
X105.0Y-148.4
X105.3Y-63.2
X105.9Y-72.8
X105.9Y-77.1
X106.0Y-82.5
X106.0Y-89.0
X106.0Y-115.0
X106.0Y-117.0
X106.0Y-141.0
X106.0Y-143.0
X106.0Y-145.0
X106.0Y-147.0
X107.0Y-51.0
X107.0Y-134.0
X107.0Y-136.0
X107.95Y-69.8
X108.0Y-64.4
X108.0Y-89.0
X109.0Y-51.0
X109.0Y-107.0
X109.0Y-109.0
X109.0Y-111.0
X109.0Y-113.0
X109.0Y-115.0
X110.0Y-89.0
X111.0Y-51.0
X111.0Y-106.0
X111.0Y-109.0
X111.0Y-111.0
X111.0Y-113.0
X111.0Y-115.0
X112.0Y-89.0
X112.0Y-107.0
X113.0Y-51.0
X113.0Y-104.0
X113.7Y-127.7
X114.0Y-89.0
X114.0Y-105.0
X115.0Y-51.0
X115.0Y-102.0
X115.5Y-82.5
X116.0Y-89.0
X116.0Y-103.0
X116.0Y-141.0
X116.0Y-143.0
X116.0Y-145.0
X116.0Y-147.0
X117.0Y-51.0
X117.0Y-100.0
X117.0Y-148.2
X117.1Y-118.7
X117.1Y-123.1
X118.0Y-64.35
X118.0Y-69.85
X118.0Y-89.0
X118.0Y-101.0
X118.2Y-127.8
X118.5Y-85.5
X118.6Y-83.9
X119.0Y-51.0
X119.0Y-98.0
X119.0Y-148.2
X120.0Y-89.0
X120.0Y-99.0
X120.2Y-73.3
X120.3Y-56.3
X120.3Y-59.3
X121.0Y-51.0
X121.0Y-96.0
X121.0Y-148.2
X122.0Y-89.0
X122.0Y-97.0
X122.25Y-83.0
X123.0Y-51.0
X123.0Y-94.0
X123.0Y-148.2
X123.25Y-101.05
X123.3Y-99.0
X123.3Y-115.0
X123.3Y-117.1
X124.0Y-93.0
X124.0Y-95.0
X124.0Y-127.2
X124.0Y-142.0
X124.0Y-144.0
X124.0Y-146.0
X124.0Y-148.0
X124.5Y-86.5
X124.8Y-63.3
X125.0Y-51.0
X125.0Y-128.2
X126.0Y-89.0
X126.2Y-94.0
X126.2Y-109.0
X126.3Y-125.0
X126.4Y-81.8
X127.0Y-51.0
X127.0Y-92.0
X127.2Y-126.1
X127.25Y-109.95
X127.3Y-94.9
X128.0Y-89.0
X128.21Y-86.54
X129.0Y-51.0
X130.7Y-80.85
X131.0Y-51.0
X131.0Y-91.0
X131.9Y-135.2
X132.0Y-90.0
X132.0Y-92.0
X132.0Y-94.0
X132.0Y-96.0
X132.0Y-98.0
X132.0Y-100.0
X132.0Y-102.0
X132.0Y-104.0
X132.0Y-106.0
X132.0Y-108.0
X132.0Y-110.0
X132.0Y-112.0
X132.0Y-114.0
X132.0Y-116.0
X132.0Y-118.0
X132.0Y-120.0
X132.0Y-122.0
X132.0Y-124.0
X132.0Y-126.0
X132.0Y-128.0
X132.0Y-130.0
X132.0Y-132.0
X133.0Y-51.0
X133.0Y-91.0
X134.0Y-89.0
X134.0Y-94.0
X134.0Y-96.0
X134.0Y-98.0
X134.0Y-100.0
X134.0Y-102.0
X134.0Y-104.0
X134.0Y-106.0
X134.0Y-108.0
X134.0Y-110.0
X134.0Y-112.0
X134.0Y-114.0
X134.0Y-116.0
X134.0Y-118.0
X134.0Y-120.0
X134.0Y-122.0
X134.0Y-124.0
X134.0Y-126.0
X134.0Y-128.0
X134.0Y-130.0
X134.0Y-132.0
X134.0Y-134.0
X134.0Y-142.0
X134.0Y-144.0
X134.0Y-146.0
X134.0Y-148.0
X135.0Y-51.0
X135.0Y-87.65
X135.0Y-148.0
X135.25Y-84.16
X135.95Y-87.65
X137.0Y-134.0
X137.0Y-148.0
X137.69Y-86.5
X137.71Y-85.0
X137.92Y-80.95
X139.0Y-132.0
X139.0Y-134.0
X139.0Y-148.0
X139.2Y-108.8
X139.5Y-117.3
X140.2Y-89.1
X140.2Y-125.0
X140.25Y-90.95
X140.25Y-123.05
X140.25Y-139.75
X140.5Y-72.0
X140.5Y-73.0
X140.5Y-74.0
X140.5Y-75.0
X140.5Y-76.05
X140.68Y-52.13
X141.0Y-132.0
X141.0Y-134.0
X141.0Y-148.0
X141.6Y-123.0
X141.7Y-121.6
X141.75Y-93.0
X141.75Y-95.0
X141.75Y-139.75
X141.8Y-125.2
X141.8Y-126.0
X141.8Y-127.0
X141.9Y-59.3
X141.9Y-70.2
X142.0Y-51.0
X142.0Y-57.6
X142.0Y-61.7
X142.0Y-64.4
X142.0Y-141.0
X142.0Y-143.0
X142.0Y-145.0
X142.0Y-147.0
X142.4Y-103.0
X142.4Y-104.2
X142.53Y-82.199
X142.7Y-121.6
X142.9Y-123.3
X142.9Y-126.7
X143.85Y-74.0
X144.0Y-51.0
X144.0Y-57.6
X144.3Y-83.0
X144.3Y-85.0
X144.3Y-87.0
X144.4Y-75.8
X144.4Y-78.45
X145.3Y-78.0
X145.375Y-81.924
X146.0Y-51.0
X146.0Y-57.7
X146.0Y-95.0
X146.0Y-97.0
X146.0Y-99.0
X146.0Y-101.0
X146.0Y-129.0
X146.0Y-131.0
X146.0Y-137.1
X146.6Y-72.0
X147.0Y-130.0
X147.0Y-135.9
X147.25Y-74.0
X147.25Y-102.75
X147.25Y-107.75
X147.3Y-73.0
X147.3Y-76.8
X147.4Y-71.5
X147.5Y-79.0
X147.5Y-81.0
X147.5Y-99.0
X147.5Y-75.8
X147.6Y-83.0
X147.6Y-85.0
X148.0Y-51.0
X148.0Y-137.1
X148.2Y-74.5
X148.25Y-93.05
X148.25Y-99.95
X148.25Y-101.95
X148.3Y-86.7
X148.375Y-91.224
X148.51Y-84.03
X148.949Y-74.0
X149.0Y-76.6
X149.048Y-100.003
X149.086Y-93.38
X149.1Y-92.65
X149.2Y-108.0
X149.2Y-109.8
X149.2Y-139.8
X149.3Y-82.099
X149.75Y-91.15
X149.75Y-98.2
X149.75Y-100.0
X149.8Y-102.0
X150.0Y-51.0
X150.02Y-83.869
X150.395Y-103.255
X150.539Y-97.261
X150.6Y-79.0
X150.6Y-96.0
X150.75Y-107.0
X150.75Y-139.75
X150.777Y-81.427
X150.95Y-102.75
X151.0Y-135.0
X151.04Y-79.67
X151.1Y-74.6
X151.1Y-132.0
X151.2Y-123.2
X151.2Y-126.9
X151.496Y-100.204
X151.6Y-90.6
X151.6Y-102.0
X151.7Y-86.7
X151.7Y-116.1
X151.8Y-74.0
X152.0Y-51.0
X152.0Y-141.0
X152.0Y-143.0
X152.0Y-145.0
X152.0Y-147.0
X152.3Y-122.0
X152.3Y-124.0
X152.3Y-126.0
X152.4Y-109.1
X152.5Y-110.0
X152.6Y-88.4
X152.75Y-101.8
X152.81Y-89.39
X153.0Y-68.7
X153.0Y-71.3
X153.0Y-135.0
X153.5Y-74.0
X153.7Y-101.0
X153.8Y-122.0
X153.8Y-124.0
X153.8Y-126.0
X153.8Y-128.0
X154.0Y-51.0
X154.5Y-75.0
X154.6Y-100.4
X154.6Y-101.4
X155.0Y-135.0
X155.0Y-137.0
X155.0Y-139.0
X155.0Y-141.0
X155.0Y-143.0
X155.0Y-145.0
X155.0Y-147.0
X155.1Y-109.1
X155.8Y-115.8
X156.0Y-51.0
X156.0Y-102.1
X156.9Y-129.0
X157.0Y-75.95
X157.0Y-135.0
X157.0Y-137.0
X157.0Y-139.0
X157.0Y-141.0
X157.0Y-143.0
X157.0Y-145.0
X157.0Y-147.0
X157.25Y-122.3
X157.3Y-133.0
X157.5Y-68.6
X157.93Y-71.63
X158.0Y-51.0
X158.2Y-112.0
X158.3Y-135.0
X158.4Y-101.0
X158.7Y-113.0
X159.0Y-105.2
X159.0Y-122.9
X159.03Y-74.02
X159.2Y-101.8
X159.2Y-117.8
X159.3Y-113.0
X159.5Y-119.0
X159.5Y-121.0
X159.75Y-89.75
X159.85Y-114.7
X160.0Y-51.0
X160.0Y-143.0
X160.0Y-145.0
X160.0Y-147.0
X160.03Y-75.02
X160.2Y-105.9
X160.2Y-108.0
X160.3Y-114.1
X160.4Y-116.4
X160.7Y-103.0
X160.7Y-105.0
X160.8Y-100.2
X160.8Y-101.8
X160.946Y-76.546
X161.4Y-78.7
X161.5Y-116.3
X161.85Y-75.6
X162.0Y-51.0
X162.227Y-83.573
X162.4Y-113.0
X162.6Y-120.6
X162.7Y-107.0
X162.7Y-109.0
X162.7Y-111.0
X162.7Y-111.7
X163.4Y-128.9
X163.7Y-118.9
X163.8Y-70.5
X163.8Y-72.5
X163.8Y-73.4
X163.8Y-74.1
X163.8Y-124.0
X164.0Y-51.0
X164.2Y-126.0
X164.3Y-77.0
X164.3Y-79.0
X164.7Y-123.7
X164.75Y-68.0
X165.126Y-121.265
X165.4Y-113.2
X165.7Y-117.2
X165.752Y-84.5
X166.0Y-51.0
X166.2Y-71.4
X166.25Y-68.0
X166.55Y-81.0
X166.55Y-83.0
X166.55Y-85.0
X166.55Y-87.0
X166.6Y-123.7
X167.2Y-127.0
X167.261Y-111.761
X167.4Y-114.0
X167.4Y-120.8
X167.7Y-77.0
X167.7Y-79.0
X167.75Y-68.0
X167.75Y-71.5
X168.0Y-51.0
X168.0Y-109.75
X168.2Y-96.125
X168.3Y-90.125
X168.3Y-128.0
X168.35Y-113.05
X168.6Y-107.0
X168.7Y-130.0
X169.2Y-89.025
X169.5Y-56.25
X169.8Y-120.8
X169.95Y-81.0
X169.95Y-83.0
X169.95Y-85.0
X169.95Y-87.0
X170.0Y-51.0
X170.0Y-72.0
X170.0Y-132.0
X170.0Y-143.0
X170.0Y-145.0
X170.0Y-147.0
X170.1Y-127.9
X170.7Y-120.0
X170.8Y-74.2
X170.8Y-75.8
X170.8Y-114.8
X171.1Y-134.9
X171.2Y-119.4
X171.3Y-123.0
X171.3Y-123.9
X171.3Y-129.0
X171.5Y-114.0
X171.7Y-96.125
X171.8Y-130.0
X172.0Y-107.0
X172.0Y-109.0
X172.7Y-125.6
X172.7Y-128.3
X172.85Y-117.95
X175.0Y-51.0
X175.0Y-53.0
X175.0Y-55.0
X175.0Y-57.0
X175.0Y-59.0
X175.0Y-61.0
X175.0Y-63.0
X175.0Y-65.0
X175.0Y-67.0
X175.0Y-69.0
X175.0Y-71.0
X175.0Y-73.0
X175.0Y-75.0
X175.0Y-77.0
X175.0Y-79.0
X175.0Y-81.0
X175.0Y-83.0
X175.0Y-85.0
X175.0Y-87.0
X175.0Y-89.0
X175.0Y-91.0
X175.0Y-93.0
X175.0Y-95.0
X175.0Y-97.0
X175.0Y-99.0
X175.0Y-101.0
X175.0Y-103.0
X175.0Y-105.0
X175.0Y-107.0
X175.0Y-109.0
X175.0Y-111.0
X175.0Y-113.0
X175.0Y-115.0
X175.0Y-117.0
X175.0Y-119.0
X175.0Y-121.0
X175.0Y-123.0
X175.0Y-125.0
X175.0Y-127.0
X175.0Y-129.0
X175.0Y-131.0
X175.0Y-133.0
X175.0Y-135.0
X175.0Y-137.0
X175.0Y-139.0
X175.0Y-141.0
X175.0Y-143.0
X175.0Y-145.0
X175.0Y-147.0
T5
X165.5Y-81.0
X165.5Y-82.4
T6
X168.0Y-58.0
X168.0Y-59.27
X168.0Y-60.54
X168.0Y-61.81
X168.0Y-63.08
X169.27Y-58.0
X169.27Y-59.27
X169.27Y-60.54
X169.27Y-61.81
X169.27Y-63.08
T7
X152.712Y-63.867
X154.462Y-63.867
X155.712Y-59.867
X155.712Y-61.867
X156.962Y-63.867
X158.212Y-59.867
X158.212Y-61.867
X159.462Y-63.867
X161.212Y-63.867
T8
X104.0Y-71.0
X104.0Y-81.0
X104.0Y-85.5
X104.0Y-91.5
X104.0Y-139.0
X104.0Y-142.0
X107.46Y-116.0
X108.46Y-135.0
X110.0Y-116.0
X111.0Y-135.0
X112.54Y-116.0
X113.54Y-135.0
X120.0Y-82.0
X120.0Y-86.0
X124.46Y-90.0
X124.46Y-134.0
X127.0Y-90.0
X127.0Y-134.0
X129.0Y-139.0
X129.54Y-90.0
X129.54Y-134.0
X132.0Y-139.0
X140.0Y-128.0
X160.0Y-88.1
X162.2Y-88.1
X164.0Y-97.6
X165.0Y-139.0
X166.25Y-107.5
X170.0Y-77.5
X171.0Y-139.0
X172.0Y-132.0
T9
X150.942Y-57.157
X162.982Y-57.157
T10
X104.0Y-53.0
X104.0Y-146.0
X172.0Y-53.0
X172.0Y-146.0
M30
