%TF.GenerationSoftware,KiCad,Pcbnew,10.0.4-10.0.4~ubuntu25.10.1*%
%TF.CreationDate,2026-07-28T04:31:22+00:00*%
%TF.ProjectId,TAPRX-888,54415052-582d-4383-9838-2e6b69636164,DEV*%
%TF.SameCoordinates,Original*%
%TF.FileFunction,Other,Comment*%
%FSLAX46Y46*%
G04 Gerber Fmt 4.6, Leading zero omitted, Abs format (unit mm)*
G04 Created by KiCad (PCBNEW 10.0.4-10.0.4~ubuntu25.10.1) date 2026-07-28 04:31:22*
%MOMM*%
%LPD*%
G01*
G04 APERTURE LIST*
%ADD10C,0.100000*%
%ADD11C,0.150000*%
G04 APERTURE END LIST*
D10*
X130400000Y-69400000D02*
X136000000Y-69400000D01*
X136000000Y-72400000D01*
X130400000Y-72400000D01*
X130400000Y-69400000D01*
X144000000Y-75400000D02*
X144800000Y-75400000D01*
X144800000Y-76200000D01*
X144000000Y-76200000D01*
X144000000Y-75400000D01*
X144600000Y-77800000D02*
X145800000Y-77800000D01*
X145800000Y-80400000D01*
X144600000Y-80400000D01*
X144600000Y-77800000D01*
X146870000Y-73650000D02*
X147650000Y-73650000D01*
X147650000Y-74390000D01*
X146870000Y-74390000D01*
X146870000Y-73650000D01*
X151360000Y-82810000D02*
X151800000Y-82810000D01*
X151800000Y-83240000D01*
X151360000Y-83240000D01*
X151360000Y-82810000D01*
X151806833Y-81410000D02*
G75*
G02*
X151273167Y-81410000I-266833J0D01*
G01*
X151273167Y-81410000D02*
G75*
G02*
X151806833Y-81410000I266833J0D01*
G01*
X151871780Y-77410000D02*
G75*
G02*
X151308220Y-77410000I-281780J0D01*
G01*
X151308220Y-77410000D02*
G75*
G02*
X151871780Y-77410000I281780J0D01*
G01*
X153000000Y-78810000D02*
X153430000Y-78810000D01*
X153430000Y-79240000D01*
X153000000Y-79240000D01*
X153000000Y-78810000D01*
X154590000Y-85180000D02*
X155050000Y-85180000D01*
X155050000Y-85660000D01*
X154590000Y-85660000D01*
X154590000Y-85180000D01*
X156160000Y-85190000D02*
X156640000Y-85190000D01*
X156640000Y-85660000D01*
X156160000Y-85660000D01*
X156160000Y-85190000D01*
X156200000Y-77190000D02*
X156630000Y-77190000D01*
X156630000Y-77630000D01*
X156200000Y-77630000D01*
X156200000Y-77190000D01*
X156630000Y-80610000D02*
G75*
G02*
X156110000Y-80610000I-260000J0D01*
G01*
X156110000Y-80610000D02*
G75*
G02*
X156630000Y-80610000I260000J0D01*
G01*
X157790000Y-80430000D02*
X158210000Y-80430000D01*
X158210000Y-80790000D01*
X157790000Y-80790000D01*
X157790000Y-80430000D01*
X158232594Y-85400000D02*
G75*
G02*
X157767406Y-85400000I-232594J0D01*
G01*
X157767406Y-85400000D02*
G75*
G02*
X158232594Y-85400000I232594J0D01*
G01*
X158630000Y-77990000D02*
X159020000Y-77990000D01*
X159020000Y-78430000D01*
X158630000Y-78430000D01*
X158630000Y-77990000D01*
X159057849Y-80610000D02*
G75*
G02*
X158502151Y-80610000I-277849J0D01*
G01*
X158502151Y-80610000D02*
G75*
G02*
X159057849Y-80610000I277849J0D01*
G01*
X160210000Y-83600000D02*
X160600000Y-83600000D01*
X160600000Y-84010000D01*
X160210000Y-84010000D01*
X160210000Y-83600000D01*
X160220000Y-80400000D02*
X160610000Y-80400000D01*
X160610000Y-80790000D01*
X160220000Y-80790000D01*
X160220000Y-80400000D01*
X160648537Y-83000000D02*
G75*
G02*
X160171463Y-83000000I-238537J0D01*
G01*
X160171463Y-83000000D02*
G75*
G02*
X160648537Y-83000000I238537J0D01*
G01*
X160714722Y-78210000D02*
G75*
G02*
X160265278Y-78210000I-224722J0D01*
G01*
X160265278Y-78210000D02*
G75*
G02*
X160714722Y-78210000I224722J0D01*
G01*
X164775668Y-77010000D02*
G75*
G02*
X163764332Y-77010000I-505668J0D01*
G01*
X163764332Y-77010000D02*
G75*
G02*
X164775668Y-77010000I505668J0D01*
G01*
X166170000Y-84590000D02*
X166930000Y-84590000D01*
X166930000Y-85400000D01*
X166170000Y-85400000D01*
X166170000Y-84590000D01*
X166190000Y-80570000D02*
X166980000Y-80570000D01*
X166980000Y-81390000D01*
X166190000Y-81390000D01*
X166190000Y-80570000D01*
X167012494Y-87040000D02*
G75*
G02*
X166007506Y-87040000I-502494J0D01*
G01*
X166007506Y-87040000D02*
G75*
G02*
X167012494Y-87040000I502494J0D01*
G01*
X166974853Y-82990000D02*
G75*
G02*
X166125147Y-82990000I-424853J0D01*
G01*
X166125147Y-82990000D02*
G75*
G02*
X166974853Y-82990000I424853J0D01*
G01*
D11*
X137796006Y-139757005D02*
X137938863Y-139804624D01*
X137938863Y-139804624D02*
X137986482Y-139852243D01*
X137986482Y-139852243D02*
X138034101Y-139947481D01*
X138034101Y-139947481D02*
X138034101Y-140090338D01*
X138034101Y-140090338D02*
X137986482Y-140185576D01*
X137986482Y-140185576D02*
X137938863Y-140233196D01*
X137938863Y-140233196D02*
X137843625Y-140280815D01*
X137843625Y-140280815D02*
X137462673Y-140280815D01*
X137462673Y-140280815D02*
X137462673Y-139280815D01*
X137462673Y-139280815D02*
X137796006Y-139280815D01*
X137796006Y-139280815D02*
X137891244Y-139328434D01*
X137891244Y-139328434D02*
X137938863Y-139376053D01*
X137938863Y-139376053D02*
X137986482Y-139471291D01*
X137986482Y-139471291D02*
X137986482Y-139566529D01*
X137986482Y-139566529D02*
X137938863Y-139661767D01*
X137938863Y-139661767D02*
X137891244Y-139709386D01*
X137891244Y-139709386D02*
X137796006Y-139757005D01*
X137796006Y-139757005D02*
X137462673Y-139757005D01*
X138605530Y-140280815D02*
X138510292Y-140233196D01*
X138510292Y-140233196D02*
X138462673Y-140185576D01*
X138462673Y-140185576D02*
X138415054Y-140090338D01*
X138415054Y-140090338D02*
X138415054Y-139804624D01*
X138415054Y-139804624D02*
X138462673Y-139709386D01*
X138462673Y-139709386D02*
X138510292Y-139661767D01*
X138510292Y-139661767D02*
X138605530Y-139614148D01*
X138605530Y-139614148D02*
X138748387Y-139614148D01*
X138748387Y-139614148D02*
X138843625Y-139661767D01*
X138843625Y-139661767D02*
X138891244Y-139709386D01*
X138891244Y-139709386D02*
X138938863Y-139804624D01*
X138938863Y-139804624D02*
X138938863Y-140090338D01*
X138938863Y-140090338D02*
X138891244Y-140185576D01*
X138891244Y-140185576D02*
X138843625Y-140233196D01*
X138843625Y-140233196D02*
X138748387Y-140280815D01*
X138748387Y-140280815D02*
X138605530Y-140280815D01*
X139796006Y-140280815D02*
X139796006Y-139757005D01*
X139796006Y-139757005D02*
X139748387Y-139661767D01*
X139748387Y-139661767D02*
X139653149Y-139614148D01*
X139653149Y-139614148D02*
X139462673Y-139614148D01*
X139462673Y-139614148D02*
X139367435Y-139661767D01*
X139796006Y-140233196D02*
X139700768Y-140280815D01*
X139700768Y-140280815D02*
X139462673Y-140280815D01*
X139462673Y-140280815D02*
X139367435Y-140233196D01*
X139367435Y-140233196D02*
X139319816Y-140137957D01*
X139319816Y-140137957D02*
X139319816Y-140042719D01*
X139319816Y-140042719D02*
X139367435Y-139947481D01*
X139367435Y-139947481D02*
X139462673Y-139899862D01*
X139462673Y-139899862D02*
X139700768Y-139899862D01*
X139700768Y-139899862D02*
X139796006Y-139852243D01*
X140272197Y-140280815D02*
X140272197Y-139614148D01*
X140272197Y-139804624D02*
X140319816Y-139709386D01*
X140319816Y-139709386D02*
X140367435Y-139661767D01*
X140367435Y-139661767D02*
X140462673Y-139614148D01*
X140462673Y-139614148D02*
X140557911Y-139614148D01*
X141319816Y-140280815D02*
X141319816Y-139280815D01*
X141319816Y-140233196D02*
X141224578Y-140280815D01*
X141224578Y-140280815D02*
X141034102Y-140280815D01*
X141034102Y-140280815D02*
X140938864Y-140233196D01*
X140938864Y-140233196D02*
X140891245Y-140185576D01*
X140891245Y-140185576D02*
X140843626Y-140090338D01*
X140843626Y-140090338D02*
X140843626Y-139804624D01*
X140843626Y-139804624D02*
X140891245Y-139709386D01*
X140891245Y-139709386D02*
X140938864Y-139661767D01*
X140938864Y-139661767D02*
X141034102Y-139614148D01*
X141034102Y-139614148D02*
X141224578Y-139614148D01*
X141224578Y-139614148D02*
X141319816Y-139661767D01*
X142415055Y-139280815D02*
X142986483Y-139280815D01*
X142700769Y-140280815D02*
X142700769Y-139280815D01*
X143319817Y-140280815D02*
X143319817Y-139280815D01*
X143748388Y-140280815D02*
X143748388Y-139757005D01*
X143748388Y-139757005D02*
X143700769Y-139661767D01*
X143700769Y-139661767D02*
X143605531Y-139614148D01*
X143605531Y-139614148D02*
X143462674Y-139614148D01*
X143462674Y-139614148D02*
X143367436Y-139661767D01*
X143367436Y-139661767D02*
X143319817Y-139709386D01*
X144224579Y-140280815D02*
X144224579Y-139614148D01*
X144224579Y-139280815D02*
X144176960Y-139328434D01*
X144176960Y-139328434D02*
X144224579Y-139376053D01*
X144224579Y-139376053D02*
X144272198Y-139328434D01*
X144272198Y-139328434D02*
X144224579Y-139280815D01*
X144224579Y-139280815D02*
X144224579Y-139376053D01*
X145129340Y-140233196D02*
X145034102Y-140280815D01*
X145034102Y-140280815D02*
X144843626Y-140280815D01*
X144843626Y-140280815D02*
X144748388Y-140233196D01*
X144748388Y-140233196D02*
X144700769Y-140185576D01*
X144700769Y-140185576D02*
X144653150Y-140090338D01*
X144653150Y-140090338D02*
X144653150Y-139804624D01*
X144653150Y-139804624D02*
X144700769Y-139709386D01*
X144700769Y-139709386D02*
X144748388Y-139661767D01*
X144748388Y-139661767D02*
X144843626Y-139614148D01*
X144843626Y-139614148D02*
X145034102Y-139614148D01*
X145034102Y-139614148D02*
X145129340Y-139661767D01*
X145557912Y-140280815D02*
X145557912Y-139280815D01*
X145653150Y-139899862D02*
X145938864Y-140280815D01*
X145938864Y-139614148D02*
X145557912Y-139995100D01*
X146367436Y-139614148D02*
X146367436Y-140280815D01*
X146367436Y-139709386D02*
X146415055Y-139661767D01*
X146415055Y-139661767D02*
X146510293Y-139614148D01*
X146510293Y-139614148D02*
X146653150Y-139614148D01*
X146653150Y-139614148D02*
X146748388Y-139661767D01*
X146748388Y-139661767D02*
X146796007Y-139757005D01*
X146796007Y-139757005D02*
X146796007Y-140280815D01*
X147653150Y-140233196D02*
X147557912Y-140280815D01*
X147557912Y-140280815D02*
X147367436Y-140280815D01*
X147367436Y-140280815D02*
X147272198Y-140233196D01*
X147272198Y-140233196D02*
X147224579Y-140137957D01*
X147224579Y-140137957D02*
X147224579Y-139757005D01*
X147224579Y-139757005D02*
X147272198Y-139661767D01*
X147272198Y-139661767D02*
X147367436Y-139614148D01*
X147367436Y-139614148D02*
X147557912Y-139614148D01*
X147557912Y-139614148D02*
X147653150Y-139661767D01*
X147653150Y-139661767D02*
X147700769Y-139757005D01*
X147700769Y-139757005D02*
X147700769Y-139852243D01*
X147700769Y-139852243D02*
X147224579Y-139947481D01*
X148081722Y-140233196D02*
X148176960Y-140280815D01*
X148176960Y-140280815D02*
X148367436Y-140280815D01*
X148367436Y-140280815D02*
X148462674Y-140233196D01*
X148462674Y-140233196D02*
X148510293Y-140137957D01*
X148510293Y-140137957D02*
X148510293Y-140090338D01*
X148510293Y-140090338D02*
X148462674Y-139995100D01*
X148462674Y-139995100D02*
X148367436Y-139947481D01*
X148367436Y-139947481D02*
X148224579Y-139947481D01*
X148224579Y-139947481D02*
X148129341Y-139899862D01*
X148129341Y-139899862D02*
X148081722Y-139804624D01*
X148081722Y-139804624D02*
X148081722Y-139757005D01*
X148081722Y-139757005D02*
X148129341Y-139661767D01*
X148129341Y-139661767D02*
X148224579Y-139614148D01*
X148224579Y-139614148D02*
X148367436Y-139614148D01*
X148367436Y-139614148D02*
X148462674Y-139661767D01*
X148891246Y-140233196D02*
X148986484Y-140280815D01*
X148986484Y-140280815D02*
X149176960Y-140280815D01*
X149176960Y-140280815D02*
X149272198Y-140233196D01*
X149272198Y-140233196D02*
X149319817Y-140137957D01*
X149319817Y-140137957D02*
X149319817Y-140090338D01*
X149319817Y-140090338D02*
X149272198Y-139995100D01*
X149272198Y-139995100D02*
X149176960Y-139947481D01*
X149176960Y-139947481D02*
X149034103Y-139947481D01*
X149034103Y-139947481D02*
X148938865Y-139899862D01*
X148938865Y-139899862D02*
X148891246Y-139804624D01*
X148891246Y-139804624D02*
X148891246Y-139757005D01*
X148891246Y-139757005D02*
X148938865Y-139661767D01*
X148938865Y-139661767D02*
X149034103Y-139614148D01*
X149034103Y-139614148D02*
X149176960Y-139614148D01*
X149176960Y-139614148D02*
X149272198Y-139661767D01*
X149748389Y-140185576D02*
X149796008Y-140233196D01*
X149796008Y-140233196D02*
X149748389Y-140280815D01*
X149748389Y-140280815D02*
X149700770Y-140233196D01*
X149700770Y-140233196D02*
X149748389Y-140185576D01*
X149748389Y-140185576D02*
X149748389Y-140280815D01*
X149748389Y-139661767D02*
X149796008Y-139709386D01*
X149796008Y-139709386D02*
X149748389Y-139757005D01*
X149748389Y-139757005D02*
X149700770Y-139709386D01*
X149700770Y-139709386D02*
X149748389Y-139661767D01*
X149748389Y-139661767D02*
X149748389Y-139757005D01*
X151510293Y-140280815D02*
X150938865Y-140280815D01*
X151224579Y-140280815D02*
X151224579Y-139280815D01*
X151224579Y-139280815D02*
X151129341Y-139423672D01*
X151129341Y-139423672D02*
X151034103Y-139518910D01*
X151034103Y-139518910D02*
X150938865Y-139566529D01*
X151938865Y-140185576D02*
X151986484Y-140233196D01*
X151986484Y-140233196D02*
X151938865Y-140280815D01*
X151938865Y-140280815D02*
X151891246Y-140233196D01*
X151891246Y-140233196D02*
X151938865Y-140185576D01*
X151938865Y-140185576D02*
X151938865Y-140280815D01*
X152891245Y-139280815D02*
X152415055Y-139280815D01*
X152415055Y-139280815D02*
X152367436Y-139757005D01*
X152367436Y-139757005D02*
X152415055Y-139709386D01*
X152415055Y-139709386D02*
X152510293Y-139661767D01*
X152510293Y-139661767D02*
X152748388Y-139661767D01*
X152748388Y-139661767D02*
X152843626Y-139709386D01*
X152843626Y-139709386D02*
X152891245Y-139757005D01*
X152891245Y-139757005D02*
X152938864Y-139852243D01*
X152938864Y-139852243D02*
X152938864Y-140090338D01*
X152938864Y-140090338D02*
X152891245Y-140185576D01*
X152891245Y-140185576D02*
X152843626Y-140233196D01*
X152843626Y-140233196D02*
X152748388Y-140280815D01*
X152748388Y-140280815D02*
X152510293Y-140280815D01*
X152510293Y-140280815D02*
X152415055Y-140233196D01*
X152415055Y-140233196D02*
X152367436Y-140185576D01*
X153272198Y-139280815D02*
X153938864Y-139280815D01*
X153938864Y-139280815D02*
X153510293Y-140280815D01*
X154319817Y-140280815D02*
X154319817Y-139614148D01*
X154319817Y-139709386D02*
X154367436Y-139661767D01*
X154367436Y-139661767D02*
X154462674Y-139614148D01*
X154462674Y-139614148D02*
X154605531Y-139614148D01*
X154605531Y-139614148D02*
X154700769Y-139661767D01*
X154700769Y-139661767D02*
X154748388Y-139757005D01*
X154748388Y-139757005D02*
X154748388Y-140280815D01*
X154748388Y-139757005D02*
X154796007Y-139661767D01*
X154796007Y-139661767D02*
X154891245Y-139614148D01*
X154891245Y-139614148D02*
X155034102Y-139614148D01*
X155034102Y-139614148D02*
X155129341Y-139661767D01*
X155129341Y-139661767D02*
X155176960Y-139757005D01*
X155176960Y-139757005D02*
X155176960Y-140280815D01*
X155653150Y-140280815D02*
X155653150Y-139614148D01*
X155653150Y-139709386D02*
X155700769Y-139661767D01*
X155700769Y-139661767D02*
X155796007Y-139614148D01*
X155796007Y-139614148D02*
X155938864Y-139614148D01*
X155938864Y-139614148D02*
X156034102Y-139661767D01*
X156034102Y-139661767D02*
X156081721Y-139757005D01*
X156081721Y-139757005D02*
X156081721Y-140280815D01*
X156081721Y-139757005D02*
X156129340Y-139661767D01*
X156129340Y-139661767D02*
X156224578Y-139614148D01*
X156224578Y-139614148D02*
X156367435Y-139614148D01*
X156367435Y-139614148D02*
X156462674Y-139661767D01*
X156462674Y-139661767D02*
X156510293Y-139757005D01*
X156510293Y-139757005D02*
X156510293Y-140280815D01*
X101809523Y-139577620D02*
X101952380Y-139625239D01*
X101952380Y-139625239D02*
X101999999Y-139672858D01*
X101999999Y-139672858D02*
X102047618Y-139768096D01*
X102047618Y-139768096D02*
X102047618Y-139910953D01*
X102047618Y-139910953D02*
X101999999Y-140006191D01*
X101999999Y-140006191D02*
X101952380Y-140053811D01*
X101952380Y-140053811D02*
X101857142Y-140101430D01*
X101857142Y-140101430D02*
X101476190Y-140101430D01*
X101476190Y-140101430D02*
X101476190Y-139101430D01*
X101476190Y-139101430D02*
X101809523Y-139101430D01*
X101809523Y-139101430D02*
X101904761Y-139149049D01*
X101904761Y-139149049D02*
X101952380Y-139196668D01*
X101952380Y-139196668D02*
X101999999Y-139291906D01*
X101999999Y-139291906D02*
X101999999Y-139387144D01*
X101999999Y-139387144D02*
X101952380Y-139482382D01*
X101952380Y-139482382D02*
X101904761Y-139530001D01*
X101904761Y-139530001D02*
X101809523Y-139577620D01*
X101809523Y-139577620D02*
X101476190Y-139577620D01*
X102619047Y-140101430D02*
X102523809Y-140053811D01*
X102523809Y-140053811D02*
X102476190Y-140006191D01*
X102476190Y-140006191D02*
X102428571Y-139910953D01*
X102428571Y-139910953D02*
X102428571Y-139625239D01*
X102428571Y-139625239D02*
X102476190Y-139530001D01*
X102476190Y-139530001D02*
X102523809Y-139482382D01*
X102523809Y-139482382D02*
X102619047Y-139434763D01*
X102619047Y-139434763D02*
X102761904Y-139434763D01*
X102761904Y-139434763D02*
X102857142Y-139482382D01*
X102857142Y-139482382D02*
X102904761Y-139530001D01*
X102904761Y-139530001D02*
X102952380Y-139625239D01*
X102952380Y-139625239D02*
X102952380Y-139910953D01*
X102952380Y-139910953D02*
X102904761Y-140006191D01*
X102904761Y-140006191D02*
X102857142Y-140053811D01*
X102857142Y-140053811D02*
X102761904Y-140101430D01*
X102761904Y-140101430D02*
X102619047Y-140101430D01*
X103809523Y-140101430D02*
X103809523Y-139577620D01*
X103809523Y-139577620D02*
X103761904Y-139482382D01*
X103761904Y-139482382D02*
X103666666Y-139434763D01*
X103666666Y-139434763D02*
X103476190Y-139434763D01*
X103476190Y-139434763D02*
X103380952Y-139482382D01*
X103809523Y-140053811D02*
X103714285Y-140101430D01*
X103714285Y-140101430D02*
X103476190Y-140101430D01*
X103476190Y-140101430D02*
X103380952Y-140053811D01*
X103380952Y-140053811D02*
X103333333Y-139958572D01*
X103333333Y-139958572D02*
X103333333Y-139863334D01*
X103333333Y-139863334D02*
X103380952Y-139768096D01*
X103380952Y-139768096D02*
X103476190Y-139720477D01*
X103476190Y-139720477D02*
X103714285Y-139720477D01*
X103714285Y-139720477D02*
X103809523Y-139672858D01*
X104285714Y-140101430D02*
X104285714Y-139434763D01*
X104285714Y-139625239D02*
X104333333Y-139530001D01*
X104333333Y-139530001D02*
X104380952Y-139482382D01*
X104380952Y-139482382D02*
X104476190Y-139434763D01*
X104476190Y-139434763D02*
X104571428Y-139434763D01*
X105333333Y-140101430D02*
X105333333Y-139101430D01*
X105333333Y-140053811D02*
X105238095Y-140101430D01*
X105238095Y-140101430D02*
X105047619Y-140101430D01*
X105047619Y-140101430D02*
X104952381Y-140053811D01*
X104952381Y-140053811D02*
X104904762Y-140006191D01*
X104904762Y-140006191D02*
X104857143Y-139910953D01*
X104857143Y-139910953D02*
X104857143Y-139625239D01*
X104857143Y-139625239D02*
X104904762Y-139530001D01*
X104904762Y-139530001D02*
X104952381Y-139482382D01*
X104952381Y-139482382D02*
X105047619Y-139434763D01*
X105047619Y-139434763D02*
X105238095Y-139434763D01*
X105238095Y-139434763D02*
X105333333Y-139482382D01*
X106428572Y-139101430D02*
X107000000Y-139101430D01*
X106714286Y-140101430D02*
X106714286Y-139101430D01*
X107333334Y-140101430D02*
X107333334Y-139101430D01*
X107761905Y-140101430D02*
X107761905Y-139577620D01*
X107761905Y-139577620D02*
X107714286Y-139482382D01*
X107714286Y-139482382D02*
X107619048Y-139434763D01*
X107619048Y-139434763D02*
X107476191Y-139434763D01*
X107476191Y-139434763D02*
X107380953Y-139482382D01*
X107380953Y-139482382D02*
X107333334Y-139530001D01*
X108238096Y-140101430D02*
X108238096Y-139434763D01*
X108238096Y-139101430D02*
X108190477Y-139149049D01*
X108190477Y-139149049D02*
X108238096Y-139196668D01*
X108238096Y-139196668D02*
X108285715Y-139149049D01*
X108285715Y-139149049D02*
X108238096Y-139101430D01*
X108238096Y-139101430D02*
X108238096Y-139196668D01*
X109142857Y-140053811D02*
X109047619Y-140101430D01*
X109047619Y-140101430D02*
X108857143Y-140101430D01*
X108857143Y-140101430D02*
X108761905Y-140053811D01*
X108761905Y-140053811D02*
X108714286Y-140006191D01*
X108714286Y-140006191D02*
X108666667Y-139910953D01*
X108666667Y-139910953D02*
X108666667Y-139625239D01*
X108666667Y-139625239D02*
X108714286Y-139530001D01*
X108714286Y-139530001D02*
X108761905Y-139482382D01*
X108761905Y-139482382D02*
X108857143Y-139434763D01*
X108857143Y-139434763D02*
X109047619Y-139434763D01*
X109047619Y-139434763D02*
X109142857Y-139482382D01*
X109571429Y-140101430D02*
X109571429Y-139101430D01*
X109666667Y-139720477D02*
X109952381Y-140101430D01*
X109952381Y-139434763D02*
X109571429Y-139815715D01*
X110380953Y-139434763D02*
X110380953Y-140101430D01*
X110380953Y-139530001D02*
X110428572Y-139482382D01*
X110428572Y-139482382D02*
X110523810Y-139434763D01*
X110523810Y-139434763D02*
X110666667Y-139434763D01*
X110666667Y-139434763D02*
X110761905Y-139482382D01*
X110761905Y-139482382D02*
X110809524Y-139577620D01*
X110809524Y-139577620D02*
X110809524Y-140101430D01*
X111666667Y-140053811D02*
X111571429Y-140101430D01*
X111571429Y-140101430D02*
X111380953Y-140101430D01*
X111380953Y-140101430D02*
X111285715Y-140053811D01*
X111285715Y-140053811D02*
X111238096Y-139958572D01*
X111238096Y-139958572D02*
X111238096Y-139577620D01*
X111238096Y-139577620D02*
X111285715Y-139482382D01*
X111285715Y-139482382D02*
X111380953Y-139434763D01*
X111380953Y-139434763D02*
X111571429Y-139434763D01*
X111571429Y-139434763D02*
X111666667Y-139482382D01*
X111666667Y-139482382D02*
X111714286Y-139577620D01*
X111714286Y-139577620D02*
X111714286Y-139672858D01*
X111714286Y-139672858D02*
X111238096Y-139768096D01*
X112095239Y-140053811D02*
X112190477Y-140101430D01*
X112190477Y-140101430D02*
X112380953Y-140101430D01*
X112380953Y-140101430D02*
X112476191Y-140053811D01*
X112476191Y-140053811D02*
X112523810Y-139958572D01*
X112523810Y-139958572D02*
X112523810Y-139910953D01*
X112523810Y-139910953D02*
X112476191Y-139815715D01*
X112476191Y-139815715D02*
X112380953Y-139768096D01*
X112380953Y-139768096D02*
X112238096Y-139768096D01*
X112238096Y-139768096D02*
X112142858Y-139720477D01*
X112142858Y-139720477D02*
X112095239Y-139625239D01*
X112095239Y-139625239D02*
X112095239Y-139577620D01*
X112095239Y-139577620D02*
X112142858Y-139482382D01*
X112142858Y-139482382D02*
X112238096Y-139434763D01*
X112238096Y-139434763D02*
X112380953Y-139434763D01*
X112380953Y-139434763D02*
X112476191Y-139482382D01*
X112904763Y-140053811D02*
X113000001Y-140101430D01*
X113000001Y-140101430D02*
X113190477Y-140101430D01*
X113190477Y-140101430D02*
X113285715Y-140053811D01*
X113285715Y-140053811D02*
X113333334Y-139958572D01*
X113333334Y-139958572D02*
X113333334Y-139910953D01*
X113333334Y-139910953D02*
X113285715Y-139815715D01*
X113285715Y-139815715D02*
X113190477Y-139768096D01*
X113190477Y-139768096D02*
X113047620Y-139768096D01*
X113047620Y-139768096D02*
X112952382Y-139720477D01*
X112952382Y-139720477D02*
X112904763Y-139625239D01*
X112904763Y-139625239D02*
X112904763Y-139577620D01*
X112904763Y-139577620D02*
X112952382Y-139482382D01*
X112952382Y-139482382D02*
X113047620Y-139434763D01*
X113047620Y-139434763D02*
X113190477Y-139434763D01*
X113190477Y-139434763D02*
X113285715Y-139482382D01*
X113761906Y-140006191D02*
X113809525Y-140053811D01*
X113809525Y-140053811D02*
X113761906Y-140101430D01*
X113761906Y-140101430D02*
X113714287Y-140053811D01*
X113714287Y-140053811D02*
X113761906Y-140006191D01*
X113761906Y-140006191D02*
X113761906Y-140101430D01*
X113761906Y-139482382D02*
X113809525Y-139530001D01*
X113809525Y-139530001D02*
X113761906Y-139577620D01*
X113761906Y-139577620D02*
X113714287Y-139530001D01*
X113714287Y-139530001D02*
X113761906Y-139482382D01*
X113761906Y-139482382D02*
X113761906Y-139577620D01*
X115523810Y-140101430D02*
X114952382Y-140101430D01*
X115238096Y-140101430D02*
X115238096Y-139101430D01*
X115238096Y-139101430D02*
X115142858Y-139244287D01*
X115142858Y-139244287D02*
X115047620Y-139339525D01*
X115047620Y-139339525D02*
X114952382Y-139387144D01*
X115952382Y-140006191D02*
X116000001Y-140053811D01*
X116000001Y-140053811D02*
X115952382Y-140101430D01*
X115952382Y-140101430D02*
X115904763Y-140053811D01*
X115904763Y-140053811D02*
X115952382Y-140006191D01*
X115952382Y-140006191D02*
X115952382Y-140101430D01*
X116904762Y-139101430D02*
X116428572Y-139101430D01*
X116428572Y-139101430D02*
X116380953Y-139577620D01*
X116380953Y-139577620D02*
X116428572Y-139530001D01*
X116428572Y-139530001D02*
X116523810Y-139482382D01*
X116523810Y-139482382D02*
X116761905Y-139482382D01*
X116761905Y-139482382D02*
X116857143Y-139530001D01*
X116857143Y-139530001D02*
X116904762Y-139577620D01*
X116904762Y-139577620D02*
X116952381Y-139672858D01*
X116952381Y-139672858D02*
X116952381Y-139910953D01*
X116952381Y-139910953D02*
X116904762Y-140006191D01*
X116904762Y-140006191D02*
X116857143Y-140053811D01*
X116857143Y-140053811D02*
X116761905Y-140101430D01*
X116761905Y-140101430D02*
X116523810Y-140101430D01*
X116523810Y-140101430D02*
X116428572Y-140053811D01*
X116428572Y-140053811D02*
X116380953Y-140006191D01*
X117285715Y-139101430D02*
X117952381Y-139101430D01*
X117952381Y-139101430D02*
X117523810Y-140101430D01*
X118333334Y-140101430D02*
X118333334Y-139434763D01*
X118333334Y-139530001D02*
X118380953Y-139482382D01*
X118380953Y-139482382D02*
X118476191Y-139434763D01*
X118476191Y-139434763D02*
X118619048Y-139434763D01*
X118619048Y-139434763D02*
X118714286Y-139482382D01*
X118714286Y-139482382D02*
X118761905Y-139577620D01*
X118761905Y-139577620D02*
X118761905Y-140101430D01*
X118761905Y-139577620D02*
X118809524Y-139482382D01*
X118809524Y-139482382D02*
X118904762Y-139434763D01*
X118904762Y-139434763D02*
X119047619Y-139434763D01*
X119047619Y-139434763D02*
X119142858Y-139482382D01*
X119142858Y-139482382D02*
X119190477Y-139577620D01*
X119190477Y-139577620D02*
X119190477Y-140101430D01*
X119666667Y-140101430D02*
X119666667Y-139434763D01*
X119666667Y-139530001D02*
X119714286Y-139482382D01*
X119714286Y-139482382D02*
X119809524Y-139434763D01*
X119809524Y-139434763D02*
X119952381Y-139434763D01*
X119952381Y-139434763D02*
X120047619Y-139482382D01*
X120047619Y-139482382D02*
X120095238Y-139577620D01*
X120095238Y-139577620D02*
X120095238Y-140101430D01*
X120095238Y-139577620D02*
X120142857Y-139482382D01*
X120142857Y-139482382D02*
X120238095Y-139434763D01*
X120238095Y-139434763D02*
X120380952Y-139434763D01*
X120380952Y-139434763D02*
X120476191Y-139482382D01*
X120476191Y-139482382D02*
X120523810Y-139577620D01*
X120523810Y-139577620D02*
X120523810Y-140101430D01*
X119809523Y-139604009D02*
X119952380Y-139651628D01*
X119952380Y-139651628D02*
X119999999Y-139699247D01*
X119999999Y-139699247D02*
X120047618Y-139794485D01*
X120047618Y-139794485D02*
X120047618Y-139937342D01*
X120047618Y-139937342D02*
X119999999Y-140032580D01*
X119999999Y-140032580D02*
X119952380Y-140080200D01*
X119952380Y-140080200D02*
X119857142Y-140127819D01*
X119857142Y-140127819D02*
X119476190Y-140127819D01*
X119476190Y-140127819D02*
X119476190Y-139127819D01*
X119476190Y-139127819D02*
X119809523Y-139127819D01*
X119809523Y-139127819D02*
X119904761Y-139175438D01*
X119904761Y-139175438D02*
X119952380Y-139223057D01*
X119952380Y-139223057D02*
X119999999Y-139318295D01*
X119999999Y-139318295D02*
X119999999Y-139413533D01*
X119999999Y-139413533D02*
X119952380Y-139508771D01*
X119952380Y-139508771D02*
X119904761Y-139556390D01*
X119904761Y-139556390D02*
X119809523Y-139604009D01*
X119809523Y-139604009D02*
X119476190Y-139604009D01*
X120619047Y-140127819D02*
X120523809Y-140080200D01*
X120523809Y-140080200D02*
X120476190Y-140032580D01*
X120476190Y-140032580D02*
X120428571Y-139937342D01*
X120428571Y-139937342D02*
X120428571Y-139651628D01*
X120428571Y-139651628D02*
X120476190Y-139556390D01*
X120476190Y-139556390D02*
X120523809Y-139508771D01*
X120523809Y-139508771D02*
X120619047Y-139461152D01*
X120619047Y-139461152D02*
X120761904Y-139461152D01*
X120761904Y-139461152D02*
X120857142Y-139508771D01*
X120857142Y-139508771D02*
X120904761Y-139556390D01*
X120904761Y-139556390D02*
X120952380Y-139651628D01*
X120952380Y-139651628D02*
X120952380Y-139937342D01*
X120952380Y-139937342D02*
X120904761Y-140032580D01*
X120904761Y-140032580D02*
X120857142Y-140080200D01*
X120857142Y-140080200D02*
X120761904Y-140127819D01*
X120761904Y-140127819D02*
X120619047Y-140127819D01*
X121809523Y-140127819D02*
X121809523Y-139604009D01*
X121809523Y-139604009D02*
X121761904Y-139508771D01*
X121761904Y-139508771D02*
X121666666Y-139461152D01*
X121666666Y-139461152D02*
X121476190Y-139461152D01*
X121476190Y-139461152D02*
X121380952Y-139508771D01*
X121809523Y-140080200D02*
X121714285Y-140127819D01*
X121714285Y-140127819D02*
X121476190Y-140127819D01*
X121476190Y-140127819D02*
X121380952Y-140080200D01*
X121380952Y-140080200D02*
X121333333Y-139984961D01*
X121333333Y-139984961D02*
X121333333Y-139889723D01*
X121333333Y-139889723D02*
X121380952Y-139794485D01*
X121380952Y-139794485D02*
X121476190Y-139746866D01*
X121476190Y-139746866D02*
X121714285Y-139746866D01*
X121714285Y-139746866D02*
X121809523Y-139699247D01*
X122285714Y-140127819D02*
X122285714Y-139461152D01*
X122285714Y-139651628D02*
X122333333Y-139556390D01*
X122333333Y-139556390D02*
X122380952Y-139508771D01*
X122380952Y-139508771D02*
X122476190Y-139461152D01*
X122476190Y-139461152D02*
X122571428Y-139461152D01*
X123333333Y-140127819D02*
X123333333Y-139127819D01*
X123333333Y-140080200D02*
X123238095Y-140127819D01*
X123238095Y-140127819D02*
X123047619Y-140127819D01*
X123047619Y-140127819D02*
X122952381Y-140080200D01*
X122952381Y-140080200D02*
X122904762Y-140032580D01*
X122904762Y-140032580D02*
X122857143Y-139937342D01*
X122857143Y-139937342D02*
X122857143Y-139651628D01*
X122857143Y-139651628D02*
X122904762Y-139556390D01*
X122904762Y-139556390D02*
X122952381Y-139508771D01*
X122952381Y-139508771D02*
X123047619Y-139461152D01*
X123047619Y-139461152D02*
X123238095Y-139461152D01*
X123238095Y-139461152D02*
X123333333Y-139508771D01*
X124428572Y-139127819D02*
X125000000Y-139127819D01*
X124714286Y-140127819D02*
X124714286Y-139127819D01*
X125333334Y-140127819D02*
X125333334Y-139127819D01*
X125761905Y-140127819D02*
X125761905Y-139604009D01*
X125761905Y-139604009D02*
X125714286Y-139508771D01*
X125714286Y-139508771D02*
X125619048Y-139461152D01*
X125619048Y-139461152D02*
X125476191Y-139461152D01*
X125476191Y-139461152D02*
X125380953Y-139508771D01*
X125380953Y-139508771D02*
X125333334Y-139556390D01*
X126238096Y-140127819D02*
X126238096Y-139461152D01*
X126238096Y-139127819D02*
X126190477Y-139175438D01*
X126190477Y-139175438D02*
X126238096Y-139223057D01*
X126238096Y-139223057D02*
X126285715Y-139175438D01*
X126285715Y-139175438D02*
X126238096Y-139127819D01*
X126238096Y-139127819D02*
X126238096Y-139223057D01*
X127142857Y-140080200D02*
X127047619Y-140127819D01*
X127047619Y-140127819D02*
X126857143Y-140127819D01*
X126857143Y-140127819D02*
X126761905Y-140080200D01*
X126761905Y-140080200D02*
X126714286Y-140032580D01*
X126714286Y-140032580D02*
X126666667Y-139937342D01*
X126666667Y-139937342D02*
X126666667Y-139651628D01*
X126666667Y-139651628D02*
X126714286Y-139556390D01*
X126714286Y-139556390D02*
X126761905Y-139508771D01*
X126761905Y-139508771D02*
X126857143Y-139461152D01*
X126857143Y-139461152D02*
X127047619Y-139461152D01*
X127047619Y-139461152D02*
X127142857Y-139508771D01*
X127571429Y-140127819D02*
X127571429Y-139127819D01*
X127666667Y-139746866D02*
X127952381Y-140127819D01*
X127952381Y-139461152D02*
X127571429Y-139842104D01*
X128380953Y-139461152D02*
X128380953Y-140127819D01*
X128380953Y-139556390D02*
X128428572Y-139508771D01*
X128428572Y-139508771D02*
X128523810Y-139461152D01*
X128523810Y-139461152D02*
X128666667Y-139461152D01*
X128666667Y-139461152D02*
X128761905Y-139508771D01*
X128761905Y-139508771D02*
X128809524Y-139604009D01*
X128809524Y-139604009D02*
X128809524Y-140127819D01*
X129666667Y-140080200D02*
X129571429Y-140127819D01*
X129571429Y-140127819D02*
X129380953Y-140127819D01*
X129380953Y-140127819D02*
X129285715Y-140080200D01*
X129285715Y-140080200D02*
X129238096Y-139984961D01*
X129238096Y-139984961D02*
X129238096Y-139604009D01*
X129238096Y-139604009D02*
X129285715Y-139508771D01*
X129285715Y-139508771D02*
X129380953Y-139461152D01*
X129380953Y-139461152D02*
X129571429Y-139461152D01*
X129571429Y-139461152D02*
X129666667Y-139508771D01*
X129666667Y-139508771D02*
X129714286Y-139604009D01*
X129714286Y-139604009D02*
X129714286Y-139699247D01*
X129714286Y-139699247D02*
X129238096Y-139794485D01*
X130095239Y-140080200D02*
X130190477Y-140127819D01*
X130190477Y-140127819D02*
X130380953Y-140127819D01*
X130380953Y-140127819D02*
X130476191Y-140080200D01*
X130476191Y-140080200D02*
X130523810Y-139984961D01*
X130523810Y-139984961D02*
X130523810Y-139937342D01*
X130523810Y-139937342D02*
X130476191Y-139842104D01*
X130476191Y-139842104D02*
X130380953Y-139794485D01*
X130380953Y-139794485D02*
X130238096Y-139794485D01*
X130238096Y-139794485D02*
X130142858Y-139746866D01*
X130142858Y-139746866D02*
X130095239Y-139651628D01*
X130095239Y-139651628D02*
X130095239Y-139604009D01*
X130095239Y-139604009D02*
X130142858Y-139508771D01*
X130142858Y-139508771D02*
X130238096Y-139461152D01*
X130238096Y-139461152D02*
X130380953Y-139461152D01*
X130380953Y-139461152D02*
X130476191Y-139508771D01*
X130904763Y-140080200D02*
X131000001Y-140127819D01*
X131000001Y-140127819D02*
X131190477Y-140127819D01*
X131190477Y-140127819D02*
X131285715Y-140080200D01*
X131285715Y-140080200D02*
X131333334Y-139984961D01*
X131333334Y-139984961D02*
X131333334Y-139937342D01*
X131333334Y-139937342D02*
X131285715Y-139842104D01*
X131285715Y-139842104D02*
X131190477Y-139794485D01*
X131190477Y-139794485D02*
X131047620Y-139794485D01*
X131047620Y-139794485D02*
X130952382Y-139746866D01*
X130952382Y-139746866D02*
X130904763Y-139651628D01*
X130904763Y-139651628D02*
X130904763Y-139604009D01*
X130904763Y-139604009D02*
X130952382Y-139508771D01*
X130952382Y-139508771D02*
X131047620Y-139461152D01*
X131047620Y-139461152D02*
X131190477Y-139461152D01*
X131190477Y-139461152D02*
X131285715Y-139508771D01*
X131761906Y-140032580D02*
X131809525Y-140080200D01*
X131809525Y-140080200D02*
X131761906Y-140127819D01*
X131761906Y-140127819D02*
X131714287Y-140080200D01*
X131714287Y-140080200D02*
X131761906Y-140032580D01*
X131761906Y-140032580D02*
X131761906Y-140127819D01*
X131761906Y-139508771D02*
X131809525Y-139556390D01*
X131809525Y-139556390D02*
X131761906Y-139604009D01*
X131761906Y-139604009D02*
X131714287Y-139556390D01*
X131714287Y-139556390D02*
X131761906Y-139508771D01*
X131761906Y-139508771D02*
X131761906Y-139604009D01*
X133523810Y-140127819D02*
X132952382Y-140127819D01*
X133238096Y-140127819D02*
X133238096Y-139127819D01*
X133238096Y-139127819D02*
X133142858Y-139270676D01*
X133142858Y-139270676D02*
X133047620Y-139365914D01*
X133047620Y-139365914D02*
X132952382Y-139413533D01*
X133952382Y-140032580D02*
X134000001Y-140080200D01*
X134000001Y-140080200D02*
X133952382Y-140127819D01*
X133952382Y-140127819D02*
X133904763Y-140080200D01*
X133904763Y-140080200D02*
X133952382Y-140032580D01*
X133952382Y-140032580D02*
X133952382Y-140127819D01*
X134904762Y-139127819D02*
X134428572Y-139127819D01*
X134428572Y-139127819D02*
X134380953Y-139604009D01*
X134380953Y-139604009D02*
X134428572Y-139556390D01*
X134428572Y-139556390D02*
X134523810Y-139508771D01*
X134523810Y-139508771D02*
X134761905Y-139508771D01*
X134761905Y-139508771D02*
X134857143Y-139556390D01*
X134857143Y-139556390D02*
X134904762Y-139604009D01*
X134904762Y-139604009D02*
X134952381Y-139699247D01*
X134952381Y-139699247D02*
X134952381Y-139937342D01*
X134952381Y-139937342D02*
X134904762Y-140032580D01*
X134904762Y-140032580D02*
X134857143Y-140080200D01*
X134857143Y-140080200D02*
X134761905Y-140127819D01*
X134761905Y-140127819D02*
X134523810Y-140127819D01*
X134523810Y-140127819D02*
X134428572Y-140080200D01*
X134428572Y-140080200D02*
X134380953Y-140032580D01*
X135285715Y-139127819D02*
X135952381Y-139127819D01*
X135952381Y-139127819D02*
X135523810Y-140127819D01*
X136333334Y-140127819D02*
X136333334Y-139461152D01*
X136333334Y-139556390D02*
X136380953Y-139508771D01*
X136380953Y-139508771D02*
X136476191Y-139461152D01*
X136476191Y-139461152D02*
X136619048Y-139461152D01*
X136619048Y-139461152D02*
X136714286Y-139508771D01*
X136714286Y-139508771D02*
X136761905Y-139604009D01*
X136761905Y-139604009D02*
X136761905Y-140127819D01*
X136761905Y-139604009D02*
X136809524Y-139508771D01*
X136809524Y-139508771D02*
X136904762Y-139461152D01*
X136904762Y-139461152D02*
X137047619Y-139461152D01*
X137047619Y-139461152D02*
X137142858Y-139508771D01*
X137142858Y-139508771D02*
X137190477Y-139604009D01*
X137190477Y-139604009D02*
X137190477Y-140127819D01*
X137666667Y-140127819D02*
X137666667Y-139461152D01*
X137666667Y-139556390D02*
X137714286Y-139508771D01*
X137714286Y-139508771D02*
X137809524Y-139461152D01*
X137809524Y-139461152D02*
X137952381Y-139461152D01*
X137952381Y-139461152D02*
X138047619Y-139508771D01*
X138047619Y-139508771D02*
X138095238Y-139604009D01*
X138095238Y-139604009D02*
X138095238Y-140127819D01*
X138095238Y-139604009D02*
X138142857Y-139508771D01*
X138142857Y-139508771D02*
X138238095Y-139461152D01*
X138238095Y-139461152D02*
X138380952Y-139461152D01*
X138380952Y-139461152D02*
X138476191Y-139508771D01*
X138476191Y-139508771D02*
X138523810Y-139604009D01*
X138523810Y-139604009D02*
X138523810Y-140127819D01*
X155609523Y-139554009D02*
X155752380Y-139601628D01*
X155752380Y-139601628D02*
X155799999Y-139649247D01*
X155799999Y-139649247D02*
X155847618Y-139744485D01*
X155847618Y-139744485D02*
X155847618Y-139887342D01*
X155847618Y-139887342D02*
X155799999Y-139982580D01*
X155799999Y-139982580D02*
X155752380Y-140030200D01*
X155752380Y-140030200D02*
X155657142Y-140077819D01*
X155657142Y-140077819D02*
X155276190Y-140077819D01*
X155276190Y-140077819D02*
X155276190Y-139077819D01*
X155276190Y-139077819D02*
X155609523Y-139077819D01*
X155609523Y-139077819D02*
X155704761Y-139125438D01*
X155704761Y-139125438D02*
X155752380Y-139173057D01*
X155752380Y-139173057D02*
X155799999Y-139268295D01*
X155799999Y-139268295D02*
X155799999Y-139363533D01*
X155799999Y-139363533D02*
X155752380Y-139458771D01*
X155752380Y-139458771D02*
X155704761Y-139506390D01*
X155704761Y-139506390D02*
X155609523Y-139554009D01*
X155609523Y-139554009D02*
X155276190Y-139554009D01*
X156419047Y-140077819D02*
X156323809Y-140030200D01*
X156323809Y-140030200D02*
X156276190Y-139982580D01*
X156276190Y-139982580D02*
X156228571Y-139887342D01*
X156228571Y-139887342D02*
X156228571Y-139601628D01*
X156228571Y-139601628D02*
X156276190Y-139506390D01*
X156276190Y-139506390D02*
X156323809Y-139458771D01*
X156323809Y-139458771D02*
X156419047Y-139411152D01*
X156419047Y-139411152D02*
X156561904Y-139411152D01*
X156561904Y-139411152D02*
X156657142Y-139458771D01*
X156657142Y-139458771D02*
X156704761Y-139506390D01*
X156704761Y-139506390D02*
X156752380Y-139601628D01*
X156752380Y-139601628D02*
X156752380Y-139887342D01*
X156752380Y-139887342D02*
X156704761Y-139982580D01*
X156704761Y-139982580D02*
X156657142Y-140030200D01*
X156657142Y-140030200D02*
X156561904Y-140077819D01*
X156561904Y-140077819D02*
X156419047Y-140077819D01*
X157609523Y-140077819D02*
X157609523Y-139554009D01*
X157609523Y-139554009D02*
X157561904Y-139458771D01*
X157561904Y-139458771D02*
X157466666Y-139411152D01*
X157466666Y-139411152D02*
X157276190Y-139411152D01*
X157276190Y-139411152D02*
X157180952Y-139458771D01*
X157609523Y-140030200D02*
X157514285Y-140077819D01*
X157514285Y-140077819D02*
X157276190Y-140077819D01*
X157276190Y-140077819D02*
X157180952Y-140030200D01*
X157180952Y-140030200D02*
X157133333Y-139934961D01*
X157133333Y-139934961D02*
X157133333Y-139839723D01*
X157133333Y-139839723D02*
X157180952Y-139744485D01*
X157180952Y-139744485D02*
X157276190Y-139696866D01*
X157276190Y-139696866D02*
X157514285Y-139696866D01*
X157514285Y-139696866D02*
X157609523Y-139649247D01*
X158085714Y-140077819D02*
X158085714Y-139411152D01*
X158085714Y-139601628D02*
X158133333Y-139506390D01*
X158133333Y-139506390D02*
X158180952Y-139458771D01*
X158180952Y-139458771D02*
X158276190Y-139411152D01*
X158276190Y-139411152D02*
X158371428Y-139411152D01*
X159133333Y-140077819D02*
X159133333Y-139077819D01*
X159133333Y-140030200D02*
X159038095Y-140077819D01*
X159038095Y-140077819D02*
X158847619Y-140077819D01*
X158847619Y-140077819D02*
X158752381Y-140030200D01*
X158752381Y-140030200D02*
X158704762Y-139982580D01*
X158704762Y-139982580D02*
X158657143Y-139887342D01*
X158657143Y-139887342D02*
X158657143Y-139601628D01*
X158657143Y-139601628D02*
X158704762Y-139506390D01*
X158704762Y-139506390D02*
X158752381Y-139458771D01*
X158752381Y-139458771D02*
X158847619Y-139411152D01*
X158847619Y-139411152D02*
X159038095Y-139411152D01*
X159038095Y-139411152D02*
X159133333Y-139458771D01*
X160228572Y-139077819D02*
X160800000Y-139077819D01*
X160514286Y-140077819D02*
X160514286Y-139077819D01*
X161133334Y-140077819D02*
X161133334Y-139077819D01*
X161561905Y-140077819D02*
X161561905Y-139554009D01*
X161561905Y-139554009D02*
X161514286Y-139458771D01*
X161514286Y-139458771D02*
X161419048Y-139411152D01*
X161419048Y-139411152D02*
X161276191Y-139411152D01*
X161276191Y-139411152D02*
X161180953Y-139458771D01*
X161180953Y-139458771D02*
X161133334Y-139506390D01*
X162038096Y-140077819D02*
X162038096Y-139411152D01*
X162038096Y-139077819D02*
X161990477Y-139125438D01*
X161990477Y-139125438D02*
X162038096Y-139173057D01*
X162038096Y-139173057D02*
X162085715Y-139125438D01*
X162085715Y-139125438D02*
X162038096Y-139077819D01*
X162038096Y-139077819D02*
X162038096Y-139173057D01*
X162942857Y-140030200D02*
X162847619Y-140077819D01*
X162847619Y-140077819D02*
X162657143Y-140077819D01*
X162657143Y-140077819D02*
X162561905Y-140030200D01*
X162561905Y-140030200D02*
X162514286Y-139982580D01*
X162514286Y-139982580D02*
X162466667Y-139887342D01*
X162466667Y-139887342D02*
X162466667Y-139601628D01*
X162466667Y-139601628D02*
X162514286Y-139506390D01*
X162514286Y-139506390D02*
X162561905Y-139458771D01*
X162561905Y-139458771D02*
X162657143Y-139411152D01*
X162657143Y-139411152D02*
X162847619Y-139411152D01*
X162847619Y-139411152D02*
X162942857Y-139458771D01*
X163371429Y-140077819D02*
X163371429Y-139077819D01*
X163466667Y-139696866D02*
X163752381Y-140077819D01*
X163752381Y-139411152D02*
X163371429Y-139792104D01*
X164180953Y-139411152D02*
X164180953Y-140077819D01*
X164180953Y-139506390D02*
X164228572Y-139458771D01*
X164228572Y-139458771D02*
X164323810Y-139411152D01*
X164323810Y-139411152D02*
X164466667Y-139411152D01*
X164466667Y-139411152D02*
X164561905Y-139458771D01*
X164561905Y-139458771D02*
X164609524Y-139554009D01*
X164609524Y-139554009D02*
X164609524Y-140077819D01*
X165466667Y-140030200D02*
X165371429Y-140077819D01*
X165371429Y-140077819D02*
X165180953Y-140077819D01*
X165180953Y-140077819D02*
X165085715Y-140030200D01*
X165085715Y-140030200D02*
X165038096Y-139934961D01*
X165038096Y-139934961D02*
X165038096Y-139554009D01*
X165038096Y-139554009D02*
X165085715Y-139458771D01*
X165085715Y-139458771D02*
X165180953Y-139411152D01*
X165180953Y-139411152D02*
X165371429Y-139411152D01*
X165371429Y-139411152D02*
X165466667Y-139458771D01*
X165466667Y-139458771D02*
X165514286Y-139554009D01*
X165514286Y-139554009D02*
X165514286Y-139649247D01*
X165514286Y-139649247D02*
X165038096Y-139744485D01*
X165895239Y-140030200D02*
X165990477Y-140077819D01*
X165990477Y-140077819D02*
X166180953Y-140077819D01*
X166180953Y-140077819D02*
X166276191Y-140030200D01*
X166276191Y-140030200D02*
X166323810Y-139934961D01*
X166323810Y-139934961D02*
X166323810Y-139887342D01*
X166323810Y-139887342D02*
X166276191Y-139792104D01*
X166276191Y-139792104D02*
X166180953Y-139744485D01*
X166180953Y-139744485D02*
X166038096Y-139744485D01*
X166038096Y-139744485D02*
X165942858Y-139696866D01*
X165942858Y-139696866D02*
X165895239Y-139601628D01*
X165895239Y-139601628D02*
X165895239Y-139554009D01*
X165895239Y-139554009D02*
X165942858Y-139458771D01*
X165942858Y-139458771D02*
X166038096Y-139411152D01*
X166038096Y-139411152D02*
X166180953Y-139411152D01*
X166180953Y-139411152D02*
X166276191Y-139458771D01*
X166704763Y-140030200D02*
X166800001Y-140077819D01*
X166800001Y-140077819D02*
X166990477Y-140077819D01*
X166990477Y-140077819D02*
X167085715Y-140030200D01*
X167085715Y-140030200D02*
X167133334Y-139934961D01*
X167133334Y-139934961D02*
X167133334Y-139887342D01*
X167133334Y-139887342D02*
X167085715Y-139792104D01*
X167085715Y-139792104D02*
X166990477Y-139744485D01*
X166990477Y-139744485D02*
X166847620Y-139744485D01*
X166847620Y-139744485D02*
X166752382Y-139696866D01*
X166752382Y-139696866D02*
X166704763Y-139601628D01*
X166704763Y-139601628D02*
X166704763Y-139554009D01*
X166704763Y-139554009D02*
X166752382Y-139458771D01*
X166752382Y-139458771D02*
X166847620Y-139411152D01*
X166847620Y-139411152D02*
X166990477Y-139411152D01*
X166990477Y-139411152D02*
X167085715Y-139458771D01*
X167561906Y-139982580D02*
X167609525Y-140030200D01*
X167609525Y-140030200D02*
X167561906Y-140077819D01*
X167561906Y-140077819D02*
X167514287Y-140030200D01*
X167514287Y-140030200D02*
X167561906Y-139982580D01*
X167561906Y-139982580D02*
X167561906Y-140077819D01*
X167561906Y-139458771D02*
X167609525Y-139506390D01*
X167609525Y-139506390D02*
X167561906Y-139554009D01*
X167561906Y-139554009D02*
X167514287Y-139506390D01*
X167514287Y-139506390D02*
X167561906Y-139458771D01*
X167561906Y-139458771D02*
X167561906Y-139554009D01*
X169323810Y-140077819D02*
X168752382Y-140077819D01*
X169038096Y-140077819D02*
X169038096Y-139077819D01*
X169038096Y-139077819D02*
X168942858Y-139220676D01*
X168942858Y-139220676D02*
X168847620Y-139315914D01*
X168847620Y-139315914D02*
X168752382Y-139363533D01*
X169752382Y-139982580D02*
X169800001Y-140030200D01*
X169800001Y-140030200D02*
X169752382Y-140077819D01*
X169752382Y-140077819D02*
X169704763Y-140030200D01*
X169704763Y-140030200D02*
X169752382Y-139982580D01*
X169752382Y-139982580D02*
X169752382Y-140077819D01*
X170704762Y-139077819D02*
X170228572Y-139077819D01*
X170228572Y-139077819D02*
X170180953Y-139554009D01*
X170180953Y-139554009D02*
X170228572Y-139506390D01*
X170228572Y-139506390D02*
X170323810Y-139458771D01*
X170323810Y-139458771D02*
X170561905Y-139458771D01*
X170561905Y-139458771D02*
X170657143Y-139506390D01*
X170657143Y-139506390D02*
X170704762Y-139554009D01*
X170704762Y-139554009D02*
X170752381Y-139649247D01*
X170752381Y-139649247D02*
X170752381Y-139887342D01*
X170752381Y-139887342D02*
X170704762Y-139982580D01*
X170704762Y-139982580D02*
X170657143Y-140030200D01*
X170657143Y-140030200D02*
X170561905Y-140077819D01*
X170561905Y-140077819D02*
X170323810Y-140077819D01*
X170323810Y-140077819D02*
X170228572Y-140030200D01*
X170228572Y-140030200D02*
X170180953Y-139982580D01*
X171085715Y-139077819D02*
X171752381Y-139077819D01*
X171752381Y-139077819D02*
X171323810Y-140077819D01*
X172133334Y-140077819D02*
X172133334Y-139411152D01*
X172133334Y-139506390D02*
X172180953Y-139458771D01*
X172180953Y-139458771D02*
X172276191Y-139411152D01*
X172276191Y-139411152D02*
X172419048Y-139411152D01*
X172419048Y-139411152D02*
X172514286Y-139458771D01*
X172514286Y-139458771D02*
X172561905Y-139554009D01*
X172561905Y-139554009D02*
X172561905Y-140077819D01*
X172561905Y-139554009D02*
X172609524Y-139458771D01*
X172609524Y-139458771D02*
X172704762Y-139411152D01*
X172704762Y-139411152D02*
X172847619Y-139411152D01*
X172847619Y-139411152D02*
X172942858Y-139458771D01*
X172942858Y-139458771D02*
X172990477Y-139554009D01*
X172990477Y-139554009D02*
X172990477Y-140077819D01*
X173466667Y-140077819D02*
X173466667Y-139411152D01*
X173466667Y-139506390D02*
X173514286Y-139458771D01*
X173514286Y-139458771D02*
X173609524Y-139411152D01*
X173609524Y-139411152D02*
X173752381Y-139411152D01*
X173752381Y-139411152D02*
X173847619Y-139458771D01*
X173847619Y-139458771D02*
X173895238Y-139554009D01*
X173895238Y-139554009D02*
X173895238Y-140077819D01*
X173895238Y-139554009D02*
X173942857Y-139458771D01*
X173942857Y-139458771D02*
X174038095Y-139411152D01*
X174038095Y-139411152D02*
X174180952Y-139411152D01*
X174180952Y-139411152D02*
X174276191Y-139458771D01*
X174276191Y-139458771D02*
X174323810Y-139554009D01*
X174323810Y-139554009D02*
X174323810Y-140077819D01*
M02*
