%TF.GenerationSoftware,KiCad,Pcbnew,10.0.4-10.0.4~ubuntu25.10.1*%
%TF.CreationDate,2026-07-28T04:31:22+00:00*%
%TF.ProjectId,TAPRX-888,54415052-582d-4383-9838-2e6b69636164,DEV*%
%TF.SameCoordinates,Original*%
%TF.FileFunction,Legend,Bot*%
%TF.FilePolarity,Positive*%
%FSLAX46Y46*%
G04 Gerber Fmt 4.6, Leading zero omitted, Abs format (unit mm)*
G04 Created by KiCad (PCBNEW 10.0.4-10.0.4~ubuntu25.10.1) date 2026-07-28 04:31:22*
%MOMM*%
%LPD*%
G01*
G04 APERTURE LIST*
%ADD10C,0.100000*%
%ADD11C,0.300000*%
%ADD12C,0.010000*%
%ADD13C,0.000000*%
G04 APERTURE END LIST*
D10*
X106500000Y-53500000D02*
X119500000Y-53500000D01*
X119500000Y-66500000D01*
X106500000Y-66500000D01*
X106500000Y-53500000D01*
X106500000Y-67500000D02*
X119500000Y-67500000D01*
X119500000Y-80500000D01*
X106500000Y-80500000D01*
X106500000Y-67500000D01*
X126500000Y-53500000D02*
X139500000Y-53500000D01*
X139500000Y-66500000D01*
X126500000Y-66500000D01*
X126500000Y-53500000D01*
X126500000Y-67500000D02*
X139500000Y-67500000D01*
X139500000Y-80500000D01*
X126500000Y-80500000D01*
X126500000Y-67500000D01*
X105053014Y-59672931D02*
X105053014Y-60137217D01*
X105053014Y-60137217D02*
X105338728Y-59887217D01*
X105338728Y-59887217D02*
X105338728Y-59994360D01*
X105338728Y-59994360D02*
X105374442Y-60065789D01*
X105374442Y-60065789D02*
X105410157Y-60101503D01*
X105410157Y-60101503D02*
X105481585Y-60137217D01*
X105481585Y-60137217D02*
X105660157Y-60137217D01*
X105660157Y-60137217D02*
X105731585Y-60101503D01*
X105731585Y-60101503D02*
X105767300Y-60065789D01*
X105767300Y-60065789D02*
X105803014Y-59994360D01*
X105803014Y-59994360D02*
X105803014Y-59780074D01*
X105803014Y-59780074D02*
X105767300Y-59708646D01*
X105767300Y-59708646D02*
X105731585Y-59672931D01*
X105731585Y-60458646D02*
X105767300Y-60494360D01*
X105767300Y-60494360D02*
X105803014Y-60458646D01*
X105803014Y-60458646D02*
X105767300Y-60422932D01*
X105767300Y-60422932D02*
X105731585Y-60458646D01*
X105731585Y-60458646D02*
X105803014Y-60458646D01*
X105053014Y-60744360D02*
X105053014Y-61208646D01*
X105053014Y-61208646D02*
X105338728Y-60958646D01*
X105338728Y-60958646D02*
X105338728Y-61065789D01*
X105338728Y-61065789D02*
X105374442Y-61137218D01*
X105374442Y-61137218D02*
X105410157Y-61172932D01*
X105410157Y-61172932D02*
X105481585Y-61208646D01*
X105481585Y-61208646D02*
X105660157Y-61208646D01*
X105660157Y-61208646D02*
X105731585Y-61172932D01*
X105731585Y-61172932D02*
X105767300Y-61137218D01*
X105767300Y-61137218D02*
X105803014Y-61065789D01*
X105803014Y-61065789D02*
X105803014Y-60851503D01*
X105803014Y-60851503D02*
X105767300Y-60780075D01*
X105767300Y-60780075D02*
X105731585Y-60744360D01*
X105053014Y-61422932D02*
X105803014Y-61672932D01*
X105803014Y-61672932D02*
X105053014Y-61922932D01*
X105688728Y-71208646D02*
X105688728Y-71565789D01*
X105903014Y-71137217D02*
X105153014Y-71387217D01*
X105153014Y-71387217D02*
X105903014Y-71637217D01*
X105903014Y-71887217D02*
X105153014Y-71887217D01*
X105153014Y-71887217D02*
X105153014Y-72065788D01*
X105153014Y-72065788D02*
X105188728Y-72172931D01*
X105188728Y-72172931D02*
X105260157Y-72244360D01*
X105260157Y-72244360D02*
X105331585Y-72280074D01*
X105331585Y-72280074D02*
X105474442Y-72315788D01*
X105474442Y-72315788D02*
X105581585Y-72315788D01*
X105581585Y-72315788D02*
X105724442Y-72280074D01*
X105724442Y-72280074D02*
X105795871Y-72244360D01*
X105795871Y-72244360D02*
X105867300Y-72172931D01*
X105867300Y-72172931D02*
X105903014Y-72065788D01*
X105903014Y-72065788D02*
X105903014Y-71887217D01*
X105831585Y-73065788D02*
X105867300Y-73030074D01*
X105867300Y-73030074D02*
X105903014Y-72922931D01*
X105903014Y-72922931D02*
X105903014Y-72851503D01*
X105903014Y-72851503D02*
X105867300Y-72744360D01*
X105867300Y-72744360D02*
X105795871Y-72672931D01*
X105795871Y-72672931D02*
X105724442Y-72637217D01*
X105724442Y-72637217D02*
X105581585Y-72601503D01*
X105581585Y-72601503D02*
X105474442Y-72601503D01*
X105474442Y-72601503D02*
X105331585Y-72637217D01*
X105331585Y-72637217D02*
X105260157Y-72672931D01*
X105260157Y-72672931D02*
X105188728Y-72744360D01*
X105188728Y-72744360D02*
X105153014Y-72851503D01*
X105153014Y-72851503D02*
X105153014Y-72922931D01*
X105153014Y-72922931D02*
X105188728Y-73030074D01*
X105188728Y-73030074D02*
X105224442Y-73065788D01*
X105153014Y-73887217D02*
X105153014Y-74351503D01*
X105153014Y-74351503D02*
X105438728Y-74101503D01*
X105438728Y-74101503D02*
X105438728Y-74208646D01*
X105438728Y-74208646D02*
X105474442Y-74280075D01*
X105474442Y-74280075D02*
X105510157Y-74315789D01*
X105510157Y-74315789D02*
X105581585Y-74351503D01*
X105581585Y-74351503D02*
X105760157Y-74351503D01*
X105760157Y-74351503D02*
X105831585Y-74315789D01*
X105831585Y-74315789D02*
X105867300Y-74280075D01*
X105867300Y-74280075D02*
X105903014Y-74208646D01*
X105903014Y-74208646D02*
X105903014Y-73994360D01*
X105903014Y-73994360D02*
X105867300Y-73922932D01*
X105867300Y-73922932D02*
X105831585Y-73887217D01*
X105831585Y-74672932D02*
X105867300Y-74708646D01*
X105867300Y-74708646D02*
X105903014Y-74672932D01*
X105903014Y-74672932D02*
X105867300Y-74637218D01*
X105867300Y-74637218D02*
X105831585Y-74672932D01*
X105831585Y-74672932D02*
X105903014Y-74672932D01*
X105153014Y-74958646D02*
X105153014Y-75422932D01*
X105153014Y-75422932D02*
X105438728Y-75172932D01*
X105438728Y-75172932D02*
X105438728Y-75280075D01*
X105438728Y-75280075D02*
X105474442Y-75351504D01*
X105474442Y-75351504D02*
X105510157Y-75387218D01*
X105510157Y-75387218D02*
X105581585Y-75422932D01*
X105581585Y-75422932D02*
X105760157Y-75422932D01*
X105760157Y-75422932D02*
X105831585Y-75387218D01*
X105831585Y-75387218D02*
X105867300Y-75351504D01*
X105867300Y-75351504D02*
X105903014Y-75280075D01*
X105903014Y-75280075D02*
X105903014Y-75065789D01*
X105903014Y-75065789D02*
X105867300Y-74994361D01*
X105867300Y-74994361D02*
X105831585Y-74958646D01*
X105153014Y-75637218D02*
X105903014Y-75887218D01*
X105903014Y-75887218D02*
X105153014Y-76137218D01*
X124853014Y-53314285D02*
X124853014Y-53778571D01*
X124853014Y-53778571D02*
X125138728Y-53528571D01*
X125138728Y-53528571D02*
X125138728Y-53635714D01*
X125138728Y-53635714D02*
X125174442Y-53707143D01*
X125174442Y-53707143D02*
X125210157Y-53742857D01*
X125210157Y-53742857D02*
X125281585Y-53778571D01*
X125281585Y-53778571D02*
X125460157Y-53778571D01*
X125460157Y-53778571D02*
X125531585Y-53742857D01*
X125531585Y-53742857D02*
X125567300Y-53707143D01*
X125567300Y-53707143D02*
X125603014Y-53635714D01*
X125603014Y-53635714D02*
X125603014Y-53421428D01*
X125603014Y-53421428D02*
X125567300Y-53350000D01*
X125567300Y-53350000D02*
X125531585Y-53314285D01*
X125531585Y-54100000D02*
X125567300Y-54135714D01*
X125567300Y-54135714D02*
X125603014Y-54100000D01*
X125603014Y-54100000D02*
X125567300Y-54064286D01*
X125567300Y-54064286D02*
X125531585Y-54100000D01*
X125531585Y-54100000D02*
X125603014Y-54100000D01*
X124853014Y-54385714D02*
X124853014Y-54850000D01*
X124853014Y-54850000D02*
X125138728Y-54600000D01*
X125138728Y-54600000D02*
X125138728Y-54707143D01*
X125138728Y-54707143D02*
X125174442Y-54778572D01*
X125174442Y-54778572D02*
X125210157Y-54814286D01*
X125210157Y-54814286D02*
X125281585Y-54850000D01*
X125281585Y-54850000D02*
X125460157Y-54850000D01*
X125460157Y-54850000D02*
X125531585Y-54814286D01*
X125531585Y-54814286D02*
X125567300Y-54778572D01*
X125567300Y-54778572D02*
X125603014Y-54707143D01*
X125603014Y-54707143D02*
X125603014Y-54492857D01*
X125603014Y-54492857D02*
X125567300Y-54421429D01*
X125567300Y-54421429D02*
X125531585Y-54385714D01*
X124853014Y-55064286D02*
X125603014Y-55314286D01*
X125603014Y-55314286D02*
X124853014Y-55564286D01*
X125317300Y-56385715D02*
X125317300Y-56957144D01*
X125888728Y-58100001D02*
X125853014Y-58064286D01*
X125853014Y-58064286D02*
X125745871Y-57992858D01*
X125745871Y-57992858D02*
X125674442Y-57957144D01*
X125674442Y-57957144D02*
X125567300Y-57921429D01*
X125567300Y-57921429D02*
X125388728Y-57885715D01*
X125388728Y-57885715D02*
X125245871Y-57885715D01*
X125245871Y-57885715D02*
X125067300Y-57921429D01*
X125067300Y-57921429D02*
X124960157Y-57957144D01*
X124960157Y-57957144D02*
X124888728Y-57992858D01*
X124888728Y-57992858D02*
X124781585Y-58064286D01*
X124781585Y-58064286D02*
X124745871Y-58100001D01*
X125603014Y-58778572D02*
X125603014Y-58350001D01*
X125603014Y-58564286D02*
X124853014Y-58564286D01*
X124853014Y-58564286D02*
X124960157Y-58492858D01*
X124960157Y-58492858D02*
X125031585Y-58421429D01*
X125031585Y-58421429D02*
X125067300Y-58350001D01*
X125531585Y-59100001D02*
X125567300Y-59135715D01*
X125567300Y-59135715D02*
X125603014Y-59100001D01*
X125603014Y-59100001D02*
X125567300Y-59064287D01*
X125567300Y-59064287D02*
X125531585Y-59100001D01*
X125531585Y-59100001D02*
X125603014Y-59100001D01*
X124924442Y-59421430D02*
X124888728Y-59457144D01*
X124888728Y-59457144D02*
X124853014Y-59528573D01*
X124853014Y-59528573D02*
X124853014Y-59707144D01*
X124853014Y-59707144D02*
X124888728Y-59778573D01*
X124888728Y-59778573D02*
X124924442Y-59814287D01*
X124924442Y-59814287D02*
X124995871Y-59850001D01*
X124995871Y-59850001D02*
X125067300Y-59850001D01*
X125067300Y-59850001D02*
X125174442Y-59814287D01*
X125174442Y-59814287D02*
X125603014Y-59385715D01*
X125603014Y-59385715D02*
X125603014Y-59850001D01*
X124853014Y-60064287D02*
X125603014Y-60314287D01*
X125603014Y-60314287D02*
X124853014Y-60564287D01*
X125603014Y-61385716D02*
X124853014Y-61385716D01*
X124853014Y-61385716D02*
X124853014Y-61671430D01*
X124853014Y-61671430D02*
X124888728Y-61742859D01*
X124888728Y-61742859D02*
X124924442Y-61778573D01*
X124924442Y-61778573D02*
X124995871Y-61814287D01*
X124995871Y-61814287D02*
X125103014Y-61814287D01*
X125103014Y-61814287D02*
X125174442Y-61778573D01*
X125174442Y-61778573D02*
X125210157Y-61742859D01*
X125210157Y-61742859D02*
X125245871Y-61671430D01*
X125245871Y-61671430D02*
X125245871Y-61385716D01*
X125603014Y-62564287D02*
X125245871Y-62314287D01*
X125603014Y-62135716D02*
X124853014Y-62135716D01*
X124853014Y-62135716D02*
X124853014Y-62421430D01*
X124853014Y-62421430D02*
X124888728Y-62492859D01*
X124888728Y-62492859D02*
X124924442Y-62528573D01*
X124924442Y-62528573D02*
X124995871Y-62564287D01*
X124995871Y-62564287D02*
X125103014Y-62564287D01*
X125103014Y-62564287D02*
X125174442Y-62528573D01*
X125174442Y-62528573D02*
X125210157Y-62492859D01*
X125210157Y-62492859D02*
X125245871Y-62421430D01*
X125245871Y-62421430D02*
X125245871Y-62135716D01*
X125210157Y-62885716D02*
X125210157Y-63135716D01*
X125603014Y-63242859D02*
X125603014Y-62885716D01*
X125603014Y-62885716D02*
X124853014Y-62885716D01*
X124853014Y-62885716D02*
X124853014Y-63242859D01*
X125317300Y-63564287D02*
X125317300Y-64135716D01*
X125603014Y-64921429D02*
X125245871Y-64671429D01*
X125603014Y-64492858D02*
X124853014Y-64492858D01*
X124853014Y-64492858D02*
X124853014Y-64778572D01*
X124853014Y-64778572D02*
X124888728Y-64850001D01*
X124888728Y-64850001D02*
X124924442Y-64885715D01*
X124924442Y-64885715D02*
X124995871Y-64921429D01*
X124995871Y-64921429D02*
X125103014Y-64921429D01*
X125103014Y-64921429D02*
X125174442Y-64885715D01*
X125174442Y-64885715D02*
X125210157Y-64850001D01*
X125210157Y-64850001D02*
X125245871Y-64778572D01*
X125245871Y-64778572D02*
X125245871Y-64492858D01*
X125210157Y-65242858D02*
X125210157Y-65492858D01*
X125603014Y-65600001D02*
X125603014Y-65242858D01*
X125603014Y-65242858D02*
X124853014Y-65242858D01*
X124853014Y-65242858D02*
X124853014Y-65600001D01*
X124888728Y-66314286D02*
X124853014Y-66242858D01*
X124853014Y-66242858D02*
X124853014Y-66135715D01*
X124853014Y-66135715D02*
X124888728Y-66028572D01*
X124888728Y-66028572D02*
X124960157Y-65957143D01*
X124960157Y-65957143D02*
X125031585Y-65921429D01*
X125031585Y-65921429D02*
X125174442Y-65885715D01*
X125174442Y-65885715D02*
X125281585Y-65885715D01*
X125281585Y-65885715D02*
X125424442Y-65921429D01*
X125424442Y-65921429D02*
X125495871Y-65957143D01*
X125495871Y-65957143D02*
X125567300Y-66028572D01*
X125567300Y-66028572D02*
X125603014Y-66135715D01*
X125603014Y-66135715D02*
X125603014Y-66207143D01*
X125603014Y-66207143D02*
X125567300Y-66314286D01*
X125567300Y-66314286D02*
X125531585Y-66350000D01*
X125531585Y-66350000D02*
X125281585Y-66350000D01*
X125281585Y-66350000D02*
X125281585Y-66207143D01*
X125888728Y-66600000D02*
X125853014Y-66635715D01*
X125853014Y-66635715D02*
X125745871Y-66707143D01*
X125745871Y-66707143D02*
X125674442Y-66742858D01*
X125674442Y-66742858D02*
X125567300Y-66778572D01*
X125567300Y-66778572D02*
X125388728Y-66814286D01*
X125388728Y-66814286D02*
X125245871Y-66814286D01*
X125245871Y-66814286D02*
X125067300Y-66778572D01*
X125067300Y-66778572D02*
X124960157Y-66742858D01*
X124960157Y-66742858D02*
X124888728Y-66707143D01*
X124888728Y-66707143D02*
X124781585Y-66635715D01*
X124781585Y-66635715D02*
X124745871Y-66600000D01*
X125903014Y-73357142D02*
X125903014Y-72928571D01*
X125903014Y-73142856D02*
X125153014Y-73142856D01*
X125153014Y-73142856D02*
X125260157Y-73071428D01*
X125260157Y-73071428D02*
X125331585Y-72999999D01*
X125331585Y-72999999D02*
X125367300Y-72928571D01*
X125831585Y-73678571D02*
X125867300Y-73714285D01*
X125867300Y-73714285D02*
X125903014Y-73678571D01*
X125903014Y-73678571D02*
X125867300Y-73642857D01*
X125867300Y-73642857D02*
X125831585Y-73678571D01*
X125831585Y-73678571D02*
X125903014Y-73678571D01*
X125224442Y-74000000D02*
X125188728Y-74035714D01*
X125188728Y-74035714D02*
X125153014Y-74107143D01*
X125153014Y-74107143D02*
X125153014Y-74285714D01*
X125153014Y-74285714D02*
X125188728Y-74357143D01*
X125188728Y-74357143D02*
X125224442Y-74392857D01*
X125224442Y-74392857D02*
X125295871Y-74428571D01*
X125295871Y-74428571D02*
X125367300Y-74428571D01*
X125367300Y-74428571D02*
X125474442Y-74392857D01*
X125474442Y-74392857D02*
X125903014Y-73964285D01*
X125903014Y-73964285D02*
X125903014Y-74428571D01*
X125153014Y-74642857D02*
X125903014Y-74892857D01*
X125903014Y-74892857D02*
X125153014Y-75142857D01*
D11*
G36*
X117590827Y-130184060D02*
G01*
X117624059Y-130250523D01*
X117624059Y-130317857D01*
X117216829Y-130236411D01*
X117243005Y-130184060D01*
X117309469Y-130150828D01*
X117524364Y-130150828D01*
X117590827Y-130184060D01*
G37*
G36*
X118899492Y-130195535D02*
G01*
X118936496Y-130232539D01*
X118981202Y-130321951D01*
X118981202Y-130679704D01*
X118936495Y-130769117D01*
X118899490Y-130806122D01*
X118810078Y-130850828D01*
X118595184Y-130850828D01*
X118566917Y-130836694D01*
X118566917Y-130164961D01*
X118595184Y-130150828D01*
X118810078Y-130150828D01*
X118899492Y-130195535D01*
G37*
G36*
X127685207Y-130195535D02*
G01*
X127722211Y-130232539D01*
X127766917Y-130321951D01*
X127766917Y-130679704D01*
X127722210Y-130769117D01*
X127685205Y-130806122D01*
X127595793Y-130850828D01*
X127452327Y-130850828D01*
X127362914Y-130806122D01*
X127325910Y-130769118D01*
X127281203Y-130679703D01*
X127281203Y-130321952D01*
X127325910Y-130232538D01*
X127362914Y-130195534D01*
X127452327Y-130150828D01*
X127595793Y-130150828D01*
X127685207Y-130195535D01*
G37*
G36*
X129733584Y-131317495D02*
G01*
X115530431Y-131317495D01*
X115530431Y-130022750D01*
X115697098Y-130022750D01*
X115704227Y-130051278D01*
X116061370Y-131051278D01*
X116073926Y-131077868D01*
X116078979Y-131083450D01*
X116082202Y-131090253D01*
X116098474Y-131104984D01*
X116113206Y-131121257D01*
X116120008Y-131124479D01*
X116125591Y-131129533D01*
X116146265Y-131136916D01*
X116166098Y-131146311D01*
X116173616Y-131146684D01*
X116180709Y-131149218D01*
X116202631Y-131148127D01*
X116224553Y-131149218D01*
X116231645Y-131146684D01*
X116239164Y-131146311D01*
X116258996Y-131136916D01*
X116279671Y-131129533D01*
X116285253Y-131124479D01*
X116292056Y-131121257D01*
X116306787Y-131104984D01*
X116323060Y-131090253D01*
X116326282Y-131083450D01*
X116331336Y-131077868D01*
X116343892Y-131051278D01*
X116642522Y-130215114D01*
X116909774Y-130215114D01*
X116909774Y-130357971D01*
X116912656Y-130387235D01*
X116918280Y-130400812D01*
X116921132Y-130415229D01*
X116929370Y-130427586D01*
X116935054Y-130441307D01*
X116945446Y-130451699D01*
X116953597Y-130463925D01*
X116965935Y-130472188D01*
X116976438Y-130482691D01*
X116990014Y-130488314D01*
X117002226Y-130496493D01*
X117030357Y-130505058D01*
X117030508Y-130505088D01*
X117030510Y-130505089D01*
X117030512Y-130505089D01*
X117624059Y-130623798D01*
X117624059Y-130751132D01*
X117590827Y-130817596D01*
X117524364Y-130850828D01*
X117309469Y-130850828D01*
X117198284Y-130795236D01*
X117170820Y-130784726D01*
X117112440Y-130780578D01*
X117056918Y-130799086D01*
X117012703Y-130837433D01*
X116986528Y-130889782D01*
X116982380Y-130948162D01*
X117000888Y-131003684D01*
X117039235Y-131047899D01*
X117064120Y-131063564D01*
X117206978Y-131134992D01*
X117234441Y-131145502D01*
X117239816Y-131145883D01*
X117244795Y-131147946D01*
X117274059Y-131150828D01*
X117559774Y-131150828D01*
X117589038Y-131147946D01*
X117594016Y-131145883D01*
X117599392Y-131145502D01*
X117626856Y-131134992D01*
X117769713Y-131063564D01*
X117774605Y-131060484D01*
X117776916Y-131059714D01*
X117779792Y-131057219D01*
X117794599Y-131047899D01*
X117806920Y-131033691D01*
X117821131Y-131021367D01*
X117830451Y-131006559D01*
X117832945Y-131003684D01*
X117833714Y-131001374D01*
X117836795Y-130996481D01*
X117908224Y-130853623D01*
X117918733Y-130826160D01*
X117919114Y-130820784D01*
X117921177Y-130815806D01*
X117924059Y-130786542D01*
X117924059Y-130500989D01*
X117924060Y-130500985D01*
X117924059Y-130500979D01*
X117924059Y-130215114D01*
X117921177Y-130185850D01*
X117919114Y-130180871D01*
X117918733Y-130175496D01*
X117908223Y-130148033D01*
X117836795Y-130005175D01*
X117833714Y-130000281D01*
X117832945Y-129997973D01*
X117830451Y-129995097D01*
X117821130Y-129980290D01*
X117806923Y-129967969D01*
X117794599Y-129953758D01*
X117779788Y-129944435D01*
X117776915Y-129941943D01*
X117774607Y-129941173D01*
X117769713Y-129938093D01*
X117626856Y-129866664D01*
X117599393Y-129856155D01*
X117594018Y-129855773D01*
X117589038Y-129853710D01*
X117559774Y-129850828D01*
X117274059Y-129850828D01*
X117244795Y-129853710D01*
X117239814Y-129855773D01*
X117234440Y-129856155D01*
X117206976Y-129866664D01*
X117064120Y-129938093D01*
X117059225Y-129941173D01*
X117056918Y-129941943D01*
X117054043Y-129944435D01*
X117039234Y-129953758D01*
X117026910Y-129967967D01*
X117012703Y-129980289D01*
X117003383Y-129995094D01*
X117000887Y-129997973D01*
X117000116Y-130000284D01*
X116997038Y-130005175D01*
X116925610Y-130148032D01*
X116915100Y-130175496D01*
X116914718Y-130180871D01*
X116912656Y-130185850D01*
X116909774Y-130215114D01*
X116642522Y-130215114D01*
X116701035Y-130051279D01*
X116708164Y-130022750D01*
X116705257Y-129964295D01*
X116680203Y-129911403D01*
X116636814Y-129872123D01*
X116581696Y-129852438D01*
X116523241Y-129855345D01*
X116470349Y-129880399D01*
X116431069Y-129923788D01*
X116418513Y-129950378D01*
X116202631Y-130554847D01*
X115986749Y-129950378D01*
X115974193Y-129923788D01*
X115934913Y-129880399D01*
X115882021Y-129855345D01*
X115823566Y-129852438D01*
X115768448Y-129872123D01*
X115725059Y-129911403D01*
X115700005Y-129964295D01*
X115697098Y-130022750D01*
X115530431Y-130022750D01*
X115530431Y-129500828D01*
X118266917Y-129500828D01*
X118266917Y-131000828D01*
X118269799Y-131030092D01*
X118292197Y-131084164D01*
X118333581Y-131125548D01*
X118387653Y-131147946D01*
X118446181Y-131147946D01*
X118485788Y-131131539D01*
X118492693Y-131134992D01*
X118520156Y-131145502D01*
X118525531Y-131145883D01*
X118530510Y-131147946D01*
X118559774Y-131150828D01*
X118845488Y-131150828D01*
X118874752Y-131147946D01*
X118879730Y-131145883D01*
X118885106Y-131145502D01*
X118912570Y-131134992D01*
X119055427Y-131063564D01*
X119068020Y-131055636D01*
X119071680Y-131054121D01*
X119075799Y-131050739D01*
X119080313Y-131047899D01*
X119082909Y-131044905D01*
X119094411Y-131035466D01*
X119165840Y-130964037D01*
X119175281Y-130952532D01*
X119178273Y-130949938D01*
X119181111Y-130945428D01*
X119184495Y-130941306D01*
X119186011Y-130937644D01*
X119193938Y-130925053D01*
X119206395Y-130900138D01*
X120698370Y-130900138D01*
X120698370Y-130958664D01*
X120700596Y-130964037D01*
X120720767Y-131012735D01*
X120720768Y-131012736D01*
X120739423Y-131035467D01*
X120810852Y-131106895D01*
X120833581Y-131125548D01*
X120833582Y-131125549D01*
X120856380Y-131134992D01*
X120887653Y-131147946D01*
X120887654Y-131147946D01*
X120887655Y-131147946D01*
X120946180Y-131147946D01*
X120946181Y-131147946D01*
X120977454Y-131134992D01*
X121000252Y-131125549D01*
X121022983Y-131106894D01*
X121094411Y-131035466D01*
X121113066Y-131012736D01*
X121135462Y-130958663D01*
X121135462Y-130931215D01*
X121135463Y-130900138D01*
X121113066Y-130846065D01*
X121094412Y-130823335D01*
X121022984Y-130751906D01*
X121000253Y-130733251D01*
X121000252Y-130733250D01*
X120968578Y-130720130D01*
X120946181Y-130710853D01*
X120887653Y-130710853D01*
X120865256Y-130720130D01*
X120833582Y-130733250D01*
X120810851Y-130751905D01*
X120739422Y-130823334D01*
X120720767Y-130846065D01*
X120700597Y-130894762D01*
X120698370Y-130900138D01*
X119206395Y-130900138D01*
X119265366Y-130782195D01*
X119275876Y-130754732D01*
X119276257Y-130749356D01*
X119278320Y-130744378D01*
X119281202Y-130715114D01*
X119281202Y-130286542D01*
X119278320Y-130257278D01*
X119276257Y-130252299D01*
X119275876Y-130246924D01*
X119265366Y-130219461D01*
X119212847Y-130114422D01*
X120698370Y-130114422D01*
X120698370Y-130172948D01*
X120720767Y-130227020D01*
X120739422Y-130249751D01*
X120810851Y-130321180D01*
X120833582Y-130339835D01*
X120865256Y-130352954D01*
X120887653Y-130362232D01*
X120887654Y-130362232D01*
X120887655Y-130362232D01*
X120946181Y-130362232D01*
X120968578Y-130352954D01*
X121000252Y-130339835D01*
X121000253Y-130339834D01*
X121022984Y-130321179D01*
X121094412Y-130249750D01*
X121113066Y-130227020D01*
X121135463Y-130172947D01*
X121135462Y-130114421D01*
X121125510Y-130090394D01*
X121113066Y-130060349D01*
X121094411Y-130037619D01*
X121028356Y-129971564D01*
X121269799Y-129971564D01*
X121269799Y-130030092D01*
X121292197Y-130084164D01*
X121333581Y-130125548D01*
X121387653Y-130147946D01*
X121416917Y-130150828D01*
X121624060Y-130150828D01*
X121624060Y-130751132D01*
X121590827Y-130817596D01*
X121524364Y-130850828D01*
X121416917Y-130850828D01*
X121387653Y-130853710D01*
X121333581Y-130876108D01*
X121292197Y-130917492D01*
X121269799Y-130971564D01*
X121269799Y-131030092D01*
X121292197Y-131084164D01*
X121333581Y-131125548D01*
X121387653Y-131147946D01*
X121416917Y-131150828D01*
X121559774Y-131150828D01*
X121589038Y-131147946D01*
X121594016Y-131145883D01*
X121599392Y-131145502D01*
X121626856Y-131134992D01*
X121769713Y-131063564D01*
X121774607Y-131060483D01*
X121776915Y-131059714D01*
X121779789Y-131057221D01*
X121794599Y-131047899D01*
X121806921Y-131033690D01*
X121821130Y-131021368D01*
X121830452Y-131006558D01*
X121832945Y-131003684D01*
X121833714Y-131001376D01*
X121836795Y-130996482D01*
X121908224Y-130853624D01*
X121918734Y-130826161D01*
X121919116Y-130820783D01*
X121921178Y-130815806D01*
X121924060Y-130786542D01*
X121924060Y-130150828D01*
X121988345Y-130150828D01*
X122017609Y-130147946D01*
X122071681Y-130125548D01*
X122113065Y-130084164D01*
X122135463Y-130030092D01*
X122135463Y-130000828D01*
X122338346Y-130000828D01*
X122338346Y-131000828D01*
X122341228Y-131030092D01*
X122363626Y-131084164D01*
X122405010Y-131125548D01*
X122459082Y-131147946D01*
X122517610Y-131147946D01*
X122571682Y-131125548D01*
X122613066Y-131084164D01*
X122635464Y-131030092D01*
X122638346Y-131000828D01*
X122638346Y-130215114D01*
X123052631Y-130215114D01*
X123052631Y-131000828D01*
X123055513Y-131030092D01*
X123077911Y-131084164D01*
X123119295Y-131125548D01*
X123173367Y-131147946D01*
X123231895Y-131147946D01*
X123285967Y-131125548D01*
X123327351Y-131084164D01*
X123349749Y-131030092D01*
X123352631Y-131000828D01*
X123352631Y-130250524D01*
X123385863Y-130184059D01*
X123452327Y-130150828D01*
X123595793Y-130150828D01*
X123662257Y-130184060D01*
X123695489Y-130250524D01*
X123695489Y-131000828D01*
X123698371Y-131030092D01*
X123720769Y-131084164D01*
X123762153Y-131125548D01*
X123816225Y-131147946D01*
X123874753Y-131147946D01*
X123928825Y-131125548D01*
X123970209Y-131084164D01*
X123992607Y-131030092D01*
X123995489Y-131000828D01*
X123995489Y-130250523D01*
X124028720Y-130184060D01*
X124095184Y-130150828D01*
X124238650Y-130150828D01*
X124328064Y-130195535D01*
X124338346Y-130205817D01*
X124338346Y-131000828D01*
X124341228Y-131030092D01*
X124363626Y-131084164D01*
X124405010Y-131125548D01*
X124459082Y-131147946D01*
X124517610Y-131147946D01*
X124571682Y-131125548D01*
X124613066Y-131084164D01*
X124635464Y-131030092D01*
X124638346Y-131000828D01*
X124638346Y-130215114D01*
X125052631Y-130215114D01*
X125052631Y-131000828D01*
X125055513Y-131030092D01*
X125077911Y-131084164D01*
X125119295Y-131125548D01*
X125173367Y-131147946D01*
X125231895Y-131147946D01*
X125285967Y-131125548D01*
X125327351Y-131084164D01*
X125349749Y-131030092D01*
X125352631Y-131000828D01*
X125352631Y-130250524D01*
X125385863Y-130184059D01*
X125452327Y-130150828D01*
X125595793Y-130150828D01*
X125662257Y-130184060D01*
X125695489Y-130250524D01*
X125695489Y-131000828D01*
X125698371Y-131030092D01*
X125720769Y-131084164D01*
X125762153Y-131125548D01*
X125816225Y-131147946D01*
X125874753Y-131147946D01*
X125928825Y-131125548D01*
X125970209Y-131084164D01*
X125992607Y-131030092D01*
X125995489Y-131000828D01*
X125995489Y-130250523D01*
X126028720Y-130184060D01*
X126095184Y-130150828D01*
X126238650Y-130150828D01*
X126328064Y-130195535D01*
X126338346Y-130205817D01*
X126338346Y-131000828D01*
X126341228Y-131030092D01*
X126363626Y-131084164D01*
X126405010Y-131125548D01*
X126459082Y-131147946D01*
X126517610Y-131147946D01*
X126571682Y-131125548D01*
X126613066Y-131084164D01*
X126635464Y-131030092D01*
X126638346Y-131000828D01*
X126638346Y-130286542D01*
X126981203Y-130286542D01*
X126981203Y-130715114D01*
X126984085Y-130744378D01*
X126986148Y-130749358D01*
X126986530Y-130754733D01*
X126997039Y-130782196D01*
X127068468Y-130925053D01*
X127076396Y-130937648D01*
X127077911Y-130941305D01*
X127081290Y-130945422D01*
X127084133Y-130949939D01*
X127087127Y-130952536D01*
X127096565Y-130964036D01*
X127167993Y-131035465D01*
X127179498Y-131044907D01*
X127182093Y-131047899D01*
X127186603Y-131050738D01*
X127190724Y-131054120D01*
X127194383Y-131055635D01*
X127206978Y-131063564D01*
X127349836Y-131134992D01*
X127377299Y-131145502D01*
X127382674Y-131145883D01*
X127387653Y-131147946D01*
X127416917Y-131150828D01*
X127631203Y-131150828D01*
X127660467Y-131147946D01*
X127665445Y-131145883D01*
X127670821Y-131145502D01*
X127698285Y-131134992D01*
X127841142Y-131063564D01*
X127853735Y-131055636D01*
X127857395Y-131054121D01*
X127861514Y-131050739D01*
X127866028Y-131047899D01*
X127868624Y-131044905D01*
X127880126Y-131035466D01*
X127951555Y-130964037D01*
X127960996Y-130952532D01*
X127963988Y-130949938D01*
X127966826Y-130945428D01*
X127970210Y-130941306D01*
X127971726Y-130937644D01*
X127979653Y-130925053D01*
X128051081Y-130782195D01*
X128061591Y-130754732D01*
X128061972Y-130749356D01*
X128064035Y-130744378D01*
X128066917Y-130715114D01*
X128066917Y-130286542D01*
X128064035Y-130257278D01*
X128061972Y-130252299D01*
X128061591Y-130246924D01*
X128051081Y-130219461D01*
X127979653Y-130076603D01*
X127971724Y-130064008D01*
X127970209Y-130060349D01*
X127966827Y-130056228D01*
X127963988Y-130051718D01*
X127960996Y-130049123D01*
X127951554Y-130037618D01*
X127880125Y-129966190D01*
X127868625Y-129956752D01*
X127866028Y-129953758D01*
X127861511Y-129950915D01*
X127857394Y-129947536D01*
X127853737Y-129946021D01*
X127841142Y-129938093D01*
X127698285Y-129866664D01*
X127670822Y-129856155D01*
X127665447Y-129855773D01*
X127660467Y-129853710D01*
X127631203Y-129850828D01*
X127416917Y-129850828D01*
X127387653Y-129853710D01*
X127382672Y-129855773D01*
X127377298Y-129856155D01*
X127349834Y-129866664D01*
X127206978Y-129938093D01*
X127194386Y-129946019D01*
X127190724Y-129947536D01*
X127186601Y-129950919D01*
X127182092Y-129953758D01*
X127179496Y-129956750D01*
X127167994Y-129966191D01*
X127096566Y-130037619D01*
X127087126Y-130049120D01*
X127084133Y-130051717D01*
X127081292Y-130056230D01*
X127077911Y-130060350D01*
X127076395Y-130064009D01*
X127068468Y-130076603D01*
X126997039Y-130219460D01*
X126986530Y-130246923D01*
X126986148Y-130252297D01*
X126984085Y-130257278D01*
X126981203Y-130286542D01*
X126638346Y-130286542D01*
X126638346Y-130000828D01*
X126635464Y-129971564D01*
X126613066Y-129917492D01*
X126571682Y-129876108D01*
X126517610Y-129853710D01*
X126459082Y-129853710D01*
X126405010Y-129876108D01*
X126390016Y-129891101D01*
X126341142Y-129866664D01*
X126313679Y-129856155D01*
X126308304Y-129855773D01*
X126303324Y-129853710D01*
X126274060Y-129850828D01*
X126059774Y-129850828D01*
X126030510Y-129853710D01*
X126025529Y-129855773D01*
X126020155Y-129856155D01*
X125992691Y-129866664D01*
X125849835Y-129938093D01*
X125845488Y-129940828D01*
X125841142Y-129938093D01*
X125698285Y-129866664D01*
X125670822Y-129856155D01*
X125665447Y-129855773D01*
X125660467Y-129853710D01*
X125631203Y-129850828D01*
X125416917Y-129850828D01*
X125387653Y-129853710D01*
X125382672Y-129855773D01*
X125377298Y-129856155D01*
X125349834Y-129866664D01*
X125206978Y-129938093D01*
X125202083Y-129941173D01*
X125199776Y-129941943D01*
X125196901Y-129944435D01*
X125182092Y-129953758D01*
X125169768Y-129967967D01*
X125155561Y-129980289D01*
X125146241Y-129995094D01*
X125143745Y-129997973D01*
X125142974Y-130000284D01*
X125139896Y-130005175D01*
X125068467Y-130148032D01*
X125057958Y-130175495D01*
X125057576Y-130180869D01*
X125055513Y-130185850D01*
X125052631Y-130215114D01*
X124638346Y-130215114D01*
X124638346Y-130000828D01*
X124635464Y-129971564D01*
X124613066Y-129917492D01*
X124571682Y-129876108D01*
X124517610Y-129853710D01*
X124459082Y-129853710D01*
X124405010Y-129876108D01*
X124390016Y-129891101D01*
X124341142Y-129866664D01*
X124313679Y-129856155D01*
X124308304Y-129855773D01*
X124303324Y-129853710D01*
X124274060Y-129850828D01*
X124059774Y-129850828D01*
X124030510Y-129853710D01*
X124025529Y-129855773D01*
X124020155Y-129856155D01*
X123992691Y-129866664D01*
X123849835Y-129938093D01*
X123845488Y-129940828D01*
X123841142Y-129938093D01*
X123698285Y-129866664D01*
X123670822Y-129856155D01*
X123665447Y-129855773D01*
X123660467Y-129853710D01*
X123631203Y-129850828D01*
X123416917Y-129850828D01*
X123387653Y-129853710D01*
X123382672Y-129855773D01*
X123377298Y-129856155D01*
X123349834Y-129866664D01*
X123206978Y-129938093D01*
X123202083Y-129941173D01*
X123199776Y-129941943D01*
X123196901Y-129944435D01*
X123182092Y-129953758D01*
X123169768Y-129967967D01*
X123155561Y-129980289D01*
X123146241Y-129995094D01*
X123143745Y-129997973D01*
X123142974Y-130000284D01*
X123139896Y-130005175D01*
X123068467Y-130148032D01*
X123057958Y-130175495D01*
X123057576Y-130180869D01*
X123055513Y-130185850D01*
X123052631Y-130215114D01*
X122638346Y-130215114D01*
X122638346Y-130000828D01*
X122635464Y-129971564D01*
X122613066Y-129917492D01*
X122571682Y-129876108D01*
X122517610Y-129853710D01*
X122459082Y-129853710D01*
X122405010Y-129876108D01*
X122363626Y-129917492D01*
X122341228Y-129971564D01*
X122338346Y-130000828D01*
X122135463Y-130000828D01*
X122135463Y-129971564D01*
X122113065Y-129917492D01*
X122071681Y-129876108D01*
X122017609Y-129853710D01*
X121988345Y-129850828D01*
X121924060Y-129850828D01*
X121924060Y-129542995D01*
X122269799Y-129542995D01*
X122269799Y-129601521D01*
X122272025Y-129606894D01*
X122292196Y-129655592D01*
X122292197Y-129655593D01*
X122310852Y-129678324D01*
X122382281Y-129749752D01*
X122405010Y-129768405D01*
X122405011Y-129768406D01*
X122436685Y-129781525D01*
X122459082Y-129790803D01*
X122459083Y-129790803D01*
X122459084Y-129790803D01*
X122517609Y-129790803D01*
X122517610Y-129790803D01*
X122540007Y-129781525D01*
X122571681Y-129768406D01*
X122594412Y-129749751D01*
X122665840Y-129678323D01*
X122684495Y-129655593D01*
X122701547Y-129614422D01*
X128341228Y-129614422D01*
X128341228Y-129672948D01*
X128363625Y-129727020D01*
X128405011Y-129768406D01*
X128459083Y-129790803D01*
X128517609Y-129790803D01*
X128571681Y-129768406D01*
X128594412Y-129749751D01*
X128640801Y-129703361D01*
X128798403Y-129650828D01*
X128892577Y-129650828D01*
X129050175Y-129703361D01*
X129150782Y-129803968D01*
X129203961Y-129910327D01*
X129266917Y-130162148D01*
X129266917Y-130339507D01*
X129203961Y-130591328D01*
X129150782Y-130697688D01*
X129050176Y-130798294D01*
X128892574Y-130850828D01*
X128798403Y-130850828D01*
X128640800Y-130798294D01*
X128594413Y-130751906D01*
X128571682Y-130733251D01*
X128517610Y-130710853D01*
X128459084Y-130710853D01*
X128405012Y-130733250D01*
X128363626Y-130774635D01*
X128341228Y-130828707D01*
X128341228Y-130887233D01*
X128363625Y-130941305D01*
X128382279Y-130964036D01*
X128453707Y-131035465D01*
X128476438Y-131054120D01*
X128481414Y-131056181D01*
X128485489Y-131059715D01*
X128512340Y-131071703D01*
X128726626Y-131143131D01*
X128741138Y-131146430D01*
X128744796Y-131147946D01*
X128750098Y-131148468D01*
X128755300Y-131149651D01*
X128759254Y-131149369D01*
X128774060Y-131150828D01*
X128916917Y-131150828D01*
X128931722Y-131149369D01*
X128935677Y-131149651D01*
X128940878Y-131148468D01*
X128946181Y-131147946D01*
X128949838Y-131146430D01*
X128964351Y-131143131D01*
X129178637Y-131071703D01*
X129205488Y-131059715D01*
X129209559Y-131056183D01*
X129214539Y-131054121D01*
X129237269Y-131035466D01*
X129380126Y-130892608D01*
X129389564Y-130881106D01*
X129392559Y-130878510D01*
X129395399Y-130873996D01*
X129398781Y-130869877D01*
X129400296Y-130866217D01*
X129408224Y-130853624D01*
X129479653Y-130710768D01*
X129480472Y-130708625D01*
X129481117Y-130707756D01*
X129485501Y-130695484D01*
X129490162Y-130683304D01*
X129490238Y-130682223D01*
X129491010Y-130680065D01*
X129562438Y-130394351D01*
X129563187Y-130389279D01*
X129564035Y-130387235D01*
X129565120Y-130376212D01*
X129566740Y-130365262D01*
X129566414Y-130363074D01*
X129566917Y-130357971D01*
X129566917Y-130143685D01*
X129566414Y-130138581D01*
X129566740Y-130136394D01*
X129565120Y-130125443D01*
X129564035Y-130114421D01*
X129563187Y-130112376D01*
X129562438Y-130107305D01*
X129491010Y-129821591D01*
X129490238Y-129819432D01*
X129490162Y-129818352D01*
X129485501Y-129806171D01*
X129481117Y-129793900D01*
X129480472Y-129793030D01*
X129479653Y-129790888D01*
X129408224Y-129648032D01*
X129400297Y-129635440D01*
X129398781Y-129631778D01*
X129395397Y-129627655D01*
X129392559Y-129623146D01*
X129389566Y-129620550D01*
X129380126Y-129609048D01*
X129237269Y-129466191D01*
X129214538Y-129447536D01*
X129209558Y-129445473D01*
X129205488Y-129441943D01*
X129178637Y-129429954D01*
X128964351Y-129358526D01*
X128949843Y-129355227D01*
X128946181Y-129353710D01*
X128940872Y-129353187D01*
X128935678Y-129352006D01*
X128931728Y-129352286D01*
X128916917Y-129350828D01*
X128774060Y-129350828D01*
X128759248Y-129352286D01*
X128755299Y-129352006D01*
X128750104Y-129353187D01*
X128744796Y-129353710D01*
X128741134Y-129355226D01*
X128726625Y-129358526D01*
X128512340Y-129429955D01*
X128485489Y-129441943D01*
X128481418Y-129445472D01*
X128476438Y-129447536D01*
X128453708Y-129466191D01*
X128382280Y-129537619D01*
X128363625Y-129560350D01*
X128341228Y-129614422D01*
X122701547Y-129614422D01*
X122706891Y-129601520D01*
X122706891Y-129584162D01*
X122706892Y-129542995D01*
X122684495Y-129488922D01*
X122665841Y-129466192D01*
X122594413Y-129394763D01*
X122571682Y-129376108D01*
X122571681Y-129376107D01*
X122540007Y-129362987D01*
X122517610Y-129353710D01*
X122459082Y-129353710D01*
X122436685Y-129362987D01*
X122405011Y-129376107D01*
X122382280Y-129394762D01*
X122310851Y-129466191D01*
X122292196Y-129488922D01*
X122272026Y-129537619D01*
X122269799Y-129542995D01*
X121924060Y-129542995D01*
X121924060Y-129500828D01*
X121921178Y-129471564D01*
X121898780Y-129417492D01*
X121857396Y-129376108D01*
X121803324Y-129353710D01*
X121744796Y-129353710D01*
X121690724Y-129376108D01*
X121649340Y-129417492D01*
X121626942Y-129471564D01*
X121624060Y-129500828D01*
X121624060Y-129850828D01*
X121416917Y-129850828D01*
X121387653Y-129853710D01*
X121333581Y-129876108D01*
X121292197Y-129917492D01*
X121269799Y-129971564D01*
X121028356Y-129971564D01*
X121022983Y-129966191D01*
X121000252Y-129947536D01*
X120968578Y-129934416D01*
X120946181Y-129925139D01*
X120887653Y-129925139D01*
X120865256Y-129934416D01*
X120847085Y-129941943D01*
X120833582Y-129947536D01*
X120810852Y-129966190D01*
X120739423Y-130037618D01*
X120720768Y-130060349D01*
X120720767Y-130060350D01*
X120714035Y-130076603D01*
X120699425Y-130111876D01*
X120698370Y-130114422D01*
X119212847Y-130114422D01*
X119193938Y-130076603D01*
X119186009Y-130064008D01*
X119184494Y-130060349D01*
X119181112Y-130056228D01*
X119178273Y-130051718D01*
X119175281Y-130049123D01*
X119165839Y-130037618D01*
X119094410Y-129966190D01*
X119082910Y-129956752D01*
X119080313Y-129953758D01*
X119075796Y-129950915D01*
X119071679Y-129947536D01*
X119068022Y-129946021D01*
X119055427Y-129938093D01*
X118912570Y-129866664D01*
X118885107Y-129856155D01*
X118879732Y-129855773D01*
X118874752Y-129853710D01*
X118845488Y-129850828D01*
X118566917Y-129850828D01*
X118566917Y-129500828D01*
X118564035Y-129471564D01*
X118541637Y-129417492D01*
X118500253Y-129376108D01*
X118446181Y-129353710D01*
X118387653Y-129353710D01*
X118333581Y-129376108D01*
X118292197Y-129417492D01*
X118269799Y-129471564D01*
X118266917Y-129500828D01*
X115530431Y-129500828D01*
X115530431Y-129184161D01*
X129733584Y-129184161D01*
X129733584Y-131317495D01*
G37*
X119476190Y-92919750D02*
X118333333Y-92919750D01*
X118904762Y-94919750D02*
X118904762Y-92919750D01*
X117761904Y-94348321D02*
X116809523Y-94348321D01*
X117952380Y-94919750D02*
X117285714Y-92919750D01*
X117285714Y-92919750D02*
X116619047Y-94919750D01*
X115952380Y-94919750D02*
X115952380Y-92919750D01*
X115952380Y-92919750D02*
X115190475Y-92919750D01*
X115190475Y-92919750D02*
X114999999Y-93014988D01*
X114999999Y-93014988D02*
X114904761Y-93110226D01*
X114904761Y-93110226D02*
X114809523Y-93300702D01*
X114809523Y-93300702D02*
X114809523Y-93586416D01*
X114809523Y-93586416D02*
X114904761Y-93776892D01*
X114904761Y-93776892D02*
X114999999Y-93872131D01*
X114999999Y-93872131D02*
X115190475Y-93967369D01*
X115190475Y-93967369D02*
X115952380Y-93967369D01*
X112809523Y-94919750D02*
X113476190Y-93967369D01*
X113952380Y-94919750D02*
X113952380Y-92919750D01*
X113952380Y-92919750D02*
X113190475Y-92919750D01*
X113190475Y-92919750D02*
X112999999Y-93014988D01*
X112999999Y-93014988D02*
X112904761Y-93110226D01*
X112904761Y-93110226D02*
X112809523Y-93300702D01*
X112809523Y-93300702D02*
X112809523Y-93586416D01*
X112809523Y-93586416D02*
X112904761Y-93776892D01*
X112904761Y-93776892D02*
X112999999Y-93872131D01*
X112999999Y-93872131D02*
X113190475Y-93967369D01*
X113190475Y-93967369D02*
X113952380Y-93967369D01*
X112142856Y-92919750D02*
X110809523Y-94919750D01*
X110809523Y-92919750D02*
X112142856Y-94919750D01*
X110047618Y-94157845D02*
X108523809Y-94157845D01*
X107285714Y-93776892D02*
X107476190Y-93681654D01*
X107476190Y-93681654D02*
X107571428Y-93586416D01*
X107571428Y-93586416D02*
X107666666Y-93395940D01*
X107666666Y-93395940D02*
X107666666Y-93300702D01*
X107666666Y-93300702D02*
X107571428Y-93110226D01*
X107571428Y-93110226D02*
X107476190Y-93014988D01*
X107476190Y-93014988D02*
X107285714Y-92919750D01*
X107285714Y-92919750D02*
X106904761Y-92919750D01*
X106904761Y-92919750D02*
X106714285Y-93014988D01*
X106714285Y-93014988D02*
X106619047Y-93110226D01*
X106619047Y-93110226D02*
X106523809Y-93300702D01*
X106523809Y-93300702D02*
X106523809Y-93395940D01*
X106523809Y-93395940D02*
X106619047Y-93586416D01*
X106619047Y-93586416D02*
X106714285Y-93681654D01*
X106714285Y-93681654D02*
X106904761Y-93776892D01*
X106904761Y-93776892D02*
X107285714Y-93776892D01*
X107285714Y-93776892D02*
X107476190Y-93872131D01*
X107476190Y-93872131D02*
X107571428Y-93967369D01*
X107571428Y-93967369D02*
X107666666Y-94157845D01*
X107666666Y-94157845D02*
X107666666Y-94538797D01*
X107666666Y-94538797D02*
X107571428Y-94729273D01*
X107571428Y-94729273D02*
X107476190Y-94824512D01*
X107476190Y-94824512D02*
X107285714Y-94919750D01*
X107285714Y-94919750D02*
X106904761Y-94919750D01*
X106904761Y-94919750D02*
X106714285Y-94824512D01*
X106714285Y-94824512D02*
X106619047Y-94729273D01*
X106619047Y-94729273D02*
X106523809Y-94538797D01*
X106523809Y-94538797D02*
X106523809Y-94157845D01*
X106523809Y-94157845D02*
X106619047Y-93967369D01*
X106619047Y-93967369D02*
X106714285Y-93872131D01*
X106714285Y-93872131D02*
X106904761Y-93776892D01*
X105380952Y-93776892D02*
X105571428Y-93681654D01*
X105571428Y-93681654D02*
X105666666Y-93586416D01*
X105666666Y-93586416D02*
X105761904Y-93395940D01*
X105761904Y-93395940D02*
X105761904Y-93300702D01*
X105761904Y-93300702D02*
X105666666Y-93110226D01*
X105666666Y-93110226D02*
X105571428Y-93014988D01*
X105571428Y-93014988D02*
X105380952Y-92919750D01*
X105380952Y-92919750D02*
X104999999Y-92919750D01*
X104999999Y-92919750D02*
X104809523Y-93014988D01*
X104809523Y-93014988D02*
X104714285Y-93110226D01*
X104714285Y-93110226D02*
X104619047Y-93300702D01*
X104619047Y-93300702D02*
X104619047Y-93395940D01*
X104619047Y-93395940D02*
X104714285Y-93586416D01*
X104714285Y-93586416D02*
X104809523Y-93681654D01*
X104809523Y-93681654D02*
X104999999Y-93776892D01*
X104999999Y-93776892D02*
X105380952Y-93776892D01*
X105380952Y-93776892D02*
X105571428Y-93872131D01*
X105571428Y-93872131D02*
X105666666Y-93967369D01*
X105666666Y-93967369D02*
X105761904Y-94157845D01*
X105761904Y-94157845D02*
X105761904Y-94538797D01*
X105761904Y-94538797D02*
X105666666Y-94729273D01*
X105666666Y-94729273D02*
X105571428Y-94824512D01*
X105571428Y-94824512D02*
X105380952Y-94919750D01*
X105380952Y-94919750D02*
X104999999Y-94919750D01*
X104999999Y-94919750D02*
X104809523Y-94824512D01*
X104809523Y-94824512D02*
X104714285Y-94729273D01*
X104714285Y-94729273D02*
X104619047Y-94538797D01*
X104619047Y-94538797D02*
X104619047Y-94157845D01*
X104619047Y-94157845D02*
X104714285Y-93967369D01*
X104714285Y-93967369D02*
X104809523Y-93872131D01*
X104809523Y-93872131D02*
X104999999Y-93776892D01*
X103476190Y-93776892D02*
X103666666Y-93681654D01*
X103666666Y-93681654D02*
X103761904Y-93586416D01*
X103761904Y-93586416D02*
X103857142Y-93395940D01*
X103857142Y-93395940D02*
X103857142Y-93300702D01*
X103857142Y-93300702D02*
X103761904Y-93110226D01*
X103761904Y-93110226D02*
X103666666Y-93014988D01*
X103666666Y-93014988D02*
X103476190Y-92919750D01*
X103476190Y-92919750D02*
X103095237Y-92919750D01*
X103095237Y-92919750D02*
X102904761Y-93014988D01*
X102904761Y-93014988D02*
X102809523Y-93110226D01*
X102809523Y-93110226D02*
X102714285Y-93300702D01*
X102714285Y-93300702D02*
X102714285Y-93395940D01*
X102714285Y-93395940D02*
X102809523Y-93586416D01*
X102809523Y-93586416D02*
X102904761Y-93681654D01*
X102904761Y-93681654D02*
X103095237Y-93776892D01*
X103095237Y-93776892D02*
X103476190Y-93776892D01*
X103476190Y-93776892D02*
X103666666Y-93872131D01*
X103666666Y-93872131D02*
X103761904Y-93967369D01*
X103761904Y-93967369D02*
X103857142Y-94157845D01*
X103857142Y-94157845D02*
X103857142Y-94538797D01*
X103857142Y-94538797D02*
X103761904Y-94729273D01*
X103761904Y-94729273D02*
X103666666Y-94824512D01*
X103666666Y-94824512D02*
X103476190Y-94919750D01*
X103476190Y-94919750D02*
X103095237Y-94919750D01*
X103095237Y-94919750D02*
X102904761Y-94824512D01*
X102904761Y-94824512D02*
X102809523Y-94729273D01*
X102809523Y-94729273D02*
X102714285Y-94538797D01*
X102714285Y-94538797D02*
X102714285Y-94157845D01*
X102714285Y-94157845D02*
X102809523Y-93967369D01*
X102809523Y-93967369D02*
X102904761Y-93872131D01*
X102904761Y-93872131D02*
X103095237Y-93776892D01*
X114238095Y-96806304D02*
X113761905Y-98139638D01*
X113761905Y-98139638D02*
X113285714Y-96806304D01*
X112523809Y-98139638D02*
X112523809Y-96139638D01*
X112523809Y-96139638D02*
X112047619Y-96139638D01*
X112047619Y-96139638D02*
X111761904Y-96234876D01*
X111761904Y-96234876D02*
X111571428Y-96425352D01*
X111571428Y-96425352D02*
X111476190Y-96615828D01*
X111476190Y-96615828D02*
X111380952Y-96996780D01*
X111380952Y-96996780D02*
X111380952Y-97282495D01*
X111380952Y-97282495D02*
X111476190Y-97663447D01*
X111476190Y-97663447D02*
X111571428Y-97853923D01*
X111571428Y-97853923D02*
X111761904Y-98044400D01*
X111761904Y-98044400D02*
X112047619Y-98139638D01*
X112047619Y-98139638D02*
X112523809Y-98139638D01*
X110523809Y-97092019D02*
X109857142Y-97092019D01*
X109571428Y-98139638D02*
X110523809Y-98139638D01*
X110523809Y-98139638D02*
X110523809Y-96139638D01*
X110523809Y-96139638D02*
X109571428Y-96139638D01*
X108999999Y-96139638D02*
X108333333Y-98139638D01*
X108333333Y-98139638D02*
X107666666Y-96139638D01*
D12*
%TO.C,L2*%
X127083834Y-109325500D02*
X127070439Y-109441917D01*
X127057043Y-109558333D01*
X127655334Y-109558333D01*
X127655334Y-111336333D01*
X127951667Y-111336333D01*
X127951667Y-109558333D01*
X128502000Y-109558333D01*
X128502000Y-109302286D01*
X127083834Y-109325500D01*
G36*
X128502000Y-109558333D02*
G01*
X127951667Y-109558333D01*
X127951667Y-111336333D01*
X127655334Y-111336333D01*
X127655334Y-109558333D01*
X127057043Y-109558333D01*
X127070439Y-109441917D01*
X127083834Y-109325500D01*
X128502000Y-109302286D01*
X128502000Y-109558333D01*
G37*
X125623334Y-109558333D02*
X126427667Y-109558333D01*
X126427667Y-110151000D01*
X125708000Y-110151000D01*
X125708000Y-110405000D01*
X126427667Y-110405000D01*
X126427667Y-111082333D01*
X125623334Y-111082333D01*
X125623334Y-111336333D01*
X126724000Y-111336333D01*
X126724000Y-109304333D01*
X125623334Y-109304333D01*
X125623334Y-109558333D01*
G36*
X126724000Y-111336333D02*
G01*
X125623334Y-111336333D01*
X125623334Y-111082333D01*
X126427667Y-111082333D01*
X126427667Y-110405000D01*
X125708000Y-110405000D01*
X125708000Y-110151000D01*
X126427667Y-110151000D01*
X126427667Y-109558333D01*
X125623334Y-109558333D01*
X125623334Y-109304333D01*
X126724000Y-109304333D01*
X126724000Y-111336333D01*
G37*
X125274084Y-105671568D02*
X125136500Y-105684833D01*
X125125063Y-106561552D01*
X125113626Y-107438270D01*
X124765230Y-107450552D01*
X124594342Y-107457757D01*
X124491073Y-107468389D01*
X124438411Y-107488214D01*
X124419340Y-107523001D01*
X124416834Y-107568667D01*
X124416834Y-107674500D01*
X124914250Y-107686427D01*
X125411667Y-107698353D01*
X125411667Y-105658302D01*
X125274084Y-105671568D01*
G36*
X125411667Y-107698353D02*
G01*
X124914250Y-107686427D01*
X124416834Y-107674500D01*
X124416834Y-107568667D01*
X124419340Y-107523001D01*
X124438411Y-107488214D01*
X124491073Y-107468389D01*
X124594342Y-107457757D01*
X124765230Y-107450552D01*
X125113626Y-107438270D01*
X125125063Y-106561552D01*
X125136500Y-105684833D01*
X125274084Y-105671568D01*
X125411667Y-105658302D01*
X125411667Y-107698353D01*
G37*
X127507167Y-105684833D02*
X127507167Y-107674500D01*
X127635689Y-107687089D01*
X127736069Y-107687019D01*
X127794439Y-107669451D01*
X127804659Y-107618244D01*
X127812621Y-107497271D01*
X127818374Y-107321401D01*
X127821971Y-107105504D01*
X127823462Y-106864449D01*
X127822900Y-106613105D01*
X127820335Y-106366342D01*
X127815820Y-106139028D01*
X127809405Y-105946032D01*
X127801141Y-105802225D01*
X127791081Y-105722475D01*
X127787675Y-105713193D01*
X127721663Y-105675683D01*
X127629574Y-105670860D01*
X127507167Y-105684833D01*
G36*
X127721663Y-105675683D02*
G01*
X127787675Y-105713193D01*
X127791081Y-105722475D01*
X127801141Y-105802225D01*
X127809405Y-105946032D01*
X127815820Y-106139028D01*
X127820335Y-106366342D01*
X127822900Y-106613105D01*
X127823462Y-106864449D01*
X127821971Y-107105504D01*
X127818374Y-107321401D01*
X127812621Y-107497271D01*
X127804659Y-107618244D01*
X127794439Y-107669451D01*
X127736069Y-107687019D01*
X127635689Y-107687089D01*
X127507167Y-107674500D01*
X127507167Y-105684833D01*
X127629574Y-105670860D01*
X127721663Y-105675683D01*
G37*
X135698362Y-105670135D02*
X135494411Y-105673241D01*
X134788500Y-105684833D01*
X134788500Y-105790667D01*
X134794359Y-105848056D01*
X134824616Y-105882119D01*
X134898293Y-105901635D01*
X135034413Y-105915384D01*
X135063667Y-105917667D01*
X135338834Y-105938833D01*
X135361718Y-107695667D01*
X135656334Y-107695667D01*
X135656334Y-105917667D01*
X135929002Y-105917667D01*
X136100577Y-105910845D01*
X136200038Y-105885885D01*
X136239168Y-105836046D01*
X136229750Y-105754586D01*
X136227393Y-105746945D01*
X136213461Y-105715649D01*
X136186392Y-105693416D01*
X136133766Y-105678997D01*
X136043165Y-105671143D01*
X135902170Y-105668605D01*
X135698362Y-105670135D01*
G36*
X136043165Y-105671143D02*
G01*
X136133766Y-105678997D01*
X136186392Y-105693416D01*
X136213461Y-105715649D01*
X136227393Y-105746945D01*
X136229750Y-105754586D01*
X136239168Y-105836046D01*
X136200038Y-105885885D01*
X136100577Y-105910845D01*
X135929002Y-105917667D01*
X135656334Y-105917667D01*
X135656334Y-107695667D01*
X135361718Y-107695667D01*
X135338834Y-105938833D01*
X135063667Y-105917667D01*
X135034413Y-105915384D01*
X134898293Y-105901635D01*
X134824616Y-105882119D01*
X134794359Y-105848056D01*
X134788500Y-105790667D01*
X134788500Y-105684833D01*
X135494411Y-105673241D01*
X135698362Y-105670135D01*
X135902170Y-105668605D01*
X136043165Y-105671143D01*
G37*
X130306644Y-109316540D02*
X130262503Y-109340730D01*
X130273742Y-109388625D01*
X130319353Y-109497356D01*
X130393084Y-109653473D01*
X130488683Y-109843527D01*
X130556338Y-109972776D01*
X130872667Y-110568425D01*
X130872667Y-111336333D01*
X131169000Y-111336333D01*
X131169000Y-110573586D01*
X131486500Y-109984414D01*
X131595022Y-109780129D01*
X131687585Y-109600343D01*
X131757282Y-109458917D01*
X131797206Y-109369712D01*
X131804000Y-109347232D01*
X131765935Y-109316534D01*
X131663128Y-109311521D01*
X131652464Y-109312361D01*
X131588080Y-109322634D01*
X131531972Y-109348126D01*
X131476336Y-109399346D01*
X131413373Y-109486804D01*
X131335280Y-109621008D01*
X131234255Y-109812468D01*
X131131743Y-110013804D01*
X131018995Y-110236777D01*
X130765914Y-109770795D01*
X130657814Y-109575057D01*
X130578599Y-109442720D01*
X130518773Y-109361720D01*
X130468837Y-109319990D01*
X130419295Y-109305467D01*
X130398916Y-109304573D01*
X130306644Y-109316540D01*
G36*
X130419295Y-109305467D02*
G01*
X130468837Y-109319990D01*
X130518773Y-109361720D01*
X130578599Y-109442720D01*
X130657814Y-109575057D01*
X130765914Y-109770795D01*
X131018995Y-110236777D01*
X131131743Y-110013804D01*
X131234255Y-109812468D01*
X131335280Y-109621008D01*
X131413373Y-109486804D01*
X131476336Y-109399346D01*
X131531972Y-109348126D01*
X131588080Y-109322634D01*
X131652464Y-109312361D01*
X131663128Y-109311521D01*
X131765935Y-109316534D01*
X131804000Y-109347232D01*
X131797206Y-109369712D01*
X131757282Y-109458917D01*
X131687585Y-109600343D01*
X131595022Y-109780129D01*
X131486500Y-109984414D01*
X131169000Y-110573586D01*
X131169000Y-111336333D01*
X130872667Y-111336333D01*
X130872667Y-110568425D01*
X130556338Y-109972776D01*
X130488683Y-109843527D01*
X130393084Y-109653473D01*
X130319353Y-109497356D01*
X130273742Y-109388625D01*
X130262503Y-109340730D01*
X130306644Y-109316540D01*
X130398916Y-109304573D01*
X130419295Y-109305467D01*
G37*
X130538832Y-105670983D02*
X130491768Y-105698770D01*
X130433513Y-105755790D01*
X130356883Y-105850800D01*
X130254699Y-105992560D01*
X130119777Y-106189830D01*
X129983165Y-106393917D01*
X129496834Y-107124167D01*
X129454500Y-105684833D01*
X129200500Y-105684833D01*
X129189151Y-106690250D01*
X129177801Y-107695667D01*
X129321311Y-107695667D01*
X129372250Y-107692857D01*
X129418262Y-107678288D01*
X129467317Y-107642749D01*
X129527388Y-107577032D01*
X129606446Y-107471925D01*
X129712464Y-107318219D01*
X129853412Y-107106705D01*
X129925327Y-106997835D01*
X130385834Y-106300003D01*
X130407000Y-106987251D01*
X130428167Y-107674500D01*
X130560347Y-107687362D01*
X130671608Y-107678866D01*
X130719097Y-107630983D01*
X130727744Y-107566499D01*
X130734658Y-107433108D01*
X130739830Y-107246539D01*
X130743255Y-107022524D01*
X130744923Y-106776790D01*
X130744829Y-106525069D01*
X130742965Y-106283088D01*
X130739323Y-106066580D01*
X130733897Y-105891272D01*
X130726679Y-105772894D01*
X130719971Y-105730629D01*
X130661487Y-105679439D01*
X130581886Y-105663667D01*
X130538832Y-105670983D01*
G36*
X130661487Y-105679439D02*
G01*
X130719971Y-105730629D01*
X130726679Y-105772894D01*
X130733897Y-105891272D01*
X130739323Y-106066580D01*
X130742965Y-106283088D01*
X130744829Y-106525069D01*
X130744923Y-106776790D01*
X130743255Y-107022524D01*
X130739830Y-107246539D01*
X130734658Y-107433108D01*
X130727744Y-107566499D01*
X130719097Y-107630983D01*
X130671608Y-107678866D01*
X130560347Y-107687362D01*
X130428167Y-107674500D01*
X130407000Y-106987251D01*
X130385834Y-106300003D01*
X129925327Y-106997835D01*
X129853412Y-107106705D01*
X129712464Y-107318219D01*
X129606446Y-107471925D01*
X129527388Y-107577032D01*
X129467317Y-107642749D01*
X129418262Y-107678288D01*
X129372250Y-107692857D01*
X129321311Y-107695667D01*
X129177801Y-107695667D01*
X129189151Y-106690250D01*
X129200500Y-105684833D01*
X129454500Y-105684833D01*
X129496834Y-107124167D01*
X129983165Y-106393917D01*
X130119777Y-106189830D01*
X130254699Y-105992560D01*
X130356883Y-105850800D01*
X130433513Y-105755790D01*
X130491768Y-105698770D01*
X130538832Y-105670983D01*
X130581886Y-105663667D01*
X130661487Y-105679439D01*
G37*
X120804957Y-105678551D02*
X120749659Y-105713193D01*
X120739107Y-105770681D01*
X120729792Y-105899581D01*
X120722204Y-106086642D01*
X120716833Y-106318615D01*
X120714167Y-106582247D01*
X120713964Y-106679667D01*
X120715565Y-106951258D01*
X120720044Y-107195833D01*
X120726911Y-107400141D01*
X120735676Y-107550931D01*
X120745851Y-107634951D01*
X120749659Y-107646140D01*
X120815671Y-107683650D01*
X120907761Y-107688473D01*
X120955564Y-107675742D01*
X121006866Y-107642542D01*
X121069215Y-107579727D01*
X121150159Y-107478153D01*
X121257245Y-107328676D01*
X121398023Y-107122150D01*
X121495834Y-106976000D01*
X121961500Y-106277500D01*
X121973107Y-106986583D01*
X121984714Y-107695667D01*
X122280533Y-107695667D01*
X122269183Y-106690250D01*
X122257834Y-105684833D01*
X122145579Y-105671840D01*
X122104111Y-105672682D01*
X122061355Y-105691071D01*
X122009991Y-105735780D01*
X121942698Y-105815581D01*
X121852158Y-105939244D01*
X121731049Y-106115542D01*
X121572052Y-106353246D01*
X121552913Y-106382047D01*
X121072500Y-107105249D01*
X121051334Y-106395041D01*
X121030167Y-105684833D01*
X120907761Y-105670860D01*
X120804957Y-105678551D01*
G36*
X121030167Y-105684833D02*
G01*
X121051334Y-106395041D01*
X121072500Y-107105249D01*
X121552913Y-106382047D01*
X121572052Y-106353246D01*
X121731049Y-106115542D01*
X121852158Y-105939244D01*
X121942698Y-105815581D01*
X122009991Y-105735780D01*
X122061355Y-105691071D01*
X122104111Y-105672682D01*
X122145579Y-105671840D01*
X122257834Y-105684833D01*
X122269183Y-106690250D01*
X122280533Y-107695667D01*
X121984714Y-107695667D01*
X121973107Y-106986583D01*
X121961500Y-106277500D01*
X121495834Y-106976000D01*
X121398023Y-107122150D01*
X121257245Y-107328676D01*
X121150159Y-107478153D01*
X121069215Y-107579727D01*
X121006866Y-107642542D01*
X120955564Y-107675742D01*
X120907761Y-107688473D01*
X120815671Y-107683650D01*
X120749659Y-107646140D01*
X120745851Y-107634951D01*
X120735676Y-107550931D01*
X120726911Y-107400141D01*
X120720044Y-107195833D01*
X120715565Y-106951258D01*
X120713964Y-106679667D01*
X120714167Y-106582247D01*
X120716833Y-106318615D01*
X120722204Y-106086642D01*
X120729792Y-105899581D01*
X120739107Y-105770681D01*
X120749659Y-105713193D01*
X120804957Y-105678551D01*
X120907761Y-105670860D01*
X121030167Y-105684833D01*
G37*
X119548681Y-105675113D02*
X119284244Y-105717817D01*
X119092430Y-105799556D01*
X119002745Y-105877613D01*
X118908001Y-106045535D01*
X118844531Y-106280429D01*
X118814733Y-106569675D01*
X118817761Y-106850394D01*
X118842474Y-107100514D01*
X118889121Y-107288818D01*
X118965688Y-107437004D01*
X119080164Y-107566764D01*
X119082195Y-107568667D01*
X119135135Y-107613161D01*
X119192995Y-107643777D01*
X119272885Y-107663745D01*
X119391918Y-107676297D01*
X119567205Y-107684662D01*
X119721994Y-107689458D01*
X120248554Y-107704415D01*
X120236947Y-106672611D01*
X119950667Y-106672611D01*
X119948866Y-106910495D01*
X119943879Y-107118584D01*
X119936332Y-107282221D01*
X119926849Y-107386747D01*
X119918917Y-107417458D01*
X119850372Y-107439558D01*
X119728367Y-107442181D01*
X119580973Y-107428681D01*
X119436262Y-107402409D01*
X119322304Y-107366717D01*
X119279113Y-107341063D01*
X119201232Y-107224027D01*
X119145040Y-107044634D01*
X119114732Y-106823365D01*
X119114502Y-106580703D01*
X119116880Y-106548900D01*
X119147580Y-106311546D01*
X119200609Y-106146167D01*
X119287113Y-106040816D01*
X119418236Y-105983544D01*
X119605123Y-105962403D01*
X119664917Y-105961346D01*
X119950667Y-105960000D01*
X119950667Y-106672611D01*
X120236947Y-106672611D01*
X120225834Y-105684833D01*
X119887167Y-105671109D01*
X119548681Y-105675113D01*
G36*
X120248554Y-107704415D02*
G01*
X119721994Y-107689458D01*
X119567205Y-107684662D01*
X119391918Y-107676297D01*
X119272885Y-107663745D01*
X119192995Y-107643777D01*
X119135135Y-107613161D01*
X119082195Y-107568667D01*
X119080164Y-107566764D01*
X118965688Y-107437004D01*
X118889121Y-107288818D01*
X118842474Y-107100514D01*
X118817761Y-106850394D01*
X118814852Y-106580703D01*
X119114502Y-106580703D01*
X119114732Y-106823365D01*
X119145040Y-107044634D01*
X119201232Y-107224027D01*
X119279113Y-107341063D01*
X119322304Y-107366717D01*
X119436262Y-107402409D01*
X119580973Y-107428681D01*
X119728367Y-107442181D01*
X119850372Y-107439558D01*
X119918917Y-107417458D01*
X119926849Y-107386747D01*
X119936332Y-107282221D01*
X119943879Y-107118584D01*
X119948866Y-106910495D01*
X119950667Y-106672611D01*
X119950667Y-105960000D01*
X119664917Y-105961346D01*
X119605123Y-105962403D01*
X119418236Y-105983544D01*
X119287113Y-106040816D01*
X119200609Y-106146167D01*
X119147580Y-106311546D01*
X119116880Y-106548900D01*
X119114502Y-106580703D01*
X118814852Y-106580703D01*
X118814733Y-106569675D01*
X118844531Y-106280429D01*
X118908001Y-106045535D01*
X119002745Y-105877613D01*
X119092430Y-105799556D01*
X119284244Y-105717817D01*
X119548681Y-105675113D01*
X119887167Y-105671109D01*
X120225834Y-105684833D01*
X120236947Y-106672611D01*
X120248554Y-107704415D01*
G37*
X134174667Y-106448892D02*
X134165509Y-106733863D01*
X134155134Y-106946886D01*
X134142165Y-107100677D01*
X134125224Y-107207954D01*
X134102933Y-107281436D01*
X134079738Y-107325331D01*
X133970108Y-107422116D01*
X133816231Y-107473432D01*
X133645273Y-107479281D01*
X133484402Y-107439665D01*
X133360785Y-107354587D01*
X133338263Y-107325271D01*
X133310565Y-107269958D01*
X133289345Y-107191257D01*
X133273225Y-107076448D01*
X133260827Y-106912812D01*
X133250774Y-106687631D01*
X133243334Y-106448833D01*
X133222167Y-105684833D01*
X132968167Y-105684833D01*
X132956503Y-106379367D01*
X132955590Y-106729440D01*
X132967324Y-107006742D01*
X132993756Y-107222505D01*
X133036938Y-107387959D01*
X133098922Y-107514334D01*
X133181760Y-107612861D01*
X133181864Y-107612960D01*
X133246200Y-107664594D01*
X133319861Y-107696826D01*
X133425282Y-107715002D01*
X133584898Y-107724469D01*
X133659439Y-107726761D01*
X133837954Y-107727034D01*
X133992413Y-107719085D01*
X134096851Y-107704519D01*
X134115904Y-107698538D01*
X134239500Y-107607965D01*
X134349468Y-107459928D01*
X134426100Y-107281414D01*
X134429557Y-107269028D01*
X134443796Y-107171164D01*
X134454545Y-107006646D01*
X134461147Y-106793437D01*
X134462946Y-106549503D01*
X134461451Y-106396138D01*
X134449834Y-105684833D01*
X134195834Y-105684833D01*
X134174667Y-106448892D01*
G36*
X133243334Y-106448833D02*
G01*
X133250774Y-106687631D01*
X133260827Y-106912812D01*
X133273225Y-107076448D01*
X133289345Y-107191257D01*
X133310565Y-107269958D01*
X133338263Y-107325271D01*
X133360785Y-107354587D01*
X133484402Y-107439665D01*
X133645273Y-107479281D01*
X133816231Y-107473432D01*
X133970108Y-107422116D01*
X134079738Y-107325331D01*
X134102933Y-107281436D01*
X134125224Y-107207954D01*
X134142165Y-107100677D01*
X134155134Y-106946886D01*
X134165509Y-106733863D01*
X134174667Y-106448892D01*
X134195834Y-105684833D01*
X134449834Y-105684833D01*
X134461451Y-106396138D01*
X134462946Y-106549503D01*
X134461147Y-106793437D01*
X134454545Y-107006646D01*
X134443796Y-107171164D01*
X134429557Y-107269028D01*
X134426100Y-107281414D01*
X134349468Y-107459928D01*
X134239500Y-107607965D01*
X134115904Y-107698538D01*
X134096851Y-107704519D01*
X133992413Y-107719085D01*
X133837954Y-107727034D01*
X133659439Y-107726761D01*
X133584898Y-107724469D01*
X133425282Y-107715002D01*
X133319861Y-107696826D01*
X133246200Y-107664594D01*
X133181864Y-107612960D01*
X133181760Y-107612861D01*
X133098922Y-107514334D01*
X133036938Y-107387959D01*
X132993756Y-107222505D01*
X132967324Y-107006742D01*
X132955590Y-106729440D01*
X132956503Y-106379367D01*
X132968167Y-105684833D01*
X133222167Y-105684833D01*
X133243334Y-106448833D01*
G37*
X128840667Y-109555156D02*
X129232250Y-109567328D01*
X129623834Y-109579500D01*
X129648954Y-110010410D01*
X129312186Y-110164351D01*
X129092754Y-110274709D01*
X128943601Y-110378695D01*
X128852803Y-110490226D01*
X128808439Y-110623220D01*
X128798334Y-110764225D01*
X128811859Y-110985905D01*
X128857240Y-111141892D01*
X128941684Y-111247495D01*
X129056141Y-111311750D01*
X129220979Y-111352842D01*
X129432990Y-111371482D01*
X129657355Y-111366341D01*
X129835500Y-111341492D01*
X129928902Y-111305239D01*
X129961232Y-111236644D01*
X129962500Y-111208917D01*
X129959007Y-111158785D01*
X129937643Y-111127081D01*
X129882086Y-111108729D01*
X129776010Y-111098654D01*
X129603092Y-111091781D01*
X129583705Y-111091146D01*
X129407733Y-111080537D01*
X129260959Y-111062740D01*
X129166334Y-111040901D01*
X129147750Y-111031354D01*
X129109263Y-110949133D01*
X129102621Y-110799490D01*
X129103212Y-110789708D01*
X129115834Y-110595500D01*
X129472400Y-110413669D01*
X129634832Y-110326304D01*
X129771556Y-110244439D01*
X129862270Y-110180607D01*
X129883804Y-110159669D01*
X129914528Y-110075882D01*
X129934468Y-109932960D01*
X129939987Y-109799826D01*
X129936643Y-109637966D01*
X129920049Y-109533662D01*
X129883162Y-109460030D01*
X129837425Y-109408242D01*
X129785062Y-109361635D01*
X129727454Y-109331512D01*
X129645706Y-109314305D01*
X129520924Y-109306446D01*
X129334216Y-109304369D01*
X129287091Y-109304333D01*
X128840667Y-109304333D01*
X128840667Y-109555156D01*
G36*
X129334216Y-109304369D02*
G01*
X129520924Y-109306446D01*
X129645706Y-109314305D01*
X129727454Y-109331512D01*
X129785062Y-109361635D01*
X129837425Y-109408242D01*
X129883162Y-109460030D01*
X129920049Y-109533662D01*
X129936643Y-109637966D01*
X129939987Y-109799826D01*
X129934468Y-109932960D01*
X129914528Y-110075882D01*
X129883804Y-110159669D01*
X129862270Y-110180607D01*
X129771556Y-110244439D01*
X129634832Y-110326304D01*
X129472400Y-110413669D01*
X129115834Y-110595500D01*
X129103212Y-110789708D01*
X129102621Y-110799490D01*
X129109263Y-110949133D01*
X129147750Y-111031354D01*
X129166334Y-111040901D01*
X129260959Y-111062740D01*
X129407733Y-111080537D01*
X129583705Y-111091146D01*
X129603092Y-111091781D01*
X129776010Y-111098654D01*
X129882086Y-111108729D01*
X129937643Y-111127081D01*
X129959007Y-111158785D01*
X129962500Y-111208917D01*
X129961232Y-111236644D01*
X129928902Y-111305239D01*
X129835500Y-111341492D01*
X129657355Y-111366341D01*
X129432990Y-111371482D01*
X129220979Y-111352842D01*
X129056141Y-111311750D01*
X128941684Y-111247495D01*
X128857240Y-111141892D01*
X128811859Y-110985905D01*
X128798334Y-110764225D01*
X128808439Y-110623220D01*
X128852803Y-110490226D01*
X128943601Y-110378695D01*
X129092754Y-110274709D01*
X129312186Y-110164351D01*
X129648954Y-110010410D01*
X129623834Y-109579500D01*
X129232250Y-109567328D01*
X128840667Y-109555156D01*
X128840667Y-109304333D01*
X129287091Y-109304333D01*
X129334216Y-109304369D01*
G37*
X126319384Y-105672483D02*
X126139666Y-105679198D01*
X126027657Y-105688746D01*
X125966444Y-105706681D01*
X125939115Y-105738562D01*
X125928755Y-105789944D01*
X125927439Y-105801250D01*
X125914043Y-105917667D01*
X126252060Y-105917667D01*
X126457127Y-105919844D01*
X126592149Y-105931626D01*
X126671733Y-105960888D01*
X126710482Y-106015502D01*
X126723002Y-106103343D01*
X126724000Y-106172112D01*
X126724000Y-106375165D01*
X126381881Y-106535712D01*
X126169758Y-106642765D01*
X126025752Y-106739148D01*
X125937385Y-106840131D01*
X125892179Y-106960984D01*
X125877655Y-107116978D01*
X125877334Y-107153144D01*
X125896013Y-107383325D01*
X125955294Y-107545952D01*
X126060045Y-107650226D01*
X126163152Y-107693459D01*
X126311988Y-107718265D01*
X126511158Y-107729775D01*
X126727286Y-107727396D01*
X126926996Y-107710535D01*
X126948768Y-107707436D01*
X127033775Y-107681487D01*
X127057581Y-107621467D01*
X127054601Y-107576195D01*
X127041500Y-107462833D01*
X126648396Y-107462833D01*
X126440634Y-107459228D01*
X126303709Y-107442157D01*
X126223890Y-107402235D01*
X126187445Y-107330079D01*
X126180642Y-107216305D01*
X126183805Y-107145333D01*
X126194834Y-106954833D01*
X126554191Y-106776344D01*
X126717442Y-106690507D01*
X126854584Y-106609655D01*
X126945352Y-106546138D01*
X126966941Y-106524836D01*
X126997904Y-106436825D01*
X127015372Y-106295712D01*
X127018669Y-106132086D01*
X127007119Y-105976535D01*
X126981562Y-105863533D01*
X126919406Y-105771949D01*
X126808325Y-105711204D01*
X126638243Y-105678393D01*
X126399083Y-105670607D01*
X126319384Y-105672483D01*
G36*
X126638243Y-105678393D02*
G01*
X126808325Y-105711204D01*
X126919406Y-105771949D01*
X126981562Y-105863533D01*
X127007119Y-105976535D01*
X127018669Y-106132086D01*
X127015372Y-106295712D01*
X126997904Y-106436825D01*
X126966941Y-106524836D01*
X126945352Y-106546138D01*
X126854584Y-106609655D01*
X126717442Y-106690507D01*
X126554191Y-106776344D01*
X126194834Y-106954833D01*
X126183805Y-107145333D01*
X126180642Y-107216305D01*
X126187445Y-107330079D01*
X126223890Y-107402235D01*
X126303709Y-107442157D01*
X126440634Y-107459228D01*
X126648396Y-107462833D01*
X127041500Y-107462833D01*
X127054601Y-107576195D01*
X127057581Y-107621467D01*
X127033775Y-107681487D01*
X126948768Y-107707436D01*
X126926996Y-107710535D01*
X126727286Y-107727396D01*
X126511158Y-107729775D01*
X126311988Y-107718265D01*
X126163152Y-107693459D01*
X126060045Y-107650226D01*
X125955294Y-107545952D01*
X125896013Y-107383325D01*
X125877334Y-107153144D01*
X125877655Y-107116978D01*
X125892179Y-106960984D01*
X125937385Y-106840131D01*
X126025752Y-106739148D01*
X126169758Y-106642765D01*
X126381881Y-106535712D01*
X126724000Y-106375165D01*
X126724000Y-106172112D01*
X126723002Y-106103343D01*
X126710482Y-106015502D01*
X126671733Y-105960888D01*
X126592149Y-105931626D01*
X126457127Y-105919844D01*
X126252060Y-105917667D01*
X125914043Y-105917667D01*
X125927439Y-105801250D01*
X125928755Y-105789944D01*
X125939115Y-105738562D01*
X125966444Y-105706681D01*
X126027657Y-105688746D01*
X126139666Y-105679198D01*
X126319384Y-105672483D01*
X126399083Y-105670607D01*
X126638243Y-105678393D01*
G37*
X132142667Y-109558333D02*
X132497317Y-109558333D01*
X132701279Y-109563891D01*
X132834223Y-109586213D01*
X132909390Y-109633776D01*
X132940022Y-109715054D01*
X132939361Y-109838524D01*
X132939149Y-109841129D01*
X132929452Y-109918068D01*
X132905485Y-109975356D01*
X132852385Y-110026559D01*
X132755288Y-110085246D01*
X132599330Y-110164986D01*
X132566476Y-110181322D01*
X132403226Y-110267159D01*
X132266084Y-110348011D01*
X132175316Y-110411529D01*
X132153726Y-110432830D01*
X132124831Y-110515081D01*
X132105808Y-110655070D01*
X132100334Y-110795580D01*
X132114663Y-111017222D01*
X132162502Y-111171907D01*
X132251132Y-111273178D01*
X132387832Y-111334580D01*
X132390436Y-111335309D01*
X132554549Y-111362525D01*
X132762573Y-111372205D01*
X132975523Y-111364028D01*
X133137500Y-111341492D01*
X133230902Y-111305239D01*
X133263232Y-111236644D01*
X133264500Y-111208917D01*
X133261300Y-111160933D01*
X133241415Y-111129333D01*
X133189416Y-111109504D01*
X133089875Y-111096834D01*
X132927365Y-111086709D01*
X132841167Y-111082333D01*
X132417834Y-111061167D01*
X132404797Y-110856794D01*
X132407285Y-110715732D01*
X132430490Y-110612276D01*
X132443228Y-110590406D01*
X132504857Y-110543698D01*
X132621175Y-110476447D01*
X132769179Y-110401753D01*
X132799114Y-110387740D01*
X132999262Y-110284950D01*
X133130478Y-110186347D01*
X133205902Y-110075318D01*
X133238673Y-109935250D01*
X133243334Y-109826072D01*
X133232283Y-109631444D01*
X133191782Y-109490834D01*
X133110809Y-109396032D01*
X132978343Y-109338830D01*
X132783363Y-109311019D01*
X132542842Y-109304333D01*
X132142667Y-109304333D01*
X132142667Y-109558333D01*
G36*
X132783363Y-109311019D02*
G01*
X132978343Y-109338830D01*
X133110809Y-109396032D01*
X133191782Y-109490834D01*
X133232283Y-109631444D01*
X133243334Y-109826072D01*
X133238673Y-109935250D01*
X133205902Y-110075318D01*
X133130478Y-110186347D01*
X132999262Y-110284950D01*
X132799114Y-110387740D01*
X132769179Y-110401753D01*
X132621175Y-110476447D01*
X132504857Y-110543698D01*
X132443228Y-110590406D01*
X132430490Y-110612276D01*
X132407285Y-110715732D01*
X132404797Y-110856794D01*
X132417834Y-111061167D01*
X132841167Y-111082333D01*
X132927365Y-111086709D01*
X133089875Y-111096834D01*
X133189416Y-111109504D01*
X133241415Y-111129333D01*
X133261300Y-111160933D01*
X133264500Y-111208917D01*
X133263232Y-111236644D01*
X133230902Y-111305239D01*
X133137500Y-111341492D01*
X132975523Y-111364028D01*
X132762573Y-111372205D01*
X132554549Y-111362525D01*
X132390436Y-111335309D01*
X132387832Y-111334580D01*
X132251132Y-111273178D01*
X132162502Y-111171907D01*
X132114663Y-111017222D01*
X132100334Y-110795580D01*
X132105808Y-110655070D01*
X132124831Y-110515081D01*
X132153726Y-110432830D01*
X132175316Y-110411529D01*
X132266084Y-110348011D01*
X132403226Y-110267159D01*
X132566476Y-110181322D01*
X132599330Y-110164986D01*
X132755288Y-110085246D01*
X132852385Y-110026559D01*
X132905485Y-109975356D01*
X132929452Y-109918068D01*
X132939149Y-109841129D01*
X132939361Y-109838524D01*
X132940022Y-109715054D01*
X132909390Y-109633776D01*
X132834223Y-109586213D01*
X132701279Y-109563891D01*
X132497317Y-109558333D01*
X132142667Y-109558333D01*
X132142667Y-109304333D01*
X132542842Y-109304333D01*
X132783363Y-109311019D01*
G37*
X122166599Y-109312676D02*
X122137387Y-109313480D01*
X121943529Y-109319597D01*
X121818978Y-109327687D01*
X121748402Y-109341952D01*
X121716472Y-109366595D01*
X121707856Y-109405820D01*
X121707500Y-109431333D01*
X121711205Y-109481674D01*
X121733164Y-109514017D01*
X121789647Y-109533799D01*
X121896924Y-109546454D01*
X122071266Y-109557419D01*
X122087647Y-109558333D01*
X122268755Y-109569778D01*
X122383292Y-109583343D01*
X122449277Y-109604694D01*
X122484731Y-109639493D01*
X122506478Y-109689972D01*
X122535572Y-109817662D01*
X122516517Y-109921934D01*
X122440427Y-110014699D01*
X122298415Y-110107870D01*
X122133744Y-110189608D01*
X121943030Y-110286392D01*
X121803424Y-110375214D01*
X121729017Y-110447015D01*
X121726492Y-110451398D01*
X121696521Y-110557946D01*
X121681799Y-110715114D01*
X121682144Y-110890274D01*
X121697372Y-111050798D01*
X121727303Y-111164058D01*
X121730516Y-111170454D01*
X121826538Y-111265422D01*
X121990023Y-111332464D01*
X122207704Y-111369179D01*
X122466316Y-111373164D01*
X122712917Y-111348345D01*
X122798191Y-111319680D01*
X122827609Y-111250456D01*
X122829334Y-111208054D01*
X122829334Y-111085399D01*
X122009740Y-111061167D01*
X121974922Y-110934167D01*
X121947988Y-110788786D01*
X121965002Y-110675905D01*
X122035819Y-110581164D01*
X122170295Y-110490202D01*
X122336132Y-110407830D01*
X122498933Y-110327766D01*
X122636579Y-110250671D01*
X122727013Y-110189256D01*
X122744667Y-110172366D01*
X122786793Y-110071514D01*
X122806428Y-109895399D01*
X122808167Y-109802161D01*
X122805142Y-109643067D01*
X122790797Y-109542501D01*
X122757224Y-109474397D01*
X122696516Y-109412687D01*
X122687720Y-109405065D01*
X122627273Y-109358031D01*
X122564989Y-109328612D01*
X122480816Y-109313471D01*
X122354703Y-109309272D01*
X122166599Y-109312676D01*
G36*
X122480816Y-109313471D02*
G01*
X122564989Y-109328612D01*
X122627273Y-109358031D01*
X122687720Y-109405065D01*
X122696516Y-109412687D01*
X122757224Y-109474397D01*
X122790797Y-109542501D01*
X122805142Y-109643067D01*
X122808167Y-109802161D01*
X122806428Y-109895399D01*
X122786793Y-110071514D01*
X122744667Y-110172366D01*
X122727013Y-110189256D01*
X122636579Y-110250671D01*
X122498933Y-110327766D01*
X122336132Y-110407830D01*
X122170295Y-110490202D01*
X122035819Y-110581164D01*
X121965002Y-110675905D01*
X121947988Y-110788786D01*
X121974922Y-110934167D01*
X122009740Y-111061167D01*
X122829334Y-111085399D01*
X122829334Y-111208054D01*
X122827609Y-111250456D01*
X122798191Y-111319680D01*
X122712917Y-111348345D01*
X122466316Y-111373164D01*
X122207704Y-111369179D01*
X121990023Y-111332464D01*
X121826538Y-111265422D01*
X121730516Y-111170454D01*
X121727303Y-111164058D01*
X121697372Y-111050798D01*
X121682144Y-110890274D01*
X121681799Y-110715114D01*
X121696521Y-110557946D01*
X121726492Y-110451398D01*
X121729017Y-110447015D01*
X121803424Y-110375214D01*
X121943030Y-110286392D01*
X122133744Y-110189608D01*
X122298415Y-110107870D01*
X122440427Y-110014699D01*
X122516517Y-109921934D01*
X122535572Y-109817662D01*
X122506478Y-109689972D01*
X122484731Y-109639493D01*
X122449277Y-109604694D01*
X122383292Y-109583343D01*
X122268755Y-109569778D01*
X122087647Y-109558333D01*
X122071266Y-109557419D01*
X121896924Y-109546454D01*
X121789647Y-109533799D01*
X121733164Y-109514017D01*
X121711205Y-109481674D01*
X121707500Y-109431333D01*
X121707856Y-109405820D01*
X121716472Y-109366595D01*
X121748402Y-109341952D01*
X121818978Y-109327687D01*
X121943529Y-109319597D01*
X122137387Y-109313480D01*
X122166599Y-109312676D01*
X122354703Y-109309272D01*
X122480816Y-109313471D01*
G37*
X123427250Y-105672015D02*
X123273939Y-105684833D01*
X123117028Y-106129333D01*
X123035541Y-106360897D01*
X122940118Y-106633178D01*
X122844514Y-106906882D01*
X122784680Y-107078764D01*
X122715989Y-107275996D01*
X122656114Y-107447048D01*
X122611203Y-107574412D01*
X122587405Y-107640582D01*
X122586650Y-107642572D01*
X122591255Y-107680407D01*
X122655349Y-107691619D01*
X122723932Y-107687975D01*
X122805778Y-107677773D01*
X122860857Y-107652404D01*
X122903731Y-107594413D01*
X122948958Y-107486347D01*
X122991206Y-107367583D01*
X123098604Y-107060667D01*
X123784215Y-107060667D01*
X123884879Y-107378167D01*
X123936757Y-107536815D01*
X123976375Y-107631225D01*
X124016447Y-107678061D01*
X124069685Y-107693985D01*
X124127105Y-107695667D01*
X124222454Y-107691384D01*
X124268015Y-107680918D01*
X124268667Y-107679352D01*
X124255731Y-107636191D01*
X124219960Y-107526403D01*
X124165914Y-107363476D01*
X124098153Y-107160895D01*
X124021234Y-106932148D01*
X123971066Y-106783566D01*
X123676000Y-106783566D01*
X123637704Y-106796220D01*
X123538919Y-106804610D01*
X123443167Y-106806667D01*
X123315645Y-106800925D01*
X123231075Y-106786114D01*
X123210334Y-106771748D01*
X123223219Y-106716522D01*
X123256422Y-106607614D01*
X123301762Y-106469126D01*
X123351061Y-106325160D01*
X123396139Y-106199818D01*
X123428817Y-106117201D01*
X123438859Y-106098363D01*
X123456842Y-106128581D01*
X123492707Y-106217737D01*
X123538905Y-106344014D01*
X123587883Y-106485592D01*
X123632092Y-106620655D01*
X123663980Y-106727384D01*
X123676000Y-106783566D01*
X123971066Y-106783566D01*
X123939717Y-106690722D01*
X123858162Y-106450102D01*
X123781126Y-106223775D01*
X123713170Y-106025229D01*
X123658851Y-105867948D01*
X123622730Y-105765421D01*
X123611574Y-105735515D01*
X123564863Y-105682903D01*
X123469703Y-105669534D01*
X123427250Y-105672015D01*
G36*
X124021234Y-106932148D02*
G01*
X124098153Y-107160895D01*
X124165914Y-107363476D01*
X124219960Y-107526403D01*
X124255731Y-107636191D01*
X124268667Y-107679352D01*
X124268015Y-107680918D01*
X124222454Y-107691384D01*
X124127105Y-107695667D01*
X124069685Y-107693985D01*
X124016447Y-107678061D01*
X123976375Y-107631225D01*
X123936757Y-107536815D01*
X123884879Y-107378167D01*
X123784215Y-107060667D01*
X123098604Y-107060667D01*
X122991206Y-107367583D01*
X122948958Y-107486347D01*
X122903731Y-107594413D01*
X122860857Y-107652404D01*
X122805778Y-107677773D01*
X122723932Y-107687975D01*
X122655349Y-107691619D01*
X122591255Y-107680407D01*
X122586650Y-107642572D01*
X122587405Y-107640582D01*
X122611203Y-107574412D01*
X122656114Y-107447048D01*
X122715989Y-107275996D01*
X122784680Y-107078764D01*
X122844514Y-106906882D01*
X122891716Y-106771748D01*
X123210334Y-106771748D01*
X123231075Y-106786114D01*
X123315645Y-106800925D01*
X123443167Y-106806667D01*
X123538919Y-106804610D01*
X123637704Y-106796220D01*
X123676000Y-106783566D01*
X123663980Y-106727384D01*
X123632092Y-106620655D01*
X123587883Y-106485592D01*
X123538905Y-106344014D01*
X123492707Y-106217737D01*
X123456842Y-106128581D01*
X123438859Y-106098363D01*
X123428817Y-106117201D01*
X123396139Y-106199818D01*
X123351061Y-106325160D01*
X123301762Y-106469126D01*
X123256422Y-106607614D01*
X123223219Y-106716522D01*
X123210334Y-106771748D01*
X122891716Y-106771748D01*
X122940118Y-106633178D01*
X123035541Y-106360897D01*
X123117028Y-106129333D01*
X123273939Y-105684833D01*
X123427250Y-105672015D01*
X123469703Y-105669534D01*
X123564863Y-105682903D01*
X123611574Y-105735515D01*
X123622730Y-105765421D01*
X123658851Y-105867948D01*
X123713170Y-106025229D01*
X123781126Y-106223775D01*
X123858162Y-106450102D01*
X123939717Y-106690722D01*
X123971066Y-106783566D01*
X124021234Y-106932148D01*
G37*
X131664799Y-105678989D02*
X131536882Y-105692857D01*
X131492983Y-105703535D01*
X131354341Y-105798093D01*
X131262714Y-105959558D01*
X131217217Y-106189903D01*
X131211492Y-106331906D01*
X131223675Y-106554717D01*
X131265324Y-106711694D01*
X131343686Y-106818703D01*
X131466005Y-106891610D01*
X131467398Y-106892188D01*
X131553472Y-106932972D01*
X131592168Y-106961444D01*
X131592334Y-106962468D01*
X131568330Y-107001841D01*
X131503677Y-107092971D01*
X131409409Y-107220555D01*
X131338334Y-107314667D01*
X131230704Y-107458529D01*
X131145686Y-107576876D01*
X131094369Y-107654001D01*
X131084334Y-107674435D01*
X131121893Y-107687631D01*
X131216390Y-107690037D01*
X131264250Y-107687517D01*
X131347266Y-107677932D01*
X131413908Y-107654704D01*
X131479425Y-107605230D01*
X131559066Y-107516901D01*
X131668078Y-107377114D01*
X131715264Y-107314667D01*
X131862163Y-107129223D01*
X131972506Y-107012475D01*
X132051340Y-106959379D01*
X132075098Y-106954833D01*
X132117928Y-106961086D01*
X132145169Y-106990751D01*
X132161281Y-107060188D01*
X132170723Y-107185757D01*
X132176065Y-107325250D01*
X132188297Y-107695667D01*
X132314977Y-107695667D01*
X132411412Y-107679512D01*
X132462331Y-107641792D01*
X132467822Y-107585371D01*
X132471751Y-107457167D01*
X132474000Y-107270049D01*
X132474451Y-107036890D01*
X132472985Y-106770558D01*
X132471586Y-106636375D01*
X132463565Y-105967945D01*
X132185000Y-105967945D01*
X132185000Y-106295583D01*
X132181585Y-106454770D01*
X132172541Y-106579440D01*
X132159675Y-106646823D01*
X132156778Y-106651444D01*
X132092161Y-106672308D01*
X131974100Y-106679972D01*
X131832565Y-106675769D01*
X131697523Y-106661033D01*
X131598940Y-106637096D01*
X131576992Y-106625660D01*
X131535827Y-106578087D01*
X131515989Y-106498546D01*
X131513399Y-106365129D01*
X131515984Y-106297964D01*
X131526087Y-106147511D01*
X131544945Y-106058109D01*
X131581985Y-106006142D01*
X131646633Y-105967997D01*
X131647946Y-105967369D01*
X131808007Y-105930238D01*
X131976029Y-105939204D01*
X132185000Y-105967945D01*
X132463565Y-105967945D01*
X132460167Y-105684833D01*
X132032714Y-105672840D01*
X131838275Y-105671851D01*
X131664799Y-105678989D01*
G36*
X132471586Y-106636375D02*
G01*
X132472985Y-106770558D01*
X132474451Y-107036890D01*
X132474000Y-107270049D01*
X132471751Y-107457167D01*
X132467822Y-107585371D01*
X132462331Y-107641792D01*
X132411412Y-107679512D01*
X132314977Y-107695667D01*
X132188297Y-107695667D01*
X132176065Y-107325250D01*
X132170723Y-107185757D01*
X132161281Y-107060188D01*
X132145169Y-106990751D01*
X132117928Y-106961086D01*
X132075098Y-106954833D01*
X132051340Y-106959379D01*
X131972506Y-107012475D01*
X131862163Y-107129223D01*
X131715264Y-107314667D01*
X131668078Y-107377114D01*
X131559066Y-107516901D01*
X131479425Y-107605230D01*
X131413908Y-107654704D01*
X131347266Y-107677932D01*
X131264250Y-107687517D01*
X131216390Y-107690037D01*
X131121893Y-107687631D01*
X131084334Y-107674435D01*
X131094369Y-107654001D01*
X131145686Y-107576876D01*
X131230704Y-107458529D01*
X131338334Y-107314667D01*
X131409409Y-107220555D01*
X131503677Y-107092971D01*
X131568330Y-107001841D01*
X131592334Y-106962468D01*
X131592168Y-106961444D01*
X131553472Y-106932972D01*
X131467398Y-106892188D01*
X131466005Y-106891610D01*
X131343686Y-106818703D01*
X131265324Y-106711694D01*
X131223675Y-106554717D01*
X131213309Y-106365129D01*
X131513399Y-106365129D01*
X131515989Y-106498546D01*
X131535827Y-106578087D01*
X131576992Y-106625660D01*
X131598940Y-106637096D01*
X131697523Y-106661033D01*
X131832565Y-106675769D01*
X131974100Y-106679972D01*
X132092161Y-106672308D01*
X132156778Y-106651444D01*
X132159675Y-106646823D01*
X132172541Y-106579440D01*
X132181585Y-106454770D01*
X132185000Y-106295583D01*
X132185000Y-105967945D01*
X131976029Y-105939204D01*
X131808007Y-105930238D01*
X131647946Y-105967369D01*
X131646633Y-105967997D01*
X131581985Y-106006142D01*
X131544945Y-106058109D01*
X131526087Y-106147511D01*
X131515984Y-106297964D01*
X131513399Y-106365129D01*
X131213309Y-106365129D01*
X131211492Y-106331906D01*
X131217217Y-106189903D01*
X131262714Y-105959558D01*
X131354341Y-105798093D01*
X131492983Y-105703535D01*
X131536882Y-105692857D01*
X131664799Y-105678989D01*
X131838275Y-105671851D01*
X132032714Y-105672840D01*
X132460167Y-105684833D01*
X132463565Y-105967945D01*
X132471586Y-106636375D01*
G37*
X124816580Y-109318849D02*
X124769238Y-109334141D01*
X124727117Y-109368250D01*
X124684819Y-109431210D01*
X124636947Y-109533053D01*
X124578103Y-109683813D01*
X124502891Y-109893522D01*
X124405914Y-110172214D01*
X124394932Y-110203917D01*
X124333057Y-110375086D01*
X124278796Y-110511605D01*
X124239125Y-110596685D01*
X124223465Y-110616667D01*
X124197413Y-110579604D01*
X124153054Y-110480977D01*
X124098602Y-110339627D01*
X124080435Y-110288583D01*
X124005621Y-110075772D01*
X123921921Y-109839889D01*
X123851410Y-109643000D01*
X123736929Y-109325500D01*
X123400834Y-109325500D01*
X123369614Y-109643000D01*
X123325334Y-110101955D01*
X123290705Y-110480739D01*
X123265449Y-110783261D01*
X123249289Y-111013432D01*
X123241946Y-111175163D01*
X123243143Y-111272364D01*
X123251280Y-111307893D01*
X123313900Y-111329006D01*
X123406260Y-111329059D01*
X123468370Y-111318137D01*
X123506548Y-111290552D01*
X123529074Y-111227738D01*
X123544229Y-111111128D01*
X123554051Y-110997667D01*
X123566846Y-110803309D01*
X123577697Y-110567148D01*
X123584736Y-110332048D01*
X123585801Y-110269915D01*
X123593700Y-110061882D01*
X123609853Y-109916616D01*
X123632561Y-109839387D01*
X123660123Y-109835462D01*
X123690841Y-109910111D01*
X123695772Y-109929042D01*
X123741599Y-110091194D01*
X123804180Y-110282229D01*
X123876845Y-110485078D01*
X123952925Y-110682671D01*
X124025750Y-110857941D01*
X124088651Y-110993817D01*
X124134959Y-111073232D01*
X124147662Y-111085542D01*
X124207746Y-111108575D01*
X124262143Y-111103445D01*
X124315394Y-111062264D01*
X124372042Y-110977147D01*
X124436626Y-110840207D01*
X124513689Y-110643559D01*
X124607771Y-110379317D01*
X124685816Y-110151000D01*
X124807623Y-109791167D01*
X124839214Y-110214500D01*
X124856711Y-110446357D01*
X124875744Y-110694455D01*
X124892998Y-110915696D01*
X124897820Y-110976500D01*
X124924834Y-111315167D01*
X125068825Y-111328910D01*
X125212817Y-111342653D01*
X125187342Y-110947910D01*
X125167852Y-110660116D01*
X125146632Y-110371023D01*
X125124827Y-110093957D01*
X125103580Y-109842248D01*
X125084034Y-109629223D01*
X125067334Y-109468211D01*
X125054624Y-109372541D01*
X125050622Y-109354674D01*
X124994008Y-109316470D01*
X124874538Y-109312341D01*
X124816580Y-109318849D01*
G36*
X124994008Y-109316470D02*
G01*
X125050622Y-109354674D01*
X125054624Y-109372541D01*
X125067334Y-109468211D01*
X125084034Y-109629223D01*
X125103580Y-109842248D01*
X125124827Y-110093957D01*
X125146632Y-110371023D01*
X125167852Y-110660116D01*
X125187342Y-110947910D01*
X125212817Y-111342653D01*
X125068825Y-111328910D01*
X124924834Y-111315167D01*
X124897820Y-110976500D01*
X124892998Y-110915696D01*
X124875744Y-110694455D01*
X124856711Y-110446357D01*
X124839214Y-110214500D01*
X124807623Y-109791167D01*
X124685816Y-110151000D01*
X124607771Y-110379317D01*
X124513689Y-110643559D01*
X124436626Y-110840207D01*
X124372042Y-110977147D01*
X124315394Y-111062264D01*
X124262143Y-111103445D01*
X124207746Y-111108575D01*
X124147662Y-111085542D01*
X124134959Y-111073232D01*
X124088651Y-110993817D01*
X124025750Y-110857941D01*
X123952925Y-110682671D01*
X123876845Y-110485078D01*
X123804180Y-110282229D01*
X123741599Y-110091194D01*
X123695772Y-109929042D01*
X123690841Y-109910111D01*
X123660123Y-109835462D01*
X123632561Y-109839387D01*
X123609853Y-109916616D01*
X123593700Y-110061882D01*
X123585801Y-110269915D01*
X123584736Y-110332048D01*
X123577697Y-110567148D01*
X123566846Y-110803309D01*
X123554051Y-110997667D01*
X123544229Y-111111128D01*
X123529074Y-111227738D01*
X123506548Y-111290552D01*
X123468370Y-111318137D01*
X123406260Y-111329059D01*
X123313900Y-111329006D01*
X123251280Y-111307893D01*
X123243143Y-111272364D01*
X123241946Y-111175163D01*
X123249289Y-111013432D01*
X123265449Y-110783261D01*
X123290705Y-110480739D01*
X123325334Y-110101955D01*
X123369614Y-109643000D01*
X123400834Y-109325500D01*
X123736929Y-109325500D01*
X123851410Y-109643000D01*
X123921921Y-109839889D01*
X124005621Y-110075772D01*
X124080435Y-110288583D01*
X124098602Y-110339627D01*
X124153054Y-110480977D01*
X124197413Y-110579604D01*
X124223465Y-110616667D01*
X124239125Y-110596685D01*
X124278796Y-110511605D01*
X124333057Y-110375086D01*
X124394932Y-110203917D01*
X124405914Y-110172214D01*
X124502891Y-109893522D01*
X124578103Y-109683813D01*
X124636947Y-109533053D01*
X124684819Y-109431210D01*
X124727117Y-109368250D01*
X124769238Y-109334141D01*
X124816580Y-109318849D01*
X124874538Y-109312341D01*
X124994008Y-109316470D01*
G37*
X116950752Y-103758667D02*
X116880287Y-103795764D01*
X116815192Y-103910857D01*
X116804329Y-103938583D01*
X116757091Y-104074664D01*
X116702332Y-104247798D01*
X116645986Y-104437132D01*
X116593985Y-104621813D01*
X116552262Y-104780989D01*
X116526749Y-104893808D01*
X116521667Y-104932112D01*
X116510584Y-104984656D01*
X116478833Y-105110382D01*
X116428662Y-105300968D01*
X116362321Y-105548091D01*
X116282058Y-105843427D01*
X116190120Y-106178654D01*
X116088757Y-106545447D01*
X115988319Y-106906460D01*
X115878093Y-107301635D01*
X115773149Y-107678299D01*
X115676040Y-108027258D01*
X115589320Y-108339319D01*
X115515541Y-108605288D01*
X115457256Y-108815972D01*
X115417019Y-108962177D01*
X115398841Y-109029167D01*
X115357997Y-109179440D01*
X115304931Y-109369727D01*
X115251275Y-109558333D01*
X115202107Y-109730081D01*
X115157879Y-109886337D01*
X115127464Y-109995738D01*
X115125540Y-110002833D01*
X115099095Y-110098832D01*
X115056656Y-110250819D01*
X115005347Y-110433331D01*
X114977484Y-110532000D01*
X114913059Y-110761522D01*
X114843087Y-111013572D01*
X114780266Y-111242344D01*
X114766226Y-111294000D01*
X114718003Y-111470037D01*
X114654114Y-111700529D01*
X114582071Y-111958500D01*
X114509390Y-112216973D01*
X114492244Y-112277647D01*
X114315762Y-112901461D01*
X114434465Y-113050229D01*
X114553167Y-113198997D01*
X117470639Y-113198999D01*
X117958589Y-113198747D01*
X118420462Y-113198021D01*
X118849485Y-113196862D01*
X119238888Y-113195311D01*
X119581899Y-113193410D01*
X119871745Y-113191200D01*
X120101656Y-113188724D01*
X120264859Y-113186022D01*
X120354584Y-113183137D01*
X120370288Y-113181176D01*
X120323547Y-113170316D01*
X120209910Y-113154189D01*
X120046818Y-113135032D01*
X119865816Y-113116438D01*
X119336103Y-113064815D01*
X118885334Y-113019587D01*
X118508081Y-112980082D01*
X118198917Y-112945629D01*
X117952415Y-112915555D01*
X117763148Y-112889187D01*
X117625687Y-112865855D01*
X117534607Y-112844886D01*
X117484478Y-112825607D01*
X117477326Y-112820659D01*
X117417135Y-112749208D01*
X117342454Y-112632190D01*
X117297498Y-112549523D01*
X117190933Y-112339228D01*
X117523050Y-112367542D01*
X117903564Y-112398894D01*
X118247571Y-112425096D01*
X118546919Y-112445663D01*
X118793455Y-112460110D01*
X118979024Y-112467954D01*
X119095475Y-112468709D01*
X119134132Y-112463312D01*
X119129287Y-112416531D01*
X119097380Y-112308438D01*
X119043869Y-112155894D01*
X118984926Y-112002490D01*
X118895576Y-111773026D01*
X118799426Y-111517472D01*
X118703300Y-111254854D01*
X118614021Y-111004198D01*
X118538413Y-110784530D01*
X118483299Y-110614876D01*
X118465123Y-110553167D01*
X118431913Y-110435651D01*
X118388060Y-110284153D01*
X118367600Y-110214500D01*
X118175527Y-109520465D01*
X117991744Y-108771410D01*
X117819734Y-107986298D01*
X117662981Y-107184093D01*
X117524970Y-106383757D01*
X117409183Y-105604254D01*
X117319106Y-104864545D01*
X117258221Y-104183595D01*
X117257374Y-104171417D01*
X117242408Y-103980184D01*
X117226843Y-103858447D01*
X117206766Y-103791099D01*
X117178262Y-103763032D01*
X117150419Y-103758667D01*
X117137362Y-103761015D01*
X117125839Y-103771377D01*
X117115755Y-103794727D01*
X117107014Y-103836039D01*
X117099520Y-103900289D01*
X117093178Y-103992449D01*
X117087891Y-104117495D01*
X117083564Y-104280401D01*
X117080101Y-104486141D01*
X117077406Y-104739691D01*
X117075384Y-105046024D01*
X117073938Y-105410114D01*
X117072973Y-105836937D01*
X117072394Y-106331466D01*
X117072103Y-106898677D01*
X117072007Y-107543543D01*
X117072000Y-107831133D01*
X117071582Y-108567682D01*
X117070336Y-109234465D01*
X117068280Y-109829862D01*
X117065431Y-110352251D01*
X117061803Y-110800012D01*
X117057415Y-111171523D01*
X117052283Y-111465164D01*
X117046422Y-111679313D01*
X117039850Y-111812349D01*
X117032582Y-111862653D01*
X117031117Y-111862716D01*
X116995830Y-111797611D01*
X116946321Y-111666330D01*
X116887396Y-111485196D01*
X116823861Y-111270534D01*
X116760520Y-111038670D01*
X116702178Y-110805927D01*
X116653640Y-110588630D01*
X116648172Y-110561725D01*
X116573178Y-110156997D01*
X116514948Y-109767353D01*
X116471870Y-109373842D01*
X116442333Y-108957513D01*
X116424726Y-108499414D01*
X116417437Y-107980594D01*
X116417043Y-107843833D01*
X116427097Y-107126392D01*
X116460113Y-106477347D01*
X116517974Y-105883094D01*
X116602560Y-105330029D01*
X116715753Y-104804548D01*
X116859435Y-104293048D01*
X116943470Y-104037789D01*
X116994048Y-103890961D01*
X117019096Y-103807173D01*
X117019069Y-103768884D01*
X116994426Y-103758555D01*
X116950752Y-103758667D01*
G36*
X117019069Y-103768884D02*
G01*
X117019096Y-103807173D01*
X116994048Y-103890961D01*
X116943470Y-104037789D01*
X116859435Y-104293048D01*
X116715753Y-104804548D01*
X116602560Y-105330029D01*
X116517974Y-105883094D01*
X116460113Y-106477347D01*
X116427097Y-107126392D01*
X116417043Y-107843833D01*
X116417437Y-107980594D01*
X116424726Y-108499414D01*
X116442333Y-108957513D01*
X116471870Y-109373842D01*
X116514948Y-109767353D01*
X116573178Y-110156997D01*
X116648172Y-110561725D01*
X116653640Y-110588630D01*
X116702178Y-110805927D01*
X116760520Y-111038670D01*
X116823861Y-111270534D01*
X116887396Y-111485196D01*
X116946321Y-111666330D01*
X116995830Y-111797611D01*
X117031117Y-111862716D01*
X117032582Y-111862653D01*
X117039850Y-111812349D01*
X117046422Y-111679313D01*
X117052283Y-111465164D01*
X117057415Y-111171523D01*
X117061803Y-110800012D01*
X117065431Y-110352251D01*
X117068280Y-109829862D01*
X117070336Y-109234465D01*
X117071582Y-108567682D01*
X117072000Y-107831133D01*
X117072007Y-107543543D01*
X117072103Y-106898677D01*
X117072394Y-106331466D01*
X117072973Y-105836937D01*
X117073938Y-105410114D01*
X117075384Y-105046024D01*
X117077406Y-104739691D01*
X117080101Y-104486141D01*
X117083564Y-104280401D01*
X117087891Y-104117495D01*
X117093178Y-103992449D01*
X117099520Y-103900289D01*
X117107014Y-103836039D01*
X117115755Y-103794727D01*
X117125839Y-103771377D01*
X117137362Y-103761015D01*
X117150419Y-103758667D01*
X117178262Y-103763032D01*
X117206766Y-103791099D01*
X117226843Y-103858447D01*
X117242408Y-103980184D01*
X117257374Y-104171417D01*
X117258221Y-104183595D01*
X117319106Y-104864545D01*
X117409183Y-105604254D01*
X117524970Y-106383757D01*
X117662981Y-107184093D01*
X117819734Y-107986298D01*
X117991744Y-108771410D01*
X118175527Y-109520465D01*
X118367600Y-110214500D01*
X118388060Y-110284153D01*
X118431913Y-110435651D01*
X118465123Y-110553167D01*
X118483299Y-110614876D01*
X118538413Y-110784530D01*
X118614021Y-111004198D01*
X118703300Y-111254854D01*
X118799426Y-111517472D01*
X118895576Y-111773026D01*
X118984926Y-112002490D01*
X119043869Y-112155894D01*
X119097380Y-112308438D01*
X119129287Y-112416531D01*
X119134132Y-112463312D01*
X119095475Y-112468709D01*
X118979024Y-112467954D01*
X118793455Y-112460110D01*
X118546919Y-112445663D01*
X118247571Y-112425096D01*
X117903564Y-112398894D01*
X117523050Y-112367542D01*
X117190933Y-112339228D01*
X117297498Y-112549523D01*
X117342454Y-112632190D01*
X117417135Y-112749208D01*
X117477326Y-112820659D01*
X117484478Y-112825607D01*
X117534607Y-112844886D01*
X117625687Y-112865855D01*
X117763148Y-112889187D01*
X117952415Y-112915555D01*
X118198917Y-112945629D01*
X118508081Y-112980082D01*
X118885334Y-113019587D01*
X119336103Y-113064815D01*
X119865816Y-113116438D01*
X120046818Y-113135032D01*
X120209910Y-113154189D01*
X120323547Y-113170316D01*
X120370288Y-113181176D01*
X120354584Y-113183137D01*
X120264859Y-113186022D01*
X120101656Y-113188724D01*
X119871745Y-113191200D01*
X119581899Y-113193410D01*
X119238888Y-113195311D01*
X118849485Y-113196862D01*
X118420462Y-113198021D01*
X117958589Y-113198747D01*
X117470639Y-113198999D01*
X114553167Y-113198997D01*
X114434465Y-113050229D01*
X114315762Y-112901461D01*
X114492244Y-112277647D01*
X114509390Y-112216973D01*
X114582071Y-111958500D01*
X114654114Y-111700529D01*
X114718003Y-111470037D01*
X114766226Y-111294000D01*
X114780266Y-111242344D01*
X114843087Y-111013572D01*
X114913059Y-110761522D01*
X114977484Y-110532000D01*
X115005347Y-110433331D01*
X115056656Y-110250819D01*
X115099095Y-110098832D01*
X115125540Y-110002833D01*
X115127464Y-109995738D01*
X115157879Y-109886337D01*
X115202107Y-109730081D01*
X115251275Y-109558333D01*
X115304931Y-109369727D01*
X115357997Y-109179440D01*
X115398841Y-109029167D01*
X115417019Y-108962177D01*
X115457256Y-108815972D01*
X115515541Y-108605288D01*
X115589320Y-108339319D01*
X115676040Y-108027258D01*
X115773149Y-107678299D01*
X115878093Y-107301635D01*
X115988319Y-106906460D01*
X116088757Y-106545447D01*
X116190120Y-106178654D01*
X116282058Y-105843427D01*
X116362321Y-105548091D01*
X116428662Y-105300968D01*
X116478833Y-105110382D01*
X116510584Y-104984656D01*
X116521667Y-104932112D01*
X116526749Y-104893808D01*
X116552262Y-104780989D01*
X116593985Y-104621813D01*
X116645986Y-104437132D01*
X116702332Y-104247798D01*
X116757091Y-104074664D01*
X116804329Y-103938583D01*
X116815192Y-103910857D01*
X116880287Y-103795764D01*
X116950752Y-103758667D01*
X116994426Y-103758555D01*
X117019069Y-103768884D01*
G37*
D13*
%TO.C,G\u002A\u002A\u002A*%
G36*
X130327273Y-123001432D02*
G01*
X130318182Y-123010529D01*
X130309091Y-123001432D01*
X130318182Y-122992335D01*
X130327273Y-123001432D01*
G37*
G36*
X106666775Y-118450614D02*
G01*
X106765911Y-118479719D01*
X106842937Y-118535410D01*
X106895213Y-118615662D01*
X106920095Y-118718451D01*
X106921552Y-118755096D01*
X106903559Y-118854420D01*
X106853343Y-118937800D01*
X106772357Y-119002445D01*
X106696145Y-119031911D01*
X106596522Y-119040322D01*
X106496921Y-119021549D01*
X106407253Y-118977682D01*
X106337429Y-118910807D01*
X106319003Y-118875918D01*
X106301258Y-118801605D01*
X106298426Y-118717664D01*
X106310503Y-118638370D01*
X106337488Y-118577995D01*
X106396047Y-118513718D01*
X106472612Y-118467928D01*
X106567428Y-118448264D01*
X106666775Y-118450614D01*
G37*
G36*
X107563417Y-118449715D02*
G01*
X107646805Y-118477624D01*
X107716819Y-118523227D01*
X107762181Y-118580481D01*
X107792923Y-118675992D01*
X107796407Y-118776093D01*
X107772457Y-118869035D01*
X107723024Y-118947439D01*
X107650064Y-119003928D01*
X107573568Y-119033233D01*
X107474359Y-119044211D01*
X107381266Y-119027303D01*
X107299259Y-118986218D01*
X107233305Y-118924661D01*
X107188371Y-118846340D01*
X107169425Y-118754961D01*
X107181436Y-118654233D01*
X107182617Y-118650113D01*
X107225949Y-118561313D01*
X107295706Y-118496570D01*
X107390079Y-118457051D01*
X107507259Y-118443923D01*
X107563417Y-118449715D01*
G37*
G36*
X127349585Y-122945152D02*
G01*
X127432015Y-122968435D01*
X127510463Y-123018219D01*
X127566935Y-123086149D01*
X127600804Y-123166055D01*
X127611441Y-123251764D01*
X127598217Y-123337107D01*
X127560503Y-123415912D01*
X127497671Y-123482008D01*
X127409091Y-123529224D01*
X127375025Y-123539755D01*
X127267042Y-123552155D01*
X127168550Y-123529612D01*
X127080314Y-123472257D01*
X127037581Y-123426576D01*
X126990434Y-123342209D01*
X126973306Y-123254173D01*
X126983494Y-123167757D01*
X127018296Y-123088253D01*
X127075008Y-123020950D01*
X127150929Y-122971139D01*
X127243355Y-122944109D01*
X127349585Y-122945152D01*
G37*
G36*
X130074487Y-122968877D02*
G01*
X130156411Y-123021777D01*
X130215914Y-123099500D01*
X130248537Y-123198860D01*
X130250435Y-123213748D01*
X130243283Y-123303162D01*
X130209260Y-123389927D01*
X130154056Y-123463245D01*
X130083361Y-123512317D01*
X130013656Y-123530509D01*
X129924781Y-123535691D01*
X129835964Y-123527222D01*
X129764173Y-123505465D01*
X129698769Y-123455698D01*
X129650151Y-123381177D01*
X129623718Y-123292301D01*
X129622123Y-123198142D01*
X129648014Y-123107775D01*
X129648164Y-123107459D01*
X129705346Y-123027109D01*
X129787526Y-122972771D01*
X129893458Y-122945271D01*
X129974606Y-122943987D01*
X130074487Y-122968877D01*
G37*
G36*
X109387588Y-118450239D02*
G01*
X109469353Y-118482991D01*
X109538555Y-118539066D01*
X109588833Y-118616667D01*
X109613829Y-118713999D01*
X109615209Y-118765073D01*
X109594943Y-118863707D01*
X109545151Y-118945280D01*
X109468245Y-119004969D01*
X109398149Y-119030465D01*
X109307676Y-119040150D01*
X109220661Y-119028496D01*
X109150370Y-118995883D01*
X109117993Y-118969934D01*
X109063696Y-118908815D01*
X109035405Y-118838010D01*
X109027273Y-118745637D01*
X109027692Y-118712049D01*
X109033380Y-118653333D01*
X109049236Y-118608802D01*
X109079670Y-118563092D01*
X109130499Y-118509887D01*
X109211802Y-118461891D01*
X109299618Y-118442607D01*
X109387588Y-118450239D01*
G37*
G36*
X116631267Y-118453445D02*
G01*
X116716528Y-118486250D01*
X116788759Y-118540002D01*
X116841372Y-118612954D01*
X116867774Y-118703361D01*
X116869841Y-118738943D01*
X116854221Y-118837655D01*
X116809491Y-118922619D01*
X116739863Y-118987607D01*
X116649545Y-119026388D01*
X116564625Y-119040190D01*
X116481786Y-119034035D01*
X116400372Y-119003115D01*
X116393644Y-118999616D01*
X116313588Y-118943480D01*
X116264305Y-118873514D01*
X116241213Y-118783390D01*
X116239825Y-118770078D01*
X116239308Y-118685319D01*
X116258877Y-118617710D01*
X116302171Y-118553530D01*
X116363222Y-118498167D01*
X116448023Y-118457657D01*
X116539569Y-118443332D01*
X116631267Y-118453445D01*
G37*
G36*
X128236276Y-122945557D02*
G01*
X128322451Y-122974587D01*
X128396708Y-123027768D01*
X128452064Y-123105470D01*
X128453617Y-123108704D01*
X128484409Y-123196925D01*
X128485364Y-123278133D01*
X128456714Y-123365329D01*
X128412450Y-123440651D01*
X128353294Y-123493265D01*
X128269658Y-123529349D01*
X128224087Y-123542746D01*
X128173210Y-123551933D01*
X128127913Y-123548346D01*
X128071230Y-123532233D01*
X127988687Y-123494015D01*
X127913806Y-123427700D01*
X127868625Y-123343296D01*
X127855104Y-123244762D01*
X127875202Y-123136060D01*
X127912044Y-123063544D01*
X127976068Y-122999672D01*
X128056102Y-122958470D01*
X128145166Y-122940308D01*
X128236276Y-122945557D01*
G37*
G36*
X115703756Y-118445542D02*
G01*
X115807069Y-118468404D01*
X115887422Y-118517868D01*
X115942835Y-118592864D01*
X115972882Y-118678786D01*
X115977573Y-118784460D01*
X115945969Y-118888336D01*
X115919062Y-118931405D01*
X115848487Y-118993867D01*
X115754546Y-119032800D01*
X115706948Y-119038428D01*
X115626772Y-119033415D01*
X115545900Y-119016281D01*
X115482501Y-118989891D01*
X115466758Y-118979354D01*
X115405477Y-118913613D01*
X115372398Y-118825340D01*
X115367335Y-118714090D01*
X115367868Y-118707002D01*
X115376991Y-118640154D01*
X115395297Y-118593224D01*
X115428435Y-118551150D01*
X115498855Y-118489784D01*
X115575948Y-118454351D01*
X115667279Y-118444024D01*
X115703756Y-118445542D01*
G37*
G36*
X129133929Y-122952575D02*
G01*
X129223445Y-122987839D01*
X129300026Y-123049343D01*
X129314056Y-123065216D01*
X129346143Y-123109646D01*
X129360399Y-123154288D01*
X129363637Y-123217107D01*
X129359295Y-123300183D01*
X129339970Y-123377340D01*
X129301381Y-123436183D01*
X129239433Y-123485559D01*
X129201308Y-123507761D01*
X129136010Y-123531684D01*
X129059493Y-123538180D01*
X128961803Y-123528831D01*
X128866171Y-123492786D01*
X128794837Y-123429763D01*
X128747974Y-123339870D01*
X128730633Y-123269703D01*
X128732377Y-123198970D01*
X128757065Y-123118703D01*
X128794097Y-123055052D01*
X128861561Y-122994787D01*
X128945607Y-122956991D01*
X129038856Y-122942606D01*
X129133929Y-122952575D01*
G37*
G36*
X114884355Y-118453396D02*
G01*
X114972922Y-118492828D01*
X115045305Y-118560076D01*
X115049378Y-118565574D01*
X115091884Y-118653134D01*
X115106738Y-118752483D01*
X115091805Y-118850294D01*
X115072163Y-118888848D01*
X115025406Y-118946168D01*
X114966937Y-118997575D01*
X114909091Y-119030876D01*
X114858053Y-119040709D01*
X114785397Y-119041669D01*
X114710413Y-119033619D01*
X114649851Y-119017427D01*
X114627212Y-119006283D01*
X114562981Y-118957987D01*
X114509881Y-118895802D01*
X114479595Y-118832424D01*
X114471864Y-118780982D01*
X114476408Y-118694386D01*
X114498877Y-118613564D01*
X114536375Y-118552782D01*
X114595432Y-118503052D01*
X114688223Y-118458402D01*
X114786993Y-118441886D01*
X114884355Y-118453396D01*
G37*
G36*
X111890614Y-118455437D02*
G01*
X111976157Y-118493333D01*
X112047604Y-118563106D01*
X112071734Y-118597469D01*
X112089783Y-118636970D01*
X112097646Y-118685278D01*
X112098980Y-118756126D01*
X112098869Y-118767622D01*
X112096410Y-118831659D01*
X112087944Y-118873948D01*
X112069173Y-118907310D01*
X112035799Y-118944566D01*
X112016874Y-118962610D01*
X111964935Y-119002130D01*
X111918638Y-119025770D01*
X111883061Y-119033995D01*
X111790745Y-119036515D01*
X111699164Y-119017417D01*
X111624124Y-118979202D01*
X111608174Y-118966393D01*
X111557909Y-118910180D01*
X111529185Y-118840757D01*
X111517098Y-118747506D01*
X111517592Y-118703113D01*
X111540668Y-118606605D01*
X111592007Y-118529463D01*
X111668208Y-118475761D01*
X111765872Y-118449569D01*
X111787011Y-118447821D01*
X111890614Y-118455437D01*
G37*
G36*
X125205458Y-122945297D02*
G01*
X125267549Y-122956483D01*
X125279111Y-122960473D01*
X125362080Y-123007173D01*
X125429325Y-123075712D01*
X125470543Y-123155966D01*
X125479757Y-123199365D01*
X125476048Y-123296460D01*
X125442497Y-123388302D01*
X125383087Y-123466261D01*
X125301799Y-123521706D01*
X125236547Y-123545145D01*
X125146447Y-123552751D01*
X125048797Y-123530014D01*
X124979716Y-123498090D01*
X124917541Y-123443694D01*
X124870290Y-123363161D01*
X124848563Y-123296188D01*
X124847585Y-123210824D01*
X124851459Y-123189057D01*
X124870588Y-123125799D01*
X124897584Y-123068360D01*
X124927181Y-123026637D01*
X124954116Y-123010529D01*
X124968774Y-123006996D01*
X124998689Y-122984819D01*
X125015814Y-122971720D01*
X125067046Y-122954237D01*
X125134442Y-122944989D01*
X125205458Y-122945297D01*
G37*
G36*
X118945698Y-122941132D02*
G01*
X119122082Y-122942216D01*
X119150549Y-122942431D01*
X119313285Y-122943823D01*
X119443984Y-122945391D01*
X119546388Y-122947345D01*
X119624241Y-122949896D01*
X119681286Y-122953254D01*
X119721266Y-122957629D01*
X119747924Y-122963231D01*
X119765003Y-122970270D01*
X119776246Y-122978957D01*
X119789108Y-122996353D01*
X119799078Y-123025172D01*
X119805591Y-123070574D01*
X119809556Y-123139158D01*
X119811884Y-123237526D01*
X119812396Y-123273611D01*
X119812656Y-123359652D01*
X119810333Y-123419050D01*
X119804554Y-123459085D01*
X119794443Y-123487036D01*
X119779127Y-123510180D01*
X119742816Y-123556375D01*
X119104398Y-123556375D01*
X118944065Y-123556672D01*
X118791527Y-123556923D01*
X118669162Y-123555734D01*
X118573678Y-123551700D01*
X118501779Y-123543416D01*
X118450169Y-123529477D01*
X118415555Y-123508479D01*
X118394641Y-123479017D01*
X118384134Y-123439687D01*
X118380737Y-123389084D01*
X118381156Y-123325803D01*
X118382097Y-123248439D01*
X118382114Y-123240706D01*
X118383394Y-123152958D01*
X118386371Y-123078747D01*
X118390624Y-123025690D01*
X118395733Y-123001403D01*
X118404554Y-122990558D01*
X118421763Y-122975949D01*
X118446066Y-122964346D01*
X118481120Y-122955448D01*
X118530584Y-122948960D01*
X118598115Y-122944582D01*
X118687373Y-122942017D01*
X118802014Y-122940967D01*
X118945698Y-122941132D01*
G37*
G36*
X120881452Y-122943103D02*
G01*
X121040435Y-122944236D01*
X121187815Y-122945886D01*
X121304986Y-122948067D01*
X121395208Y-122950918D01*
X121461738Y-122954579D01*
X121507835Y-122959190D01*
X121536758Y-122964890D01*
X121551765Y-122971819D01*
X121553943Y-122973734D01*
X121565794Y-122990766D01*
X121573826Y-123019846D01*
X121578721Y-123067057D01*
X121581158Y-123138479D01*
X121581819Y-123240193D01*
X121581654Y-123305666D01*
X121580311Y-123386536D01*
X121576883Y-123441759D01*
X121570506Y-123477980D01*
X121560318Y-123501840D01*
X121545455Y-123519985D01*
X121535799Y-123528643D01*
X121522221Y-123536599D01*
X121502160Y-123542868D01*
X121471880Y-123547653D01*
X121427647Y-123551152D01*
X121365725Y-123553566D01*
X121282380Y-123555095D01*
X121173877Y-123555939D01*
X121036480Y-123556299D01*
X120866455Y-123556375D01*
X120709382Y-123556316D01*
X120569474Y-123555995D01*
X120458809Y-123555211D01*
X120373671Y-123553764D01*
X120310346Y-123551453D01*
X120265117Y-123548078D01*
X120234269Y-123543438D01*
X120214087Y-123537333D01*
X120200854Y-123529563D01*
X120190857Y-123519927D01*
X120189758Y-123518694D01*
X120176015Y-123497888D01*
X120166810Y-123468022D01*
X120161289Y-123422268D01*
X120158602Y-123353798D01*
X120157895Y-123255783D01*
X120158060Y-123189551D01*
X120159450Y-123113818D01*
X120163192Y-123062566D01*
X120170387Y-123028597D01*
X120182137Y-123004715D01*
X120199544Y-122983723D01*
X120241194Y-122939358D01*
X120881452Y-122943103D01*
G37*
G36*
X113166886Y-118443707D02*
G01*
X113308256Y-118444178D01*
X113419829Y-118445227D01*
X113505397Y-118447033D01*
X113568751Y-118449777D01*
X113613682Y-118453640D01*
X113643980Y-118458800D01*
X113663436Y-118465439D01*
X113675842Y-118473736D01*
X113680880Y-118478674D01*
X113693198Y-118497363D01*
X113701367Y-118526401D01*
X113706199Y-118572294D01*
X113708503Y-118641550D01*
X113709091Y-118740677D01*
X113708435Y-118835671D01*
X113705808Y-118909304D01*
X113700498Y-118958797D01*
X113691798Y-118990504D01*
X113679001Y-119010780D01*
X113676772Y-119013141D01*
X113665643Y-119021765D01*
X113648658Y-119028625D01*
X113622002Y-119033920D01*
X113581864Y-119037851D01*
X113524429Y-119040618D01*
X113445883Y-119042422D01*
X113342415Y-119043462D01*
X113210210Y-119043939D01*
X113045455Y-119044054D01*
X112967123Y-119044039D01*
X112817845Y-119043821D01*
X112699368Y-119043178D01*
X112607854Y-119041896D01*
X112539470Y-119039764D01*
X112490378Y-119036569D01*
X112456744Y-119032100D01*
X112434731Y-119026143D01*
X112420505Y-119018488D01*
X112410229Y-119008922D01*
X112395824Y-118975019D01*
X112385326Y-118913283D01*
X112379180Y-118833285D01*
X112377347Y-118744082D01*
X112379791Y-118654730D01*
X112386475Y-118574285D01*
X112397361Y-118511803D01*
X112412412Y-118476342D01*
X112413739Y-118474915D01*
X112424610Y-118466234D01*
X112441321Y-118459316D01*
X112467687Y-118453964D01*
X112507522Y-118449979D01*
X112564643Y-118447162D01*
X112642866Y-118445317D01*
X112746005Y-118444244D01*
X112877877Y-118443746D01*
X113042296Y-118443624D01*
X113166886Y-118443707D01*
G37*
G36*
X110673964Y-118443698D02*
G01*
X110815910Y-118444155D01*
X110927932Y-118445189D01*
X111013838Y-118446983D01*
X111077437Y-118449720D01*
X111122538Y-118453580D01*
X111152948Y-118458749D01*
X111172477Y-118465406D01*
X111184932Y-118473736D01*
X111189322Y-118477988D01*
X111201916Y-118496502D01*
X111210272Y-118525157D01*
X111215218Y-118570513D01*
X111217579Y-118639128D01*
X111218182Y-118737561D01*
X111218083Y-118787634D01*
X111216879Y-118870720D01*
X111213568Y-118927447D01*
X111207234Y-118964633D01*
X111196956Y-118989100D01*
X111181819Y-119007664D01*
X111177248Y-119012056D01*
X111164901Y-119021219D01*
X111147625Y-119028444D01*
X111121489Y-119033962D01*
X111082564Y-119038002D01*
X111026922Y-119040792D01*
X110950632Y-119042563D01*
X110849767Y-119043544D01*
X110720396Y-119043965D01*
X110558592Y-119044054D01*
X110517049Y-119044044D01*
X110359671Y-119043724D01*
X110233958Y-119042828D01*
X110136102Y-119041185D01*
X110062292Y-119038622D01*
X110008718Y-119034967D01*
X109971572Y-119030048D01*
X109947042Y-119023693D01*
X109931319Y-119015730D01*
X109929055Y-119014127D01*
X109913633Y-119000771D01*
X109903042Y-118982498D01*
X109896378Y-118953014D01*
X109892738Y-118906024D01*
X109891216Y-118835234D01*
X109890910Y-118734350D01*
X109891187Y-118644977D01*
X109892655Y-118570242D01*
X109896098Y-118520654D01*
X109902296Y-118490181D01*
X109912029Y-118472794D01*
X109926078Y-118462459D01*
X109950465Y-118457399D01*
X110010427Y-118452598D01*
X110102989Y-118448761D01*
X110226171Y-118445946D01*
X110377990Y-118444214D01*
X110556464Y-118443624D01*
X110673964Y-118443698D01*
G37*
G36*
X124070387Y-122938620D02*
G01*
X124210798Y-122940180D01*
X124319889Y-122942878D01*
X124399736Y-122946776D01*
X124452414Y-122951938D01*
X124479998Y-122958425D01*
X124483387Y-122959973D01*
X124501867Y-122969661D01*
X124515010Y-122982761D01*
X124523623Y-123004767D01*
X124528510Y-123041177D01*
X124530480Y-123097485D01*
X124530337Y-123179188D01*
X124528887Y-123291782D01*
X124528628Y-123308321D01*
X124525693Y-123398701D01*
X124519986Y-123460333D01*
X124510589Y-123499819D01*
X124496581Y-123523766D01*
X124493187Y-123527236D01*
X124481555Y-123535313D01*
X124463291Y-123541751D01*
X124434680Y-123546734D01*
X124392005Y-123550446D01*
X124331550Y-123553071D01*
X124249597Y-123554792D01*
X124142431Y-123555794D01*
X124006335Y-123556260D01*
X123837592Y-123556375D01*
X123735103Y-123556316D01*
X123582779Y-123555869D01*
X123461046Y-123554850D01*
X123366238Y-123553105D01*
X123294687Y-123550478D01*
X123242723Y-123546814D01*
X123206680Y-123541958D01*
X123182889Y-123535755D01*
X123167682Y-123528051D01*
X123165988Y-123526854D01*
X123150343Y-123513488D01*
X123139596Y-123495372D01*
X123132831Y-123466177D01*
X123129133Y-123419577D01*
X123127585Y-123349244D01*
X123127273Y-123248851D01*
X123127368Y-123199889D01*
X123128539Y-123111244D01*
X123131621Y-123050034D01*
X123137332Y-123010037D01*
X123146385Y-122985030D01*
X123159498Y-122968790D01*
X123167800Y-122962905D01*
X123185557Y-122956076D01*
X123213887Y-122950661D01*
X123256475Y-122946490D01*
X123317004Y-122943389D01*
X123399159Y-122941185D01*
X123506625Y-122939707D01*
X123643084Y-122938782D01*
X123812223Y-122938238D01*
X123896581Y-122938134D01*
X124070387Y-122938620D01*
G37*
G36*
X107141903Y-119528370D02*
G01*
X107294516Y-119528705D01*
X107416594Y-119529471D01*
X107512053Y-119530868D01*
X107584810Y-119533100D01*
X107638779Y-119536367D01*
X107677876Y-119540870D01*
X107706018Y-119546812D01*
X107727120Y-119554394D01*
X107745097Y-119563817D01*
X107756446Y-119570852D01*
X107823231Y-119634870D01*
X107860648Y-119719471D01*
X107867743Y-119822638D01*
X107857042Y-119890610D01*
X107819867Y-119974515D01*
X107756461Y-120034710D01*
X107665585Y-120072217D01*
X107546004Y-120088055D01*
X107478061Y-120092903D01*
X107419512Y-120104715D01*
X107385540Y-120124211D01*
X107380610Y-120130577D01*
X107375440Y-120142526D01*
X107370958Y-120161551D01*
X107367102Y-120190093D01*
X107363808Y-120230597D01*
X107361014Y-120285504D01*
X107358656Y-120357259D01*
X107356671Y-120448302D01*
X107354996Y-120561079D01*
X107353567Y-120698030D01*
X107352323Y-120861600D01*
X107351199Y-121054230D01*
X107350133Y-121278365D01*
X107349061Y-121536446D01*
X107348064Y-121791088D01*
X107347263Y-122014301D01*
X107346723Y-122206055D01*
X107346501Y-122368828D01*
X107346652Y-122505098D01*
X107347230Y-122617340D01*
X107348293Y-122708032D01*
X107349895Y-122779651D01*
X107352092Y-122834674D01*
X107354939Y-122875578D01*
X107358493Y-122904840D01*
X107362808Y-122924936D01*
X107367941Y-122938345D01*
X107373946Y-122947542D01*
X107380880Y-122955005D01*
X107381772Y-122955891D01*
X107413591Y-122978079D01*
X107458463Y-122989256D01*
X107527857Y-122992335D01*
X107551148Y-122992668D01*
X107656420Y-123005977D01*
X107738577Y-123040699D01*
X107804671Y-123099565D01*
X107835423Y-123144372D01*
X107864937Y-123231004D01*
X107863763Y-123320291D01*
X107833747Y-123404985D01*
X107776736Y-123477838D01*
X107694577Y-123531601D01*
X107689721Y-123533390D01*
X107654422Y-123539835D01*
X107592596Y-123545043D01*
X107502276Y-123549082D01*
X107381499Y-123552025D01*
X107228299Y-123553940D01*
X107040711Y-123554897D01*
X106967301Y-123555062D01*
X106816217Y-123555205D01*
X106695613Y-123554819D01*
X106601346Y-123553688D01*
X106529271Y-123551595D01*
X106475245Y-123548322D01*
X106435123Y-123543654D01*
X106404761Y-123537373D01*
X106380013Y-123529262D01*
X106356738Y-123519105D01*
X106307451Y-123490884D01*
X106251934Y-123433624D01*
X106224226Y-123357780D01*
X106221783Y-123258438D01*
X106232156Y-123192609D01*
X106269424Y-123104490D01*
X106332201Y-123041990D01*
X106421007Y-123004668D01*
X106536364Y-122992084D01*
X106547992Y-122992022D01*
X106617449Y-122988858D01*
X106660921Y-122978142D01*
X106687456Y-122955942D01*
X106706102Y-122918326D01*
X106707441Y-122912653D01*
X106711207Y-122873024D01*
X106714754Y-122801778D01*
X106718065Y-122702472D01*
X106721119Y-122578659D01*
X106723901Y-122433893D01*
X106726390Y-122271729D01*
X106728569Y-122095721D01*
X106730419Y-121909424D01*
X106731922Y-121716391D01*
X106733060Y-121520177D01*
X106733814Y-121324337D01*
X106734166Y-121132424D01*
X106734097Y-120947993D01*
X106733590Y-120774598D01*
X106732626Y-120615794D01*
X106731186Y-120475134D01*
X106729253Y-120356174D01*
X106726807Y-120262467D01*
X106723832Y-120197567D01*
X106720307Y-120165030D01*
X106716287Y-120151609D01*
X106701638Y-120128220D01*
X106673319Y-120112710D01*
X106623777Y-120101962D01*
X106545455Y-120092856D01*
X106452283Y-120080726D01*
X106385213Y-120063267D01*
X106334144Y-120036694D01*
X106288909Y-119997218D01*
X106266626Y-119972870D01*
X106241661Y-119934882D01*
X106228797Y-119889307D01*
X106222594Y-119821754D01*
X106222556Y-119759722D01*
X106240972Y-119673188D01*
X106284901Y-119608320D01*
X106356813Y-119560311D01*
X106357813Y-119559838D01*
X106379245Y-119551202D01*
X106405483Y-119544270D01*
X106440471Y-119538863D01*
X106488156Y-119534799D01*
X106552481Y-119531898D01*
X106637390Y-119529978D01*
X106746828Y-119528860D01*
X106884740Y-119528361D01*
X107055071Y-119528302D01*
X107141903Y-119528370D01*
G37*
G36*
X111194980Y-119399768D02*
G01*
X111307650Y-119400721D01*
X111395133Y-119403265D01*
X111464587Y-119407966D01*
X111523171Y-119415390D01*
X111578044Y-119426103D01*
X111636364Y-119440671D01*
X111848630Y-119504967D01*
X112073959Y-119594776D01*
X112275269Y-119702017D01*
X112458200Y-119829763D01*
X112628394Y-119981088D01*
X112668686Y-120021989D01*
X112844260Y-120228927D01*
X112987218Y-120450741D01*
X113097913Y-120688306D01*
X113176694Y-120942496D01*
X113223913Y-121214186D01*
X113239921Y-121504250D01*
X113233582Y-121655944D01*
X113211856Y-121837435D01*
X113176774Y-122020583D01*
X113130518Y-122195950D01*
X113075266Y-122354098D01*
X113013200Y-122485592D01*
X112973034Y-122556184D01*
X112910778Y-122660735D01*
X112855359Y-122745193D01*
X112800950Y-122817637D01*
X112741725Y-122886143D01*
X112671857Y-122958788D01*
X112647652Y-122982742D01*
X112465066Y-123142039D01*
X112271425Y-123272864D01*
X112061584Y-123377847D01*
X111830399Y-123459617D01*
X111572728Y-123520806D01*
X111530975Y-123528154D01*
X111318494Y-123550498D01*
X111090537Y-123552691D01*
X110856816Y-123535742D01*
X110627042Y-123500658D01*
X110410927Y-123448449D01*
X110218182Y-123380123D01*
X110197995Y-123371376D01*
X110033143Y-123291057D01*
X109882230Y-123201937D01*
X109748789Y-123107044D01*
X109636353Y-123009409D01*
X109548454Y-122912060D01*
X109488626Y-122818026D01*
X109460401Y-122730338D01*
X109458641Y-122708052D01*
X109472686Y-122620944D01*
X109515635Y-122536527D01*
X109582223Y-122462993D01*
X109667185Y-122408537D01*
X109698777Y-122395496D01*
X109805800Y-122373091D01*
X109907333Y-122386595D01*
X110002960Y-122435898D01*
X110092267Y-122520891D01*
X110217101Y-122646996D01*
X110378248Y-122761774D01*
X110561981Y-122850408D01*
X110766053Y-122912047D01*
X110988219Y-122945838D01*
X111226232Y-122950930D01*
X111311689Y-122946973D01*
X111390345Y-122942094D01*
X111449935Y-122937058D01*
X111481819Y-122932488D01*
X111496153Y-122928745D01*
X111545665Y-122916601D01*
X111605123Y-122902665D01*
X111632304Y-122895980D01*
X111687309Y-122879737D01*
X111723305Y-122865402D01*
X111736610Y-122858347D01*
X111781527Y-122835942D01*
X111836364Y-122809708D01*
X111910545Y-122773888D01*
X111975963Y-122737754D01*
X112030931Y-122699265D01*
X112087025Y-122650177D01*
X112155825Y-122582245D01*
X112254354Y-122474100D01*
X112390011Y-122286158D01*
X112493406Y-122083942D01*
X112566365Y-121864254D01*
X112577295Y-121814816D01*
X112595784Y-121685881D01*
X112606102Y-121540744D01*
X112607924Y-121392239D01*
X112600925Y-121253200D01*
X112584782Y-121136461D01*
X112557957Y-121028092D01*
X112493163Y-120845289D01*
X112407648Y-120669369D01*
X112305705Y-120507667D01*
X112191623Y-120367513D01*
X112069695Y-120256243D01*
X112021044Y-120221466D01*
X111896247Y-120145430D01*
X111762399Y-120078466D01*
X111636364Y-120029401D01*
X111622752Y-120025160D01*
X111448162Y-119985605D01*
X111258256Y-119966200D01*
X111064431Y-119966951D01*
X110878080Y-119987864D01*
X110710600Y-120028944D01*
X110660038Y-120047232D01*
X110520014Y-120115336D01*
X110398965Y-120200723D01*
X110301236Y-120299275D01*
X110231173Y-120406875D01*
X110193119Y-120519405D01*
X110161451Y-120601179D01*
X110101909Y-120668000D01*
X110021336Y-120714935D01*
X109926384Y-120738123D01*
X109823704Y-120733707D01*
X109754331Y-120714161D01*
X109678961Y-120667203D01*
X109627027Y-120595175D01*
X109623698Y-120587798D01*
X109615623Y-120562592D01*
X109609611Y-120527932D01*
X109605468Y-120479329D01*
X109602999Y-120412298D01*
X109602010Y-120322350D01*
X109602308Y-120204998D01*
X109603698Y-120055755D01*
X109604243Y-120008158D01*
X109606028Y-119872992D01*
X109608062Y-119768435D01*
X109610700Y-119690048D01*
X109614299Y-119633392D01*
X109619214Y-119594031D01*
X109625800Y-119567525D01*
X109634415Y-119549437D01*
X109645412Y-119535328D01*
X109692973Y-119493667D01*
X109780402Y-119450385D01*
X109878311Y-119431125D01*
X109977507Y-119436167D01*
X110068795Y-119465787D01*
X110142981Y-119520265D01*
X110195766Y-119576785D01*
X110357315Y-119521248D01*
X110444483Y-119491530D01*
X110544970Y-119458943D01*
X110629513Y-119435166D01*
X110706830Y-119418808D01*
X110785638Y-119408477D01*
X110874654Y-119402780D01*
X110982597Y-119400325D01*
X111118182Y-119399719D01*
X111194980Y-119399768D01*
G37*
G36*
X125542342Y-121791473D02*
G01*
X125524972Y-121915373D01*
X125481451Y-122045531D01*
X125409865Y-122189113D01*
X125408650Y-122191245D01*
X125341832Y-122279728D01*
X125247546Y-122366226D01*
X125134255Y-122444846D01*
X125010425Y-122509694D01*
X124884517Y-122554879D01*
X124879800Y-122556134D01*
X124701693Y-122586458D01*
X124510273Y-122589483D01*
X124314702Y-122566279D01*
X124124145Y-122517917D01*
X123947767Y-122445468D01*
X123800155Y-122370756D01*
X123745702Y-122425248D01*
X123726151Y-122443499D01*
X123636906Y-122500031D01*
X123528341Y-122529861D01*
X123396572Y-122534200D01*
X123324693Y-122526856D01*
X123251758Y-122512870D01*
X123199510Y-122495618D01*
X123148660Y-122461848D01*
X123100962Y-122397254D01*
X123075412Y-122307814D01*
X123070801Y-122190667D01*
X123071727Y-122180127D01*
X123097423Y-122118574D01*
X123154701Y-122063434D01*
X123239558Y-122017687D01*
X123347990Y-121984313D01*
X123382848Y-121968273D01*
X123408741Y-121923546D01*
X123411961Y-121895305D01*
X123414747Y-121837536D01*
X123416863Y-121757585D01*
X123418307Y-121661960D01*
X123419073Y-121557167D01*
X123419130Y-121485316D01*
X123945455Y-121485316D01*
X123950280Y-121586431D01*
X123979511Y-121733943D01*
X124035241Y-121856543D01*
X124117484Y-121954250D01*
X124226253Y-122027084D01*
X124361562Y-122075063D01*
X124372657Y-122077636D01*
X124510350Y-122096692D01*
X124643317Y-122092836D01*
X124763028Y-122067008D01*
X124860954Y-122020146D01*
X124863120Y-122018662D01*
X124929209Y-121954934D01*
X124975172Y-121874271D01*
X124998507Y-121785999D01*
X124996712Y-121699442D01*
X124967283Y-121623925D01*
X124941048Y-121590973D01*
X124863106Y-121526607D01*
X124755769Y-121466821D01*
X124623668Y-121413352D01*
X124471431Y-121367935D01*
X124303688Y-121332305D01*
X124125067Y-121308196D01*
X124116112Y-121307332D01*
X124054105Y-121302684D01*
X124016764Y-121304982D01*
X123993836Y-121316318D01*
X123975067Y-121338783D01*
X123972409Y-121342834D01*
X123952435Y-121400746D01*
X123945455Y-121485316D01*
X123419130Y-121485316D01*
X123419158Y-121449714D01*
X123418558Y-121346108D01*
X123417269Y-121252857D01*
X123415288Y-121176466D01*
X123412610Y-121123444D01*
X123409232Y-121100298D01*
X123405612Y-121087708D01*
X123401079Y-121042112D01*
X123398411Y-120972620D01*
X123397517Y-120887029D01*
X123398304Y-120793139D01*
X123400680Y-120698748D01*
X123404553Y-120611652D01*
X123409831Y-120539652D01*
X123416423Y-120490544D01*
X123426133Y-120449463D01*
X123465445Y-120334726D01*
X123519087Y-120225380D01*
X123582278Y-120129096D01*
X123650236Y-120053543D01*
X123718182Y-120006391D01*
X123723954Y-120003656D01*
X123767100Y-119980859D01*
X123817485Y-119951788D01*
X123824586Y-119947634D01*
X123921923Y-119907281D01*
X124045936Y-119879040D01*
X124189566Y-119863094D01*
X124345755Y-119859624D01*
X124507444Y-119868813D01*
X124667576Y-119890844D01*
X124819091Y-119925899D01*
X124922298Y-119962748D01*
X125051122Y-120026160D01*
X125169951Y-120102473D01*
X125265637Y-120184083D01*
X125295619Y-120215140D01*
X125333554Y-120258468D01*
X125353901Y-120293328D01*
X125362111Y-120330708D01*
X125363637Y-120381593D01*
X125361284Y-120422837D01*
X125335605Y-120507004D01*
X125280656Y-120570008D01*
X125195205Y-120613545D01*
X125171518Y-120620955D01*
X125098395Y-120632427D01*
X125031235Y-120620449D01*
X124961792Y-120582448D01*
X124881819Y-120515855D01*
X124873446Y-120508206D01*
X124764919Y-120427850D01*
X124644564Y-120367992D01*
X124518649Y-120329493D01*
X124393442Y-120313214D01*
X124275209Y-120320017D01*
X124170220Y-120350763D01*
X124084741Y-120406313D01*
X124031557Y-120465691D01*
X123993402Y-120545763D01*
X123981819Y-120643440D01*
X123982227Y-120673067D01*
X123990570Y-120747498D01*
X124013688Y-120796130D01*
X124056845Y-120826381D01*
X124125302Y-120845665D01*
X124253982Y-120872580D01*
X124405167Y-120907607D01*
X124559071Y-120946340D01*
X124709296Y-120986977D01*
X124849444Y-121027721D01*
X124973118Y-121066771D01*
X125073921Y-121102328D01*
X125145455Y-121132592D01*
X125224822Y-121180487D01*
X125323555Y-121262366D01*
X125409746Y-121357557D01*
X125472059Y-121454870D01*
X125488801Y-121489190D01*
X125510794Y-121538629D01*
X125523995Y-121581079D01*
X125532345Y-121630957D01*
X125539783Y-121702681D01*
X125542184Y-121785999D01*
X125542342Y-121791473D01*
G37*
G36*
X115826767Y-119401370D02*
G01*
X115936398Y-119407750D01*
X116030036Y-119421448D01*
X116118469Y-119444735D01*
X116212487Y-119479881D01*
X116322880Y-119529156D01*
X116383350Y-119560205D01*
X116526288Y-119658617D01*
X116649035Y-119779861D01*
X116748992Y-119919047D01*
X116823564Y-120071282D01*
X116870152Y-120231677D01*
X116886159Y-120395341D01*
X116868986Y-120557383D01*
X116857489Y-120605935D01*
X116792542Y-120792157D01*
X116698664Y-120956660D01*
X116574809Y-121101001D01*
X116419933Y-121226738D01*
X116412206Y-121231744D01*
X116367750Y-121257513D01*
X116298399Y-121295304D01*
X116210056Y-121341985D01*
X116108622Y-121394425D01*
X116000001Y-121449494D01*
X115929335Y-121485022D01*
X115757380Y-121572172D01*
X115613599Y-121646402D01*
X115494587Y-121709714D01*
X115396938Y-121764108D01*
X115317247Y-121811584D01*
X115252105Y-121854145D01*
X115198109Y-121893789D01*
X115151852Y-121932518D01*
X115109928Y-121972334D01*
X115083604Y-121999426D01*
X115005239Y-122094050D01*
X114954644Y-122186086D01*
X114927535Y-122285186D01*
X114919627Y-122401002D01*
X114931290Y-122529244D01*
X114972744Y-122656772D01*
X115044768Y-122765099D01*
X115147954Y-122855086D01*
X115282897Y-122927592D01*
X115320488Y-122943129D01*
X115369535Y-122960567D01*
X115417093Y-122971766D01*
X115472625Y-122978151D01*
X115545591Y-122981146D01*
X115645455Y-122982177D01*
X115784693Y-122979660D01*
X115908981Y-122968991D01*
X116011649Y-122949064D01*
X116100001Y-122918861D01*
X116153557Y-122895691D01*
X116229612Y-122860520D01*
X116283641Y-122830993D01*
X116323467Y-122802602D01*
X116356910Y-122770841D01*
X116363609Y-122763663D01*
X116408353Y-122710101D01*
X116437518Y-122658422D01*
X116456700Y-122595877D01*
X116471495Y-122509713D01*
X116482172Y-122453869D01*
X116517814Y-122364962D01*
X116574793Y-122304349D01*
X116655827Y-122269696D01*
X116763637Y-122258664D01*
X116814500Y-122260891D01*
X116902689Y-122281423D01*
X116967305Y-122325579D01*
X117013065Y-122395957D01*
X117019319Y-122410582D01*
X117029007Y-122439105D01*
X117036123Y-122473020D01*
X117040984Y-122517494D01*
X117043904Y-122577692D01*
X117045202Y-122658778D01*
X117045193Y-122765917D01*
X117044193Y-122904275D01*
X117043043Y-123014189D01*
X117040606Y-123140076D01*
X117036221Y-123237478D01*
X117028804Y-123311004D01*
X117017269Y-123365266D01*
X117000532Y-123404874D01*
X116977507Y-123434438D01*
X116947109Y-123458570D01*
X116908254Y-123481880D01*
X116824863Y-123513691D01*
X116725498Y-123516797D01*
X116624043Y-123485064D01*
X116523208Y-123418933D01*
X116473689Y-123377585D01*
X116268663Y-123448704D01*
X116190679Y-123474557D01*
X116111256Y-123498375D01*
X116047678Y-123514768D01*
X116009091Y-123521183D01*
X115963674Y-123526050D01*
X115918182Y-123538180D01*
X115908635Y-123541193D01*
X115860558Y-123548084D01*
X115788689Y-123552523D01*
X115702265Y-123554510D01*
X115610520Y-123554051D01*
X115522690Y-123551147D01*
X115448010Y-123545801D01*
X115395716Y-123538017D01*
X115355431Y-123528493D01*
X115281071Y-123510952D01*
X115205870Y-123493245D01*
X115160999Y-123481566D01*
X114987933Y-123416414D01*
X114820396Y-123323403D01*
X114665973Y-123207997D01*
X114532248Y-123075662D01*
X114426804Y-122931862D01*
X114391246Y-122867988D01*
X114319258Y-122690699D01*
X114280944Y-122506755D01*
X114276981Y-122320677D01*
X114308043Y-122136988D01*
X114312804Y-122119791D01*
X114336808Y-122042905D01*
X114361789Y-121975555D01*
X114383043Y-121930673D01*
X114386266Y-121925341D01*
X114412717Y-121879626D01*
X114430324Y-121846060D01*
X114441586Y-121823790D01*
X114494104Y-121744690D01*
X114567066Y-121657520D01*
X114652738Y-121570984D01*
X114743388Y-121493783D01*
X114777529Y-121467653D01*
X114820079Y-121436014D01*
X114860499Y-121407984D01*
X114903754Y-121380755D01*
X114954810Y-121351515D01*
X115018633Y-121317455D01*
X115100189Y-121275766D01*
X115204444Y-121223637D01*
X115336364Y-121158258D01*
X115399491Y-121127019D01*
X115519945Y-121067395D01*
X115634802Y-121010526D01*
X115737310Y-120959752D01*
X115820720Y-120918418D01*
X115878281Y-120889866D01*
X115885025Y-120886483D01*
X116000273Y-120817708D01*
X116102496Y-120736771D01*
X116184219Y-120650418D01*
X116237962Y-120565395D01*
X116257711Y-120508098D01*
X116272119Y-120401235D01*
X116264386Y-120291907D01*
X116234653Y-120195888D01*
X116220255Y-120169638D01*
X116154196Y-120087575D01*
X116065256Y-120014723D01*
X115963637Y-119959961D01*
X115915682Y-119944205D01*
X115856232Y-119933710D01*
X115778189Y-119928175D01*
X115672728Y-119926587D01*
X115583169Y-119927434D01*
X115509960Y-119931223D01*
X115451685Y-119939620D01*
X115397167Y-119954294D01*
X115335229Y-119976909D01*
X115332506Y-119977982D01*
X115235991Y-120025613D01*
X115154109Y-120084059D01*
X115091942Y-120148111D01*
X115054571Y-120212562D01*
X115047079Y-120272206D01*
X115048132Y-120280134D01*
X115041157Y-120352289D01*
X115010736Y-120427801D01*
X114962742Y-120491410D01*
X114948991Y-120504266D01*
X114919390Y-120526620D01*
X114886277Y-120538892D01*
X114838708Y-120544067D01*
X114765737Y-120545128D01*
X114698939Y-120543922D01*
X114642371Y-120537841D01*
X114599945Y-120524239D01*
X114559607Y-120500507D01*
X114513692Y-120459576D01*
X114476404Y-120391338D01*
X114473740Y-120379308D01*
X114467541Y-120324844D01*
X114463300Y-120245702D01*
X114460920Y-120148665D01*
X114460306Y-120040515D01*
X114461363Y-119928038D01*
X114463997Y-119818016D01*
X114468110Y-119717233D01*
X114473609Y-119632472D01*
X114480399Y-119570517D01*
X114488383Y-119538152D01*
X114493999Y-119529494D01*
X114539401Y-119489425D01*
X114606880Y-119455051D01*
X114684625Y-119431349D01*
X114760826Y-119423300D01*
X114780321Y-119424575D01*
X114858104Y-119440852D01*
X114936764Y-119471031D01*
X114977651Y-119490079D01*
X115025465Y-119509567D01*
X115052951Y-119517120D01*
X115057642Y-119516850D01*
X115076648Y-119513242D01*
X115109857Y-119504226D01*
X115162344Y-119488283D01*
X115239185Y-119463893D01*
X115345455Y-119429537D01*
X115364952Y-119423430D01*
X115409091Y-119410408D01*
X115416245Y-119409044D01*
X115458038Y-119405523D01*
X115525858Y-119402667D01*
X115612083Y-119400740D01*
X115709091Y-119400006D01*
X115826767Y-119401370D01*
G37*
G36*
X120801881Y-119897037D02*
G01*
X120971126Y-119960775D01*
X121125698Y-120056365D01*
X121250441Y-120151473D01*
X121307814Y-120080028D01*
X121338095Y-120046938D01*
X121433876Y-119978597D01*
X121556411Y-119931197D01*
X121702993Y-119905591D01*
X121870918Y-119902631D01*
X121883798Y-119903313D01*
X121989677Y-119915082D01*
X122065818Y-119937825D01*
X122117314Y-119973786D01*
X122149258Y-120025206D01*
X122179819Y-120132375D01*
X122182088Y-120233250D01*
X122154689Y-120317512D01*
X122099266Y-120382288D01*
X122017463Y-120424701D01*
X121910926Y-120441877D01*
X121884608Y-120444673D01*
X121852270Y-120461442D01*
X121831428Y-120499734D01*
X121816470Y-120566982D01*
X121814691Y-120581071D01*
X121811101Y-120636964D01*
X121808539Y-120719412D01*
X121806944Y-120823571D01*
X121806253Y-120944600D01*
X121806402Y-121077658D01*
X121807330Y-121217902D01*
X121808974Y-121360491D01*
X121811270Y-121500583D01*
X121814156Y-121633337D01*
X121817571Y-121753910D01*
X121821450Y-121857462D01*
X121825731Y-121939149D01*
X121830351Y-121994131D01*
X121835249Y-122017566D01*
X121856130Y-122029684D01*
X121904615Y-122043835D01*
X121967011Y-122054236D01*
X121988537Y-122056862D01*
X122051246Y-122069278D01*
X122096271Y-122090399D01*
X122138361Y-122126438D01*
X122156105Y-122145553D01*
X122204186Y-122224849D01*
X122216701Y-122307046D01*
X122193683Y-122388569D01*
X122135165Y-122465847D01*
X122070708Y-122528366D01*
X121574848Y-122528366D01*
X121078988Y-122528366D01*
X121013698Y-122478531D01*
X121007224Y-122473458D01*
X120945975Y-122404009D01*
X120918589Y-122322836D01*
X120926049Y-122232699D01*
X120941638Y-122188307D01*
X120984978Y-122126300D01*
X121052359Y-122084017D01*
X121149011Y-122057345D01*
X121150008Y-122057166D01*
X121212304Y-122044621D01*
X121247816Y-122031596D01*
X121265663Y-122012667D01*
X121274963Y-121982408D01*
X121278022Y-121951845D01*
X121281025Y-121889557D01*
X121283714Y-121801490D01*
X121285957Y-121693050D01*
X121287618Y-121569643D01*
X121288562Y-121436676D01*
X121288809Y-121328944D01*
X121287829Y-121174682D01*
X121284152Y-121049079D01*
X121276678Y-120947303D01*
X121264306Y-120864519D01*
X121245937Y-120795895D01*
X121220471Y-120736597D01*
X121186808Y-120681793D01*
X121143848Y-120626647D01*
X121090491Y-120566329D01*
X121071729Y-120546477D01*
X120964212Y-120455737D01*
X120851460Y-120394594D01*
X120737640Y-120362234D01*
X120626918Y-120357847D01*
X120523461Y-120380620D01*
X120431435Y-120429741D01*
X120355007Y-120504399D01*
X120298343Y-120603782D01*
X120265609Y-120727077D01*
X120265564Y-120727398D01*
X120261322Y-120774977D01*
X120257359Y-120852253D01*
X120253753Y-120953220D01*
X120250581Y-121071871D01*
X120247919Y-121202200D01*
X120245845Y-121338201D01*
X120244436Y-121473867D01*
X120243770Y-121603192D01*
X120243922Y-121720171D01*
X120244972Y-121818796D01*
X120246995Y-121893062D01*
X120250068Y-121936961D01*
X120263637Y-122036960D01*
X120369137Y-122050144D01*
X120413524Y-122057044D01*
X120477289Y-122071320D01*
X120521843Y-122086606D01*
X120553005Y-122106787D01*
X120600650Y-122165644D01*
X120627311Y-122240860D01*
X120631777Y-122322713D01*
X120612838Y-122401478D01*
X120569281Y-122467434D01*
X120510537Y-122510245D01*
X120428751Y-122533974D01*
X120412598Y-122535637D01*
X120354575Y-122538371D01*
X120269795Y-122539965D01*
X120164786Y-122540375D01*
X120046076Y-122539556D01*
X119920194Y-122537464D01*
X119783084Y-122534193D01*
X119676241Y-122530726D01*
X119596254Y-122526674D01*
X119538348Y-122521621D01*
X119497750Y-122515148D01*
X119469685Y-122506837D01*
X119449379Y-122496272D01*
X119435167Y-122486260D01*
X119373259Y-122420138D01*
X119338223Y-122340062D01*
X119332515Y-122254773D01*
X119358588Y-122173010D01*
X119373490Y-122148830D01*
X119419822Y-122101501D01*
X119483331Y-122074332D01*
X119572728Y-122062842D01*
X119612055Y-122060947D01*
X119647541Y-122057048D01*
X119674883Y-122047563D01*
X119695141Y-122028644D01*
X119709375Y-121996438D01*
X119718645Y-121947097D01*
X119724009Y-121876768D01*
X119726529Y-121781603D01*
X119727264Y-121657751D01*
X119727273Y-121501360D01*
X119727062Y-121392159D01*
X119725529Y-121238655D01*
X119721986Y-121113878D01*
X119715821Y-121013068D01*
X119706419Y-120931467D01*
X119693168Y-120864315D01*
X119675451Y-120806853D01*
X119652657Y-120754320D01*
X119624171Y-120701959D01*
X119605347Y-120672761D01*
X119552927Y-120606032D01*
X119490907Y-120539882D01*
X119429063Y-120484307D01*
X119377168Y-120449306D01*
X119309176Y-120416844D01*
X119241832Y-120388728D01*
X119185747Y-120372767D01*
X119129393Y-120365884D01*
X119061240Y-120365003D01*
X119003108Y-120366898D01*
X118947177Y-120374274D01*
X118903250Y-120390598D01*
X118857450Y-120419588D01*
X118852844Y-120422908D01*
X118781481Y-120489174D01*
X118729989Y-120571957D01*
X118695580Y-120677258D01*
X118675462Y-120811079D01*
X118673697Y-120832269D01*
X118669090Y-120912986D01*
X118665574Y-121014449D01*
X118663117Y-121131465D01*
X118661685Y-121258841D01*
X118661246Y-121391382D01*
X118661766Y-121523896D01*
X118663212Y-121651189D01*
X118665553Y-121768067D01*
X118668753Y-121869337D01*
X118672782Y-121949805D01*
X118677605Y-122004277D01*
X118683189Y-122027561D01*
X118694332Y-122034357D01*
X118736047Y-122047022D01*
X118792280Y-122055915D01*
X118857656Y-122065721D01*
X118937640Y-122094355D01*
X118992666Y-122142158D01*
X119028207Y-122212771D01*
X119032639Y-122227137D01*
X119044420Y-122323957D01*
X119023666Y-122411391D01*
X118971500Y-122484064D01*
X118924408Y-122528366D01*
X118440786Y-122533781D01*
X118433442Y-122533863D01*
X118278221Y-122535290D01*
X118154753Y-122535313D01*
X118058624Y-122533296D01*
X117985419Y-122528602D01*
X117930722Y-122520597D01*
X117890120Y-122508643D01*
X117859196Y-122492105D01*
X117833535Y-122470347D01*
X117808723Y-122442733D01*
X117803002Y-122435699D01*
X117772471Y-122379086D01*
X117763637Y-122307728D01*
X117763946Y-122291008D01*
X117780789Y-122198602D01*
X117824482Y-122129340D01*
X117896608Y-122081507D01*
X117998752Y-122053389D01*
X118003166Y-122052645D01*
X118060008Y-122034658D01*
X118092075Y-122007634D01*
X118093869Y-122001858D01*
X118098813Y-121963010D01*
X118103743Y-121893618D01*
X118108468Y-121797953D01*
X118112796Y-121680280D01*
X118116535Y-121544870D01*
X118119494Y-121395989D01*
X118119780Y-121378464D01*
X118122947Y-121194937D01*
X118126000Y-121043437D01*
X118129129Y-120919947D01*
X118132527Y-120820452D01*
X118136386Y-120740938D01*
X118140897Y-120677390D01*
X118146252Y-120625792D01*
X118152642Y-120582130D01*
X118160260Y-120542389D01*
X118164899Y-120522329D01*
X118214406Y-120387386D01*
X118291820Y-120254633D01*
X118390478Y-120132510D01*
X118503716Y-120029456D01*
X118624871Y-119953912D01*
X118752505Y-119907232D01*
X118912853Y-119881090D01*
X119080303Y-119884388D01*
X119247532Y-119916898D01*
X119407219Y-119978389D01*
X119408569Y-119979058D01*
X119501678Y-120031878D01*
X119586819Y-120096261D01*
X119677147Y-120182136D01*
X119706707Y-120212070D01*
X119773144Y-120274647D01*
X119819149Y-120309320D01*
X119845892Y-120316853D01*
X119854546Y-120298011D01*
X119855729Y-120292637D01*
X119873394Y-120261059D01*
X119907019Y-120214122D01*
X119949868Y-120160392D01*
X119995206Y-120108436D01*
X120036300Y-120066821D01*
X120095687Y-120019638D01*
X120219257Y-119950179D01*
X120359395Y-119899566D01*
X120505121Y-119871363D01*
X120645455Y-119869133D01*
X120801881Y-119897037D01*
G37*
G36*
X130001724Y-118480978D02*
G01*
X130153879Y-118481548D01*
X130274976Y-118482670D01*
X130369155Y-118484553D01*
X130440556Y-118487408D01*
X130493319Y-118491443D01*
X130531582Y-118496868D01*
X130559486Y-118503893D01*
X130581170Y-118512729D01*
X130644499Y-118556038D01*
X130697177Y-118625325D01*
X130723533Y-118706128D01*
X130723746Y-118791185D01*
X130697992Y-118873235D01*
X130646448Y-118945015D01*
X130569293Y-118999263D01*
X130540745Y-119010387D01*
X130466665Y-119027881D01*
X130384637Y-119036342D01*
X130328969Y-119040529D01*
X130276516Y-119049648D01*
X130248274Y-119061242D01*
X130246854Y-119064975D01*
X130243042Y-119098802D01*
X130239476Y-119164412D01*
X130236169Y-119258413D01*
X130233137Y-119377413D01*
X130230391Y-119518018D01*
X130227946Y-119676836D01*
X130225816Y-119850474D01*
X130224013Y-120035540D01*
X130222553Y-120228640D01*
X130221448Y-120426383D01*
X130220713Y-120625375D01*
X130220360Y-120822223D01*
X130220404Y-121013536D01*
X130220858Y-121195920D01*
X130221737Y-121365982D01*
X130223052Y-121520330D01*
X130224820Y-121655572D01*
X130227052Y-121768314D01*
X130229763Y-121855163D01*
X130232966Y-121912728D01*
X130236675Y-121937615D01*
X130242753Y-121947268D01*
X130264193Y-121963553D01*
X130302610Y-121971394D01*
X130367627Y-121973423D01*
X130382153Y-121973627D01*
X130494549Y-121990200D01*
X130589702Y-122030826D01*
X130663169Y-122091948D01*
X130710507Y-122170009D01*
X130727273Y-122261449D01*
X130719710Y-122312001D01*
X130685102Y-122388438D01*
X130629682Y-122457156D01*
X130561450Y-122506341D01*
X130557532Y-122508206D01*
X130534985Y-122516493D01*
X130504827Y-122523040D01*
X130462951Y-122528049D01*
X130405249Y-122531720D01*
X130327614Y-122534254D01*
X130225939Y-122535853D01*
X130096117Y-122536718D01*
X129934039Y-122537049D01*
X129778170Y-122536983D01*
X129636182Y-122536103D01*
X129522871Y-122533798D01*
X129434195Y-122529469D01*
X129366110Y-122522520D01*
X129314575Y-122512353D01*
X129275547Y-122498370D01*
X129244984Y-122479975D01*
X129218842Y-122456570D01*
X129193080Y-122427558D01*
X129154780Y-122373094D01*
X129131034Y-122300434D01*
X129135686Y-122216274D01*
X129140012Y-122196112D01*
X129175811Y-122109661D01*
X129236790Y-122046061D01*
X129325113Y-122003652D01*
X129442947Y-121980772D01*
X129506892Y-121971196D01*
X129561668Y-121957192D01*
X129592260Y-121942180D01*
X129598322Y-121932610D01*
X129604511Y-121910348D01*
X129609315Y-121873272D01*
X129612886Y-121817788D01*
X129615377Y-121740300D01*
X129616942Y-121637212D01*
X129617733Y-121504928D01*
X129617904Y-121339853D01*
X129617828Y-121291457D01*
X129616903Y-121144701D01*
X129615033Y-121014281D01*
X129612332Y-120904208D01*
X129608917Y-120818493D01*
X129604905Y-120761145D01*
X129600411Y-120736174D01*
X129597992Y-120733011D01*
X129569433Y-120717803D01*
X129512576Y-120706359D01*
X129423417Y-120697812D01*
X129366044Y-120695198D01*
X129277337Y-120692937D01*
X129162997Y-120691060D01*
X129028409Y-120689575D01*
X128878957Y-120688490D01*
X128720028Y-120687814D01*
X128557006Y-120687555D01*
X128395275Y-120687722D01*
X128240223Y-120688324D01*
X128097232Y-120689368D01*
X127971689Y-120690864D01*
X127868979Y-120692820D01*
X127794487Y-120695244D01*
X127723054Y-120698958D01*
X127672329Y-120704152D01*
X127642664Y-120712931D01*
X127626069Y-120727780D01*
X127614551Y-120751185D01*
X127610894Y-120766017D01*
X127605055Y-120820193D01*
X127600267Y-120908192D01*
X127596588Y-121028372D01*
X127594077Y-121179088D01*
X127592792Y-121358696D01*
X127592750Y-121371503D01*
X127592465Y-121529471D01*
X127592851Y-121655153D01*
X127594078Y-121752374D01*
X127596312Y-121824955D01*
X127599725Y-121876722D01*
X127604484Y-121911497D01*
X127610760Y-121933105D01*
X127618719Y-121945367D01*
X127633954Y-121955487D01*
X127689491Y-121971271D01*
X127775403Y-121980479D01*
X127809371Y-121982645D01*
X127882367Y-121991255D01*
X127935140Y-122007539D01*
X127979504Y-122036271D01*
X128027273Y-122082221D01*
X128052693Y-122111258D01*
X128071646Y-122145440D01*
X128079969Y-122189386D01*
X128081819Y-122256371D01*
X128081793Y-122272241D01*
X128079573Y-122331462D01*
X128069699Y-122371468D01*
X128046493Y-122406492D01*
X128004279Y-122450770D01*
X127926738Y-122528366D01*
X127303552Y-122528366D01*
X126680365Y-122528366D01*
X126623960Y-122482879D01*
X126593882Y-122455279D01*
X126538934Y-122376557D01*
X126512231Y-122288770D01*
X126515398Y-122199944D01*
X126550062Y-122118108D01*
X126557900Y-122106932D01*
X126621595Y-122042903D01*
X126705080Y-122001708D01*
X126814750Y-121980009D01*
X126845828Y-121977813D01*
X126873444Y-121976649D01*
X126897286Y-121974236D01*
X126917632Y-121968230D01*
X126934758Y-121956291D01*
X126948942Y-121936074D01*
X126960459Y-121905238D01*
X126969587Y-121861440D01*
X126976601Y-121802337D01*
X126981780Y-121725587D01*
X126985398Y-121628847D01*
X126987734Y-121509774D01*
X126989064Y-121366027D01*
X126989664Y-121195263D01*
X126989811Y-120995138D01*
X126989782Y-120763311D01*
X126989853Y-120497438D01*
X126990002Y-120282552D01*
X126990089Y-120051592D01*
X126990019Y-119852587D01*
X126989733Y-119683100D01*
X126989173Y-119540692D01*
X126988280Y-119422928D01*
X126986995Y-119327371D01*
X126985261Y-119251582D01*
X126983018Y-119193126D01*
X126980209Y-119149565D01*
X126976775Y-119118461D01*
X126972657Y-119097379D01*
X126967796Y-119083880D01*
X126962136Y-119075528D01*
X126955616Y-119069885D01*
X126949150Y-119065806D01*
X126903176Y-119049840D01*
X126846525Y-119042655D01*
X126768260Y-119035679D01*
X126667465Y-119004687D01*
X126592052Y-118950642D01*
X126544108Y-118875252D01*
X126525719Y-118780223D01*
X126530740Y-118690133D01*
X126555262Y-118617779D01*
X126602617Y-118560286D01*
X126621488Y-118544261D01*
X126647644Y-118525941D01*
X126677758Y-118511512D01*
X126715881Y-118500558D01*
X126766062Y-118492663D01*
X126832352Y-118487409D01*
X126918800Y-118484380D01*
X127029457Y-118483159D01*
X127168374Y-118483330D01*
X127339600Y-118484477D01*
X127400526Y-118484968D01*
X127550380Y-118486348D01*
X127669321Y-118487917D01*
X127761379Y-118489941D01*
X127830582Y-118492687D01*
X127880962Y-118496425D01*
X127916548Y-118501420D01*
X127941370Y-118507940D01*
X127959457Y-118516253D01*
X127974840Y-118526625D01*
X127998517Y-118545191D01*
X128058600Y-118608049D01*
X128089835Y-118677321D01*
X128097539Y-118763269D01*
X128081108Y-118858446D01*
X128035056Y-118937962D01*
X127960917Y-118996152D01*
X127860146Y-119031891D01*
X127734198Y-119044054D01*
X127697595Y-119045376D01*
X127650447Y-119051949D01*
X127627315Y-119062180D01*
X127622091Y-119072049D01*
X127614810Y-119094201D01*
X127609192Y-119127057D01*
X127605006Y-119174897D01*
X127602017Y-119242002D01*
X127599993Y-119332654D01*
X127598699Y-119451133D01*
X127597903Y-119601720D01*
X127597873Y-119610049D01*
X127597890Y-119757765D01*
X127599198Y-119873286D01*
X127601986Y-119960590D01*
X127606441Y-120023655D01*
X127612751Y-120066459D01*
X127621104Y-120092980D01*
X127645940Y-120144842D01*
X128598630Y-120149554D01*
X128673388Y-120149916D01*
X128873714Y-120150765D01*
X129041639Y-120151203D01*
X129180131Y-120151155D01*
X129292161Y-120150542D01*
X129380695Y-120149288D01*
X129448704Y-120147316D01*
X129499154Y-120144548D01*
X129535016Y-120140909D01*
X129559257Y-120136321D01*
X129574846Y-120130707D01*
X129584752Y-120123991D01*
X129588707Y-120120150D01*
X129597777Y-120107433D01*
X129604779Y-120087886D01*
X129609978Y-120057288D01*
X129613637Y-120011415D01*
X129616023Y-119946044D01*
X129617399Y-119856953D01*
X129618031Y-119739919D01*
X129618182Y-119590718D01*
X129618178Y-119574222D01*
X129617590Y-119414487D01*
X129615928Y-119288261D01*
X129613084Y-119192915D01*
X129608948Y-119125822D01*
X129603411Y-119084355D01*
X129596364Y-119065888D01*
X129590049Y-119061283D01*
X129551421Y-119048987D01*
X129498452Y-119044054D01*
X129426744Y-119038851D01*
X129328150Y-119014196D01*
X129245869Y-118972730D01*
X129189345Y-118918294D01*
X129168400Y-118879819D01*
X129146970Y-118792902D01*
X129151235Y-118701325D01*
X129179903Y-118616343D01*
X129231684Y-118549214D01*
X129232041Y-118548905D01*
X129256754Y-118530352D01*
X129286035Y-118515427D01*
X129323858Y-118503752D01*
X129374197Y-118494952D01*
X129441026Y-118488650D01*
X129528318Y-118484469D01*
X129640048Y-118482032D01*
X129780188Y-118480964D01*
X129952714Y-118480888D01*
X130001724Y-118480978D01*
G37*
G36*
X104236265Y-104736034D02*
G01*
X104434474Y-104742542D01*
X104671892Y-104756687D01*
X104816588Y-104778749D01*
X104891328Y-104812984D01*
X104918877Y-104863646D01*
X104913874Y-104923964D01*
X104838537Y-104969371D01*
X104661110Y-104992908D01*
X104382442Y-105012977D01*
X104364234Y-105772392D01*
X104359974Y-105938796D01*
X104349824Y-106209674D01*
X104334901Y-106382891D01*
X104311142Y-106479970D01*
X104274485Y-106522435D01*
X104220865Y-106531806D01*
X104193400Y-106530172D01*
X104148225Y-106507992D01*
X104118110Y-106442647D01*
X104098992Y-106312613D01*
X104086809Y-106096369D01*
X104077496Y-105772392D01*
X104059287Y-105012977D01*
X103816921Y-104992918D01*
X103710291Y-104979728D01*
X103603155Y-104934643D01*
X103574554Y-104845237D01*
X103574764Y-104831824D01*
X103587589Y-104779168D01*
X103637013Y-104747079D01*
X103746175Y-104731739D01*
X103938212Y-104729331D01*
X104236265Y-104736034D01*
G37*
G36*
X104724587Y-109294784D02*
G01*
X104730231Y-109410574D01*
X104750949Y-109620668D01*
X104785067Y-109731212D01*
X104837691Y-109763359D01*
X104892635Y-109787837D01*
X104931806Y-109892621D01*
X104913813Y-109968000D01*
X104834860Y-110021883D01*
X104793741Y-110033709D01*
X104750601Y-110121026D01*
X104737913Y-110312722D01*
X104737296Y-110391168D01*
X104723282Y-110532254D01*
X104676042Y-110591508D01*
X104576336Y-110603562D01*
X104538757Y-110602779D01*
X104456553Y-110579272D01*
X104421878Y-110496771D01*
X104414758Y-110320252D01*
X104414758Y-110036941D01*
X103985949Y-110009637D01*
X103810248Y-109995542D01*
X103628888Y-109963268D01*
X103507407Y-109904504D01*
X103404269Y-109804610D01*
X103344179Y-109722781D01*
X103261658Y-109495222D01*
X103517926Y-109495222D01*
X103628117Y-109656395D01*
X103797402Y-109735473D01*
X104080534Y-109763359D01*
X104414758Y-109763359D01*
X104414758Y-109407888D01*
X104414758Y-109052417D01*
X104091603Y-109052417D01*
X104066102Y-109052723D01*
X103809860Y-109095042D01*
X103623369Y-109195557D01*
X103521201Y-109335280D01*
X103517926Y-109495222D01*
X103261658Y-109495222D01*
X103256107Y-109479915D01*
X103276344Y-109234184D01*
X103404862Y-109022341D01*
X103445724Y-108986294D01*
X103683610Y-108868330D01*
X104013811Y-108806468D01*
X104414758Y-108805342D01*
X104705598Y-108826208D01*
X104714765Y-109052417D01*
X104724587Y-109294784D01*
G37*
G36*
X104734238Y-108060382D02*
G01*
X104820933Y-108266118D01*
X104871706Y-108389949D01*
X104887108Y-108432450D01*
X104888684Y-108515642D01*
X104799559Y-108535369D01*
X104699442Y-108499692D01*
X104596891Y-108373791D01*
X104548148Y-108289212D01*
X104473093Y-108238598D01*
X104339452Y-108216850D01*
X104111944Y-108212214D01*
X103887565Y-108216416D01*
X103755141Y-108236940D01*
X103683768Y-108285495D01*
X103639185Y-108373791D01*
X103575556Y-108476280D01*
X103446892Y-108535369D01*
X103370487Y-108530930D01*
X103316030Y-108511935D01*
X103318804Y-108502434D01*
X103357482Y-108402858D01*
X103434636Y-108213801D01*
X103541188Y-107957345D01*
X103541916Y-107955614D01*
X103866584Y-107955614D01*
X103874332Y-107964942D01*
X103978120Y-108004449D01*
X104137233Y-108016770D01*
X104291182Y-108001564D01*
X104379474Y-107958493D01*
X104381067Y-107901309D01*
X104342315Y-107752774D01*
X104267300Y-107558351D01*
X104118151Y-107218036D01*
X103972990Y-107555472D01*
X103916256Y-107701221D01*
X103869133Y-107866260D01*
X103866584Y-107955614D01*
X103541916Y-107955614D01*
X103668060Y-107655574D01*
X104020089Y-106822646D01*
X104379001Y-106803263D01*
X104531724Y-106796921D01*
X104666842Y-106804640D01*
X104725288Y-106841215D01*
X104737913Y-106916367D01*
X104735575Y-106953806D01*
X104685417Y-107028963D01*
X104544020Y-107048855D01*
X104541681Y-107048859D01*
X104406313Y-107066393D01*
X104350127Y-107107759D01*
X104355585Y-107133099D01*
X104400060Y-107259962D01*
X104479596Y-107460851D01*
X104582466Y-107705596D01*
X104627127Y-107809429D01*
X104666343Y-107901309D01*
X104734238Y-108060382D01*
G37*
G36*
X104780370Y-111752196D02*
G01*
X104834860Y-111808180D01*
X104879805Y-111834960D01*
X104931806Y-111928499D01*
X104920687Y-111971299D01*
X104834860Y-112048817D01*
X104819837Y-112056303D01*
X104757864Y-112161365D01*
X104737913Y-112378887D01*
X104737887Y-112393931D01*
X104728013Y-112569898D01*
X104690755Y-112651696D01*
X104612192Y-112671756D01*
X104606147Y-112671693D01*
X104529539Y-112646586D01*
X104488002Y-112554662D01*
X104466772Y-112364758D01*
X104457581Y-112244617D01*
X104430429Y-112116042D01*
X104367985Y-112059364D01*
X104245569Y-112038145D01*
X104157682Y-112035455D01*
X104053895Y-112067436D01*
X103948868Y-112162880D01*
X103809417Y-112345143D01*
X103725434Y-112454685D01*
X103567326Y-112615073D01*
X103445400Y-112671756D01*
X103352119Y-112658995D01*
X103326707Y-112605996D01*
X103378676Y-112493483D01*
X103511469Y-112302203D01*
X103706907Y-112036448D01*
X103516410Y-111900802D01*
X103501409Y-111889811D01*
X103330648Y-111690249D01*
X103295746Y-111538712D01*
X103526655Y-111538712D01*
X103639185Y-111702290D01*
X103688528Y-111744346D01*
X103849367Y-111811683D01*
X104093631Y-111831552D01*
X104095859Y-111831551D01*
X104311878Y-111818274D01*
X104429964Y-111760495D01*
X104473917Y-111630879D01*
X104467538Y-111402089D01*
X104447074Y-111152926D01*
X104111025Y-111133504D01*
X103906527Y-111131303D01*
X103755719Y-111164598D01*
X103642450Y-111246608D01*
X103539103Y-111383244D01*
X103526655Y-111538712D01*
X103295746Y-111538712D01*
X103275423Y-111450477D01*
X103342283Y-111196966D01*
X103445373Y-111059267D01*
X103634483Y-110945571D01*
X103911833Y-110881920D01*
X104295140Y-110862086D01*
X104737913Y-110862086D01*
X104737913Y-111316532D01*
X104738317Y-111389905D01*
X104749743Y-111620652D01*
X104752124Y-111630879D01*
X104780370Y-111752196D01*
G37*
G36*
X109533380Y-107996710D02*
G01*
X109552926Y-108373791D01*
X109892239Y-108393327D01*
X110231552Y-108412862D01*
X110231552Y-108793893D01*
X110231552Y-109174924D01*
X109892239Y-109194459D01*
X109552926Y-109213995D01*
X109533380Y-109591076D01*
X109530203Y-109666820D01*
X109541386Y-109912212D01*
X109604538Y-110059841D01*
X109736424Y-110132041D01*
X109953808Y-110151145D01*
X110241916Y-110151145D01*
X110220576Y-110522773D01*
X110199236Y-110894402D01*
X109876081Y-110926717D01*
X109552926Y-110959033D01*
X109552926Y-111379135D01*
X109552926Y-111799236D01*
X109876081Y-111831552D01*
X110199236Y-111863868D01*
X110199236Y-112251654D01*
X110199236Y-112639440D01*
X109876081Y-112671756D01*
X109712656Y-112690688D01*
X109600637Y-112724856D01*
X109555292Y-112795867D01*
X109542336Y-112930280D01*
X109541177Y-112954552D01*
X109532651Y-113108548D01*
X109526178Y-113188804D01*
X109526044Y-113189115D01*
X109458425Y-113197608D01*
X109278858Y-113205249D01*
X109004066Y-113211729D01*
X108650772Y-113216740D01*
X108235700Y-113219973D01*
X107775572Y-113221119D01*
X106030534Y-113221119D01*
X106030534Y-112982567D01*
X106026458Y-112881798D01*
X105981252Y-112737742D01*
X105863836Y-112666624D01*
X105646880Y-112644351D01*
X105416539Y-112639440D01*
X105416539Y-112251654D01*
X105416539Y-111863868D01*
X105707379Y-111831552D01*
X105998219Y-111799236D01*
X105998219Y-111379135D01*
X105998219Y-110959033D01*
X105688232Y-110939212D01*
X105378246Y-110919391D01*
X105397392Y-110519110D01*
X105416539Y-110118829D01*
X105660239Y-110114265D01*
X105694759Y-110112982D01*
X105866169Y-110087999D01*
X105970743Y-110042896D01*
X105997467Y-109977254D01*
X106017857Y-109811370D01*
X106017883Y-109595043D01*
X105998219Y-109213995D01*
X105691221Y-109194296D01*
X105384224Y-109174597D01*
X105384224Y-108793893D01*
X105384224Y-108413189D01*
X105691221Y-108393490D01*
X105998219Y-108373791D01*
X105998219Y-107921374D01*
X105998219Y-107468957D01*
X105688105Y-107449130D01*
X105377992Y-107429304D01*
X105394115Y-107121504D01*
X106450636Y-107121504D01*
X106450733Y-107357051D01*
X106452192Y-107739877D01*
X106456861Y-108020737D01*
X106466565Y-108217820D01*
X106483132Y-108349318D01*
X106508387Y-108433422D01*
X106544156Y-108488324D01*
X106592266Y-108532213D01*
X106623268Y-108554218D01*
X106799555Y-108635859D01*
X107009161Y-108690915D01*
X107072443Y-108702444D01*
X107254546Y-108751149D01*
X107368422Y-108804641D01*
X107388464Y-108836965D01*
X107410258Y-108930813D01*
X107426877Y-109093669D01*
X107438862Y-109337581D01*
X107446753Y-109674594D01*
X107451091Y-110116754D01*
X107452417Y-110676107D01*
X107452417Y-112477862D01*
X107775572Y-112477862D01*
X108098727Y-112477862D01*
X108098727Y-110904419D01*
X108098724Y-110829771D01*
X108099272Y-110328596D01*
X108103633Y-109939605D01*
X108115735Y-109647696D01*
X108139507Y-109437770D01*
X108178877Y-109294723D01*
X108237774Y-109203455D01*
X108320126Y-109148865D01*
X108429861Y-109115852D01*
X108570907Y-109089314D01*
X108598774Y-109083725D01*
X108792735Y-109017300D01*
X108935357Y-108926729D01*
X108985778Y-108857211D01*
X109063750Y-108622715D01*
X109108811Y-108263473D01*
X109120946Y-107779661D01*
X109100138Y-107171458D01*
X109094071Y-107064832D01*
X109072720Y-106746150D01*
X109049975Y-106529068D01*
X109021810Y-106391860D01*
X108984197Y-106312802D01*
X108933113Y-106270168D01*
X108920435Y-106263692D01*
X108805053Y-106248646D01*
X108681888Y-106336432D01*
X108632649Y-106394790D01*
X108595995Y-106473251D01*
X108572260Y-106591198D01*
X108558701Y-106771070D01*
X108552577Y-107035309D01*
X108551145Y-107406354D01*
X108550571Y-107643540D01*
X108546142Y-107948313D01*
X108535535Y-108155288D01*
X108516626Y-108284133D01*
X108487293Y-108354516D01*
X108445413Y-108386105D01*
X108382522Y-108407067D01*
X108312589Y-108412464D01*
X108258621Y-108379387D01*
X108218374Y-108294865D01*
X108189603Y-108145929D01*
X108170064Y-107919609D01*
X108157513Y-107602937D01*
X108149704Y-107182942D01*
X108144395Y-106646654D01*
X108142410Y-106406904D01*
X108137769Y-105951952D01*
X108131809Y-105603205D01*
X108123188Y-105344687D01*
X108110565Y-105160422D01*
X108092598Y-105034434D01*
X108067946Y-104950748D01*
X108035267Y-104893387D01*
X107993219Y-104846376D01*
X107968934Y-104823696D01*
X107804342Y-104745379D01*
X107649905Y-104789969D01*
X107526856Y-104952629D01*
X107511634Y-105003431D01*
X107485934Y-105201588D01*
X107467405Y-105524450D01*
X107456187Y-105969089D01*
X107452417Y-106532574D01*
X107452228Y-106826156D01*
X107450477Y-107220530D01*
X107445718Y-107512327D01*
X107436553Y-107718209D01*
X107421582Y-107854838D01*
X107399405Y-107938874D01*
X107368623Y-107986979D01*
X107327837Y-108015815D01*
X107324450Y-108017593D01*
X107150462Y-108049664D01*
X106987724Y-107995248D01*
X106982923Y-107948837D01*
X106974412Y-107792001D01*
X106963698Y-107544581D01*
X106951679Y-107227537D01*
X106939251Y-106861831D01*
X106937325Y-106802635D01*
X106922582Y-106403693D01*
X106907040Y-106113224D01*
X106888413Y-105912787D01*
X106864415Y-105783940D01*
X106832760Y-105708242D01*
X106791162Y-105667253D01*
X106789586Y-105666266D01*
X106678131Y-105635659D01*
X106564953Y-105711164D01*
X106532403Y-105751175D01*
X106501349Y-105821162D01*
X106479208Y-105930550D01*
X106464523Y-106097307D01*
X106455837Y-106339405D01*
X106451693Y-106674814D01*
X106450636Y-107121504D01*
X105394115Y-107121504D01*
X105397266Y-107061344D01*
X105416539Y-106693384D01*
X105707379Y-106661069D01*
X105998219Y-106628753D01*
X106017764Y-106251671D01*
X106019297Y-106219349D01*
X106012590Y-105951742D01*
X105956505Y-105788549D01*
X105838913Y-105711806D01*
X105647684Y-105703547D01*
X105416539Y-105723461D01*
X105416539Y-105335904D01*
X105416539Y-104948346D01*
X105707379Y-104916030D01*
X105998219Y-104883715D01*
X106017754Y-104544402D01*
X106037289Y-104205089D01*
X107775572Y-104205089D01*
X109513855Y-104205089D01*
X109533391Y-104544402D01*
X109552926Y-104883715D01*
X109876081Y-104916030D01*
X110199236Y-104948346D01*
X110203064Y-105319974D01*
X110206891Y-105691603D01*
X109936295Y-105691603D01*
X109892155Y-105692160D01*
X109698676Y-105720958D01*
X109584884Y-105809217D01*
X109535034Y-105978827D01*
X109533380Y-106251671D01*
X109552926Y-106628753D01*
X109876081Y-106661069D01*
X110199236Y-106693384D01*
X110200136Y-107065013D01*
X110201037Y-107436641D01*
X109933368Y-107436641D01*
X109892055Y-107437140D01*
X109698876Y-107465747D01*
X109585084Y-107554008D01*
X109535110Y-107723728D01*
X109534756Y-107779661D01*
X109533380Y-107996710D01*
G37*
%TD*%
M02*
